<?xml version="1.0" encoding="UTF-8" standalone="no"?>
<!DOCTYPE svg PUBLIC "-//W3C//DTD SVG 1.1//EN"
 "http://www.w3.org/Graphics/SVG/1.1/DTD/svg11.dtd">
<!-- Generated by graphviz version 2.43.0 (0)
 -->
<!-- Title: /Users/ma/Codes/toltec/citlali/citlali_dev/common_utils/src/utils/bits.h Pages: 1 -->
<svg width="436pt" height="157pt"
 viewBox="0.00 0.00 436.24 157.00" xmlns="http://www.w3.org/2000/svg" xmlns:xlink="http://www.w3.org/1999/xlink">
<g id="graph0" class="graph" transform="scale(1 1) rotate(0) translate(4 153)">
<title>/Users/ma/Codes/toltec/citlali/citlali_dev/common_utils/src/utils/bits.h</title>
<!-- Node1 -->
<g id="node1" class="node">
<title>Node1</title>
<g id="a_node1"><a xlink:title=" ">
<polygon fill="#bfbfbf" stroke="black" points="273.77,-110.5 273.77,-148.5 402.59,-148.5 402.59,-110.5 273.77,-110.5"/>
<text text-anchor="start" x="281.77" y="-136.5" font-family="Helvetica,sans-Serif" font-size="10.00">/Users/ma/Codes/toltec</text>
<text text-anchor="start" x="281.77" y="-126.5" font-family="Helvetica,sans-Serif" font-size="10.00">/citlali/citlali_dev/common</text>
<text text-anchor="middle" x="338.18" y="-116.5" font-family="Helvetica,sans-Serif" font-size="10.00">_utils/src/utils/bits.h</text>
</a>
</g>
</g>
<!-- Node2 -->
<g id="node2" class="node">
<title>Node2</title>
<g id="a_node2"><a xlink:href="meta_8h.html" target="_top" xlink:title=" ">
<polygon fill="none" stroke="black" points="225.89,-55.5 225.89,-73.5 272.46,-73.5 272.46,-55.5 225.89,-55.5"/>
<text text-anchor="middle" x="249.18" y="-61.5" font-family="Helvetica,sans-Serif" font-size="10.00">meta.h</text>
</a>
</g>
</g>
<!-- Node1&#45;&gt;Node2 -->
<g id="edge1" class="edge">
<title>Node1&#45;&gt;Node2</title>
<path fill="none" stroke="midnightblue" d="M312.43,-110.28C298.72,-100.57 282.09,-88.8 269.33,-79.77"/>
<polygon fill="midnightblue" stroke="midnightblue" points="271,-76.66 260.82,-73.74 266.96,-82.37 271,-76.66"/>
</g>
<!-- Node7 -->
<g id="node7" class="node">
<title>Node7</title>
<g id="a_node7"><a xlink:title=" ">
<polygon fill="none" stroke="#bfbfbf" points="357.33,-0.5 357.33,-18.5 395.02,-18.5 395.02,-0.5 357.33,-0.5"/>
<text text-anchor="middle" x="376.18" y="-6.5" font-family="Helvetica,sans-Serif" font-size="10.00">tuple</text>
</a>
</g>
</g>
<!-- Node1&#45;&gt;Node7 -->
<g id="edge8" class="edge">
<title>Node1&#45;&gt;Node7</title>
<path fill="none" stroke="midnightblue" d="M342.04,-110.46C345.45,-95.44 350.85,-73.59 357.18,-55 360.3,-45.83 364.46,-35.89 368.1,-27.74"/>
<polygon fill="midnightblue" stroke="midnightblue" points="371.32,-29.11 372.3,-18.56 364.96,-26.19 371.32,-29.11"/>
</g>
<!-- Node9 -->
<g id="node9" class="node">
<title>Node9</title>
<g id="a_node9"><a xlink:title=" ">
<polygon fill="none" stroke="#bfbfbf" points="366.11,-55.5 366.11,-73.5 428.24,-73.5 428.24,-55.5 366.11,-55.5"/>
<text text-anchor="middle" x="397.18" y="-61.5" font-family="Helvetica,sans-Serif" font-size="10.00">type_traits</text>
</a>
</g>
</g>
<!-- Node1&#45;&gt;Node9 -->
<g id="edge9" class="edge">
<title>Node1&#45;&gt;Node9</title>
<path fill="none" stroke="midnightblue" d="M355.24,-110.28C363.89,-101.04 374.29,-89.94 382.57,-81.1"/>
<polygon fill="midnightblue" stroke="midnightblue" points="385.18,-83.43 389.46,-73.74 380.07,-78.64 385.18,-83.43"/>
</g>
<!-- Node3 -->
<g id="node3" class="node">
<title>Node3</title>
<g id="a_node3"><a xlink:title=" ">
<polygon fill="none" stroke="#bfbfbf" points="0,-0.5 0,-18.5 74.35,-18.5 74.35,-0.5 0,-0.5"/>
<text text-anchor="middle" x="37.18" y="-6.5" font-family="Helvetica,sans-Serif" font-size="10.00">macro/map.h</text>
</a>
</g>
</g>
<!-- Node2&#45;&gt;Node3 -->
<g id="edge2" class="edge">
<title>Node2&#45;&gt;Node3</title>
<path fill="none" stroke="midnightblue" d="M225.68,-57.63C190.37,-48.8 123.11,-31.98 79.22,-21.01"/>
<polygon fill="midnightblue" stroke="midnightblue" points="79.96,-17.59 69.41,-18.56 78.27,-24.38 79.96,-17.59"/>
</g>
<!-- Node4 -->
<g id="node4" class="node">
<title>Node4</title>
<g id="a_node4"><a xlink:title=" ">
<polygon fill="none" stroke="#bfbfbf" points="92.06,-0.5 92.06,-18.5 140.29,-18.5 140.29,-0.5 92.06,-0.5"/>
<text text-anchor="middle" x="116.18" y="-6.5" font-family="Helvetica,sans-Serif" font-size="10.00">cassert</text>
</a>
</g>
</g>
<!-- Node2&#45;&gt;Node4 -->
<g id="edge3" class="edge">
<title>Node2&#45;&gt;Node4</title>
<path fill="none" stroke="midnightblue" d="M228.98,-55.45C206.91,-46.66 171.34,-32.48 146.04,-22.4"/>
<polygon fill="midnightblue" stroke="midnightblue" points="147.15,-19.08 136.57,-18.63 144.56,-25.58 147.15,-19.08"/>
</g>
<!-- Node5 -->
<g id="node5" class="node">
<title>Node5</title>
<g id="a_node5"><a xlink:title=" ">
<polygon fill="none" stroke="#bfbfbf" points="158.62,-0.5 158.62,-18.5 205.74,-18.5 205.74,-0.5 158.62,-0.5"/>
<text text-anchor="middle" x="182.18" y="-6.5" font-family="Helvetica,sans-Serif" font-size="10.00">iterator</text>
</a>
</g>
</g>
<!-- Node2&#45;&gt;Node5 -->
<g id="edge4" class="edge">
<title>Node2&#45;&gt;Node5</title>
<path fill="none" stroke="midnightblue" d="M239,-55.45C228.77,-47.36 212.77,-34.7 200.36,-24.88"/>
<polygon fill="midnightblue" stroke="midnightblue" points="202.46,-22.08 192.45,-18.63 198.12,-27.57 202.46,-22.08"/>
</g>
<!-- Node6 -->
<g id="node6" class="node">
<title>Node6</title>
<g id="a_node6"><a xlink:title=" ">
<polygon fill="none" stroke="#bfbfbf" points="223.66,-0.5 223.66,-18.5 274.69,-18.5 274.69,-0.5 223.66,-0.5"/>
<text text-anchor="middle" x="249.18" y="-6.5" font-family="Helvetica,sans-Serif" font-size="10.00">optional</text>
</a>
</g>
</g>
<!-- Node2&#45;&gt;Node6 -->
<g id="edge5" class="edge">
<title>Node2&#45;&gt;Node6</title>
<path fill="none" stroke="midnightblue" d="M249.18,-55.22C249.18,-48.18 249.18,-37.81 249.18,-28.83"/>
<polygon fill="midnightblue" stroke="midnightblue" points="252.68,-28.55 249.18,-18.55 245.68,-28.55 252.68,-28.55"/>
</g>
<!-- Node2&#45;&gt;Node7 -->
<g id="edge6" class="edge">
<title>Node2&#45;&gt;Node7</title>
<path fill="none" stroke="midnightblue" d="M268.47,-55.45C289.57,-46.64 323.6,-32.44 347.76,-22.36"/>
<polygon fill="midnightblue" stroke="midnightblue" points="349.24,-25.53 357.12,-18.45 346.55,-19.07 349.24,-25.53"/>
</g>
<!-- Node8 -->
<g id="node8" class="node">
<title>Node8</title>
<g id="a_node8"><a xlink:title=" ">
<polygon fill="none" stroke="#bfbfbf" points="293.17,-0.5 293.17,-18.5 339.18,-18.5 339.18,-0.5 293.17,-0.5"/>
<text text-anchor="middle" x="316.18" y="-6.5" font-family="Helvetica,sans-Serif" font-size="10.00">variant</text>
</a>
</g>
</g>
<!-- Node2&#45;&gt;Node8 -->
<g id="edge7" class="edge">
<title>Node2&#45;&gt;Node8</title>
<path fill="none" stroke="midnightblue" d="M259.35,-55.45C269.58,-47.36 285.58,-34.7 298,-24.88"/>
<polygon fill="midnightblue" stroke="midnightblue" points="300.23,-27.57 305.91,-18.63 295.89,-22.08 300.23,-27.57"/>
</g>
</g>
</svg>
