<?xml version="1.0" encoding="UTF-8" standalone="no"?>
<!DOCTYPE svg PUBLIC "-//W3C//DTD SVG 1.1//EN"
 "http://www.w3.org/Graphics/SVG/1.1/DTD/svg11.dtd">
<!-- Generated by graphviz version 2.43.0 (0)
 -->
<!-- Title: logging::progressbar&lt; Func &gt; Pages: 1 -->
<svg width="465pt" height="254pt"
 viewBox="0.00 0.00 465.25 254.00" xmlns="http://www.w3.org/2000/svg" xmlns:xlink="http://www.w3.org/1999/xlink">
<g id="graph0" class="graph" transform="scale(1 1) rotate(0) translate(4 250)">
<title>logging::progressbar&lt; Func &gt;</title>
<!-- Node1 -->
<g id="node1" class="node">
<title>Node1</title>
<g id="a_node1"><a xlink:title=" ">
<polygon fill="#bfbfbf" stroke="black" points="146.53,-0.5 146.53,-144.5 253.7,-144.5 253.7,-0.5 146.53,-0.5"/>
<text text-anchor="start" x="154.53" y="-132.5" font-family="Helvetica,sans-Serif" font-size="10.00">logging::progressbar</text>
<text text-anchor="middle" x="200.12" y="-122.5" font-family="Helvetica,sans-Serif" font-size="10.00">&lt; Func &gt;</text>
<polyline fill="none" stroke="black" points="146.53,-116.5 253.7,-116.5 "/>
<text text-anchor="middle" x="200.12" y="-104.5" font-family="Helvetica,sans-Serif" font-size="10.00"> </text>
<polyline fill="none" stroke="black" points="146.53,-98.5 253.7,-98.5 "/>
<text text-anchor="start" x="154.53" y="-86.5" font-family="Helvetica,sans-Serif" font-size="10.00">+ progressbar()</text>
<text text-anchor="start" x="154.53" y="-76.5" font-family="Helvetica,sans-Serif" font-size="10.00">+ progressbar()</text>
<text text-anchor="start" x="154.53" y="-66.5" font-family="Helvetica,sans-Serif" font-size="10.00">+ operator=()</text>
<text text-anchor="start" x="154.53" y="-56.5" font-family="Helvetica,sans-Serif" font-size="10.00">+ progressbar()</text>
<text text-anchor="start" x="154.53" y="-46.5" font-family="Helvetica,sans-Serif" font-size="10.00">+ operator=()</text>
<text text-anchor="start" x="154.53" y="-36.5" font-family="Helvetica,sans-Serif" font-size="10.00">+ ~progressbar()</text>
<text text-anchor="start" x="154.53" y="-26.5" font-family="Helvetica,sans-Serif" font-size="10.00">+ write()</text>
<text text-anchor="start" x="154.53" y="-16.5" font-family="Helvetica,sans-Serif" font-size="10.00">+ count()</text>
<text text-anchor="start" x="154.53" y="-6.5" font-family="Helvetica,sans-Serif" font-size="10.00">&#45; barstr()</text>
</a>
</g>
</g>
<!-- Node2 -->
<g id="node2" class="node">
<title>Node2</title>
<g id="a_node2"><a xlink:title=" ">
<polygon fill="none" stroke="#bfbfbf" points="0,-191.5 0,-245.5 38.23,-245.5 38.23,-191.5 0,-191.5"/>
<text text-anchor="middle" x="19.12" y="-233.5" font-family="Helvetica,sans-Serif" font-size="10.00">Func</text>
<polyline fill="none" stroke="#bfbfbf" points="0,-227.5 38.23,-227.5 "/>
<text text-anchor="middle" x="19.12" y="-215.5" font-family="Helvetica,sans-Serif" font-size="10.00"> </text>
<polyline fill="none" stroke="#bfbfbf" points="0,-209.5 38.23,-209.5 "/>
<text text-anchor="middle" x="19.12" y="-197.5" font-family="Helvetica,sans-Serif" font-size="10.00"> </text>
</a>
</g>
</g>
<!-- Node2&#45;&gt;Node1 -->
<g id="edge1" class="edge">
<title>Node2&#45;&gt;Node1</title>
<path fill="none" stroke="#404040" d="M38.46,-198.7C41.32,-196.07 44.26,-193.43 47.12,-191 75.72,-166.59 108.66,-141 136.63,-119.95"/>
<polygon fill="none" stroke="#404040" points="136.7,-119.9 139.1,-113.1 146.3,-112.7 143.9,-119.5 136.7,-119.9"/>
<text text-anchor="middle" x="92.62" y="-165" font-family="Helvetica,sans-Serif" font-size="10.00"> &#45;func</text>
</g>
<!-- Node3 -->
<g id="node3" class="node">
<title>Node3</title>
<g id="a_node3"><a xlink:title=" ">
<polygon fill="none" stroke="#bfbfbf" points="56.05,-191.5 56.05,-245.5 98.18,-245.5 98.18,-191.5 56.05,-191.5"/>
<text text-anchor="middle" x="77.12" y="-233.5" font-family="Helvetica,sans-Serif" font-size="10.00">size_t</text>
<polyline fill="none" stroke="#bfbfbf" points="56.05,-227.5 98.18,-227.5 "/>
<text text-anchor="middle" x="77.12" y="-215.5" font-family="Helvetica,sans-Serif" font-size="10.00"> </text>
<polyline fill="none" stroke="#bfbfbf" points="56.05,-209.5 98.18,-209.5 "/>
<text text-anchor="middle" x="77.12" y="-197.5" font-family="Helvetica,sans-Serif" font-size="10.00"> </text>
</a>
</g>
</g>
<!-- Node3&#45;&gt;Node1 -->
<g id="edge2" class="edge">
<title>Node3&#45;&gt;Node1</title>
<path fill="none" stroke="#404040" d="M98.26,-192.75C109.5,-179.58 123.97,-162.65 138.45,-145.7"/>
<polygon fill="none" stroke="#404040" points="138.68,-145.43 139.53,-138.27 146.47,-136.31 145.61,-143.47 138.68,-145.43"/>
<text text-anchor="middle" x="134.84" y="-165" font-family="Helvetica,sans-Serif" font-size="10.00"> &#45;width</text>
</g>
<!-- Node4 -->
<g id="node4" class="node">
<title>Node4</title>
<g id="a_node4"><a xlink:title=" ">
<polygon fill="none" stroke="#bfbfbf" points="115.76,-191.5 115.76,-245.5 188.47,-245.5 188.47,-191.5 115.76,-191.5"/>
<text text-anchor="middle" x="152.12" y="-233.5" font-family="Helvetica,sans-Serif" font-size="10.00">const double</text>
<polyline fill="none" stroke="#bfbfbf" points="115.76,-227.5 188.47,-227.5 "/>
<text text-anchor="middle" x="152.12" y="-215.5" font-family="Helvetica,sans-Serif" font-size="10.00"> </text>
<polyline fill="none" stroke="#bfbfbf" points="115.76,-209.5 188.47,-209.5 "/>
<text text-anchor="middle" x="152.12" y="-197.5" font-family="Helvetica,sans-Serif" font-size="10.00"> </text>
</a>
</g>
</g>
<!-- Node4&#45;&gt;Node1 -->
<g id="edge3" class="edge">
<title>Node4&#45;&gt;Node1</title>
<path fill="none" stroke="#404040" d="M157.94,-191.26C160.13,-182.23 162.79,-172.11 165.66,-163 166.38,-160.74 167.12,-158.45 167.88,-156.15"/>
<polygon fill="none" stroke="#404040" points="167.97,-155.9 166.13,-148.92 171.86,-144.54 173.69,-151.52 167.97,-155.9"/>
<text text-anchor="middle" x="179.84" y="-165" font-family="Helvetica,sans-Serif" font-size="10.00"> &#45;scale</text>
</g>
<!-- Node5 -->
<g id="node5" class="node">
<title>Node5</title>
<g id="a_node5"><a xlink:title=" ">
<polygon fill="none" stroke="#bfbfbf" points="214.89,-191.5 214.89,-245.5 255.34,-245.5 255.34,-191.5 214.89,-191.5"/>
<text text-anchor="middle" x="235.12" y="-233.5" font-family="Helvetica,sans-Serif" font-size="10.00">string</text>
<polyline fill="none" stroke="#bfbfbf" points="214.89,-227.5 255.34,-227.5 "/>
<text text-anchor="middle" x="235.12" y="-215.5" font-family="Helvetica,sans-Serif" font-size="10.00"> </text>
<polyline fill="none" stroke="#bfbfbf" points="214.89,-209.5 255.34,-209.5 "/>
<text text-anchor="middle" x="235.12" y="-197.5" font-family="Helvetica,sans-Serif" font-size="10.00"> </text>
</a>
</g>
</g>
<!-- Node5&#45;&gt;Node1 -->
<g id="edge4" class="edge">
<title>Node5&#45;&gt;Node1</title>
<path fill="none" stroke="#404040" d="M214.56,-196.04C209.27,-189.2 204.26,-181.25 201.43,-173 199.65,-167.8 198.29,-162.36 197.27,-156.82"/>
<polygon fill="none" stroke="#404040" points="197.22,-156.46 192.43,-151.07 195.57,-144.57 200.36,-149.97 197.22,-156.46"/>
<text text-anchor="middle" x="224.46" y="-165" font-family="Helvetica,sans-Serif" font-size="10.00"> &#45;message</text>
</g>
<!-- Node5&#45;&gt;Node1 -->
<g id="edge7" class="edge">
<title>Node5&#45;&gt;Node1</title>
<path fill="none" stroke="#404040" d="M246.51,-191.41C249.08,-182.4 250.44,-172.25 248.12,-163 247.54,-160.69 246.88,-158.38 246.17,-156.07"/>
<polygon fill="none" stroke="#404040" points="246.1,-155.87 240.33,-151.54 242.11,-144.55 247.88,-148.88 246.1,-155.87"/>
<text text-anchor="middle" x="259.4" y="-165" font-family="Helvetica,sans-Serif" font-size="10.00"> &#45;bar</text>
</g>
<!-- Node6 -->
<g id="node6" class="node">
<title>Node6</title>
<g id="a_node6"><a xlink:title=" ">
<polygon fill="none" stroke="#bfbfbf" points="277.49,-191.5 277.49,-245.5 350.74,-245.5 350.74,-191.5 277.49,-191.5"/>
<text text-anchor="middle" x="314.12" y="-233.5" font-family="Helvetica,sans-Serif" font-size="10.00">atomic&lt; int &gt;</text>
<polyline fill="none" stroke="#bfbfbf" points="277.49,-227.5 350.74,-227.5 "/>
<text text-anchor="middle" x="314.12" y="-215.5" font-family="Helvetica,sans-Serif" font-size="10.00"> </text>
<polyline fill="none" stroke="#bfbfbf" points="277.49,-209.5 350.74,-209.5 "/>
<text text-anchor="middle" x="314.12" y="-197.5" font-family="Helvetica,sans-Serif" font-size="10.00"> </text>
</a>
</g>
</g>
<!-- Node6&#45;&gt;Node1 -->
<g id="edge5" class="edge">
<title>Node6&#45;&gt;Node1</title>
<path fill="none" stroke="#404040" d="M295.49,-191.49C288.86,-182.39 281.26,-172.16 274.12,-163 270.09,-157.83 265.89,-152.53 261.63,-147.22"/>
<polygon fill="none" stroke="#404040" points="261.46,-147.01 254.58,-144.85 253.92,-137.67 260.8,-139.82 261.46,-147.01"/>
<text text-anchor="middle" x="299.85" y="-165" font-family="Helvetica,sans-Serif" font-size="10.00"> &#45;counter</text>
</g>
<!-- Node7 -->
<g id="node7" class="node">
<title>Node7</title>
<g id="a_node7"><a xlink:title=" ">
<polygon fill="none" stroke="#bfbfbf" points="368.99,-191.5 368.99,-245.5 457.25,-245.5 457.25,-191.5 368.99,-191.5"/>
<text text-anchor="middle" x="413.12" y="-233.5" font-family="Helvetica,sans-Serif" font-size="10.00">static const auto</text>
<polyline fill="none" stroke="#bfbfbf" points="368.99,-227.5 457.25,-227.5 "/>
<text text-anchor="middle" x="413.12" y="-215.5" font-family="Helvetica,sans-Serif" font-size="10.00"> </text>
<polyline fill="none" stroke="#bfbfbf" points="368.99,-209.5 457.25,-209.5 "/>
<text text-anchor="middle" x="413.12" y="-197.5" font-family="Helvetica,sans-Serif" font-size="10.00"> </text>
</a>
</g>
</g>
<!-- Node7&#45;&gt;Node1 -->
<g id="edge6" class="edge">
<title>Node7&#45;&gt;Node1</title>
<path fill="none" stroke="#404040" d="M374.54,-191.42C343.88,-170.69 300.33,-141.25 264.42,-116.97"/>
<polygon fill="none" stroke="#404040" points="263.96,-116.67 256.75,-116.62 254.02,-109.94 261.23,-109.99 263.96,-116.67"/>
<text text-anchor="middle" x="368.02" y="-165" font-family="Helvetica,sans-Serif" font-size="10.00"> &#45;overhead</text>
</g>
</g>
</svg>
