<?xml version="1.0" encoding="UTF-8" standalone="no"?>
<!DOCTYPE svg PUBLIC "-//W3C//DTD SVG 1.1//EN"
 "http://www.w3.org/Graphics/SVG/1.1/DTD/svg11.dtd">
<!-- Generated by graphviz version 2.43.0 (0)
 -->
<!-- Title: /Users/ma/Codes/toltec/citlali/citlali_dev/common_utils/src/utils/config.h Pages: 1 -->
<svg width="1965pt" height="242pt"
 viewBox="0.00 0.00 1964.63 242.00" xmlns="http://www.w3.org/2000/svg" xmlns:xlink="http://www.w3.org/1999/xlink">
<g id="graph0" class="graph" transform="scale(1 1) rotate(0) translate(4 238)">
<title>/Users/ma/Codes/toltec/citlali/citlali_dev/common_utils/src/utils/config.h</title>
<!-- Node1 -->
<g id="node1" class="node">
<title>Node1</title>
<g id="a_node1"><a xlink:title=" ">
<polygon fill="#bfbfbf" stroke="black" points="1052.71,-195.5 1052.71,-233.5 1181.52,-233.5 1181.52,-195.5 1052.71,-195.5"/>
<text text-anchor="start" x="1060.71" y="-221.5" font-family="Helvetica,sans-Serif" font-size="10.00">/Users/ma/Codes/toltec</text>
<text text-anchor="start" x="1060.71" y="-211.5" font-family="Helvetica,sans-Serif" font-size="10.00">/citlali/citlali_dev/common</text>
<text text-anchor="middle" x="1117.12" y="-201.5" font-family="Helvetica,sans-Serif" font-size="10.00">_utils/src/utils/config.h</text>
</a>
</g>
</g>
<!-- Node2 -->
<g id="node2" class="node">
<title>Node2</title>
<g id="a_node2"><a xlink:title=" ">
<polygon fill="none" stroke="#bfbfbf" points="108.26,-60.5 108.26,-78.5 215.98,-78.5 215.98,-60.5 108.26,-60.5"/>
<text text-anchor="middle" x="162.12" y="-66.5" font-family="Helvetica,sans-Serif" font-size="10.00">formatter/container.h</text>
</a>
</g>
</g>
<!-- Node1&#45;&gt;Node2 -->
<g id="edge1" class="edge">
<title>Node1&#45;&gt;Node2</title>
<path fill="none" stroke="midnightblue" d="M1052.36,-213.71C928.87,-212.95 651.7,-205.64 424.12,-159 336.3,-141 237.2,-102.18 190,-82.48"/>
<polygon fill="midnightblue" stroke="midnightblue" points="191.31,-79.24 180.74,-78.58 188.6,-85.69 191.31,-79.24"/>
</g>
<!-- Node3 -->
<g id="node3" class="node">
<title>Node3</title>
<g id="a_node3"><a xlink:title=" ">
<polygon fill="none" stroke="#bfbfbf" points="646.26,-120.5 646.26,-158.5 793.97,-158.5 793.97,-120.5 646.26,-120.5"/>
<text text-anchor="start" x="654.26" y="-146.5" font-family="Helvetica,sans-Serif" font-size="10.00">/Users/ma/Codes/toltec</text>
<text text-anchor="start" x="654.26" y="-136.5" font-family="Helvetica,sans-Serif" font-size="10.00">/citlali/citlali_dev/common</text>
<text text-anchor="middle" x="720.12" y="-126.5" font-family="Helvetica,sans-Serif" font-size="10.00">_utils/src/utils/formatter/utils.h</text>
</a>
</g>
</g>
<!-- Node1&#45;&gt;Node3 -->
<g id="edge2" class="edge">
<title>Node1&#45;&gt;Node3</title>
<path fill="none" stroke="midnightblue" d="M1052.6,-203.22C991.25,-193.24 896.12,-177.22 804.31,-159.19"/>
<polygon fill="midnightblue" stroke="midnightblue" points="804.78,-155.72 794.29,-157.22 803.42,-162.59 804.78,-155.72"/>
</g>
<!-- Node4 -->
<g id="node4" class="node">
<title>Node4</title>
<g id="a_node4"><a xlink:title=" ">
<polygon fill="none" stroke="#bfbfbf" points="811.89,-130.5 811.89,-148.5 852.34,-148.5 852.34,-130.5 811.89,-130.5"/>
<text text-anchor="middle" x="832.12" y="-136.5" font-family="Helvetica,sans-Serif" font-size="10.00">string</text>
</a>
</g>
</g>
<!-- Node1&#45;&gt;Node4 -->
<g id="edge3" class="edge">
<title>Node1&#45;&gt;Node4</title>
<path fill="none" stroke="midnightblue" d="M1052.64,-206.27C999.7,-198.82 923.56,-184.58 861.12,-159 857.75,-157.62 854.35,-155.85 851.12,-153.96"/>
<polygon fill="midnightblue" stroke="midnightblue" points="852.93,-150.97 842.63,-148.5 849.15,-156.85 852.93,-150.97"/>
</g>
<!-- Node5 -->
<g id="node5" class="node">
<title>Node5</title>
<g id="a_node5"><a xlink:title=" ">
<polygon fill="none" stroke="#bfbfbf" points="870.05,-130.5 870.05,-148.5 932.18,-148.5 932.18,-130.5 870.05,-130.5"/>
<text text-anchor="middle" x="901.12" y="-136.5" font-family="Helvetica,sans-Serif" font-size="10.00">type_traits</text>
</a>
</g>
</g>
<!-- Node1&#45;&gt;Node5 -->
<g id="edge4" class="edge">
<title>Node1&#45;&gt;Node5</title>
<path fill="none" stroke="midnightblue" d="M1052.46,-195.72C1018.88,-185.92 977.4,-172.94 941.12,-159 936.37,-157.18 931.38,-155.05 926.61,-152.9"/>
<polygon fill="midnightblue" stroke="midnightblue" points="927.8,-149.6 917.25,-148.56 924.85,-155.94 927.8,-149.6"/>
</g>
<!-- Node6 -->
<g id="node6" class="node">
<title>Node6</title>
<g id="a_node6"><a xlink:title=" ">
<polygon fill="none" stroke="#bfbfbf" points="950.55,-130.5 950.55,-148.5 1007.68,-148.5 1007.68,-130.5 950.55,-130.5"/>
<text text-anchor="middle" x="979.12" y="-136.5" font-family="Helvetica,sans-Serif" font-size="10.00">algorithm</text>
</a>
</g>
</g>
<!-- Node1&#45;&gt;Node6 -->
<g id="edge5" class="edge">
<title>Node1&#45;&gt;Node6</title>
<path fill="none" stroke="midnightblue" d="M1083,-195.46C1058.25,-182.36 1025.37,-164.97 1003.29,-153.29"/>
<polygon fill="midnightblue" stroke="midnightblue" points="1004.73,-150.09 994.26,-148.51 1001.46,-156.28 1004.73,-150.09"/>
</g>
<!-- Node7 -->
<g id="node7" class="node">
<title>Node7</title>
<g id="a_node7"><a xlink:title=" ">
<polygon fill="none" stroke="#bfbfbf" points="0,-0.5 0,-18.5 48.23,-18.5 48.23,-0.5 0,-0.5"/>
<text text-anchor="middle" x="24.12" y="-6.5" font-family="Helvetica,sans-Serif" font-size="10.00">cassert</text>
</a>
</g>
</g>
<!-- Node1&#45;&gt;Node7 -->
<g id="edge6" class="edge">
<title>Node1&#45;&gt;Node7</title>
<path fill="none" stroke="midnightblue" d="M1052.61,-213.94C839.82,-214.87 169.17,-213.41 90.12,-159 46.03,-128.66 31.04,-61.74 26.23,-29.11"/>
<polygon fill="midnightblue" stroke="midnightblue" points="29.65,-28.24 24.89,-18.78 22.71,-29.15 29.65,-28.24"/>
</g>
<!-- Node8 -->
<g id="node8" class="node">
<title>Node8</title>
<g id="a_node8"><a xlink:title=" ">
<polygon fill="none" stroke="#bfbfbf" points="1025.72,-130.5 1025.72,-148.5 1064.51,-148.5 1064.51,-130.5 1025.72,-130.5"/>
<text text-anchor="middle" x="1045.12" y="-136.5" font-family="Helvetica,sans-Serif" font-size="10.00">array</text>
</a>
</g>
</g>
<!-- Node1&#45;&gt;Node8 -->
<g id="edge7" class="edge">
<title>Node1&#45;&gt;Node8</title>
<path fill="none" stroke="midnightblue" d="M1099.32,-195.46C1087.27,-183.24 1071.54,-167.29 1060.13,-155.72"/>
<polygon fill="midnightblue" stroke="midnightblue" points="1062.53,-153.17 1053.02,-148.51 1057.55,-158.09 1062.53,-153.17"/>
</g>
<!-- Node9 -->
<g id="node9" class="node">
<title>Node9</title>
<g id="a_node9"><a xlink:title=" ">
<polygon fill="none" stroke="#bfbfbf" points="1082.44,-130.5 1082.44,-148.5 1151.79,-148.5 1151.79,-130.5 1082.44,-130.5"/>
<text text-anchor="middle" x="1117.12" y="-136.5" font-family="Helvetica,sans-Serif" font-size="10.00">fmt/format.h</text>
</a>
</g>
</g>
<!-- Node1&#45;&gt;Node9 -->
<g id="edge8" class="edge">
<title>Node1&#45;&gt;Node9</title>
<path fill="none" stroke="midnightblue" d="M1117.12,-195.46C1117.12,-184.3 1117.12,-170.02 1117.12,-158.82"/>
<polygon fill="midnightblue" stroke="midnightblue" points="1120.62,-158.51 1117.12,-148.51 1113.62,-158.51 1120.62,-158.51"/>
</g>
<!-- Node10 -->
<g id="node10" class="node">
<title>Node10</title>
<g id="a_node10"><a xlink:title=" ">
<polygon fill="none" stroke="#bfbfbf" points="76.6,-0.5 76.6,-18.5 127.63,-18.5 127.63,-0.5 76.6,-0.5"/>
<text text-anchor="middle" x="102.12" y="-6.5" font-family="Helvetica,sans-Serif" font-size="10.00">optional</text>
</a>
</g>
</g>
<!-- Node1&#45;&gt;Node10 -->
<g id="edge9" class="edge">
<title>Node1&#45;&gt;Node10</title>
<path fill="none" stroke="midnightblue" d="M1052.66,-213.61C845.6,-213.44 206.38,-208.87 129.12,-159 87.64,-132.23 83.63,-103.94 90.12,-55 91.3,-46.06 93.77,-36.36 96.16,-28.31"/>
<polygon fill="midnightblue" stroke="midnightblue" points="99.56,-29.16 99.25,-18.57 92.89,-27.05 99.56,-29.16"/>
</g>
<!-- Node11 -->
<g id="node11" class="node">
<title>Node11</title>
<g id="a_node11"><a xlink:title=" ">
<polygon fill="none" stroke="#bfbfbf" points="151.11,-0.5 151.11,-18.5 197.12,-18.5 197.12,-0.5 151.11,-0.5"/>
<text text-anchor="middle" x="174.12" y="-6.5" font-family="Helvetica,sans-Serif" font-size="10.00">variant</text>
</a>
</g>
</g>
<!-- Node1&#45;&gt;Node11 -->
<g id="edge10" class="edge">
<title>Node1&#45;&gt;Node11</title>
<path fill="none" stroke="midnightblue" d="M1052.58,-211.81C884.29,-207 435.1,-191.42 290.12,-159 201.11,-139.1 150.48,-159.36 99.12,-84 91.86,-73.35 92.74,-66.2 99.12,-55 108.24,-38.98 125.64,-28.14 141.39,-21.17"/>
<polygon fill="midnightblue" stroke="midnightblue" points="142.94,-24.31 150.89,-17.31 140.31,-17.83 142.94,-24.31"/>
</g>
<!-- Node12 -->
<g id="node12" class="node">
<title>Node12</title>
<g id="a_node12"><a xlink:title=" ">
<polygon fill="none" stroke="#bfbfbf" points="1170.21,-130.5 1170.21,-148.5 1214.02,-148.5 1214.02,-130.5 1170.21,-130.5"/>
<text text-anchor="middle" x="1192.12" y="-136.5" font-family="Helvetica,sans-Serif" font-size="10.00">deque</text>
</a>
</g>
</g>
<!-- Node1&#45;&gt;Node12 -->
<g id="edge11" class="edge">
<title>Node1&#45;&gt;Node12</title>
<path fill="none" stroke="midnightblue" d="M1135.66,-195.46C1148.2,-183.24 1164.59,-167.29 1176.48,-155.72"/>
<polygon fill="midnightblue" stroke="midnightblue" points="1179.16,-157.99 1183.89,-148.51 1174.28,-152.98 1179.16,-157.99"/>
</g>
<!-- Node13 -->
<g id="node13" class="node">
<title>Node13</title>
<g id="a_node13"><a xlink:title=" ">
<polygon fill="none" stroke="#bfbfbf" points="1231.55,-130.5 1231.55,-148.5 1298.68,-148.5 1298.68,-130.5 1231.55,-130.5"/>
<text text-anchor="middle" x="1265.12" y="-136.5" font-family="Helvetica,sans-Serif" font-size="10.00">forward_list</text>
</a>
</g>
</g>
<!-- Node1&#45;&gt;Node13 -->
<g id="edge12" class="edge">
<title>Node1&#45;&gt;Node13</title>
<path fill="none" stroke="midnightblue" d="M1153.7,-195.46C1180.48,-182.24 1216.14,-164.66 1239.82,-152.98"/>
<polygon fill="midnightblue" stroke="midnightblue" points="1241.46,-156.07 1248.88,-148.51 1238.36,-149.79 1241.46,-156.07"/>
</g>
<!-- Node14 -->
<g id="node14" class="node">
<title>Node14</title>
<g id="a_node14"><a xlink:title=" ">
<polygon fill="none" stroke="#bfbfbf" points="1316.62,-130.5 1316.62,-148.5 1345.62,-148.5 1345.62,-130.5 1316.62,-130.5"/>
<text text-anchor="middle" x="1330.73" y="-136.5" font-family="Helvetica,sans-Serif" font-size="10.00">list</text>
</a>
</g>
</g>
<!-- Node1&#45;&gt;Node14 -->
<g id="edge13" class="edge">
<title>Node1&#45;&gt;Node14</title>
<path fill="none" stroke="midnightblue" d="M1181.89,-201.77C1220.05,-193.23 1268.46,-179.53 1308.12,-159 1310.26,-157.89 1312.39,-156.56 1314.45,-155.13"/>
<polygon fill="midnightblue" stroke="midnightblue" points="1317.06,-157.54 1322.74,-148.6 1312.72,-152.04 1317.06,-157.54"/>
</g>
<!-- Node15 -->
<g id="node15" class="node">
<title>Node15</title>
<g id="a_node15"><a xlink:title=" ">
<polygon fill="none" stroke="#bfbfbf" points="1363.39,-130.5 1363.39,-148.5 1398.84,-148.5 1398.84,-130.5 1363.39,-130.5"/>
<text text-anchor="middle" x="1381.12" y="-136.5" font-family="Helvetica,sans-Serif" font-size="10.00">map</text>
</a>
</g>
</g>
<!-- Node1&#45;&gt;Node15 -->
<g id="edge14" class="edge">
<title>Node1&#45;&gt;Node15</title>
<path fill="none" stroke="midnightblue" d="M1181.68,-205.72C1230.84,-198.16 1299.33,-184.03 1355.12,-159 1357.86,-157.77 1360.62,-156.22 1363.25,-154.56"/>
<polygon fill="midnightblue" stroke="midnightblue" points="1365.41,-157.32 1371.55,-148.69 1361.37,-151.6 1365.41,-157.32"/>
</g>
<!-- Node16 -->
<g id="node16" class="node">
<title>Node16</title>
<g id="a_node16"><a xlink:title=" ">
<polygon fill="none" stroke="#bfbfbf" points="1417.21,-130.5 1417.21,-148.5 1461.02,-148.5 1461.02,-130.5 1417.21,-130.5"/>
<text text-anchor="middle" x="1439.12" y="-136.5" font-family="Helvetica,sans-Serif" font-size="10.00">queue</text>
</a>
</g>
</g>
<!-- Node1&#45;&gt;Node16 -->
<g id="edge15" class="edge">
<title>Node1&#45;&gt;Node16</title>
<path fill="none" stroke="midnightblue" d="M1181.59,-208C1241.76,-201.35 1333.24,-187.32 1408.12,-159 1411.79,-157.61 1415.52,-155.79 1419.07,-153.84"/>
<polygon fill="midnightblue" stroke="midnightblue" points="1421.08,-156.71 1427.83,-148.55 1417.46,-150.72 1421.08,-156.71"/>
</g>
<!-- Node17 -->
<g id="node17" class="node">
<title>Node17</title>
<g id="a_node17"><a xlink:title=" ">
<polygon fill="none" stroke="#bfbfbf" points="1479.45,-130.5 1479.45,-148.5 1508.79,-148.5 1508.79,-130.5 1479.45,-130.5"/>
<text text-anchor="middle" x="1494.12" y="-136.5" font-family="Helvetica,sans-Serif" font-size="10.00">set</text>
</a>
</g>
</g>
<!-- Node1&#45;&gt;Node17 -->
<g id="edge16" class="edge">
<title>Node1&#45;&gt;Node17</title>
<path fill="none" stroke="midnightblue" d="M1181.59,-213.09C1254.44,-210.5 1375.22,-199.68 1470.12,-159 1472.74,-157.87 1475.34,-156.39 1477.8,-154.75"/>
<polygon fill="midnightblue" stroke="midnightblue" points="1480.12,-157.38 1485.91,-148.51 1475.85,-151.84 1480.12,-157.38"/>
</g>
<!-- Node18 -->
<g id="node18" class="node">
<title>Node18</title>
<g id="a_node18"><a xlink:title=" ">
<polygon fill="none" stroke="#bfbfbf" points="1526.45,-130.5 1526.45,-148.5 1565.79,-148.5 1565.79,-130.5 1526.45,-130.5"/>
<text text-anchor="middle" x="1546.12" y="-136.5" font-family="Helvetica,sans-Serif" font-size="10.00">stack</text>
</a>
</g>
</g>
<!-- Node1&#45;&gt;Node18 -->
<g id="edge17" class="edge">
<title>Node1&#45;&gt;Node18</title>
<path fill="none" stroke="midnightblue" d="M1181.77,-213.48C1262.86,-211.5 1405,-201.51 1518.12,-159 1521.39,-157.77 1524.66,-156.1 1527.76,-154.27"/>
<polygon fill="midnightblue" stroke="midnightblue" points="1529.97,-157 1536.35,-148.53 1526.09,-151.18 1529.97,-157"/>
</g>
<!-- Node19 -->
<g id="node19" class="node">
<title>Node19</title>
<g id="a_node19"><a xlink:title=" ">
<polygon fill="none" stroke="#bfbfbf" points="526.27,-0.5 526.27,-18.5 563.96,-18.5 563.96,-0.5 526.27,-0.5"/>
<text text-anchor="middle" x="545.12" y="-6.5" font-family="Helvetica,sans-Serif" font-size="10.00">tuple</text>
</a>
</g>
</g>
<!-- Node1&#45;&gt;Node19 -->
<g id="edge18" class="edge">
<title>Node1&#45;&gt;Node19</title>
<path fill="none" stroke="midnightblue" d="M1052.5,-210.86C927.92,-205.12 664.31,-189.46 637.12,-159 625.57,-146.07 629.97,-135.79 637.12,-120 647.12,-97.91 668.11,-106.09 678.12,-84 683.43,-72.26 685.65,-65.46 678.12,-55 654.57,-22.3 605.89,-13.28 574.41,-10.99"/>
<polygon fill="midnightblue" stroke="midnightblue" points="574.23,-7.48 564.06,-10.43 573.86,-14.47 574.23,-7.48"/>
</g>
<!-- Node20 -->
<g id="node20" class="node">
<title>Node20</title>
<g id="a_node20"><a xlink:title=" ">
<polygon fill="none" stroke="#bfbfbf" points="1583.81,-130.5 1583.81,-148.5 1670.42,-148.5 1670.42,-130.5 1583.81,-130.5"/>
<text text-anchor="middle" x="1627.12" y="-136.5" font-family="Helvetica,sans-Serif" font-size="10.00">unordered_map</text>
</a>
</g>
</g>
<!-- Node1&#45;&gt;Node20 -->
<g id="edge19" class="edge">
<title>Node1&#45;&gt;Node20</title>
<path fill="none" stroke="midnightblue" d="M1181.62,-210.37C1271,-205.01 1437.12,-191.33 1575.12,-159 1582.68,-157.23 1590.68,-154.72 1598.07,-152.12"/>
<polygon fill="midnightblue" stroke="midnightblue" points="1599.5,-155.32 1607.67,-148.58 1597.08,-148.76 1599.5,-155.32"/>
</g>
<!-- Node21 -->
<g id="node21" class="node">
<title>Node21</title>
<g id="a_node21"><a xlink:title=" ">
<polygon fill="none" stroke="#bfbfbf" points="1688.87,-130.5 1688.87,-148.5 1769.36,-148.5 1769.36,-130.5 1688.87,-130.5"/>
<text text-anchor="middle" x="1729.12" y="-136.5" font-family="Helvetica,sans-Serif" font-size="10.00">unordered_set</text>
</a>
</g>
</g>
<!-- Node1&#45;&gt;Node21 -->
<g id="edge20" class="edge">
<title>Node1&#45;&gt;Node21</title>
<path fill="none" stroke="midnightblue" d="M1181.61,-212.62C1287,-209.98 1502.12,-199.61 1679.12,-159 1686.56,-157.29 1694.4,-154.76 1701.6,-152.12"/>
<polygon fill="midnightblue" stroke="midnightblue" points="1702.87,-155.38 1710.94,-148.51 1700.35,-148.85 1702.87,-155.38"/>
</g>
<!-- Node22 -->
<g id="node22" class="node">
<title>Node22</title>
<g id="a_node22"><a xlink:title=" ">
<polygon fill="none" stroke="#bfbfbf" points="1787.72,-130.5 1787.72,-148.5 1826.51,-148.5 1826.51,-130.5 1787.72,-130.5"/>
<text text-anchor="middle" x="1807.12" y="-136.5" font-family="Helvetica,sans-Serif" font-size="10.00">utility</text>
</a>
</g>
</g>
<!-- Node1&#45;&gt;Node22 -->
<g id="edge21" class="edge">
<title>Node1&#45;&gt;Node22</title>
<path fill="none" stroke="midnightblue" d="M1181.69,-212.12C1325.65,-208.4 1668.79,-195.84 1778.12,-159 1781.62,-157.82 1785.12,-156.13 1788.42,-154.24"/>
<polygon fill="midnightblue" stroke="midnightblue" points="1790.52,-157.05 1797.01,-148.68 1786.71,-151.18 1790.52,-157.05"/>
</g>
<!-- Node23 -->
<g id="node23" class="node">
<title>Node23</title>
<g id="a_node23"><a xlink:title=" ">
<polygon fill="none" stroke="#bfbfbf" points="1844.5,-130.5 1844.5,-148.5 1887.73,-148.5 1887.73,-130.5 1844.5,-130.5"/>
<text text-anchor="middle" x="1866.12" y="-136.5" font-family="Helvetica,sans-Serif" font-size="10.00">vector</text>
</a>
</g>
</g>
<!-- Node1&#45;&gt;Node23 -->
<g id="edge22" class="edge">
<title>Node1&#45;&gt;Node23</title>
<path fill="none" stroke="midnightblue" d="M1181.71,-212.38C1334.49,-209.11 1714.31,-197.29 1835.12,-159 1839.1,-157.74 1843.12,-155.88 1846.87,-153.81"/>
<polygon fill="midnightblue" stroke="midnightblue" points="1848.83,-156.72 1855.52,-148.5 1845.17,-150.75 1848.83,-156.72"/>
</g>
<!-- Node24 -->
<g id="node24" class="node">
<title>Node24</title>
<g id="a_node24"><a xlink:href="logging_8h.html" target="_top" xlink:title=" ">
<polygon fill="none" stroke="black" points="432.82,-130.5 432.82,-148.5 489.41,-148.5 489.41,-130.5 432.82,-130.5"/>
<text text-anchor="middle" x="461.12" y="-136.5" font-family="Helvetica,sans-Serif" font-size="10.00">logging.h</text>
</a>
</g>
</g>
<!-- Node1&#45;&gt;Node24 -->
<g id="edge23" class="edge">
<title>Node1&#45;&gt;Node24</title>
<path fill="none" stroke="midnightblue" d="M1052.46,-208.7C949.33,-200.69 741.34,-183.07 566.12,-159 543.94,-155.95 519.29,-151.66 499.45,-147.97"/>
<polygon fill="midnightblue" stroke="midnightblue" points="500.02,-144.52 489.55,-146.11 498.73,-151.4 500.02,-144.52"/>
</g>
<!-- Node31 -->
<g id="node31" class="node">
<title>Node31</title>
<g id="a_node31"><a xlink:title=" ">
<polygon fill="none" stroke="#bfbfbf" points="617.33,-60.5 617.33,-78.5 668.9,-78.5 668.9,-60.5 617.33,-60.5"/>
<text text-anchor="middle" x="643.12" y="-66.5" font-family="Helvetica,sans-Serif" font-size="10.00">sstream</text>
</a>
</g>
</g>
<!-- Node1&#45;&gt;Node31 -->
<g id="edge37" class="edge">
<title>Node1&#45;&gt;Node31</title>
<path fill="none" stroke="midnightblue" d="M1052.63,-211.38C921.5,-206.39 633.61,-191.8 604.12,-159 584.76,-137.48 609.15,-104.82 627.15,-85.77"/>
<polygon fill="midnightblue" stroke="midnightblue" points="629.79,-88.09 634.33,-78.52 624.81,-83.16 629.79,-88.09"/>
</g>
<!-- Node32 -->
<g id="node32" class="node">
<title>Node32</title>
<g id="a_node32"><a xlink:title=" ">
<polygon fill="none" stroke="#bfbfbf" points="1905.61,-130.5 1905.61,-148.5 1956.63,-148.5 1956.63,-130.5 1905.61,-130.5"/>
<text text-anchor="middle" x="1931.12" y="-136.5" font-family="Helvetica,sans-Serif" font-size="10.00">iomanip</text>
</a>
</g>
</g>
<!-- Node1&#45;&gt;Node32 -->
<g id="edge36" class="edge">
<title>Node1&#45;&gt;Node32</title>
<path fill="none" stroke="midnightblue" d="M1181.75,-212.52C1343.72,-209.48 1763.55,-197.99 1897.12,-159 1901.67,-157.67 1906.29,-155.67 1910.6,-153.47"/>
<polygon fill="midnightblue" stroke="midnightblue" points="1912.4,-156.47 1919.39,-148.51 1908.96,-150.38 1912.4,-156.47"/>
</g>
<!-- Node24&#45;&gt;Node2 -->
<g id="edge24" class="edge">
<title>Node24&#45;&gt;Node2</title>
<path fill="none" stroke="midnightblue" d="M432.72,-132.04C380.8,-120.23 270.16,-95.07 207.63,-80.85"/>
<polygon fill="midnightblue" stroke="midnightblue" points="208.18,-77.39 197.65,-78.58 206.62,-84.21 208.18,-77.39"/>
</g>
<!-- Node25 -->
<g id="node25" class="node">
<title>Node25</title>
<g id="a_node25"><a xlink:href="meta_8h.html" target="_top" xlink:title=" ">
<polygon fill="none" stroke="black" points="233.83,-60.5 233.83,-78.5 280.4,-78.5 280.4,-60.5 233.83,-60.5"/>
<text text-anchor="middle" x="257.12" y="-66.5" font-family="Helvetica,sans-Serif" font-size="10.00">meta.h</text>
</a>
</g>
</g>
<!-- Node24&#45;&gt;Node25 -->
<g id="edge25" class="edge">
<title>Node24&#45;&gt;Node25</title>
<path fill="none" stroke="midnightblue" d="M432.84,-130.41C398.54,-120.4 339.08,-102.41 289.12,-84 287.7,-83.48 286.26,-82.93 284.8,-82.37"/>
<polygon fill="midnightblue" stroke="midnightblue" points="285.86,-79.02 275.28,-78.5 283.23,-85.5 285.86,-79.02"/>
</g>
<!-- Node28 -->
<g id="node28" class="node">
<title>Node28</title>
<g id="a_node28"><a xlink:title=" ">
<polygon fill="none" stroke="#bfbfbf" points="522.55,-60.5 522.55,-78.5 599.68,-78.5 599.68,-60.5 522.55,-60.5"/>
<text text-anchor="middle" x="561.12" y="-66.5" font-family="Helvetica,sans-Serif" font-size="10.00">fmt/ostream.h</text>
</a>
</g>
</g>
<!-- Node24&#45;&gt;Node28 -->
<g id="edge32" class="edge">
<title>Node24&#45;&gt;Node28</title>
<path fill="none" stroke="midnightblue" d="M472.98,-130.43C489.74,-119.03 520.59,-98.06 540.98,-84.19"/>
<polygon fill="midnightblue" stroke="midnightblue" points="542.97,-87.07 549.27,-78.56 539.03,-81.29 542.97,-87.07"/>
</g>
<!-- Node29 -->
<g id="node29" class="node">
<title>Node29</title>
<g id="a_node29"><a xlink:title=" ">
<polygon fill="none" stroke="#bfbfbf" points="298.59,-55.5 298.59,-83.5 399.64,-83.5 399.64,-55.5 298.59,-55.5"/>
<text text-anchor="start" x="306.59" y="-71.5" font-family="Helvetica,sans-Serif" font-size="10.00">spdlog/sinks/stdout</text>
<text text-anchor="middle" x="349.12" y="-61.5" font-family="Helvetica,sans-Serif" font-size="10.00">_color_sinks.h</text>
</a>
</g>
</g>
<!-- Node24&#45;&gt;Node29 -->
<g id="edge33" class="edge">
<title>Node24&#45;&gt;Node29</title>
<path fill="none" stroke="midnightblue" d="M447.83,-130.43C431.12,-120.29 401.94,-102.57 379.62,-89.02"/>
<polygon fill="midnightblue" stroke="midnightblue" points="381.2,-85.88 370.83,-83.69 377.57,-91.87 381.2,-85.88"/>
</g>
<!-- Node30 -->
<g id="node30" class="node">
<title>Node30</title>
<g id="a_node30"><a xlink:title=" ">
<polygon fill="none" stroke="#bfbfbf" points="418.09,-60.5 418.09,-78.5 504.14,-78.5 504.14,-60.5 418.09,-60.5"/>
<text text-anchor="middle" x="461.12" y="-66.5" font-family="Helvetica,sans-Serif" font-size="10.00">spdlog/spdlog.h</text>
</a>
</g>
</g>
<!-- Node24&#45;&gt;Node30 -->
<g id="edge34" class="edge">
<title>Node24&#45;&gt;Node30</title>
<path fill="none" stroke="midnightblue" d="M461.12,-130.43C461.12,-120.21 461.12,-102.28 461.12,-88.69"/>
<polygon fill="midnightblue" stroke="midnightblue" points="464.62,-88.56 461.12,-78.56 457.62,-88.56 464.62,-88.56"/>
</g>
<!-- Node24&#45;&gt;Node31 -->
<g id="edge35" class="edge">
<title>Node24&#45;&gt;Node31</title>
<path fill="none" stroke="midnightblue" d="M483.5,-130.46C512.54,-119.97 564.75,-100.98 609.12,-84 610.52,-83.46 611.96,-82.91 613.42,-82.34"/>
<polygon fill="midnightblue" stroke="midnightblue" points="614.98,-85.49 623.01,-78.58 612.42,-78.97 614.98,-85.49"/>
</g>
<!-- Node25&#45;&gt;Node7 -->
<g id="edge27" class="edge">
<title>Node25&#45;&gt;Node7</title>
<path fill="none" stroke="midnightblue" d="M239.73,-60.49C235.05,-58.52 229.94,-56.54 225.12,-55 194.42,-45.22 107.28,-27.15 58.42,-17.31"/>
<polygon fill="midnightblue" stroke="midnightblue" points="58.81,-13.82 48.32,-15.28 57.43,-20.68 58.81,-13.82"/>
</g>
<!-- Node25&#45;&gt;Node10 -->
<g id="edge29" class="edge">
<title>Node25&#45;&gt;Node10</title>
<path fill="none" stroke="midnightblue" d="M238.57,-60.48C234.18,-58.64 229.5,-56.71 225.12,-55 194.82,-43.14 159.91,-30.62 135.04,-21.89"/>
<polygon fill="midnightblue" stroke="midnightblue" points="135.97,-18.5 125.37,-18.51 133.66,-25.11 135.97,-18.5"/>
</g>
<!-- Node25&#45;&gt;Node11 -->
<g id="edge31" class="edge">
<title>Node25&#45;&gt;Node11</title>
<path fill="none" stroke="midnightblue" d="M245.57,-60.44C232.27,-51.14 210.17,-35.69 194.06,-24.44"/>
<polygon fill="midnightblue" stroke="midnightblue" points="196.03,-21.54 185.83,-18.68 192.02,-27.28 196.03,-21.54"/>
</g>
<!-- Node25&#45;&gt;Node19 -->
<g id="edge30" class="edge">
<title>Node25&#45;&gt;Node19</title>
<path fill="none" stroke="midnightblue" d="M274.13,-60.48C278.9,-58.46 284.14,-56.46 289.12,-55 369.59,-31.36 468.22,-18.59 516.17,-13.36"/>
<polygon fill="midnightblue" stroke="midnightblue" points="516.58,-16.84 526.15,-12.31 515.84,-9.88 516.58,-16.84"/>
</g>
<!-- Node26 -->
<g id="node26" class="node">
<title>Node26</title>
<g id="a_node26"><a xlink:title=" ">
<polygon fill="none" stroke="#bfbfbf" points="216.94,-0.5 216.94,-18.5 291.29,-18.5 291.29,-0.5 216.94,-0.5"/>
<text text-anchor="middle" x="254.12" y="-6.5" font-family="Helvetica,sans-Serif" font-size="10.00">macro/map.h</text>
</a>
</g>
</g>
<!-- Node25&#45;&gt;Node26 -->
<g id="edge26" class="edge">
<title>Node25&#45;&gt;Node26</title>
<path fill="none" stroke="midnightblue" d="M256.7,-60.44C256.28,-52.39 255.63,-39.74 255.08,-29.18"/>
<polygon fill="midnightblue" stroke="midnightblue" points="258.56,-28.68 254.55,-18.87 251.57,-29.04 258.56,-28.68"/>
</g>
<!-- Node27 -->
<g id="node27" class="node">
<title>Node27</title>
<g id="a_node27"><a xlink:title=" ">
<polygon fill="none" stroke="#bfbfbf" points="309.55,-0.5 309.55,-18.5 356.68,-18.5 356.68,-0.5 309.55,-0.5"/>
<text text-anchor="middle" x="333.12" y="-6.5" font-family="Helvetica,sans-Serif" font-size="10.00">iterator</text>
</a>
</g>
</g>
<!-- Node25&#45;&gt;Node27 -->
<g id="edge28" class="edge">
<title>Node25&#45;&gt;Node27</title>
<path fill="none" stroke="midnightblue" d="M267.68,-60.44C279.68,-51.28 299.5,-36.15 314.19,-24.94"/>
<polygon fill="midnightblue" stroke="midnightblue" points="316.32,-27.72 322.15,-18.87 312.07,-22.16 316.32,-27.72"/>
</g>
</g>
</svg>
