<?xml version="1.0" encoding="UTF-8" standalone="no"?>
<!DOCTYPE svg PUBLIC "-//W3C//DTD SVG 1.1//EN"
 "http://www.w3.org/Graphics/SVG/1.1/DTD/svg11.dtd">
<!-- Generated by graphviz version 2.43.0 (0)
 -->
<!-- Title: /Users/ma/Codes/toltec/citlali/citlali_dev/common_utils/src/utils/container.h Pages: 1 -->
<!--zoomable 222 -->
<svg id="main" version="1.1" xmlns="http://www.w3.org/2000/svg" xmlns:xlink="http://www.w3.org/1999/xlink" xml:space="preserve" onload="init(evt)">
<style type="text/css"><![CDATA[
.edge:hover path { stroke: red; }
.edge:hover polygon { stroke: red; fill: red; }
]]></style>
<script type="text/javascript"><![CDATA[
var edges = document.getElementsByTagName('g');
if (edges && edges.length) {
  for (var i=0;i<edges.length;i++) {
    if (edges[i].id.substr(0,4)=='edge') {
      edges[i].setAttribute('class','edge');
    }
  }
}
]]></script>
        <defs>
                <circle id="rim" cx="0" cy="0" r="7"/>
                <circle id="rim2" cx="0" cy="0" r="3.5"/>
                <g id="zoomPlus">
                        <use xlink:href="#rim" fill="#404040">
                                <set attributeName="fill" to="#808080" begin="zoomplus.mouseover" end="zoomplus.mouseout"/>
                        </use>
                        <path d="M-4,0h8M0,-4v8" fill="none" stroke="white" stroke-width="1.5" pointer-events="none"/>
                </g>
                <g id="zoomMin">
                        <use xlink:href="#rim" fill="#404040">
                                <set attributeName="fill" to="#808080" begin="zoomminus.mouseover" end="zoomminus.mouseout"/>
                        </use>
                        <path d="M-4,0h8" fill="none" stroke="white" stroke-width="1.5" pointer-events="none"/>
                </g>
                <g id="dirArrow">
                        <path fill="none" stroke="white" stroke-width="1.5" d="M0,-3.0v7 M-2.5,-0.5L0,-3.0L2.5,-0.5"/>
                </g>
               <g id="resetDef">
                       <use xlink:href="#rim2" fill="#404040">
                               <set attributeName="fill" to="#808080" begin="reset.mouseover" end="reset.mouseout"/>
                       </use>
               </g>
        </defs>

<script type="text/javascript">
var viewWidth = 833;
var viewHeight = 222;
var sectionId = 'dynsection-0';
</script>
<script xlink:href="svgpan.js"/>
<svg id="graph" class="graph">
<g id="viewport">
<title>/Users/ma/Codes/toltec/citlali/citlali_dev/common_utils/src/utils/container.h</title>
<!-- Node1 -->
<g id="node1" class="node">
<title>Node1</title>
<g id="a_node1"><a xlink:title=" ">
<polygon fill="#bfbfbf" stroke="black" points="239.57,-175.5 239.57,-213.5 368.39,-213.5 368.39,-175.5 239.57,-175.5"/>
<text text-anchor="start" x="247.57" y="-201.5" font-family="Helvetica,sans-Serif" font-size="10.00">/Users/ma/Codes/toltec</text>
<text text-anchor="start" x="247.57" y="-191.5" font-family="Helvetica,sans-Serif" font-size="10.00">/citlali/citlali_dev/common</text>
<text text-anchor="middle" x="303.98" y="-181.5" font-family="Helvetica,sans-Serif" font-size="10.00">_utils/src/utils/container.h</text>
</a>
</g>
</g>
<!-- Node2 -->
<g id="node2" class="node">
<title>Node2</title>
<g id="a_node2"><a xlink:href="logging_8h.html" target="_top" xlink:title=" ">
<polygon fill="none" stroke="black" points="455.68,-120.5 455.68,-138.5 512.27,-138.5 512.27,-120.5 455.68,-120.5"/>
<text text-anchor="middle" x="483.98" y="-126.5" font-family="Helvetica,sans-Serif" font-size="10.00">logging.h</text>
</a>
</g>
</g>
<!-- Node1&#45;&gt;Node2 -->
<g id="edge1" class="edge">
<title>Node1&#45;&gt;Node2</title>
<path fill="none" stroke="midnightblue" d="M355.56,-175.45C386.33,-164.68 424.47,-151.33 451.16,-141.99"/>
<polygon fill="midnightblue" stroke="midnightblue" points="452.51,-145.22 460.79,-138.62 450.19,-138.62 452.51,-145.22"/>
</g>
<!-- Node4 -->
<g id="node4" class="node">
<title>Node4</title>
<g id="a_node4"><a xlink:href="meta_8h.html" target="_top" xlink:title=" ">
<polygon fill="none" stroke="black" points="368.69,-60.5 368.69,-78.5 415.26,-78.5 415.26,-60.5 368.69,-60.5"/>
<text text-anchor="middle" x="391.98" y="-66.5" font-family="Helvetica,sans-Serif" font-size="10.00">meta.h</text>
</a>
</g>
</g>
<!-- Node1&#45;&gt;Node4 -->
<g id="edge14" class="edge">
<title>Node1&#45;&gt;Node4</title>
<path fill="none" stroke="midnightblue" d="M316.96,-175.35C334.02,-151.51 363.74,-109.97 380.19,-86.98"/>
<polygon fill="midnightblue" stroke="midnightblue" points="383.19,-88.8 386.16,-78.63 377.5,-84.73 383.19,-88.8"/>
</g>
<!-- Node15 -->
<g id="node15" class="node">
<title>Node15</title>
<g id="a_node15"><a xlink:href="eigeniter_8h.html" target="_top" xlink:title=" ">
<polygon fill="none" stroke="black" points="14.9,-120.5 14.9,-138.5 77.06,-138.5 77.06,-120.5 14.9,-120.5"/>
<text text-anchor="middle" x="45.98" y="-126.5" font-family="Helvetica,sans-Serif" font-size="10.00">eigeniter.h</text>
</a>
</g>
</g>
<!-- Node1&#45;&gt;Node15 -->
<g id="edge15" class="edge">
<title>Node1&#45;&gt;Node15</title>
<path fill="none" stroke="midnightblue" d="M239.54,-177.76C191.8,-166.11 128.15,-150.57 87.12,-140.55"/>
<polygon fill="midnightblue" stroke="midnightblue" points="87.74,-137.09 77.19,-138.12 86.08,-143.89 87.74,-137.09"/>
</g>
<!-- Node17 -->
<g id="node17" class="node">
<title>Node17</title>
<g id="a_node17"><a xlink:href="eigen_8h.html" target="_top" xlink:title=" ">
<polygon fill="none" stroke="black" points="191.58,-120.5 191.58,-138.5 240.38,-138.5 240.38,-120.5 191.58,-120.5"/>
<text text-anchor="middle" x="215.98" y="-126.5" font-family="Helvetica,sans-Serif" font-size="10.00">eigen.h</text>
</a>
</g>
</g>
<!-- Node1&#45;&gt;Node17 -->
<g id="edge18" class="edge">
<title>Node1&#45;&gt;Node17</title>
<path fill="none" stroke="midnightblue" d="M278.53,-175.28C264.96,-165.57 248.53,-153.8 235.91,-144.77"/>
<polygon fill="midnightblue" stroke="midnightblue" points="237.65,-141.71 227.49,-138.74 233.58,-147.41 237.65,-141.71"/>
</g>
<!-- Node3 -->
<g id="node3" class="node">
<title>Node3</title>
<g id="a_node3"><a xlink:title=" ">
<polygon fill="none" stroke="#bfbfbf" points="622.12,-60.5 622.12,-78.5 729.84,-78.5 729.84,-60.5 622.12,-60.5"/>
<text text-anchor="middle" x="675.98" y="-66.5" font-family="Helvetica,sans-Serif" font-size="10.00">formatter/container.h</text>
</a>
</g>
</g>
<!-- Node2&#45;&gt;Node3 -->
<g id="edge2" class="edge">
<title>Node2&#45;&gt;Node3</title>
<path fill="none" stroke="midnightblue" d="M510.68,-120.44C544.11,-110.34 601.56,-92.98 639.16,-81.62"/>
<polygon fill="midnightblue" stroke="midnightblue" points="640.64,-84.83 649.2,-78.59 638.62,-78.13 640.64,-84.83"/>
</g>
<!-- Node2&#45;&gt;Node4 -->
<g id="edge3" class="edge">
<title>Node2&#45;&gt;Node4</title>
<path fill="none" stroke="midnightblue" d="M471.19,-120.44C456.3,-111.05 431.49,-95.41 413.6,-84.13"/>
<polygon fill="midnightblue" stroke="midnightblue" points="415.28,-81.06 404.96,-78.68 411.55,-86.98 415.28,-81.06"/>
</g>
<!-- Node11 -->
<g id="node11" class="node">
<title>Node11</title>
<g id="a_node11"><a xlink:title=" ">
<polygon fill="none" stroke="#bfbfbf" points="747.42,-60.5 747.42,-78.5 824.54,-78.5 824.54,-60.5 747.42,-60.5"/>
<text text-anchor="middle" x="785.98" y="-66.5" font-family="Helvetica,sans-Serif" font-size="10.00">fmt/ostream.h</text>
</a>
</g>
</g>
<!-- Node2&#45;&gt;Node11 -->
<g id="edge10" class="edge">
<title>Node2&#45;&gt;Node11</title>
<path fill="none" stroke="midnightblue" d="M512.48,-124.54C559.82,-117.75 657.52,-102.75 738.98,-84 742.58,-83.17 746.32,-82.23 750.04,-81.25"/>
<polygon fill="midnightblue" stroke="midnightblue" points="751.05,-84.6 759.76,-78.57 749.19,-77.85 751.05,-84.6"/>
</g>
<!-- Node12 -->
<g id="node12" class="node">
<title>Node12</title>
<g id="a_node12"><a xlink:title=" ">
<polygon fill="none" stroke="#bfbfbf" points="433.45,-55.5 433.45,-83.5 534.5,-83.5 534.5,-55.5 433.45,-55.5"/>
<text text-anchor="start" x="441.45" y="-71.5" font-family="Helvetica,sans-Serif" font-size="10.00">spdlog/sinks/stdout</text>
<text text-anchor="middle" x="483.98" y="-61.5" font-family="Helvetica,sans-Serif" font-size="10.00">_color_sinks.h</text>
</a>
</g>
</g>
<!-- Node2&#45;&gt;Node12 -->
<g id="edge11" class="edge">
<title>Node2&#45;&gt;Node12</title>
<path fill="none" stroke="midnightblue" d="M483.98,-120.44C483.98,-113.56 483.98,-103.32 483.98,-93.91"/>
<polygon fill="midnightblue" stroke="midnightblue" points="487.48,-93.84 483.98,-83.84 480.48,-93.84 487.48,-93.84"/>
</g>
<!-- Node13 -->
<g id="node13" class="node">
<title>Node13</title>
<g id="a_node13"><a xlink:title=" ">
<polygon fill="none" stroke="#bfbfbf" points="264.95,-60.5 264.95,-78.5 351.01,-78.5 351.01,-60.5 264.95,-60.5"/>
<text text-anchor="middle" x="307.98" y="-66.5" font-family="Helvetica,sans-Serif" font-size="10.00">spdlog/spdlog.h</text>
</a>
</g>
</g>
<!-- Node2&#45;&gt;Node13 -->
<g id="edge12" class="edge">
<title>Node2&#45;&gt;Node13</title>
<path fill="none" stroke="midnightblue" d="M459.51,-120.44C428.99,-110.38 376.64,-93.13 342.17,-81.77"/>
<polygon fill="midnightblue" stroke="midnightblue" points="343.12,-78.4 332.53,-78.59 340.93,-85.04 343.12,-78.4"/>
</g>
<!-- Node14 -->
<g id="node14" class="node">
<title>Node14</title>
<g id="a_node14"><a xlink:title=" ">
<polygon fill="none" stroke="#bfbfbf" points="552.2,-60.5 552.2,-78.5 603.76,-78.5 603.76,-60.5 552.2,-60.5"/>
<text text-anchor="middle" x="577.98" y="-66.5" font-family="Helvetica,sans-Serif" font-size="10.00">sstream</text>
</a>
</g>
</g>
<!-- Node2&#45;&gt;Node14 -->
<g id="edge13" class="edge">
<title>Node2&#45;&gt;Node14</title>
<path fill="none" stroke="midnightblue" d="M497.05,-120.44C512.33,-111.01 537.84,-95.26 556.14,-83.97"/>
<polygon fill="midnightblue" stroke="midnightblue" points="558.04,-86.91 564.72,-78.68 554.37,-80.96 558.04,-86.91"/>
</g>
<!-- Node5 -->
<g id="node5" class="node">
<title>Node5</title>
<g id="a_node5"><a xlink:title=" ">
<polygon fill="none" stroke="#bfbfbf" points="354.8,-0.5 354.8,-18.5 429.16,-18.5 429.16,-0.5 354.8,-0.5"/>
<text text-anchor="middle" x="391.98" y="-6.5" font-family="Helvetica,sans-Serif" font-size="10.00">macro/map.h</text>
</a>
</g>
</g>
<!-- Node4&#45;&gt;Node5 -->
<g id="edge4" class="edge">
<title>Node4&#45;&gt;Node5</title>
<path fill="none" stroke="midnightblue" d="M391.98,-60.44C391.98,-52.39 391.98,-39.74 391.98,-29.18"/>
<polygon fill="midnightblue" stroke="midnightblue" points="395.48,-28.87 391.98,-18.87 388.48,-28.87 395.48,-28.87"/>
</g>
<!-- Node6 -->
<g id="node6" class="node">
<title>Node6</title>
<g id="a_node6"><a xlink:title=" ">
<polygon fill="none" stroke="#bfbfbf" points="446.86,-0.5 446.86,-18.5 495.09,-18.5 495.09,-0.5 446.86,-0.5"/>
<text text-anchor="middle" x="470.98" y="-6.5" font-family="Helvetica,sans-Serif" font-size="10.00">cassert</text>
</a>
</g>
</g>
<!-- Node4&#45;&gt;Node6 -->
<g id="edge5" class="edge">
<title>Node4&#45;&gt;Node6</title>
<path fill="none" stroke="midnightblue" d="M402.96,-60.44C415.51,-51.22 436.27,-35.98 451.57,-24.75"/>
<polygon fill="midnightblue" stroke="midnightblue" points="453.84,-27.42 459.83,-18.68 449.7,-21.78 453.84,-27.42"/>
</g>
<!-- Node7 -->
<g id="node7" class="node">
<title>Node7</title>
<g id="a_node7"><a xlink:title=" ">
<polygon fill="none" stroke="#bfbfbf" points="66.42,-0.5 66.42,-18.5 113.54,-18.5 113.54,-0.5 66.42,-0.5"/>
<text text-anchor="middle" x="89.98" y="-6.5" font-family="Helvetica,sans-Serif" font-size="10.00">iterator</text>
</a>
</g>
</g>
<!-- Node4&#45;&gt;Node7 -->
<g id="edge6" class="edge">
<title>Node4&#45;&gt;Node7</title>
<path fill="none" stroke="midnightblue" d="M374.98,-60.45C370.21,-58.44 364.96,-56.44 359.98,-55 276.93,-31 175.53,-18.64 123.83,-13.49"/>
<polygon fill="midnightblue" stroke="midnightblue" points="124.16,-10.01 113.87,-12.53 123.49,-16.98 124.16,-10.01"/>
</g>
<!-- Node8 -->
<g id="node8" class="node">
<title>Node8</title>
<g id="a_node8"><a xlink:title=" ">
<polygon fill="none" stroke="#bfbfbf" points="513.46,-0.5 513.46,-18.5 564.49,-18.5 564.49,-0.5 513.46,-0.5"/>
<text text-anchor="middle" x="538.98" y="-6.5" font-family="Helvetica,sans-Serif" font-size="10.00">optional</text>
</a>
</g>
</g>
<!-- Node4&#45;&gt;Node8 -->
<g id="edge7" class="edge">
<title>Node4&#45;&gt;Node8</title>
<path fill="none" stroke="midnightblue" d="M410.89,-60.41C415.18,-58.61 419.73,-56.72 423.98,-55 452.33,-43.54 484.85,-31.01 508.06,-22.18"/>
<polygon fill="midnightblue" stroke="midnightblue" points="509.6,-25.33 517.71,-18.51 507.12,-18.79 509.6,-25.33"/>
</g>
<!-- Node9 -->
<g id="node9" class="node">
<title>Node9</title>
<g id="a_node9"><a xlink:title=" ">
<polygon fill="none" stroke="#bfbfbf" points="235.14,-0.5 235.14,-18.5 272.82,-18.5 272.82,-0.5 235.14,-0.5"/>
<text text-anchor="middle" x="253.98" y="-6.5" font-family="Helvetica,sans-Serif" font-size="10.00">tuple</text>
</a>
</g>
</g>
<!-- Node4&#45;&gt;Node9 -->
<g id="edge8" class="edge">
<title>Node4&#45;&gt;Node9</title>
<path fill="none" stroke="midnightblue" d="M373.03,-60.5C368.74,-58.69 364.2,-56.78 359.98,-55 333.78,-43.97 303.91,-31.44 282.58,-22.49"/>
<polygon fill="midnightblue" stroke="midnightblue" points="283.71,-19.17 273.13,-18.53 281,-25.62 283.71,-19.17"/>
</g>
<!-- Node10 -->
<g id="node10" class="node">
<title>Node10</title>
<g id="a_node10"><a xlink:title=" ">
<polygon fill="none" stroke="#bfbfbf" points="290.97,-0.5 290.97,-18.5 336.99,-18.5 336.99,-0.5 290.97,-0.5"/>
<text text-anchor="middle" x="313.98" y="-6.5" font-family="Helvetica,sans-Serif" font-size="10.00">variant</text>
</a>
</g>
</g>
<!-- Node4&#45;&gt;Node10 -->
<g id="edge9" class="edge">
<title>Node4&#45;&gt;Node10</title>
<path fill="none" stroke="midnightblue" d="M381.13,-60.44C368.82,-51.28 348.48,-36.15 333.4,-24.94"/>
<polygon fill="midnightblue" stroke="midnightblue" points="335.35,-22.03 325.24,-18.87 331.17,-27.65 335.35,-22.03"/>
</g>
<!-- Node15&#45;&gt;Node7 -->
<g id="edge17" class="edge">
<title>Node15&#45;&gt;Node7</title>
<path fill="none" stroke="midnightblue" d="M35.36,-120.48C18.69,-106.87 -10.31,-78.48 3.98,-55 15.44,-36.17 37.73,-24.95 56.74,-18.49"/>
<polygon fill="midnightblue" stroke="midnightblue" points="57.79,-21.83 66.31,-15.53 55.72,-15.14 57.79,-21.83"/>
</g>
<!-- Node16 -->
<g id="node16" class="node">
<title>Node16</title>
<g id="a_node16"><a xlink:title=" ">
<polygon fill="none" stroke="#bfbfbf" points="12.96,-60.5 12.96,-78.5 78.99,-78.5 78.99,-60.5 12.96,-60.5"/>
<text text-anchor="middle" x="45.98" y="-66.5" font-family="Helvetica,sans-Serif" font-size="10.00">Eigen/Core</text>
</a>
</g>
</g>
<!-- Node15&#45;&gt;Node16 -->
<g id="edge16" class="edge">
<title>Node15&#45;&gt;Node16</title>
<path fill="none" stroke="midnightblue" d="M45.98,-120.44C45.98,-112.39 45.98,-99.74 45.98,-89.18"/>
<polygon fill="midnightblue" stroke="midnightblue" points="49.48,-88.87 45.98,-78.87 42.48,-88.87 49.48,-88.87"/>
</g>
<!-- Node17&#45;&gt;Node13 -->
<g id="edge21" class="edge">
<title>Node17&#45;&gt;Node13</title>
<path fill="none" stroke="midnightblue" d="M228.77,-120.44C243.65,-111.05 268.47,-95.41 286.36,-84.13"/>
<polygon fill="midnightblue" stroke="midnightblue" points="288.41,-86.98 295,-78.68 284.67,-81.06 288.41,-86.98"/>
</g>
<!-- Node17&#45;&gt;Node16 -->
<g id="edge19" class="edge">
<title>Node17&#45;&gt;Node16</title>
<path fill="none" stroke="midnightblue" d="M192.34,-120.44C162.99,-110.42 112.74,-93.28 79.44,-81.92"/>
<polygon fill="midnightblue" stroke="midnightblue" points="80.28,-78.51 69.69,-78.59 78.02,-85.13 80.28,-78.51"/>
</g>
<!-- Node18 -->
<g id="node18" class="node">
<title>Node18</title>
<g id="a_node18"><a xlink:title=" ">
<polygon fill="none" stroke="#bfbfbf" points="97.31,-60.5 97.31,-78.5 166.65,-78.5 166.65,-60.5 97.31,-60.5"/>
<text text-anchor="middle" x="131.98" y="-66.5" font-family="Helvetica,sans-Serif" font-size="10.00">fmt/format.h</text>
</a>
</g>
</g>
<!-- Node17&#45;&gt;Node18 -->
<g id="edge20" class="edge">
<title>Node17&#45;&gt;Node18</title>
<path fill="none" stroke="midnightblue" d="M204.3,-120.44C190.83,-111.14 168.47,-95.69 152.17,-84.44"/>
<polygon fill="midnightblue" stroke="midnightblue" points="154.05,-81.48 143.83,-78.68 150.07,-87.25 154.05,-81.48"/>
</g>
<!-- Node19 -->
<g id="node19" class="node">
<title>Node19</title>
<g id="a_node19"><a xlink:title=" ">
<polygon fill="none" stroke="#bfbfbf" points="184.91,-60.5 184.91,-78.5 247.05,-78.5 247.05,-60.5 184.91,-60.5"/>
<text text-anchor="middle" x="215.98" y="-66.5" font-family="Helvetica,sans-Serif" font-size="10.00">type_traits</text>
</a>
</g>
</g>
<!-- Node17&#45;&gt;Node19 -->
<g id="edge22" class="edge">
<title>Node17&#45;&gt;Node19</title>
<path fill="none" stroke="midnightblue" d="M215.98,-120.44C215.98,-112.39 215.98,-99.74 215.98,-89.18"/>
<polygon fill="midnightblue" stroke="midnightblue" points="219.48,-88.87 215.98,-78.87 212.48,-88.87 219.48,-88.87"/>
</g>
</g>
</svg>
        <g id="navigator" transform="translate(0 0)" fill="#404254">
                <rect fill="#f2f5e9" fill-opacity="0.5" stroke="#606060" stroke-width=".5" x="0" y="0" width="60" height="60"/>
                <use id="zoomplus" xlink:href="#zoomPlus" x="17" y="9" onmousedown="handleZoom(evt,'in')"/>
                <use id="zoomminus" xlink:href="#zoomMin" x="42" y="9" onmousedown="handleZoom(evt,'out')"/>
                <use id="reset" xlink:href="#resetDef" x="30" y="36" onmousedown="handleReset()"/>
                <g id="arrowUp" xlink:href="#dirArrow" transform="translate(30 24)" onmousedown="handlePan(0,-1)">
                  <use xlink:href="#rim" fill="#404040">
                        <set attributeName="fill" to="#808080" begin="arrowUp.mouseover" end="arrowUp.mouseout"/>
                  </use>
                  <path fill="none" stroke="white" stroke-width="1.5" d="M0,-3.0v7 M-2.5,-0.5L0,-3.0L2.5,-0.5"/>
                </g>
                <g id="arrowRight" xlink:href="#dirArrow" transform="rotate(90) translate(36 -43)" onmousedown="handlePan(1,0)">
                  <use xlink:href="#rim" fill="#404040">
                        <set attributeName="fill" to="#808080" begin="arrowRight.mouseover" end="arrowRight.mouseout"/>
                  </use>
                  <path fill="none" stroke="white" stroke-width="1.5" d="M0,-3.0v7 M-2.5,-0.5L0,-3.0L2.5,-0.5"/>
                </g>
                <g id="arrowDown" xlink:href="#dirArrow" transform="rotate(180) translate(-30 -48)" onmousedown="handlePan(0,1)">
                  <use xlink:href="#rim" fill="#404040">
                        <set attributeName="fill" to="#808080" begin="arrowDown.mouseover" end="arrowDown.mouseout"/>
                  </use>
                  <path fill="none" stroke="white" stroke-width="1.5" d="M0,-3.0v7 M-2.5,-0.5L0,-3.0L2.5,-0.5"/>
                </g>
                <g id="arrowLeft" xlink:href="#dirArrow" transform="rotate(270) translate(-36 17)" onmousedown="handlePan(-1,0)">
                  <use xlink:href="#rim" fill="#404040">
                        <set attributeName="fill" to="#808080" begin="arrowLeft.mouseover" end="arrowLeft.mouseout"/>
                  </use>
                  <path fill="none" stroke="white" stroke-width="1.5" d="M0,-3.0v7 M-2.5,-0.5L0,-3.0L2.5,-0.5"/>
                </g>
        </g>
        <svg viewBox="0 0 15 15" width="100%" height="30px" preserveAspectRatio="xMaxYMin meet">
         <g id="arrow_out" transform="scale(0.3 0.3)">
          <a xlink:href="container_8h__incl_org.svg" target="_base">
           <rect id="button" ry="5" rx="5" y="6" x="6" height="38" width="38"
                fill="#f2f5e9" fill-opacity="0.5" stroke="#606060" stroke-width="1.0"/>
           <path id="arrow"
             d="M 11.500037,31.436501 C 11.940474,20.09759 22.043105,11.32322 32.158766,21.979434 L 37.068811,17.246167 C 37.068811,17.246167 37.088388,32 37.088388,32 L 22.160133,31.978069 C 22.160133,31.978069 26.997745,27.140456 26.997745,27.140456 C 18.528582,18.264221 13.291696,25.230495 11.500037,31.436501 z"
             style="fill:#404040;"/>
          </a>
         </g>
        </svg>
</svg>
