<?xml version="1.0" encoding="UTF-8" standalone="no"?>
<!DOCTYPE svg PUBLIC "-//W3C//DTD SVG 1.1//EN"
 "http://www.w3.org/Graphics/SVG/1.1/DTD/svg11.dtd">
<!-- Generated by graphviz version 2.43.0 (0)
 -->
<!-- Title: /Users/ma/Codes/toltec/citlali/citlali_dev/common_utils/src/utils/datatable.h Pages: 1 -->
<svg width="1124pt" height="222pt"
 viewBox="0.00 0.00 1123.69 222.00" xmlns="http://www.w3.org/2000/svg" xmlns:xlink="http://www.w3.org/1999/xlink">
<g id="graph0" class="graph" transform="scale(1 1) rotate(0) translate(4 218)">
<title>/Users/ma/Codes/toltec/citlali/citlali_dev/common_utils/src/utils/datatable.h</title>
<!-- Node1 -->
<g id="node1" class="node">
<title>Node1</title>
<g id="a_node1"><a xlink:title=" ">
<polygon fill="#bfbfbf" stroke="black" points="762.77,-175.5 762.77,-213.5 891.59,-213.5 891.59,-175.5 762.77,-175.5"/>
<text text-anchor="start" x="770.77" y="-201.5" font-family="Helvetica,sans-Serif" font-size="10.00">/Users/ma/Codes/toltec</text>
<text text-anchor="start" x="770.77" y="-191.5" font-family="Helvetica,sans-Serif" font-size="10.00">/citlali/citlali_dev/common</text>
<text text-anchor="middle" x="827.18" y="-181.5" font-family="Helvetica,sans-Serif" font-size="10.00">_utils/src/utils/datatable.h</text>
</a>
</g>
</g>
<!-- Node2 -->
<g id="node2" class="node">
<title>Node2</title>
<g id="a_node2"><a xlink:href="logging_8h.html" target="_top" xlink:title=" ">
<polygon fill="none" stroke="black" points="340.88,-120.5 340.88,-138.5 397.47,-138.5 397.47,-120.5 340.88,-120.5"/>
<text text-anchor="middle" x="369.18" y="-126.5" font-family="Helvetica,sans-Serif" font-size="10.00">logging.h</text>
</a>
</g>
</g>
<!-- Node1&#45;&gt;Node2 -->
<g id="edge1" class="edge">
<title>Node1&#45;&gt;Node2</title>
<path fill="none" stroke="midnightblue" d="M762.53,-184.61C665.66,-171.28 485.86,-146.55 407.42,-135.76"/>
<polygon fill="midnightblue" stroke="midnightblue" points="407.87,-132.29 397.49,-134.39 406.92,-139.22 407.87,-132.29"/>
</g>
<!-- Node8 -->
<g id="node8" class="node">
<title>Node8</title>
<g id="a_node8"><a xlink:title=" ">
<polygon fill="none" stroke="#bfbfbf" points="469.66,-0.5 469.66,-18.5 520.69,-18.5 520.69,-0.5 469.66,-0.5"/>
<text text-anchor="middle" x="495.18" y="-6.5" font-family="Helvetica,sans-Serif" font-size="10.00">optional</text>
</a>
</g>
</g>
<!-- Node1&#45;&gt;Node8 -->
<g id="edge16" class="edge">
<title>Node1&#45;&gt;Node8</title>
<path fill="none" stroke="midnightblue" d="M762.57,-188.11C723.47,-181.82 674.83,-168.25 641.18,-139 610.25,-112.12 632.64,-83.48 603.18,-55 583.24,-35.73 553.78,-24.34 530.66,-17.92"/>
<polygon fill="midnightblue" stroke="midnightblue" points="531.43,-14.51 520.87,-15.39 529.67,-21.28 531.43,-14.51"/>
</g>
<!-- Node15 -->
<g id="node15" class="node">
<title>Node15</title>
<g id="a_node15"><a xlink:title=" ">
<polygon fill="none" stroke="#bfbfbf" points="649.71,-120.5 649.71,-138.5 754.65,-138.5 754.65,-120.5 649.71,-120.5"/>
<text text-anchor="middle" x="702.18" y="-126.5" font-family="Helvetica,sans-Serif" font-size="10.00">enum/meta_enum.h</text>
</a>
</g>
</g>
<!-- Node1&#45;&gt;Node15 -->
<g id="edge14" class="edge">
<title>Node1&#45;&gt;Node15</title>
<path fill="none" stroke="midnightblue" d="M791.36,-175.45C770.93,-165.15 745.83,-152.5 727.46,-143.24"/>
<polygon fill="midnightblue" stroke="midnightblue" points="728.79,-139.99 718.28,-138.62 725.64,-146.24 728.79,-139.99"/>
</g>
<!-- Node16 -->
<g id="node16" class="node">
<title>Node16</title>
<g id="a_node16"><a xlink:title=" ">
<polygon fill="none" stroke="#bfbfbf" points="772.79,-120.5 772.79,-138.5 811.57,-138.5 811.57,-120.5 772.79,-120.5"/>
<text text-anchor="middle" x="792.18" y="-126.5" font-family="Helvetica,sans-Serif" font-size="10.00">array</text>
</a>
</g>
</g>
<!-- Node1&#45;&gt;Node16 -->
<g id="edge15" class="edge">
<title>Node1&#45;&gt;Node16</title>
<path fill="none" stroke="midnightblue" d="M817.05,-175.28C812.24,-166.61 806.51,-156.29 801.76,-147.75"/>
<polygon fill="midnightblue" stroke="midnightblue" points="804.67,-145.78 796.75,-138.74 798.55,-149.18 804.67,-145.78"/>
</g>
<!-- Node17 -->
<g id="node17" class="node">
<title>Node17</title>
<g id="a_node17"><a xlink:title=" ">
<polygon fill="none" stroke="#bfbfbf" points="829.17,-120.5 829.17,-138.5 895.19,-138.5 895.19,-120.5 829.17,-120.5"/>
<text text-anchor="middle" x="862.18" y="-126.5" font-family="Helvetica,sans-Serif" font-size="10.00">string_view</text>
</a>
</g>
</g>
<!-- Node1&#45;&gt;Node17 -->
<g id="edge17" class="edge">
<title>Node1&#45;&gt;Node17</title>
<path fill="none" stroke="midnightblue" d="M837.3,-175.28C842.12,-166.61 847.85,-156.29 852.59,-147.75"/>
<polygon fill="midnightblue" stroke="midnightblue" points="855.8,-149.18 857.6,-138.74 849.68,-145.78 855.8,-149.18"/>
</g>
<!-- Node18 -->
<g id="node18" class="node">
<title>Node18</title>
<g id="a_node18"><a xlink:title=" ">
<polygon fill="none" stroke="#bfbfbf" points="913.16,-120.5 913.16,-138.5 979.19,-138.5 979.19,-120.5 913.16,-120.5"/>
<text text-anchor="middle" x="946.18" y="-126.5" font-family="Helvetica,sans-Serif" font-size="10.00">Eigen/Core</text>
</a>
</g>
</g>
<!-- Node1&#45;&gt;Node18 -->
<g id="edge18" class="edge">
<title>Node1&#45;&gt;Node18</title>
<path fill="none" stroke="midnightblue" d="M861.28,-175.45C880.63,-165.2 904.4,-152.62 921.86,-143.37"/>
<polygon fill="midnightblue" stroke="midnightblue" points="923.65,-146.39 930.85,-138.62 920.37,-140.2 923.65,-146.39"/>
</g>
<!-- Node19 -->
<g id="node19" class="node">
<title>Node19</title>
<g id="a_node19"><a xlink:title=" ">
<polygon fill="none" stroke="#bfbfbf" points="997.51,-120.5 997.51,-138.5 1046.85,-138.5 1046.85,-120.5 997.51,-120.5"/>
<text text-anchor="middle" x="1022.18" y="-126.5" font-family="Helvetica,sans-Serif" font-size="10.00">fstream</text>
</a>
</g>
</g>
<!-- Node1&#45;&gt;Node19 -->
<g id="edge19" class="edge">
<title>Node1&#45;&gt;Node19</title>
<path fill="none" stroke="midnightblue" d="M883.06,-175.45C916.78,-164.55 958.69,-151.01 987.64,-141.66"/>
<polygon fill="midnightblue" stroke="midnightblue" points="988.87,-144.94 997.31,-138.53 986.72,-138.28 988.87,-144.94"/>
</g>
<!-- Node20 -->
<g id="node20" class="node">
<title>Node20</title>
<g id="a_node20"><a xlink:title=" ">
<polygon fill="none" stroke="#bfbfbf" points="1064.67,-120.5 1064.67,-138.5 1115.69,-138.5 1115.69,-120.5 1064.67,-120.5"/>
<text text-anchor="middle" x="1090.18" y="-126.5" font-family="Helvetica,sans-Serif" font-size="10.00">iomanip</text>
</a>
</g>
</g>
<!-- Node1&#45;&gt;Node20 -->
<g id="edge20" class="edge">
<title>Node1&#45;&gt;Node20</title>
<path fill="none" stroke="midnightblue" d="M891.88,-178.31C935.35,-168.05 994.19,-154.08 1054.48,-139.39"/>
<polygon fill="midnightblue" stroke="midnightblue" points="1055.68,-142.71 1064.57,-136.94 1054.02,-135.91 1055.68,-142.71"/>
</g>
<!-- Node3 -->
<g id="node3" class="node">
<title>Node3</title>
<g id="a_node3"><a xlink:title=" ">
<polygon fill="none" stroke="#bfbfbf" points="33.32,-60.5 33.32,-78.5 141.04,-78.5 141.04,-60.5 33.32,-60.5"/>
<text text-anchor="middle" x="87.18" y="-66.5" font-family="Helvetica,sans-Serif" font-size="10.00">formatter/container.h</text>
</a>
</g>
</g>
<!-- Node2&#45;&gt;Node3 -->
<g id="edge2" class="edge">
<title>Node2&#45;&gt;Node3</title>
<path fill="none" stroke="midnightblue" d="M340.81,-122.84C299.04,-114.47 218.54,-98.27 150.18,-84 145.11,-82.94 139.81,-81.82 134.53,-80.7"/>
<polygon fill="midnightblue" stroke="midnightblue" points="134.98,-77.22 124.47,-78.56 133.52,-84.07 134.98,-77.22"/>
</g>
<!-- Node4 -->
<g id="node4" class="node">
<title>Node4</title>
<g id="a_node4"><a xlink:href="meta_8h.html" target="_top" xlink:title=" ">
<polygon fill="none" stroke="black" points="158.89,-60.5 158.89,-78.5 205.46,-78.5 205.46,-60.5 158.89,-60.5"/>
<text text-anchor="middle" x="182.18" y="-66.5" font-family="Helvetica,sans-Serif" font-size="10.00">meta.h</text>
</a>
</g>
</g>
<!-- Node2&#45;&gt;Node4 -->
<g id="edge3" class="edge">
<title>Node2&#45;&gt;Node4</title>
<path fill="none" stroke="midnightblue" d="M340.86,-121.46C309.54,-113.42 257.74,-99.38 214.18,-84 212.76,-83.5 211.31,-82.97 209.85,-82.41"/>
<polygon fill="midnightblue" stroke="midnightblue" points="210.89,-79.06 200.31,-78.59 208.29,-85.56 210.89,-79.06"/>
</g>
<!-- Node11 -->
<g id="node11" class="node">
<title>Node11</title>
<g id="a_node11"><a xlink:title=" ">
<polygon fill="none" stroke="#bfbfbf" points="223.61,-60.5 223.61,-78.5 300.74,-78.5 300.74,-60.5 223.61,-60.5"/>
<text text-anchor="middle" x="262.18" y="-66.5" font-family="Helvetica,sans-Serif" font-size="10.00">fmt/ostream.h</text>
</a>
</g>
</g>
<!-- Node2&#45;&gt;Node11 -->
<g id="edge10" class="edge">
<title>Node2&#45;&gt;Node11</title>
<path fill="none" stroke="midnightblue" d="M354.3,-120.44C336.67,-110.88 307.06,-94.83 286.18,-83.51"/>
<polygon fill="midnightblue" stroke="midnightblue" points="287.73,-80.37 277.27,-78.68 284.4,-86.53 287.73,-80.37"/>
</g>
<!-- Node12 -->
<g id="node12" class="node">
<title>Node12</title>
<g id="a_node12"><a xlink:title=" ">
<polygon fill="none" stroke="#bfbfbf" points="318.65,-55.5 318.65,-83.5 419.7,-83.5 419.7,-55.5 318.65,-55.5"/>
<text text-anchor="start" x="326.65" y="-71.5" font-family="Helvetica,sans-Serif" font-size="10.00">spdlog/sinks/stdout</text>
<text text-anchor="middle" x="369.18" y="-61.5" font-family="Helvetica,sans-Serif" font-size="10.00">_color_sinks.h</text>
</a>
</g>
</g>
<!-- Node2&#45;&gt;Node12 -->
<g id="edge11" class="edge">
<title>Node2&#45;&gt;Node12</title>
<path fill="none" stroke="midnightblue" d="M369.18,-120.44C369.18,-113.56 369.18,-103.32 369.18,-93.91"/>
<polygon fill="midnightblue" stroke="midnightblue" points="372.68,-93.84 369.18,-83.84 365.68,-93.84 372.68,-93.84"/>
</g>
<!-- Node13 -->
<g id="node13" class="node">
<title>Node13</title>
<g id="a_node13"><a xlink:title=" ">
<polygon fill="none" stroke="#bfbfbf" points="438.15,-60.5 438.15,-78.5 524.2,-78.5 524.2,-60.5 438.15,-60.5"/>
<text text-anchor="middle" x="481.18" y="-66.5" font-family="Helvetica,sans-Serif" font-size="10.00">spdlog/spdlog.h</text>
</a>
</g>
</g>
<!-- Node2&#45;&gt;Node13 -->
<g id="edge12" class="edge">
<title>Node2&#45;&gt;Node13</title>
<path fill="none" stroke="midnightblue" d="M384.75,-120.44C403.29,-110.84 434.47,-94.69 456.35,-83.36"/>
<polygon fill="midnightblue" stroke="midnightblue" points="458.1,-86.39 465.38,-78.68 454.89,-80.17 458.1,-86.39"/>
</g>
<!-- Node14 -->
<g id="node14" class="node">
<title>Node14</title>
<g id="a_node14"><a xlink:title=" ">
<polygon fill="none" stroke="#bfbfbf" points="542.4,-60.5 542.4,-78.5 593.96,-78.5 593.96,-60.5 542.4,-60.5"/>
<text text-anchor="middle" x="568.18" y="-66.5" font-family="Helvetica,sans-Serif" font-size="10.00">sstream</text>
</a>
</g>
</g>
<!-- Node2&#45;&gt;Node14 -->
<g id="edge13" class="edge">
<title>Node2&#45;&gt;Node14</title>
<path fill="none" stroke="midnightblue" d="M397.59,-121.74C430.5,-113.69 486.22,-99.38 533.18,-84 535.03,-83.39 536.94,-82.74 538.85,-82.07"/>
<polygon fill="midnightblue" stroke="midnightblue" points="540.15,-85.32 548.32,-78.57 537.72,-78.75 540.15,-85.32"/>
</g>
<!-- Node5 -->
<g id="node5" class="node">
<title>Node5</title>
<g id="a_node5"><a xlink:title=" ">
<polygon fill="none" stroke="#bfbfbf" points="0,-0.5 0,-18.5 74.35,-18.5 74.35,-0.5 0,-0.5"/>
<text text-anchor="middle" x="37.18" y="-6.5" font-family="Helvetica,sans-Serif" font-size="10.00">macro/map.h</text>
</a>
</g>
</g>
<!-- Node4&#45;&gt;Node5 -->
<g id="edge4" class="edge">
<title>Node4&#45;&gt;Node5</title>
<path fill="none" stroke="midnightblue" d="M163.26,-60.43C158.96,-58.62 154.42,-56.73 150.18,-55 122.29,-43.63 90.33,-31.09 67.54,-22.23"/>
<polygon fill="midnightblue" stroke="midnightblue" points="68.65,-18.91 58.06,-18.55 66.12,-25.43 68.65,-18.91"/>
</g>
<!-- Node6 -->
<g id="node6" class="node">
<title>Node6</title>
<g id="a_node6"><a xlink:title=" ">
<polygon fill="none" stroke="#bfbfbf" points="92.06,-0.5 92.06,-18.5 140.29,-18.5 140.29,-0.5 92.06,-0.5"/>
<text text-anchor="middle" x="116.18" y="-6.5" font-family="Helvetica,sans-Serif" font-size="10.00">cassert</text>
</a>
</g>
</g>
<!-- Node4&#45;&gt;Node6 -->
<g id="edge5" class="edge">
<title>Node4&#45;&gt;Node6</title>
<path fill="none" stroke="midnightblue" d="M173,-60.44C162.77,-51.45 146.01,-36.72 133.33,-25.58"/>
<polygon fill="midnightblue" stroke="midnightblue" points="135.53,-22.84 125.7,-18.87 130.9,-28.1 135.53,-22.84"/>
</g>
<!-- Node7 -->
<g id="node7" class="node">
<title>Node7</title>
<g id="a_node7"><a xlink:title=" ">
<polygon fill="none" stroke="#bfbfbf" points="158.62,-0.5 158.62,-18.5 205.74,-18.5 205.74,-0.5 158.62,-0.5"/>
<text text-anchor="middle" x="182.18" y="-6.5" font-family="Helvetica,sans-Serif" font-size="10.00">iterator</text>
</a>
</g>
</g>
<!-- Node4&#45;&gt;Node7 -->
<g id="edge6" class="edge">
<title>Node4&#45;&gt;Node7</title>
<path fill="none" stroke="midnightblue" d="M182.18,-60.44C182.18,-52.39 182.18,-39.74 182.18,-29.18"/>
<polygon fill="midnightblue" stroke="midnightblue" points="185.68,-28.87 182.18,-18.87 178.68,-28.87 185.68,-28.87"/>
</g>
<!-- Node4&#45;&gt;Node8 -->
<g id="edge7" class="edge">
<title>Node4&#45;&gt;Node8</title>
<path fill="none" stroke="midnightblue" d="M199.17,-60.43C203.94,-58.41 209.19,-56.42 214.18,-55 300.34,-30.4 405.49,-18.32 459.45,-13.37"/>
<polygon fill="midnightblue" stroke="midnightblue" points="459.89,-16.84 469.54,-12.47 459.27,-9.87 459.89,-16.84"/>
</g>
<!-- Node9 -->
<g id="node9" class="node">
<title>Node9</title>
<g id="a_node9"><a xlink:title=" ">
<polygon fill="none" stroke="#bfbfbf" points="223.33,-0.5 223.33,-18.5 261.02,-18.5 261.02,-0.5 223.33,-0.5"/>
<text text-anchor="middle" x="242.18" y="-6.5" font-family="Helvetica,sans-Serif" font-size="10.00">tuple</text>
</a>
</g>
</g>
<!-- Node4&#45;&gt;Node9 -->
<g id="edge8" class="edge">
<title>Node4&#45;&gt;Node9</title>
<path fill="none" stroke="midnightblue" d="M190.52,-60.44C199.73,-51.53 214.77,-37 226.25,-25.9"/>
<polygon fill="midnightblue" stroke="midnightblue" points="228.76,-28.34 233.52,-18.87 223.89,-23.31 228.76,-28.34"/>
</g>
<!-- Node10 -->
<g id="node10" class="node">
<title>Node10</title>
<g id="a_node10"><a xlink:title=" ">
<polygon fill="none" stroke="#bfbfbf" points="279.17,-0.5 279.17,-18.5 325.18,-18.5 325.18,-0.5 279.17,-0.5"/>
<text text-anchor="middle" x="302.18" y="-6.5" font-family="Helvetica,sans-Serif" font-size="10.00">variant</text>
</a>
</g>
</g>
<!-- Node4&#45;&gt;Node10 -->
<g id="edge9" class="edge">
<title>Node4&#45;&gt;Node10</title>
<path fill="none" stroke="midnightblue" d="M198.86,-60.44C218.9,-50.75 252.74,-34.4 276.2,-23.05"/>
<polygon fill="midnightblue" stroke="midnightblue" points="277.77,-26.19 285.25,-18.68 274.72,-19.88 277.77,-26.19"/>
</g>
</g>
</svg>
