<?xml version="1.0" encoding="UTF-8" standalone="no"?>
<!DOCTYPE svg PUBLIC "-//W3C//DTD SVG 1.1//EN"
 "http://www.w3.org/Graphics/SVG/1.1/DTD/svg11.dtd">
<!-- Generated by graphviz version 2.43.0 (0)
 -->
<!-- Title: /Users/ma/Codes/toltec/citlali/citlali_dev/common_utils/src/utils/eigen_op.h Pages: 1 -->
<svg width="402pt" height="157pt"
 viewBox="0.00 0.00 402.18 157.00" xmlns="http://www.w3.org/2000/svg" xmlns:xlink="http://www.w3.org/1999/xlink">
<g id="graph0" class="graph" transform="scale(1 1) rotate(0) translate(4 153)">
<title>/Users/ma/Codes/toltec/citlali/citlali_dev/common_utils/src/utils/eigen_op.h</title>
<!-- Node1 -->
<g id="node1" class="node">
<title>Node1</title>
<g id="a_node1"><a xlink:title=" ">
<polygon fill="#bfbfbf" stroke="black" points="113.77,-110.5 113.77,-148.5 242.59,-148.5 242.59,-110.5 113.77,-110.5"/>
<text text-anchor="start" x="121.77" y="-136.5" font-family="Helvetica,sans-Serif" font-size="10.00">/Users/ma/Codes/toltec</text>
<text text-anchor="start" x="121.77" y="-126.5" font-family="Helvetica,sans-Serif" font-size="10.00">/citlali/citlali_dev/common</text>
<text text-anchor="middle" x="178.18" y="-116.5" font-family="Helvetica,sans-Serif" font-size="10.00">_utils/src/utils/eigen_op.h</text>
</a>
</g>
</g>
<!-- Node2 -->
<g id="node2" class="node">
<title>Node2</title>
<g id="a_node2"><a xlink:title=" ">
<polygon fill="none" stroke="#bfbfbf" points="108.16,-55.5 108.16,-73.5 174.19,-73.5 174.19,-55.5 108.16,-55.5"/>
<text text-anchor="middle" x="141.18" y="-61.5" font-family="Helvetica,sans-Serif" font-size="10.00">Eigen/Core</text>
</a>
</g>
</g>
<!-- Node1&#45;&gt;Node2 -->
<g id="edge1" class="edge">
<title>Node1&#45;&gt;Node2</title>
<path fill="none" stroke="midnightblue" d="M167.48,-110.28C162.33,-101.51 156.19,-91.07 151.14,-82.47"/>
<polygon fill="midnightblue" stroke="midnightblue" points="154.1,-80.59 146.02,-73.74 148.06,-84.13 154.1,-80.59"/>
</g>
<!-- Node3 -->
<g id="node3" class="node">
<title>Node3</title>
<g id="a_node3"><a xlink:href="meta_8h.html" target="_top" xlink:title=" ">
<polygon fill="none" stroke="black" points="191.89,-55.5 191.89,-73.5 238.46,-73.5 238.46,-55.5 191.89,-55.5"/>
<text text-anchor="middle" x="215.18" y="-61.5" font-family="Helvetica,sans-Serif" font-size="10.00">meta.h</text>
</a>
</g>
</g>
<!-- Node1&#45;&gt;Node3 -->
<g id="edge2" class="edge">
<title>Node1&#45;&gt;Node3</title>
<path fill="none" stroke="midnightblue" d="M188.88,-110.28C194.03,-101.51 200.16,-91.07 205.21,-82.47"/>
<polygon fill="midnightblue" stroke="midnightblue" points="208.29,-84.13 210.34,-73.74 202.26,-80.59 208.29,-84.13"/>
</g>
<!-- Node4 -->
<g id="node4" class="node">
<title>Node4</title>
<g id="a_node4"><a xlink:title=" ">
<polygon fill="none" stroke="#bfbfbf" points="0,-0.5 0,-18.5 74.35,-18.5 74.35,-0.5 0,-0.5"/>
<text text-anchor="middle" x="37.18" y="-6.5" font-family="Helvetica,sans-Serif" font-size="10.00">macro/map.h</text>
</a>
</g>
</g>
<!-- Node3&#45;&gt;Node4 -->
<g id="edge3" class="edge">
<title>Node3&#45;&gt;Node4</title>
<path fill="none" stroke="midnightblue" d="M191.54,-56.46C161.5,-47.52 109.32,-31.98 74.03,-21.47"/>
<polygon fill="midnightblue" stroke="midnightblue" points="74.7,-18.02 64.12,-18.52 72.7,-24.73 74.7,-18.02"/>
</g>
<!-- Node5 -->
<g id="node5" class="node">
<title>Node5</title>
<g id="a_node5"><a xlink:title=" ">
<polygon fill="none" stroke="#bfbfbf" points="92.06,-0.5 92.06,-18.5 140.29,-18.5 140.29,-0.5 92.06,-0.5"/>
<text text-anchor="middle" x="116.18" y="-6.5" font-family="Helvetica,sans-Serif" font-size="10.00">cassert</text>
</a>
</g>
</g>
<!-- Node3&#45;&gt;Node5 -->
<g id="edge4" class="edge">
<title>Node3&#45;&gt;Node5</title>
<path fill="none" stroke="midnightblue" d="M200.14,-55.45C184.22,-46.93 158.87,-33.35 140.18,-23.35"/>
<polygon fill="midnightblue" stroke="midnightblue" points="141.82,-20.26 131.35,-18.63 138.52,-26.43 141.82,-20.26"/>
</g>
<!-- Node6 -->
<g id="node6" class="node">
<title>Node6</title>
<g id="a_node6"><a xlink:title=" ">
<polygon fill="none" stroke="#bfbfbf" points="158.62,-0.5 158.62,-18.5 205.74,-18.5 205.74,-0.5 158.62,-0.5"/>
<text text-anchor="middle" x="182.18" y="-6.5" font-family="Helvetica,sans-Serif" font-size="10.00">iterator</text>
</a>
</g>
</g>
<!-- Node3&#45;&gt;Node6 -->
<g id="edge5" class="edge">
<title>Node3&#45;&gt;Node6</title>
<path fill="none" stroke="midnightblue" d="M210.02,-55.22C205.34,-47.71 198.31,-36.41 192.48,-27.05"/>
<polygon fill="midnightblue" stroke="midnightblue" points="195.45,-25.19 187.19,-18.55 189.5,-28.89 195.45,-25.19"/>
</g>
<!-- Node7 -->
<g id="node7" class="node">
<title>Node7</title>
<g id="a_node7"><a xlink:title=" ">
<polygon fill="none" stroke="#bfbfbf" points="223.66,-0.5 223.66,-18.5 274.69,-18.5 274.69,-0.5 223.66,-0.5"/>
<text text-anchor="middle" x="249.18" y="-6.5" font-family="Helvetica,sans-Serif" font-size="10.00">optional</text>
</a>
</g>
</g>
<!-- Node3&#45;&gt;Node7 -->
<g id="edge6" class="edge">
<title>Node3&#45;&gt;Node7</title>
<path fill="none" stroke="midnightblue" d="M220.49,-55.22C225.31,-47.71 232.56,-36.41 238.56,-27.05"/>
<polygon fill="midnightblue" stroke="midnightblue" points="241.56,-28.86 244.01,-18.55 235.67,-25.08 241.56,-28.86"/>
</g>
<!-- Node8 -->
<g id="node8" class="node">
<title>Node8</title>
<g id="a_node8"><a xlink:title=" ">
<polygon fill="none" stroke="#bfbfbf" points="292.33,-0.5 292.33,-18.5 330.02,-18.5 330.02,-0.5 292.33,-0.5"/>
<text text-anchor="middle" x="311.18" y="-6.5" font-family="Helvetica,sans-Serif" font-size="10.00">tuple</text>
</a>
</g>
</g>
<!-- Node3&#45;&gt;Node8 -->
<g id="edge7" class="edge">
<title>Node3&#45;&gt;Node8</title>
<path fill="none" stroke="midnightblue" d="M229.76,-55.45C245.12,-46.97 269.56,-33.48 287.66,-23.49"/>
<polygon fill="midnightblue" stroke="midnightblue" points="289.4,-26.52 296.46,-18.63 286.01,-20.39 289.4,-26.52"/>
</g>
<!-- Node9 -->
<g id="node9" class="node">
<title>Node9</title>
<g id="a_node9"><a xlink:title=" ">
<polygon fill="none" stroke="#bfbfbf" points="348.17,-0.5 348.17,-18.5 394.18,-18.5 394.18,-0.5 348.17,-0.5"/>
<text text-anchor="middle" x="371.18" y="-6.5" font-family="Helvetica,sans-Serif" font-size="10.00">variant</text>
</a>
</g>
</g>
<!-- Node3&#45;&gt;Node9 -->
<g id="edge8" class="edge">
<title>Node3&#45;&gt;Node9</title>
<path fill="none" stroke="midnightblue" d="M238.53,-55.57C265.03,-46.56 308.44,-31.81 338.34,-21.66"/>
<polygon fill="midnightblue" stroke="midnightblue" points="339.58,-24.93 347.92,-18.4 337.32,-18.31 339.58,-24.93"/>
</g>
</g>
</svg>
