<?xml version="1.0" encoding="UTF-8" standalone="no"?>
<!DOCTYPE svg PUBLIC "-//W3C//DTD SVG 1.1//EN"
 "http://www.w3.org/Graphics/SVG/1.1/DTD/svg11.dtd">
<!-- Generated by graphviz version 2.43.0 (0)
 -->
<!-- Title: /Users/ma/Codes/toltec/citlali/citlali_dev/common_utils/src/utils/eigeniter.h Pages: 1 -->
<svg width="142pt" height="102pt"
 viewBox="0.00 0.00 142.42 102.00" xmlns="http://www.w3.org/2000/svg" xmlns:xlink="http://www.w3.org/1999/xlink">
<g id="graph0" class="graph" transform="scale(1 1) rotate(0) translate(4 98)">
<title>/Users/ma/Codes/toltec/citlali/citlali_dev/common_utils/src/utils/eigeniter.h</title>
<!-- Node1 -->
<g id="node1" class="node">
<title>Node1</title>
<g id="a_node1"><a xlink:title=" ">
<polygon fill="#bfbfbf" stroke="black" points="5.61,-55.5 5.61,-93.5 134.42,-93.5 134.42,-55.5 5.61,-55.5"/>
<text text-anchor="start" x="13.61" y="-81.5" font-family="Helvetica,sans-Serif" font-size="10.00">/Users/ma/Codes/toltec</text>
<text text-anchor="start" x="13.61" y="-71.5" font-family="Helvetica,sans-Serif" font-size="10.00">/citlali/citlali_dev/common</text>
<text text-anchor="middle" x="70.01" y="-61.5" font-family="Helvetica,sans-Serif" font-size="10.00">_utils/src/utils/eigeniter.h</text>
</a>
</g>
</g>
<!-- Node2 -->
<g id="node2" class="node">
<title>Node2</title>
<g id="a_node2"><a xlink:title=" ">
<polygon fill="none" stroke="#bfbfbf" points="0,-0.5 0,-18.5 66.03,-18.5 66.03,-0.5 0,-0.5"/>
<text text-anchor="middle" x="33.01" y="-6.5" font-family="Helvetica,sans-Serif" font-size="10.00">Eigen/Core</text>
</a>
</g>
</g>
<!-- Node1&#45;&gt;Node2 -->
<g id="edge1" class="edge">
<title>Node1&#45;&gt;Node2</title>
<path fill="none" stroke="midnightblue" d="M59.31,-55.28C54.16,-46.51 48.03,-36.07 42.98,-27.47"/>
<polygon fill="midnightblue" stroke="midnightblue" points="45.94,-25.59 37.85,-18.74 39.9,-29.13 45.94,-25.59"/>
</g>
<!-- Node3 -->
<g id="node3" class="node">
<title>Node3</title>
<g id="a_node3"><a xlink:title=" ">
<polygon fill="none" stroke="#bfbfbf" points="84.45,-0.5 84.45,-18.5 131.58,-18.5 131.58,-0.5 84.45,-0.5"/>
<text text-anchor="middle" x="108.01" y="-6.5" font-family="Helvetica,sans-Serif" font-size="10.00">iterator</text>
</a>
</g>
</g>
<!-- Node1&#45;&gt;Node3 -->
<g id="edge2" class="edge">
<title>Node1&#45;&gt;Node3</title>
<path fill="none" stroke="midnightblue" d="M81.01,-55.28C86.29,-46.51 92.59,-36.07 97.78,-27.47"/>
<polygon fill="midnightblue" stroke="midnightblue" points="100.88,-29.11 103.05,-18.74 94.88,-25.49 100.88,-29.11"/>
</g>
</g>
</svg>
