<?xml version="1.0" encoding="UTF-8" standalone="no"?>
<!DOCTYPE svg PUBLIC "-//W3C//DTD SVG 1.1//EN"
 "http://www.w3.org/Graphics/SVG/1.1/DTD/svg11.dtd">
<!-- Generated by graphviz version 2.43.0 (0)
 -->
<!-- Title: /Users/ma/Codes/toltec/citlali/citlali_dev/common_utils/src/utils/eigen.h Pages: 1 -->
<svg width="346pt" height="102pt"
 viewBox="0.00 0.00 346.08 102.00" xmlns="http://www.w3.org/2000/svg" xmlns:xlink="http://www.w3.org/1999/xlink">
<g id="graph0" class="graph" transform="scale(1 1) rotate(0) translate(4 98)">
<title>/Users/ma/Codes/toltec/citlali/citlali_dev/common_utils/src/utils/eigen.h</title>
<!-- Node1 -->
<g id="node1" class="node">
<title>Node1</title>
<g id="a_node1"><a xlink:title=" ">
<polygon fill="#bfbfbf" stroke="black" points="102.61,-55.5 102.61,-93.5 231.42,-93.5 231.42,-55.5 102.61,-55.5"/>
<text text-anchor="start" x="110.61" y="-81.5" font-family="Helvetica,sans-Serif" font-size="10.00">/Users/ma/Codes/toltec</text>
<text text-anchor="start" x="110.61" y="-71.5" font-family="Helvetica,sans-Serif" font-size="10.00">/citlali/citlali_dev/common</text>
<text text-anchor="middle" x="167.01" y="-61.5" font-family="Helvetica,sans-Serif" font-size="10.00">_utils/src/utils/eigen.h</text>
</a>
</g>
</g>
<!-- Node2 -->
<g id="node2" class="node">
<title>Node2</title>
<g id="a_node2"><a xlink:title=" ">
<polygon fill="none" stroke="#bfbfbf" points="0,-0.5 0,-18.5 66.03,-18.5 66.03,-0.5 0,-0.5"/>
<text text-anchor="middle" x="33.01" y="-6.5" font-family="Helvetica,sans-Serif" font-size="10.00">Eigen/Core</text>
</a>
</g>
</g>
<!-- Node1&#45;&gt;Node2 -->
<g id="edge1" class="edge">
<title>Node1&#45;&gt;Node2</title>
<path fill="none" stroke="midnightblue" d="M128.62,-55.45C106.52,-45.06 79.31,-32.27 59.58,-22.99"/>
<polygon fill="midnightblue" stroke="midnightblue" points="60.82,-19.7 50.28,-18.62 57.84,-26.04 60.82,-19.7"/>
</g>
<!-- Node3 -->
<g id="node3" class="node">
<title>Node3</title>
<g id="a_node3"><a xlink:title=" ">
<polygon fill="none" stroke="#bfbfbf" points="84.34,-0.5 84.34,-18.5 153.69,-18.5 153.69,-0.5 84.34,-0.5"/>
<text text-anchor="middle" x="119.01" y="-6.5" font-family="Helvetica,sans-Serif" font-size="10.00">fmt/format.h</text>
</a>
</g>
</g>
<!-- Node1&#45;&gt;Node3 -->
<g id="edge2" class="edge">
<title>Node1&#45;&gt;Node3</title>
<path fill="none" stroke="midnightblue" d="M153.13,-55.28C146.31,-46.32 138.15,-35.62 131.52,-26.92"/>
<polygon fill="midnightblue" stroke="midnightblue" points="134.14,-24.57 125.29,-18.74 128.57,-28.81 134.14,-24.57"/>
</g>
<!-- Node4 -->
<g id="node4" class="node">
<title>Node4</title>
<g id="a_node4"><a xlink:title=" ">
<polygon fill="none" stroke="#bfbfbf" points="171.99,-0.5 171.99,-18.5 258.04,-18.5 258.04,-0.5 171.99,-0.5"/>
<text text-anchor="middle" x="215.01" y="-6.5" font-family="Helvetica,sans-Serif" font-size="10.00">spdlog/spdlog.h</text>
</a>
</g>
</g>
<!-- Node1&#45;&gt;Node4 -->
<g id="edge3" class="edge">
<title>Node1&#45;&gt;Node4</title>
<path fill="none" stroke="midnightblue" d="M180.9,-55.28C187.72,-46.32 195.88,-35.62 202.51,-26.92"/>
<polygon fill="midnightblue" stroke="midnightblue" points="205.46,-28.81 208.74,-18.74 199.89,-24.57 205.46,-28.81"/>
</g>
<!-- Node5 -->
<g id="node5" class="node">
<title>Node5</title>
<g id="a_node5"><a xlink:title=" ">
<polygon fill="none" stroke="#bfbfbf" points="275.95,-0.5 275.95,-18.5 338.08,-18.5 338.08,-0.5 275.95,-0.5"/>
<text text-anchor="middle" x="307.01" y="-6.5" font-family="Helvetica,sans-Serif" font-size="10.00">type_traits</text>
</a>
</g>
</g>
<!-- Node1&#45;&gt;Node5 -->
<g id="edge4" class="edge">
<title>Node1&#45;&gt;Node5</title>
<path fill="none" stroke="midnightblue" d="M207.13,-55.45C230.43,-44.96 259.16,-32.03 279.82,-22.74"/>
<polygon fill="midnightblue" stroke="midnightblue" points="281.29,-25.91 288.98,-18.62 278.42,-19.53 281.29,-25.91"/>
</g>
</g>
</svg>
