<?xml version="1.0" encoding="UTF-8" standalone="no"?>
<!DOCTYPE svg PUBLIC "-//W3C//DTD SVG 1.1//EN"
 "http://www.w3.org/Graphics/SVG/1.1/DTD/svg11.dtd">
<!-- Generated by graphviz version 2.43.0 (0)
 -->
<!-- Title: /Users/ma/Codes/toltec/citlali/citlali_dev/common_utils/src/utils/enum.h Pages: 1 -->
<svg width="284pt" height="122pt"
 viewBox="0.00 0.00 283.82 122.00" xmlns="http://www.w3.org/2000/svg" xmlns:xlink="http://www.w3.org/1999/xlink">
<g id="graph0" class="graph" transform="scale(1 1) rotate(0) translate(4 118)">
<title>/Users/ma/Codes/toltec/citlali/citlali_dev/common_utils/src/utils/enum.h</title>
<!-- Node1 -->
<g id="node1" class="node">
<title>Node1</title>
<g id="a_node1"><a xlink:title=" ">
<polygon fill="#bfbfbf" stroke="black" points="73,-75.5 73,-113.5 201.82,-113.5 201.82,-75.5 73,-75.5"/>
<text text-anchor="start" x="81" y="-101.5" font-family="Helvetica,sans-Serif" font-size="10.00">/Users/ma/Codes/toltec</text>
<text text-anchor="start" x="81" y="-91.5" font-family="Helvetica,sans-Serif" font-size="10.00">/citlali/citlali_dev/common</text>
<text text-anchor="middle" x="137.41" y="-81.5" font-family="Helvetica,sans-Serif" font-size="10.00">_utils/src/utils/enum.h</text>
</a>
</g>
</g>
<!-- Node2 -->
<g id="node2" class="node">
<title>Node2</title>
<g id="a_node2"><a xlink:href="grppiex_8h.html" target="_top" xlink:title=" ">
<polygon fill="none" stroke="black" points="0,-0.5 0,-38.5 128.82,-38.5 128.82,-0.5 0,-0.5"/>
<text text-anchor="start" x="8" y="-26.5" font-family="Helvetica,sans-Serif" font-size="10.00">/Users/ma/Codes/toltec</text>
<text text-anchor="start" x="8" y="-16.5" font-family="Helvetica,sans-Serif" font-size="10.00">/citlali/citlali_dev/common</text>
<text text-anchor="middle" x="64.41" y="-6.5" font-family="Helvetica,sans-Serif" font-size="10.00">_utils/src/utils/grppiex.h</text>
</a>
</g>
</g>
<!-- Node1&#45;&gt;Node2 -->
<g id="edge1" class="edge">
<title>Node1&#45;&gt;Node2</title>
<path fill="none" stroke="midnightblue" d="M112.18,-68.27C102.42,-58.51 91.46,-47.55 82.5,-38.59"/>
<polygon fill="midnightblue" stroke="midnightblue" points="109.82,-70.86 119.36,-75.46 114.77,-65.91 109.82,-70.86"/>
</g>
<!-- Node3 -->
<g id="node3" class="node">
<title>Node3</title>
<g id="a_node3"><a xlink:href="mpi_8h.html" target="_top" xlink:title=" ">
<polygon fill="none" stroke="black" points="147,-0.5 147,-38.5 275.82,-38.5 275.82,-0.5 147,-0.5"/>
<text text-anchor="start" x="155" y="-26.5" font-family="Helvetica,sans-Serif" font-size="10.00">/Users/ma/Codes/toltec</text>
<text text-anchor="start" x="155" y="-16.5" font-family="Helvetica,sans-Serif" font-size="10.00">/citlali/citlali_dev/common</text>
<text text-anchor="middle" x="211.41" y="-6.5" font-family="Helvetica,sans-Serif" font-size="10.00">_utils/src/utils/mpi.h</text>
</a>
</g>
</g>
<!-- Node1&#45;&gt;Node3 -->
<g id="edge2" class="edge">
<title>Node1&#45;&gt;Node3</title>
<path fill="none" stroke="midnightblue" d="M162.98,-68.27C172.88,-58.51 183.99,-47.55 193.07,-38.59"/>
<polygon fill="midnightblue" stroke="midnightblue" points="160.36,-65.94 155.7,-75.46 165.28,-70.92 160.36,-65.94"/>
</g>
</g>
</svg>
