<?xml version="1.0" encoding="UTF-8" standalone="no"?>
<!DOCTYPE svg PUBLIC "-//W3C//DTD SVG 1.1//EN"
 "http://www.w3.org/Graphics/SVG/1.1/DTD/svg11.dtd">
<!-- Generated by graphviz version 2.43.0 (0)
 -->
<!-- Title: /Users/ma/Codes/toltec/citlali/citlali_dev/common_utils/src/utils/enum.h Pages: 1 -->
<svg width="806pt" height="212pt"
 viewBox="0.00 0.00 806.00 212.00" xmlns="http://www.w3.org/2000/svg" xmlns:xlink="http://www.w3.org/1999/xlink">
<g id="graph0" class="graph" transform="scale(1 1) rotate(0) translate(4 208)">
<title>/Users/ma/Codes/toltec/citlali/citlali_dev/common_utils/src/utils/enum.h</title>
<!-- Node1 -->
<g id="node1" class="node">
<title>Node1</title>
<g id="a_node1"><a xlink:title=" ">
<polygon fill="#bfbfbf" stroke="black" points="335.71,-165.5 335.71,-203.5 464.52,-203.5 464.52,-165.5 335.71,-165.5"/>
<text text-anchor="start" x="343.71" y="-191.5" font-family="Helvetica,sans-Serif" font-size="10.00">/Users/ma/Codes/toltec</text>
<text text-anchor="start" x="343.71" y="-181.5" font-family="Helvetica,sans-Serif" font-size="10.00">/citlali/citlali_dev/common</text>
<text text-anchor="middle" x="400.12" y="-171.5" font-family="Helvetica,sans-Serif" font-size="10.00">_utils/src/utils/enum.h</text>
</a>
</g>
</g>
<!-- Node2 -->
<g id="node2" class="node">
<title>Node2</title>
<g id="a_node2"><a xlink:href="bits_8h.html" target="_top" xlink:title=" ">
<polygon fill="none" stroke="black" points="241.17,-110.5 241.17,-128.5 281.07,-128.5 281.07,-110.5 241.17,-110.5"/>
<text text-anchor="middle" x="261.12" y="-116.5" font-family="Helvetica,sans-Serif" font-size="10.00">bits.h</text>
</a>
</g>
</g>
<!-- Node1&#45;&gt;Node2 -->
<g id="edge1" class="edge">
<title>Node1&#45;&gt;Node2</title>
<path fill="none" stroke="midnightblue" d="M360.28,-165.45C337.26,-155.01 308.88,-142.15 288.39,-132.86"/>
<polygon fill="midnightblue" stroke="midnightblue" points="289.58,-129.56 279.02,-128.62 286.69,-135.93 289.58,-129.56"/>
</g>
<!-- Node3 -->
<g id="node3" class="node">
<title>Node3</title>
<g id="a_node3"><a xlink:href="meta_8h.html" target="_top" xlink:title=" ">
<polygon fill="none" stroke="black" points="178.83,-55.5 178.83,-73.5 225.4,-73.5 225.4,-55.5 178.83,-55.5"/>
<text text-anchor="middle" x="202.12" y="-61.5" font-family="Helvetica,sans-Serif" font-size="10.00">meta.h</text>
</a>
</g>
</g>
<!-- Node1&#45;&gt;Node3 -->
<g id="edge17" class="edge">
<title>Node1&#45;&gt;Node3</title>
<path fill="none" stroke="midnightblue" d="M335.36,-175.09C301.3,-167.8 260.78,-154.22 232.12,-129 218.68,-117.18 210.79,-98.04 206.5,-83.86"/>
<polygon fill="midnightblue" stroke="midnightblue" points="209.77,-82.54 203.8,-73.79 203.01,-84.35 209.77,-82.54"/>
</g>
<!-- Node5 -->
<g id="node5" class="node">
<title>Node5</title>
<g id="a_node5"><a xlink:title=" ">
<polygon fill="none" stroke="#bfbfbf" points="0,-0.5 0,-18.5 48.23,-18.5 48.23,-0.5 0,-0.5"/>
<text text-anchor="middle" x="24.12" y="-6.5" font-family="Helvetica,sans-Serif" font-size="10.00">cassert</text>
</a>
</g>
</g>
<!-- Node1&#45;&gt;Node5 -->
<g id="edge15" class="edge">
<title>Node1&#45;&gt;Node5</title>
<path fill="none" stroke="midnightblue" d="M335.37,-169.32C298.63,-160.13 252.3,-146.58 213.12,-129 146.58,-99.14 75.67,-49.1 42.82,-24.72"/>
<polygon fill="midnightblue" stroke="midnightblue" points="44.7,-21.75 34.6,-18.56 40.5,-27.35 44.7,-21.75"/>
</g>
<!-- Node9 -->
<g id="node9" class="node">
<title>Node9</title>
<g id="a_node9"><a xlink:title=" ">
<polygon fill="none" stroke="#bfbfbf" points="348.11,-0.5 348.11,-18.5 394.12,-18.5 394.12,-0.5 348.11,-0.5"/>
<text text-anchor="middle" x="371.12" y="-6.5" font-family="Helvetica,sans-Serif" font-size="10.00">variant</text>
</a>
</g>
</g>
<!-- Node1&#45;&gt;Node9 -->
<g id="edge19" class="edge">
<title>Node1&#45;&gt;Node9</title>
<path fill="none" stroke="midnightblue" d="M393.89,-165.29C390.53,-154.79 386.57,-141.28 384.12,-129 377.1,-93.93 373.63,-52.21 372.12,-28.8"/>
<polygon fill="midnightblue" stroke="midnightblue" points="375.6,-28.4 371.51,-18.62 368.61,-28.81 375.6,-28.4"/>
</g>
<!-- Node10 -->
<g id="node10" class="node">
<title>Node10</title>
<g id="a_node10"><a xlink:title=" ">
<polygon fill="none" stroke="#bfbfbf" points="281.05,-55.5 281.05,-73.5 343.18,-73.5 343.18,-55.5 281.05,-55.5"/>
<text text-anchor="middle" x="312.12" y="-61.5" font-family="Helvetica,sans-Serif" font-size="10.00">type_traits</text>
</a>
</g>
</g>
<!-- Node1&#45;&gt;Node10 -->
<g id="edge12" class="edge">
<title>Node1&#45;&gt;Node10</title>
<path fill="none" stroke="midnightblue" d="M382,-165.06C372.35,-154.82 360.56,-141.64 351.12,-129 339.89,-113.97 328.86,-95.59 321.42,-82.48"/>
<polygon fill="midnightblue" stroke="midnightblue" points="324.41,-80.65 316.48,-73.62 318.29,-84.06 324.41,-80.65"/>
</g>
<!-- Node11 -->
<g id="node11" class="node">
<title>Node11</title>
<g id="a_node11"><a xlink:title=" ">
<polygon fill="none" stroke="#bfbfbf" points="392.82,-110.5 392.82,-128.5 479.41,-128.5 479.41,-110.5 392.82,-110.5"/>
<text text-anchor="middle" x="436.12" y="-116.5" font-family="Helvetica,sans-Serif" font-size="10.00">enum/bitmask.h</text>
</a>
</g>
</g>
<!-- Node1&#45;&gt;Node11 -->
<g id="edge11" class="edge">
<title>Node1&#45;&gt;Node11</title>
<path fill="none" stroke="midnightblue" d="M410.53,-165.28C415.54,-156.51 421.51,-146.07 426.42,-137.47"/>
<polygon fill="midnightblue" stroke="midnightblue" points="429.49,-139.16 431.41,-128.74 423.41,-135.68 429.49,-139.16"/>
</g>
<!-- Node12 -->
<g id="node12" class="node">
<title>Node12</title>
<g id="a_node12"><a xlink:title=" ">
<polygon fill="none" stroke="#bfbfbf" points="497.71,-110.5 497.71,-128.5 556.52,-128.5 556.52,-110.5 497.71,-110.5"/>
<text text-anchor="middle" x="527.12" y="-116.5" font-family="Helvetica,sans-Serif" font-size="10.00">functional</text>
</a>
</g>
</g>
<!-- Node1&#45;&gt;Node12 -->
<g id="edge13" class="edge">
<title>Node1&#45;&gt;Node12</title>
<path fill="none" stroke="midnightblue" d="M436.51,-165.45C457.36,-155.11 483,-142.38 501.68,-133.12"/>
<polygon fill="midnightblue" stroke="midnightblue" points="503.35,-136.2 510.75,-128.62 500.24,-129.93 503.35,-136.2"/>
</g>
<!-- Node13 -->
<g id="node13" class="node">
<title>Node13</title>
<g id="a_node13"><a xlink:title=" ">
<polygon fill="none" stroke="#bfbfbf" points="574.73,-110.5 574.73,-128.5 613.5,-128.5 613.5,-110.5 574.73,-110.5"/>
<text text-anchor="middle" x="594.12" y="-116.5" font-family="Helvetica,sans-Serif" font-size="10.00">limits</text>
</a>
</g>
</g>
<!-- Node1&#45;&gt;Node13 -->
<g id="edge14" class="edge">
<title>Node1&#45;&gt;Node13</title>
<path fill="none" stroke="midnightblue" d="M455.71,-165.45C491.21,-153.92 535.82,-139.43 564.64,-130.07"/>
<polygon fill="midnightblue" stroke="midnightblue" points="566.07,-133.29 574.5,-126.87 563.91,-126.63 566.07,-133.29"/>
</g>
<!-- Node14 -->
<g id="node14" class="node">
<title>Node14</title>
<g id="a_node14"><a xlink:title=" ">
<polygon fill="none" stroke="#bfbfbf" points="631.65,-110.5 631.65,-128.5 736.59,-128.5 736.59,-110.5 631.65,-110.5"/>
<text text-anchor="middle" x="684.12" y="-116.5" font-family="Helvetica,sans-Serif" font-size="10.00">enum/meta_enum.h</text>
</a>
</g>
</g>
<!-- Node1&#45;&gt;Node14 -->
<g id="edge16" class="edge">
<title>Node1&#45;&gt;Node14</title>
<path fill="none" stroke="midnightblue" d="M464.56,-169.2C517.31,-157.5 590.67,-141.23 637.77,-130.78"/>
<polygon fill="midnightblue" stroke="midnightblue" points="638.7,-134.16 647.7,-128.58 637.18,-127.33 638.7,-134.16"/>
</g>
<!-- Node15 -->
<g id="node15" class="node">
<title>Node15</title>
<g id="a_node15"><a xlink:title=" ">
<polygon fill="none" stroke="#bfbfbf" points="754.23,-110.5 754.23,-128.5 798,-128.5 798,-110.5 754.23,-110.5"/>
<text text-anchor="middle" x="776.12" y="-116.5" font-family="Helvetica,sans-Serif" font-size="10.00">climits</text>
</a>
</g>
</g>
<!-- Node1&#45;&gt;Node15 -->
<g id="edge18" class="edge">
<title>Node1&#45;&gt;Node15</title>
<path fill="none" stroke="midnightblue" d="M464.73,-175.47C532.17,-166.6 641.12,-150.9 744.22,-128.98"/>
<polygon fill="midnightblue" stroke="midnightblue" points="745.13,-132.36 754.17,-126.84 743.66,-125.52 745.13,-132.36"/>
</g>
<!-- Node2&#45;&gt;Node3 -->
<g id="edge2" class="edge">
<title>Node2&#45;&gt;Node3</title>
<path fill="none" stroke="midnightblue" d="M252.15,-110.45C243.32,-102.51 229.6,-90.19 218.76,-80.45"/>
<polygon fill="midnightblue" stroke="midnightblue" points="220.94,-77.7 211.16,-73.63 216.26,-82.91 220.94,-77.7"/>
</g>
<!-- Node8 -->
<g id="node8" class="node">
<title>Node8</title>
<g id="a_node8"><a xlink:title=" ">
<polygon fill="none" stroke="#bfbfbf" points="292.27,-0.5 292.27,-18.5 329.96,-18.5 329.96,-0.5 292.27,-0.5"/>
<text text-anchor="middle" x="311.12" y="-6.5" font-family="Helvetica,sans-Serif" font-size="10.00">tuple</text>
</a>
</g>
</g>
<!-- Node2&#45;&gt;Node8 -->
<g id="edge9" class="edge">
<title>Node2&#45;&gt;Node8</title>
<path fill="none" stroke="midnightblue" d="M261.14,-110.26C261.48,-97.72 263.34,-73.37 272.12,-55 277.36,-44.02 286.11,-33.67 293.99,-25.72"/>
<polygon fill="midnightblue" stroke="midnightblue" points="296.6,-28.07 301.42,-18.63 291.77,-23 296.6,-28.07"/>
</g>
<!-- Node2&#45;&gt;Node10 -->
<g id="edge10" class="edge">
<title>Node2&#45;&gt;Node10</title>
<path fill="none" stroke="midnightblue" d="M269.08,-110.22C276.61,-102.39 288.09,-90.46 297.3,-80.89"/>
<polygon fill="midnightblue" stroke="midnightblue" points="299.96,-83.18 304.37,-73.55 294.91,-78.33 299.96,-83.18"/>
</g>
<!-- Node4 -->
<g id="node4" class="node">
<title>Node4</title>
<g id="a_node4"><a xlink:title=" ">
<polygon fill="none" stroke="#bfbfbf" points="65.94,-0.5 65.94,-18.5 140.29,-18.5 140.29,-0.5 65.94,-0.5"/>
<text text-anchor="middle" x="103.12" y="-6.5" font-family="Helvetica,sans-Serif" font-size="10.00">macro/map.h</text>
</a>
</g>
</g>
<!-- Node3&#45;&gt;Node4 -->
<g id="edge3" class="edge">
<title>Node3&#45;&gt;Node4</title>
<path fill="none" stroke="midnightblue" d="M187.08,-55.45C171.16,-46.93 145.8,-33.35 127.12,-23.35"/>
<polygon fill="midnightblue" stroke="midnightblue" points="128.76,-20.26 118.29,-18.63 125.46,-26.43 128.76,-20.26"/>
</g>
<!-- Node3&#45;&gt;Node5 -->
<g id="edge4" class="edge">
<title>Node3&#45;&gt;Node5</title>
<path fill="none" stroke="midnightblue" d="M178.48,-56.46C147.66,-47.29 93.55,-31.18 58.28,-20.67"/>
<polygon fill="midnightblue" stroke="midnightblue" points="59,-17.24 48.42,-17.74 57.01,-23.95 59,-17.24"/>
</g>
<!-- Node6 -->
<g id="node6" class="node">
<title>Node6</title>
<g id="a_node6"><a xlink:title=" ">
<polygon fill="none" stroke="#bfbfbf" points="158.55,-0.5 158.55,-18.5 205.68,-18.5 205.68,-0.5 158.55,-0.5"/>
<text text-anchor="middle" x="182.12" y="-6.5" font-family="Helvetica,sans-Serif" font-size="10.00">iterator</text>
</a>
</g>
</g>
<!-- Node3&#45;&gt;Node6 -->
<g id="edge5" class="edge">
<title>Node3&#45;&gt;Node6</title>
<path fill="none" stroke="midnightblue" d="M198.99,-55.22C196.24,-47.94 192.16,-37.11 188.69,-27.93"/>
<polygon fill="midnightblue" stroke="midnightblue" points="191.96,-26.67 185.15,-18.55 185.41,-29.14 191.96,-26.67"/>
</g>
<!-- Node7 -->
<g id="node7" class="node">
<title>Node7</title>
<g id="a_node7"><a xlink:title=" ">
<polygon fill="none" stroke="#bfbfbf" points="223.6,-0.5 223.6,-18.5 274.63,-18.5 274.63,-0.5 223.6,-0.5"/>
<text text-anchor="middle" x="249.12" y="-6.5" font-family="Helvetica,sans-Serif" font-size="10.00">optional</text>
</a>
</g>
</g>
<!-- Node3&#45;&gt;Node7 -->
<g id="edge6" class="edge">
<title>Node3&#45;&gt;Node7</title>
<path fill="none" stroke="midnightblue" d="M209.46,-55.22C216.33,-47.47 226.77,-35.7 235.21,-26.18"/>
<polygon fill="midnightblue" stroke="midnightblue" points="237.96,-28.35 241.98,-18.55 232.72,-23.71 237.96,-28.35"/>
</g>
<!-- Node3&#45;&gt;Node8 -->
<g id="edge7" class="edge">
<title>Node3&#45;&gt;Node8</title>
<path fill="none" stroke="midnightblue" d="M218.67,-55.45C236.36,-46.85 264.63,-33.1 285.25,-23.08"/>
<polygon fill="midnightblue" stroke="midnightblue" points="286.94,-26.15 294.41,-18.63 283.88,-19.85 286.94,-26.15"/>
</g>
<!-- Node3&#45;&gt;Node9 -->
<g id="edge8" class="edge">
<title>Node3&#45;&gt;Node9</title>
<path fill="none" stroke="midnightblue" d="M225.61,-56.13C254.96,-46.93 305.31,-31.14 338.41,-20.76"/>
<polygon fill="midnightblue" stroke="midnightblue" points="339.59,-24.05 348.09,-17.72 337.5,-17.37 339.59,-24.05"/>
</g>
</g>
</svg>
