<?xml version="1.0" encoding="UTF-8" standalone="no"?>
<!DOCTYPE svg PUBLIC "-//W3C//DTD SVG 1.1//EN"
 "http://www.w3.org/Graphics/SVG/1.1/DTD/svg11.dtd">
<!-- Generated by graphviz version 2.43.0 (0)
 -->
<!-- Title: /Users/ma/Codes/toltec/citlali/citlali_dev/common_utils/src/utils/filename.h Pages: 1 -->
<svg width="327pt" height="157pt"
 viewBox="0.00 0.00 327.42 157.00" xmlns="http://www.w3.org/2000/svg" xmlns:xlink="http://www.w3.org/1999/xlink">
<g id="graph0" class="graph" transform="scale(1 1) rotate(0) translate(4 153)">
<title>/Users/ma/Codes/toltec/citlali/citlali_dev/common_utils/src/utils/filename.h</title>
<!-- Node1 -->
<g id="node1" class="node">
<title>Node1</title>
<g id="a_node1"><a xlink:title=" ">
<polygon fill="#bfbfbf" stroke="black" points="92.99,-110.5 92.99,-148.5 221.81,-148.5 221.81,-110.5 92.99,-110.5"/>
<text text-anchor="start" x="100.99" y="-136.5" font-family="Helvetica,sans-Serif" font-size="10.00">/Users/ma/Codes/toltec</text>
<text text-anchor="start" x="100.99" y="-126.5" font-family="Helvetica,sans-Serif" font-size="10.00">/citlali/citlali_dev/common</text>
<text text-anchor="middle" x="157.4" y="-116.5" font-family="Helvetica,sans-Serif" font-size="10.00">_utils/src/utils/filename.h</text>
</a>
</g>
</g>
<!-- Node2 -->
<g id="node2" class="node">
<title>Node2</title>
<g id="a_node2"><a xlink:href="filesystem_8h.html" target="_top" xlink:title=" ">
<polygon fill="none" stroke="black" points="0,-55.5 0,-73.5 68.79,-73.5 68.79,-55.5 0,-55.5"/>
<text text-anchor="middle" x="34.4" y="-61.5" font-family="Helvetica,sans-Serif" font-size="10.00">filesystem.h</text>
</a>
</g>
</g>
<!-- Node1&#45;&gt;Node2 -->
<g id="edge1" class="edge">
<title>Node1&#45;&gt;Node2</title>
<path fill="none" stroke="midnightblue" d="M122.15,-110.45C102.14,-100.2 77.58,-87.62 59.53,-78.37"/>
<polygon fill="midnightblue" stroke="midnightblue" points="60.74,-75.06 50.24,-73.62 57.55,-81.29 60.74,-75.06"/>
</g>
<!-- Node4 -->
<g id="node4" class="node">
<title>Node4</title>
<g id="a_node4"><a xlink:title=" ">
<polygon fill="none" stroke="#bfbfbf" points="86.72,-55.5 86.72,-73.5 156.07,-73.5 156.07,-55.5 86.72,-55.5"/>
<text text-anchor="middle" x="121.4" y="-61.5" font-family="Helvetica,sans-Serif" font-size="10.00">fmt/format.h</text>
</a>
</g>
</g>
<!-- Node1&#45;&gt;Node4 -->
<g id="edge3" class="edge">
<title>Node1&#45;&gt;Node4</title>
<path fill="none" stroke="midnightblue" d="M146.98,-110.28C141.97,-101.51 136.01,-91.07 131.09,-82.47"/>
<polygon fill="midnightblue" stroke="midnightblue" points="134.1,-80.68 126.1,-73.74 128.03,-84.16 134.1,-80.68"/>
</g>
<!-- Node5 -->
<g id="node5" class="node">
<title>Node5</title>
<g id="a_node5"><a xlink:title=" ">
<polygon fill="none" stroke="#bfbfbf" points="173.89,-55.5 173.89,-73.5 214.9,-73.5 214.9,-55.5 173.89,-55.5"/>
<text text-anchor="middle" x="194.4" y="-61.5" font-family="Helvetica,sans-Serif" font-size="10.00">regex</text>
</a>
</g>
</g>
<!-- Node1&#45;&gt;Node5 -->
<g id="edge4" class="edge">
<title>Node1&#45;&gt;Node5</title>
<path fill="none" stroke="midnightblue" d="M168.1,-110.28C173.25,-101.51 179.38,-91.07 184.43,-82.47"/>
<polygon fill="midnightblue" stroke="midnightblue" points="187.51,-84.13 189.56,-73.74 181.48,-80.59 187.51,-84.13"/>
</g>
<!-- Node6 -->
<g id="node6" class="node">
<title>Node6</title>
<g id="a_node6"><a xlink:title=" ">
<polygon fill="none" stroke="#bfbfbf" points="233.37,-55.5 233.37,-73.5 319.42,-73.5 319.42,-55.5 233.37,-55.5"/>
<text text-anchor="middle" x="276.4" y="-61.5" font-family="Helvetica,sans-Serif" font-size="10.00">spdlog/spdlog.h</text>
</a>
</g>
</g>
<!-- Node1&#45;&gt;Node6 -->
<g id="edge5" class="edge">
<title>Node1&#45;&gt;Node6</title>
<path fill="none" stroke="midnightblue" d="M191.5,-110.45C210.85,-100.2 234.62,-87.62 252.08,-78.37"/>
<polygon fill="midnightblue" stroke="midnightblue" points="253.86,-81.39 261.06,-73.62 250.59,-75.2 253.86,-81.39"/>
</g>
<!-- Node3 -->
<g id="node3" class="node">
<title>Node3</title>
<g id="a_node3"><a xlink:title=" ">
<polygon fill="none" stroke="#bfbfbf" points="4.17,-0.5 4.17,-18.5 64.62,-18.5 64.62,-0.5 4.17,-0.5"/>
<text text-anchor="middle" x="34.4" y="-6.5" font-family="Helvetica,sans-Serif" font-size="10.00">filesystem</text>
</a>
</g>
</g>
<!-- Node2&#45;&gt;Node3 -->
<g id="edge2" class="edge">
<title>Node2&#45;&gt;Node3</title>
<path fill="none" stroke="midnightblue" d="M34.4,-55.22C34.4,-48.18 34.4,-37.81 34.4,-28.83"/>
<polygon fill="midnightblue" stroke="midnightblue" points="37.9,-28.55 34.4,-18.55 30.9,-28.55 37.9,-28.55"/>
</g>
</g>
</svg>
