<?xml version="1.0" encoding="UTF-8" standalone="no"?>
<!DOCTYPE svg PUBLIC "-//W3C//DTD SVG 1.1//EN"
 "http://www.w3.org/Graphics/SVG/1.1/DTD/svg11.dtd">
<!-- Generated by graphviz version 2.43.0 (0)
 -->
<!-- Title: /Users/ma/Codes/toltec/citlali/citlali_dev/common_utils/src/utils/grppiex.h Pages: 1 -->
<!--zoomable 307 -->
<svg id="main" version="1.1" xmlns="http://www.w3.org/2000/svg" xmlns:xlink="http://www.w3.org/1999/xlink" xml:space="preserve" onload="init(evt)">
<style type="text/css"><![CDATA[
.edge:hover path { stroke: red; }
.edge:hover polygon { stroke: red; fill: red; }
]]></style>
<script type="text/javascript"><![CDATA[
var edges = document.getElementsByTagName('g');
if (edges && edges.length) {
  for (var i=0;i<edges.length;i++) {
    if (edges[i].id.substr(0,4)=='edge') {
      edges[i].setAttribute('class','edge');
    }
  }
}
]]></script>
        <defs>
                <circle id="rim" cx="0" cy="0" r="7"/>
                <circle id="rim2" cx="0" cy="0" r="3.5"/>
                <g id="zoomPlus">
                        <use xlink:href="#rim" fill="#404040">
                                <set attributeName="fill" to="#808080" begin="zoomplus.mouseover" end="zoomplus.mouseout"/>
                        </use>
                        <path d="M-4,0h8M0,-4v8" fill="none" stroke="white" stroke-width="1.5" pointer-events="none"/>
                </g>
                <g id="zoomMin">
                        <use xlink:href="#rim" fill="#404040">
                                <set attributeName="fill" to="#808080" begin="zoomminus.mouseover" end="zoomminus.mouseout"/>
                        </use>
                        <path d="M-4,0h8" fill="none" stroke="white" stroke-width="1.5" pointer-events="none"/>
                </g>
                <g id="dirArrow">
                        <path fill="none" stroke="white" stroke-width="1.5" d="M0,-3.0v7 M-2.5,-0.5L0,-3.0L2.5,-0.5"/>
                </g>
               <g id="resetDef">
                       <use xlink:href="#rim2" fill="#404040">
                               <set attributeName="fill" to="#808080" begin="reset.mouseover" end="reset.mouseout"/>
                       </use>
               </g>
        </defs>

<script type="text/javascript">
var viewWidth = 1454;
var viewHeight = 307;
var sectionId = 'dynsection-0';
</script>
<script xlink:href="svgpan.js"/>
<svg id="graph" class="graph">
<g id="viewport">
<title>/Users/ma/Codes/toltec/citlali/citlali_dev/common_utils/src/utils/grppiex.h</title>
<!-- Node1 -->
<g id="node1" class="node">
<title>Node1</title>
<g id="a_node1"><a xlink:title=" ">
<polygon fill="#bfbfbf" stroke="black" points="942.86,-260.5 942.86,-298.5 1071.68,-298.5 1071.68,-260.5 942.86,-260.5"/>
<text text-anchor="start" x="950.86" y="-286.5" font-family="Helvetica,sans-Serif" font-size="10.00">/Users/ma/Codes/toltec</text>
<text text-anchor="start" x="950.86" y="-276.5" font-family="Helvetica,sans-Serif" font-size="10.00">/citlali/citlali_dev/common</text>
<text text-anchor="middle" x="1007.27" y="-266.5" font-family="Helvetica,sans-Serif" font-size="10.00">_utils/src/utils/grppiex.h</text>
</a>
</g>
</g>
<!-- Node2 -->
<g id="node2" class="node">
<title>Node2</title>
<g id="a_node2"><a xlink:href="enum_8h.html" target="_top" xlink:title=" ">
<polygon fill="none" stroke="black" points="721.59,-190.5 721.59,-208.5 770.95,-208.5 770.95,-190.5 721.59,-190.5"/>
<text text-anchor="middle" x="746.27" y="-196.5" font-family="Helvetica,sans-Serif" font-size="10.00">enum.h</text>
</a>
</g>
</g>
<!-- Node1&#45;&gt;Node2 -->
<g id="edge1" class="edge">
<title>Node1&#45;&gt;Node2</title>
<path fill="none" stroke="midnightblue" d="M942.59,-269.5C896.01,-261.48 832.45,-247.31 780.27,-224 774.7,-221.51 769.08,-218.09 764.06,-214.62"/>
<polygon fill="midnightblue" stroke="midnightblue" points="765.93,-211.65 755.8,-208.53 761.77,-217.28 765.93,-211.65"/>
</g>
<!-- Node4 -->
<g id="node4" class="node">
<title>Node4</title>
<g id="a_node4"><a xlink:href="meta_8h.html" target="_top" xlink:title=" ">
<polygon fill="none" stroke="black" points="532.98,-55.5 532.98,-73.5 579.56,-73.5 579.56,-55.5 532.98,-55.5"/>
<text text-anchor="middle" x="556.27" y="-61.5" font-family="Helvetica,sans-Serif" font-size="10.00">meta.h</text>
</a>
</g>
</g>
<!-- Node1&#45;&gt;Node4 -->
<g id="edge21" class="edge">
<title>Node1&#45;&gt;Node4</title>
<path fill="none" stroke="midnightblue" d="M942.75,-277.38C820.31,-274.38 546.22,-263.45 319.27,-224 177.25,-199.31 93.83,-253.51 6.27,-139 -1.56,-128.76 -2.47,-119.47 6.27,-110 41.31,-72.01 408.07,-66.45 522.42,-65.64"/>
<polygon fill="midnightblue" stroke="midnightblue" points="522.7,-69.14 532.68,-65.57 522.65,-62.14 522.7,-69.14"/>
</g>
<!-- Node17 -->
<g id="node17" class="node">
<title>Node17</title>
<g id="a_node17"><a xlink:href="logging_8h.html" target="_top" xlink:title=" ">
<polygon fill="none" stroke="black" points="327.97,-190.5 327.97,-208.5 384.57,-208.5 384.57,-190.5 327.97,-190.5"/>
<text text-anchor="middle" x="356.27" y="-196.5" font-family="Helvetica,sans-Serif" font-size="10.00">logging.h</text>
</a>
</g>
</g>
<!-- Node1&#45;&gt;Node17 -->
<g id="edge22" class="edge">
<title>Node1&#45;&gt;Node17</title>
<path fill="none" stroke="midnightblue" d="M942.77,-270.77C808.49,-254.68 502.44,-218.01 394.68,-205.1"/>
<polygon fill="midnightblue" stroke="midnightblue" points="394.93,-201.61 384.59,-203.89 394.1,-208.56 394.93,-201.61"/>
</g>
<!-- Node23 -->
<g id="node23" class="node">
<title>Node23</title>
<g id="a_node23"><a xlink:title=" ">
<polygon fill="none" stroke="#bfbfbf" points="789.34,-190.5 789.34,-208.5 943.2,-208.5 943.2,-190.5 789.34,-190.5"/>
<text text-anchor="middle" x="866.27" y="-196.5" font-family="Helvetica,sans-Serif" font-size="10.00">grppi/dyn/dynamic_execution.h</text>
</a>
</g>
</g>
<!-- Node1&#45;&gt;Node23 -->
<g id="edge29" class="edge">
<title>Node1&#45;&gt;Node23</title>
<path fill="none" stroke="midnightblue" d="M974.57,-260.41C948.54,-246.01 912.76,-226.22 889.57,-213.39"/>
<polygon fill="midnightblue" stroke="midnightblue" points="891.21,-210.3 880.76,-208.52 887.82,-216.42 891.21,-210.3"/>
</g>
<!-- Node24 -->
<g id="node24" class="node">
<title>Node24</title>
<g id="a_node24"><a xlink:title=" ">
<polygon fill="none" stroke="#bfbfbf" points="961.2,-190.5 961.2,-208.5 1053.34,-208.5 1053.34,-190.5 961.2,-190.5"/>
<text text-anchor="middle" x="1007.27" y="-196.5" font-family="Helvetica,sans-Serif" font-size="10.00">formatter/enum.h</text>
</a>
</g>
</g>
<!-- Node1&#45;&gt;Node24 -->
<g id="edge30" class="edge">
<title>Node1&#45;&gt;Node24</title>
<path fill="none" stroke="midnightblue" d="M1007.27,-260.41C1007.27,-247.87 1007.27,-231.23 1007.27,-218.67"/>
<polygon fill="midnightblue" stroke="midnightblue" points="1010.77,-218.52 1007.27,-208.52 1003.77,-218.52 1010.77,-218.52"/>
</g>
<!-- Node25 -->
<g id="node25" class="node">
<title>Node25</title>
<g id="a_node25"><a xlink:title=" ">
<polygon fill="none" stroke="#bfbfbf" points="1070.86,-175.5 1070.86,-223.5 1199.68,-223.5 1199.68,-175.5 1070.86,-175.5"/>
<text text-anchor="start" x="1078.86" y="-211.5" font-family="Helvetica,sans-Serif" font-size="10.00">/Users/ma/Codes/toltec</text>
<text text-anchor="start" x="1078.86" y="-201.5" font-family="Helvetica,sans-Serif" font-size="10.00">/citlali/citlali_dev/common</text>
<text text-anchor="start" x="1078.86" y="-191.5" font-family="Helvetica,sans-Serif" font-size="10.00">_utils/src/utils/formatter</text>
<text text-anchor="middle" x="1135.27" y="-181.5" font-family="Helvetica,sans-Serif" font-size="10.00">/container.h</text>
</a>
</g>
</g>
<!-- Node1&#45;&gt;Node25 -->
<g id="edge31" class="edge">
<title>Node1&#45;&gt;Node25</title>
<path fill="none" stroke="midnightblue" d="M1036.96,-260.41C1052.3,-251.06 1071.38,-239.43 1088.64,-228.91"/>
<polygon fill="midnightblue" stroke="midnightblue" points="1090.75,-231.73 1097.47,-223.53 1087.11,-225.75 1090.75,-231.73"/>
</g>
<!-- Node26 -->
<g id="node26" class="node">
<title>Node26</title>
<g id="a_node26"><a xlink:title=" ">
<polygon fill="none" stroke="#bfbfbf" points="1217.6,-190.5 1217.6,-208.5 1286.94,-208.5 1286.94,-190.5 1217.6,-190.5"/>
<text text-anchor="middle" x="1252.27" y="-196.5" font-family="Helvetica,sans-Serif" font-size="10.00">fmt/format.h</text>
</a>
</g>
</g>
<!-- Node1&#45;&gt;Node26 -->
<g id="edge32" class="edge">
<title>Node1&#45;&gt;Node26</title>
<path fill="none" stroke="midnightblue" d="M1071.84,-264.91C1111.85,-255.54 1163.91,-241.6 1208.27,-224 1215.69,-221.06 1223.46,-217.19 1230.38,-213.44"/>
<polygon fill="midnightblue" stroke="midnightblue" points="1232.16,-216.46 1239.16,-208.51 1228.73,-210.35 1232.16,-216.46"/>
</g>
<!-- Node27 -->
<g id="node27" class="node">
<title>Node27</title>
<g id="a_node27"><a xlink:title=" ">
<polygon fill="none" stroke="#bfbfbf" points="1304.47,-190.5 1304.47,-208.5 1376.07,-208.5 1376.07,-190.5 1304.47,-190.5"/>
<text text-anchor="middle" x="1340.27" y="-196.5" font-family="Helvetica,sans-Serif" font-size="10.00">grppi/grppi.h</text>
</a>
</g>
</g>
<!-- Node1&#45;&gt;Node27 -->
<g id="edge33" class="edge">
<title>Node1&#45;&gt;Node27</title>
<path fill="none" stroke="midnightblue" d="M1071.87,-272.02C1131.42,-264.71 1221.62,-250.28 1296.27,-224 1303.91,-221.31 1311.84,-217.45 1318.82,-213.64"/>
<polygon fill="midnightblue" stroke="midnightblue" points="1320.72,-216.58 1327.65,-208.57 1317.24,-210.51 1320.72,-216.58"/>
</g>
<!-- Node28 -->
<g id="node28" class="node">
<title>Node28</title>
<g id="a_node28"><a xlink:title=" ">
<polygon fill="none" stroke="#bfbfbf" points="1394.49,-190.5 1394.49,-208.5 1446.05,-208.5 1446.05,-190.5 1394.49,-190.5"/>
<text text-anchor="middle" x="1420.27" y="-196.5" font-family="Helvetica,sans-Serif" font-size="10.00">numeric</text>
</a>
</g>
</g>
<!-- Node1&#45;&gt;Node28 -->
<g id="edge34" class="edge">
<title>Node1&#45;&gt;Node28</title>
<path fill="none" stroke="midnightblue" d="M1071.99,-277.85C1149.06,-275.13 1280.53,-264.29 1385.27,-224 1391.31,-221.68 1397.35,-218.16 1402.67,-214.54"/>
<polygon fill="midnightblue" stroke="midnightblue" points="1404.83,-217.3 1410.82,-208.56 1400.69,-211.65 1404.83,-217.3"/>
</g>
<!-- Node3 -->
<g id="node3" class="node">
<title>Node3</title>
<g id="a_node3"><a xlink:href="bits_8h.html" target="_top" xlink:title=" ">
<polygon fill="none" stroke="black" points="643.32,-115.5 643.32,-133.5 683.22,-133.5 683.22,-115.5 643.32,-115.5"/>
<text text-anchor="middle" x="663.27" y="-121.5" font-family="Helvetica,sans-Serif" font-size="10.00">bits.h</text>
</a>
</g>
</g>
<!-- Node2&#45;&gt;Node3 -->
<g id="edge2" class="edge">
<title>Node2&#45;&gt;Node3</title>
<path fill="none" stroke="midnightblue" d="M737.07,-190.41C723.36,-178.35 697.34,-155.46 680.15,-140.34"/>
<polygon fill="midnightblue" stroke="midnightblue" points="682.33,-137.6 672.51,-133.63 677.71,-142.86 682.33,-137.6"/>
</g>
<!-- Node2&#45;&gt;Node4 -->
<g id="edge18" class="edge">
<title>Node2&#45;&gt;Node4</title>
<path fill="none" stroke="midnightblue" d="M721.46,-193.35C690.42,-185.87 637.01,-169.43 601.27,-139 583.52,-123.88 570.7,-99.93 563.39,-83.5"/>
<polygon fill="midnightblue" stroke="midnightblue" points="566.48,-81.83 559.38,-73.96 560.03,-84.54 566.48,-81.83"/>
</g>
<!-- Node6 -->
<g id="node6" class="node">
<title>Node6</title>
<g id="a_node6"><a xlink:title=" ">
<polygon fill="none" stroke="#bfbfbf" points="591.15,-0.5 591.15,-18.5 639.39,-18.5 639.39,-0.5 591.15,-0.5"/>
<text text-anchor="middle" x="615.27" y="-6.5" font-family="Helvetica,sans-Serif" font-size="10.00">cassert</text>
</a>
</g>
</g>
<!-- Node2&#45;&gt;Node6 -->
<g id="edge16" class="edge">
<title>Node2&#45;&gt;Node6</title>
<path fill="none" stroke="midnightblue" d="M721.34,-192.4C695.2,-184.62 655.09,-168.5 634.27,-139 610.82,-105.78 610.98,-55.6 613.12,-28.84"/>
<polygon fill="midnightblue" stroke="midnightblue" points="616.63,-28.93 614.13,-18.63 609.66,-28.24 616.63,-28.93"/>
</g>
<!-- Node10 -->
<g id="node10" class="node">
<title>Node10</title>
<g id="a_node10"><a xlink:title=" ">
<polygon fill="none" stroke="#bfbfbf" points="810.26,-0.5 810.26,-18.5 856.28,-18.5 856.28,-0.5 810.26,-0.5"/>
<text text-anchor="middle" x="833.27" y="-6.5" font-family="Helvetica,sans-Serif" font-size="10.00">variant</text>
</a>
</g>
</g>
<!-- Node2&#45;&gt;Node10 -->
<g id="edge20" class="edge">
<title>Node2&#45;&gt;Node10</title>
<path fill="none" stroke="midnightblue" d="M756.14,-190.35C762.65,-185.31 771.56,-179.06 780.27,-175 834.99,-149.47 874.67,-187.02 911.27,-139 940.92,-100.11 885.37,-49.3 853.47,-24.86"/>
<polygon fill="midnightblue" stroke="midnightblue" points="855.3,-21.86 845.18,-18.7 851.12,-27.48 855.3,-21.86"/>
</g>
<!-- Node11 -->
<g id="node11" class="node">
<title>Node11</title>
<g id="a_node11"><a xlink:title=" ">
<polygon fill="none" stroke="#bfbfbf" points="686.2,-55.5 686.2,-73.5 748.34,-73.5 748.34,-55.5 686.2,-55.5"/>
<text text-anchor="middle" x="717.27" y="-61.5" font-family="Helvetica,sans-Serif" font-size="10.00">type_traits</text>
</a>
</g>
</g>
<!-- Node2&#45;&gt;Node11 -->
<g id="edge13" class="edge">
<title>Node2&#45;&gt;Node11</title>
<path fill="none" stroke="midnightblue" d="M743.87,-190.47C740.52,-179.09 734.4,-157.59 730.27,-139 726.1,-120.25 722.4,-98.57 720.02,-83.64"/>
<polygon fill="midnightblue" stroke="midnightblue" points="723.47,-83.05 718.48,-73.7 716.56,-84.12 723.47,-83.05"/>
</g>
<!-- Node12 -->
<g id="node12" class="node">
<title>Node12</title>
<g id="a_node12"><a xlink:title=" ">
<polygon fill="none" stroke="#bfbfbf" points="738.98,-115.5 738.98,-133.5 825.56,-133.5 825.56,-115.5 738.98,-115.5"/>
<text text-anchor="middle" x="782.27" y="-121.5" font-family="Helvetica,sans-Serif" font-size="10.00">enum/bitmask.h</text>
</a>
</g>
</g>
<!-- Node2&#45;&gt;Node12 -->
<g id="edge12" class="edge">
<title>Node2&#45;&gt;Node12</title>
<path fill="none" stroke="midnightblue" d="M750.26,-190.41C755.85,-179.07 766.17,-158.15 773.58,-143.12"/>
<polygon fill="midnightblue" stroke="midnightblue" points="776.87,-144.37 778.15,-133.85 770.59,-141.27 776.87,-144.37"/>
</g>
<!-- Node13 -->
<g id="node13" class="node">
<title>Node13</title>
<g id="a_node13"><a xlink:title=" ">
<polygon fill="none" stroke="#bfbfbf" points="843.87,-115.5 843.87,-133.5 902.67,-133.5 902.67,-115.5 843.87,-115.5"/>
<text text-anchor="middle" x="873.27" y="-121.5" font-family="Helvetica,sans-Serif" font-size="10.00">functional</text>
</a>
</g>
</g>
<!-- Node2&#45;&gt;Node13 -->
<g id="edge14" class="edge">
<title>Node2&#45;&gt;Node13</title>
<path fill="none" stroke="midnightblue" d="M757.39,-190.33C763.92,-185.65 772.42,-179.78 780.27,-175 802.49,-161.47 828.72,-147.7 847.65,-138.13"/>
<polygon fill="midnightblue" stroke="midnightblue" points="849.45,-141.14 856.82,-133.53 846.32,-134.88 849.45,-141.14"/>
</g>
<!-- Node14 -->
<g id="node14" class="node">
<title>Node14</title>
<g id="a_node14"><a xlink:title=" ">
<polygon fill="none" stroke="#bfbfbf" points="957.88,-115.5 957.88,-133.5 996.66,-133.5 996.66,-115.5 957.88,-115.5"/>
<text text-anchor="middle" x="977.27" y="-121.5" font-family="Helvetica,sans-Serif" font-size="10.00">limits</text>
</a>
</g>
</g>
<!-- Node2&#45;&gt;Node14 -->
<g id="edge15" class="edge">
<title>Node2&#45;&gt;Node14</title>
<path fill="none" stroke="midnightblue" d="M755.78,-190.42C762.29,-185.28 771.32,-178.89 780.27,-175 848.7,-145.22 873.03,-161.21 944.27,-139 945.94,-138.48 947.63,-137.91 949.34,-137.31"/>
<polygon fill="midnightblue" stroke="midnightblue" points="950.88,-140.47 958.97,-133.64 948.38,-133.93 950.88,-140.47"/>
</g>
<!-- Node15 -->
<g id="node15" class="node">
<title>Node15</title>
<g id="a_node15"><a xlink:title=" ">
<polygon fill="none" stroke="#bfbfbf" points="1014.8,-115.5 1014.8,-133.5 1119.74,-133.5 1119.74,-115.5 1014.8,-115.5"/>
<text text-anchor="middle" x="1067.27" y="-121.5" font-family="Helvetica,sans-Serif" font-size="10.00">enum/meta_enum.h</text>
</a>
</g>
</g>
<!-- Node2&#45;&gt;Node15 -->
<g id="edge17" class="edge">
<title>Node2&#45;&gt;Node15</title>
<path fill="none" stroke="midnightblue" d="M755.42,-190.48C761.92,-185.23 771.08,-178.69 780.27,-175 874.25,-137.27 905.75,-157.78 1005.27,-139 1010.68,-137.98 1016.35,-136.84 1021.96,-135.67"/>
<polygon fill="midnightblue" stroke="midnightblue" points="1022.88,-139.05 1031.93,-133.55 1021.42,-132.21 1022.88,-139.05"/>
</g>
<!-- Node16 -->
<g id="node16" class="node">
<title>Node16</title>
<g id="a_node16"><a xlink:title=" ">
<polygon fill="none" stroke="#bfbfbf" points="1137.38,-115.5 1137.38,-133.5 1181.16,-133.5 1181.16,-115.5 1137.38,-115.5"/>
<text text-anchor="middle" x="1159.27" y="-121.5" font-family="Helvetica,sans-Serif" font-size="10.00">climits</text>
</a>
</g>
</g>
<!-- Node2&#45;&gt;Node16 -->
<g id="edge19" class="edge">
<title>Node2&#45;&gt;Node16</title>
<path fill="none" stroke="midnightblue" d="M755.36,-190.31C761.83,-184.99 770.98,-178.43 780.27,-175 926.12,-121.11 977.88,-178.51 1128.27,-139 1129.99,-138.55 1131.73,-138.02 1133.47,-137.43"/>
<polygon fill="midnightblue" stroke="midnightblue" points="1135.16,-140.52 1143.2,-133.62 1132.61,-134.01 1135.16,-140.52"/>
</g>
<!-- Node3&#45;&gt;Node4 -->
<g id="edge3" class="edge">
<title>Node3&#45;&gt;Node4</title>
<path fill="none" stroke="midnightblue" d="M648.39,-115.44C630.76,-105.88 601.16,-89.83 580.27,-78.51"/>
<polygon fill="midnightblue" stroke="midnightblue" points="581.83,-75.37 571.37,-73.68 578.49,-81.53 581.83,-75.37"/>
</g>
<!-- Node9 -->
<g id="node9" class="node">
<title>Node9</title>
<g id="a_node9"><a xlink:title=" ">
<polygon fill="none" stroke="#bfbfbf" points="657.43,-0.5 657.43,-18.5 695.11,-18.5 695.11,-0.5 657.43,-0.5"/>
<text text-anchor="middle" x="676.27" y="-6.5" font-family="Helvetica,sans-Serif" font-size="10.00">tuple</text>
</a>
</g>
</g>
<!-- Node3&#45;&gt;Node9 -->
<g id="edge10" class="edge">
<title>Node3&#45;&gt;Node9</title>
<path fill="none" stroke="midnightblue" d="M664.2,-115.37C666.28,-97.29 671.34,-53.38 674.2,-28.49"/>
<polygon fill="midnightblue" stroke="midnightblue" points="677.68,-28.89 675.34,-18.55 670.72,-28.09 677.68,-28.89"/>
</g>
<!-- Node3&#45;&gt;Node11 -->
<g id="edge11" class="edge">
<title>Node3&#45;&gt;Node11</title>
<path fill="none" stroke="midnightblue" d="M670.78,-115.44C678.99,-106.62 692.34,-92.27 702.64,-81.22"/>
<polygon fill="midnightblue" stroke="midnightblue" points="705.22,-83.58 709.48,-73.87 700.1,-78.81 705.22,-83.58"/>
</g>
<!-- Node5 -->
<g id="node5" class="node">
<title>Node5</title>
<g id="a_node5"><a xlink:title=" ">
<polygon fill="none" stroke="#bfbfbf" points="433.09,-0.5 433.09,-18.5 507.45,-18.5 507.45,-0.5 433.09,-0.5"/>
<text text-anchor="middle" x="470.27" y="-6.5" font-family="Helvetica,sans-Serif" font-size="10.00">macro/map.h</text>
</a>
</g>
</g>
<!-- Node4&#45;&gt;Node5 -->
<g id="edge4" class="edge">
<title>Node4&#45;&gt;Node5</title>
<path fill="none" stroke="midnightblue" d="M543.21,-55.45C529.7,-47.12 508.35,-33.97 492.24,-24.04"/>
<polygon fill="midnightblue" stroke="midnightblue" points="493.8,-20.89 483.45,-18.63 490.13,-26.85 493.8,-20.89"/>
</g>
<!-- Node4&#45;&gt;Node6 -->
<g id="edge5" class="edge">
<title>Node4&#45;&gt;Node6</title>
<path fill="none" stroke="midnightblue" d="M565.23,-55.45C574.07,-47.51 587.79,-35.19 598.63,-25.45"/>
<polygon fill="midnightblue" stroke="midnightblue" points="601.12,-27.91 606.22,-18.63 596.45,-22.7 601.12,-27.91"/>
</g>
<!-- Node7 -->
<g id="node7" class="node">
<title>Node7</title>
<g id="a_node7"><a xlink:title=" ">
<polygon fill="none" stroke="#bfbfbf" points="525.71,-0.5 525.71,-18.5 572.83,-18.5 572.83,-0.5 525.71,-0.5"/>
<text text-anchor="middle" x="549.27" y="-6.5" font-family="Helvetica,sans-Serif" font-size="10.00">iterator</text>
</a>
</g>
</g>
<!-- Node4&#45;&gt;Node7 -->
<g id="edge6" class="edge">
<title>Node4&#45;&gt;Node7</title>
<path fill="none" stroke="midnightblue" d="M555.18,-55.22C554.24,-48.1 552.85,-37.58 551.65,-28.53"/>
<polygon fill="midnightblue" stroke="midnightblue" points="555.11,-28.01 550.33,-18.55 548.17,-28.92 555.11,-28.01"/>
</g>
<!-- Node8 -->
<g id="node8" class="node">
<title>Node8</title>
<g id="a_node8"><a xlink:title=" ">
<polygon fill="none" stroke="#bfbfbf" points="363.76,-0.5 363.76,-18.5 414.78,-18.5 414.78,-0.5 363.76,-0.5"/>
<text text-anchor="middle" x="389.27" y="-6.5" font-family="Helvetica,sans-Serif" font-size="10.00">optional</text>
</a>
</g>
</g>
<!-- Node4&#45;&gt;Node8 -->
<g id="edge7" class="edge">
<title>Node4&#45;&gt;Node8</title>
<path fill="none" stroke="midnightblue" d="M532.7,-56.02C504.42,-47.05 456.77,-31.92 424.22,-21.59"/>
<polygon fill="midnightblue" stroke="midnightblue" points="425.23,-18.24 414.64,-18.55 423.11,-24.91 425.23,-18.24"/>
</g>
<!-- Node4&#45;&gt;Node9 -->
<g id="edge8" class="edge">
<title>Node4&#45;&gt;Node9</title>
<path fill="none" stroke="midnightblue" d="M574.5,-55.45C594.23,-46.73 625.94,-32.73 648.72,-22.67"/>
<polygon fill="midnightblue" stroke="midnightblue" points="650.14,-25.87 657.87,-18.63 647.31,-19.46 650.14,-25.87"/>
</g>
<!-- Node4&#45;&gt;Node10 -->
<g id="edge9" class="edge">
<title>Node4&#45;&gt;Node10</title>
<path fill="none" stroke="midnightblue" d="M579.89,-58.98C629.28,-49.53 743.58,-27.66 800.23,-16.82"/>
<polygon fill="midnightblue" stroke="midnightblue" points="800.94,-20.25 810.1,-14.93 799.62,-13.37 800.94,-20.25"/>
</g>
<!-- Node17&#45;&gt;Node4 -->
<g id="edge24" class="edge">
<title>Node17&#45;&gt;Node4</title>
<path fill="none" stroke="midnightblue" d="M384.82,-194.78C420.45,-188.79 481.4,-173.91 520.27,-139 536.76,-124.19 546.52,-100.14 551.63,-83.6"/>
<polygon fill="midnightblue" stroke="midnightblue" points="555.12,-84.14 554.45,-73.57 548.38,-82.25 555.12,-84.14"/>
</g>
<!-- Node18 -->
<g id="node18" class="node">
<title>Node18</title>
<g id="a_node18"><a xlink:title=" ">
<polygon fill="none" stroke="#bfbfbf" points="85.41,-115.5 85.41,-133.5 193.13,-133.5 193.13,-115.5 85.41,-115.5"/>
<text text-anchor="middle" x="139.27" y="-121.5" font-family="Helvetica,sans-Serif" font-size="10.00">formatter/container.h</text>
</a>
</g>
</g>
<!-- Node17&#45;&gt;Node18 -->
<g id="edge23" class="edge">
<title>Node17&#45;&gt;Node18</title>
<path fill="none" stroke="midnightblue" d="M332.22,-190.41C293.42,-177.36 216.91,-151.62 172.79,-136.78"/>
<polygon fill="midnightblue" stroke="midnightblue" points="173.69,-133.39 163.1,-133.52 171.46,-140.02 173.69,-133.39"/>
</g>
<!-- Node19 -->
<g id="node19" class="node">
<title>Node19</title>
<g id="a_node19"><a xlink:title=" ">
<polygon fill="none" stroke="#bfbfbf" points="210.71,-115.5 210.71,-133.5 287.83,-133.5 287.83,-115.5 210.71,-115.5"/>
<text text-anchor="middle" x="249.27" y="-121.5" font-family="Helvetica,sans-Serif" font-size="10.00">fmt/ostream.h</text>
</a>
</g>
</g>
<!-- Node17&#45;&gt;Node19 -->
<g id="edge25" class="edge">
<title>Node17&#45;&gt;Node19</title>
<path fill="none" stroke="midnightblue" d="M344.41,-190.41C326.33,-178.08 291.66,-154.42 269.54,-139.33"/>
<polygon fill="midnightblue" stroke="midnightblue" points="271.42,-136.37 261.18,-133.63 267.47,-142.15 271.42,-136.37"/>
</g>
<!-- Node20 -->
<g id="node20" class="node">
<title>Node20</title>
<g id="a_node20"><a xlink:title=" ">
<polygon fill="none" stroke="#bfbfbf" points="305.75,-110.5 305.75,-138.5 406.79,-138.5 406.79,-110.5 305.75,-110.5"/>
<text text-anchor="start" x="313.75" y="-126.5" font-family="Helvetica,sans-Serif" font-size="10.00">spdlog/sinks/stdout</text>
<text text-anchor="middle" x="356.27" y="-116.5" font-family="Helvetica,sans-Serif" font-size="10.00">_color_sinks.h</text>
</a>
</g>
</g>
<!-- Node17&#45;&gt;Node20 -->
<g id="edge26" class="edge">
<title>Node17&#45;&gt;Node20</title>
<path fill="none" stroke="midnightblue" d="M356.27,-190.41C356.27,-180.41 356.27,-162.97 356.27,-148.68"/>
<polygon fill="midnightblue" stroke="midnightblue" points="359.77,-148.55 356.27,-138.55 352.77,-148.55 359.77,-148.55"/>
</g>
<!-- Node21 -->
<g id="node21" class="node">
<title>Node21</title>
<g id="a_node21"><a xlink:title=" ">
<polygon fill="none" stroke="#bfbfbf" points="425.24,-115.5 425.24,-133.5 511.3,-133.5 511.3,-115.5 425.24,-115.5"/>
<text text-anchor="middle" x="468.27" y="-121.5" font-family="Helvetica,sans-Serif" font-size="10.00">spdlog/spdlog.h</text>
</a>
</g>
</g>
<!-- Node17&#45;&gt;Node21 -->
<g id="edge27" class="edge">
<title>Node17&#45;&gt;Node21</title>
<path fill="none" stroke="midnightblue" d="M368.68,-190.41C387.69,-178.02 424.22,-154.21 447.37,-139.13"/>
<polygon fill="midnightblue" stroke="midnightblue" points="449.33,-142.02 455.8,-133.63 445.51,-136.16 449.33,-142.02"/>
</g>
<!-- Node22 -->
<g id="node22" class="node">
<title>Node22</title>
<g id="a_node22"><a xlink:title=" ">
<polygon fill="none" stroke="#bfbfbf" points="15.49,-115.5 15.49,-133.5 67.05,-133.5 67.05,-115.5 15.49,-115.5"/>
<text text-anchor="middle" x="41.27" y="-121.5" font-family="Helvetica,sans-Serif" font-size="10.00">sstream</text>
</a>
</g>
</g>
<!-- Node17&#45;&gt;Node22 -->
<g id="edge28" class="edge">
<title>Node17&#45;&gt;Node22</title>
<path fill="none" stroke="midnightblue" d="M327.68,-193.97C276.6,-185.54 166.55,-165.82 76.27,-139 74.35,-138.43 72.39,-137.8 70.42,-137.14"/>
<polygon fill="midnightblue" stroke="midnightblue" points="71.3,-133.73 60.7,-133.62 68.92,-140.32 71.3,-133.73"/>
</g>
</g>
</svg>
        <g id="navigator" transform="translate(0 0)" fill="#404254">
                <rect fill="#f2f5e9" fill-opacity="0.5" stroke="#606060" stroke-width=".5" x="0" y="0" width="60" height="60"/>
                <use id="zoomplus" xlink:href="#zoomPlus" x="17" y="9" onmousedown="handleZoom(evt,'in')"/>
                <use id="zoomminus" xlink:href="#zoomMin" x="42" y="9" onmousedown="handleZoom(evt,'out')"/>
                <use id="reset" xlink:href="#resetDef" x="30" y="36" onmousedown="handleReset()"/>
                <g id="arrowUp" xlink:href="#dirArrow" transform="translate(30 24)" onmousedown="handlePan(0,-1)">
                  <use xlink:href="#rim" fill="#404040">
                        <set attributeName="fill" to="#808080" begin="arrowUp.mouseover" end="arrowUp.mouseout"/>
                  </use>
                  <path fill="none" stroke="white" stroke-width="1.5" d="M0,-3.0v7 M-2.5,-0.5L0,-3.0L2.5,-0.5"/>
                </g>
                <g id="arrowRight" xlink:href="#dirArrow" transform="rotate(90) translate(36 -43)" onmousedown="handlePan(1,0)">
                  <use xlink:href="#rim" fill="#404040">
                        <set attributeName="fill" to="#808080" begin="arrowRight.mouseover" end="arrowRight.mouseout"/>
                  </use>
                  <path fill="none" stroke="white" stroke-width="1.5" d="M0,-3.0v7 M-2.5,-0.5L0,-3.0L2.5,-0.5"/>
                </g>
                <g id="arrowDown" xlink:href="#dirArrow" transform="rotate(180) translate(-30 -48)" onmousedown="handlePan(0,1)">
                  <use xlink:href="#rim" fill="#404040">
                        <set attributeName="fill" to="#808080" begin="arrowDown.mouseover" end="arrowDown.mouseout"/>
                  </use>
                  <path fill="none" stroke="white" stroke-width="1.5" d="M0,-3.0v7 M-2.5,-0.5L0,-3.0L2.5,-0.5"/>
                </g>
                <g id="arrowLeft" xlink:href="#dirArrow" transform="rotate(270) translate(-36 17)" onmousedown="handlePan(-1,0)">
                  <use xlink:href="#rim" fill="#404040">
                        <set attributeName="fill" to="#808080" begin="arrowLeft.mouseover" end="arrowLeft.mouseout"/>
                  </use>
                  <path fill="none" stroke="white" stroke-width="1.5" d="M0,-3.0v7 M-2.5,-0.5L0,-3.0L2.5,-0.5"/>
                </g>
        </g>
        <svg viewBox="0 0 15 15" width="100%" height="30px" preserveAspectRatio="xMaxYMin meet">
         <g id="arrow_out" transform="scale(0.3 0.3)">
          <a xlink:href="grppiex_8h__incl_org.svg" target="_base">
           <rect id="button" ry="5" rx="5" y="6" x="6" height="38" width="38"
                fill="#f2f5e9" fill-opacity="0.5" stroke="#606060" stroke-width="1.0"/>
           <path id="arrow"
             d="M 11.500037,31.436501 C 11.940474,20.09759 22.043105,11.32322 32.158766,21.979434 L 37.068811,17.246167 C 37.068811,17.246167 37.088388,32 37.088388,32 L 22.160133,31.978069 C 22.160133,31.978069 26.997745,27.140456 26.997745,27.140456 C 18.528582,18.264221 13.291696,25.230495 11.500037,31.436501 z"
             style="fill:#404040;"/>
          </a>
         </g>
        </svg>
</svg>
