<?xml version="1.0" encoding="UTF-8" standalone="no"?>
<!DOCTYPE svg PUBLIC "-//W3C//DTD SVG 1.1//EN"
 "http://www.w3.org/Graphics/SVG/1.1/DTD/svg11.dtd">
<!-- Generated by graphviz version 2.43.0 (0)
 -->
<!-- Title: Graphical Class Hierarchy Pages: 1 -->
<svg width="238pt" height="460pt"
 viewBox="0.00 0.00 238.32 460.00" xmlns="http://www.w3.org/2000/svg" xmlns:xlink="http://www.w3.org/1999/xlink">
<g id="graph0" class="graph" transform="scale(1 1) rotate(0) translate(4 456)">
<title>Graphical Class Hierarchy</title>
<!-- Node41 -->
<g id="node1" class="node">
<title>Node41</title>
<g id="a_node1"><a xlink:title=" ">
<polygon fill="none" stroke="#bfbfbf" points="0,-226.5 0,-244.5 61.59,-244.5 61.59,-226.5 0,-226.5"/>
<text text-anchor="middle" x="30.79" y="-232.5" font-family="Helvetica,sans-Serif" font-size="10.00">false_type</text>
</a>
</g>
</g>
<!-- Node0 -->
<g id="node2" class="node">
<title>Node0</title>
<g id="a_node2"><a xlink:href="structeigen__utils_1_1internal_1_1is__vector__block.html" target="_top" xlink:title=" ">
<polygon fill="none" stroke="black" points="107.22,-423.5 107.22,-451.5 220.69,-451.5 220.69,-423.5 107.22,-423.5"/>
<text text-anchor="start" x="115.22" y="-439.5" font-family="Helvetica,sans-Serif" font-size="10.00">eigen_utils::internal</text>
<text text-anchor="middle" x="163.95" y="-429.5" font-family="Helvetica,sans-Serif" font-size="10.00">::is_vector_block&lt; T &gt;</text>
</a>
</g>
</g>
<!-- Node41&#45;&gt;Node0 -->
<g id="edge1" class="edge">
<title>Node41&#45;&gt;Node0</title>
<path fill="none" stroke="midnightblue" d="M33.57,-254.99C37.92,-291.33 52.28,-369.82 97.59,-414.5 101.1,-417.96 105.16,-420.91 109.51,-423.41"/>
<polygon fill="midnightblue" stroke="midnightblue" points="37.02,-254.34 32.49,-244.76 30.06,-255.08 37.02,-254.34"/>
</g>
<!-- Node43 -->
<g id="node3" class="node">
<title>Node43</title>
<g id="a_node3"><a xlink:href="structeigen__utils_1_1type__traits.html" target="_top" xlink:title=" ">
<polygon fill="none" stroke="black" points="106.2,-376.5 106.2,-404.5 221.7,-404.5 221.7,-376.5 106.2,-376.5"/>
<text text-anchor="start" x="114.2" y="-392.5" font-family="Helvetica,sans-Serif" font-size="10.00">eigen_utils::type_traits</text>
<text text-anchor="middle" x="163.95" y="-382.5" font-family="Helvetica,sans-Serif" font-size="10.00">&lt; T, typename &gt;</text>
</a>
</g>
</g>
<!-- Node41&#45;&gt;Node43 -->
<g id="edge2" class="edge">
<title>Node41&#45;&gt;Node43</title>
<path fill="none" stroke="midnightblue" d="M36.37,-254.55C44.17,-283.03 62.68,-336.68 97.59,-367.5 101.46,-370.92 105.88,-373.85 110.55,-376.34"/>
<polygon fill="midnightblue" stroke="midnightblue" points="39.7,-253.45 33.82,-244.64 32.92,-255.2 39.7,-253.45"/>
</g>
<!-- Node44 -->
<g id="node4" class="node">
<title>Node44</title>
<g id="a_node4"><a xlink:href="structmeta_1_1always__false.html" target="_top" xlink:title=" ">
<polygon fill="none" stroke="black" points="101.94,-339.5 101.94,-357.5 225.97,-357.5 225.97,-339.5 101.94,-339.5"/>
<text text-anchor="middle" x="163.95" y="-345.5" font-family="Helvetica,sans-Serif" font-size="10.00">meta::always_false&lt; T &gt;</text>
</a>
</g>
</g>
<!-- Node41&#45;&gt;Node44 -->
<g id="edge3" class="edge">
<title>Node41&#45;&gt;Node44</title>
<path fill="none" stroke="midnightblue" d="M39.79,-254.05C50.05,-275.64 69.88,-310.85 97.59,-330.5 102.77,-334.18 108.68,-337.1 114.77,-339.43"/>
<polygon fill="midnightblue" stroke="midnightblue" points="42.85,-252.33 35.53,-244.67 36.48,-255.22 42.85,-252.33"/>
</g>
<!-- Node45 -->
<g id="node5" class="node">
<title>Node45</title>
<g id="a_node5"><a xlink:href="structmeta_1_1has__insert.html" target="_top" xlink:title=" ">
<polygon fill="none" stroke="black" points="110.88,-292.5 110.88,-320.5 217.03,-320.5 217.03,-292.5 110.88,-292.5"/>
<text text-anchor="start" x="118.88" y="-308.5" font-family="Helvetica,sans-Serif" font-size="10.00">meta::has_insert&lt; T,</text>
<text text-anchor="middle" x="163.95" y="-298.5" font-family="Helvetica,sans-Serif" font-size="10.00"> typename &gt;</text>
</a>
</g>
</g>
<!-- Node41&#45;&gt;Node45 -->
<g id="edge4" class="edge">
<title>Node41&#45;&gt;Node45</title>
<path fill="none" stroke="midnightblue" d="M50.25,-251.24C62.93,-261.46 80.51,-274.51 97.59,-283.5 103.87,-286.8 110.73,-289.81 117.56,-292.47"/>
<polygon fill="midnightblue" stroke="midnightblue" points="52.26,-248.36 42.32,-244.7 47.81,-253.76 52.26,-248.36"/>
</g>
<!-- Node46 -->
<g id="node6" class="node">
<title>Node46</title>
<g id="a_node6"><a xlink:href="structmeta_1_1has__push__back.html" target="_top" xlink:title=" ">
<polygon fill="none" stroke="black" points="107.03,-245.5 107.03,-273.5 220.87,-273.5 220.87,-245.5 107.03,-245.5"/>
<text text-anchor="start" x="115.03" y="-261.5" font-family="Helvetica,sans-Serif" font-size="10.00">meta::has_push_back</text>
<text text-anchor="middle" x="163.95" y="-251.5" font-family="Helvetica,sans-Serif" font-size="10.00">&lt; T, typename &gt;</text>
</a>
</g>
</g>
<!-- Node41&#45;&gt;Node46 -->
<g id="edge5" class="edge">
<title>Node41&#45;&gt;Node46</title>
<path fill="none" stroke="midnightblue" d="M72.06,-242.87C83.08,-244.88 95.23,-247.11 106.96,-249.25"/>
<polygon fill="midnightblue" stroke="midnightblue" points="72.35,-239.36 61.88,-241.01 71.09,-246.25 72.35,-239.36"/>
</g>
<!-- Node47 -->
<g id="node7" class="node">
<title>Node47</title>
<g id="a_node7"><a xlink:href="structmeta_1_1has__resize.html" target="_top" xlink:title=" ">
<polygon fill="none" stroke="black" points="109.77,-198.5 109.77,-226.5 218.14,-226.5 218.14,-198.5 109.77,-198.5"/>
<text text-anchor="start" x="117.77" y="-214.5" font-family="Helvetica,sans-Serif" font-size="10.00">meta::has_resize&lt; T,</text>
<text text-anchor="middle" x="163.95" y="-204.5" font-family="Helvetica,sans-Serif" font-size="10.00"> size_t, typename &gt;</text>
</a>
</g>
</g>
<!-- Node41&#45;&gt;Node47 -->
<g id="edge6" class="edge">
<title>Node41&#45;&gt;Node47</title>
<path fill="none" stroke="midnightblue" d="M71.93,-228.46C83.81,-226.38 97,-224.06 109.58,-221.86"/>
<polygon fill="midnightblue" stroke="midnightblue" points="71.13,-225.05 61.88,-230.22 72.34,-231.94 71.13,-225.05"/>
</g>
<!-- Node48 -->
<g id="node8" class="node">
<title>Node48</title>
<g id="a_node8"><a xlink:href="structmeta_1_1is__instance.html" target="_top" xlink:title=" ">
<polygon fill="none" stroke="black" points="106.48,-141.5 106.48,-179.5 221.43,-179.5 221.43,-141.5 106.48,-141.5"/>
<text text-anchor="start" x="114.48" y="-167.5" font-family="Helvetica,sans-Serif" font-size="10.00">meta::is_instance&lt;</text>
<text text-anchor="start" x="114.48" y="-157.5" font-family="Helvetica,sans-Serif" font-size="10.00"> typename, typename,</text>
<text text-anchor="middle" x="163.95" y="-147.5" font-family="Helvetica,sans-Serif" font-size="10.00"> typename &gt;</text>
</a>
</g>
</g>
<!-- Node41&#45;&gt;Node48 -->
<g id="edge7" class="edge">
<title>Node41&#45;&gt;Node48</title>
<path fill="none" stroke="midnightblue" d="M51.51,-220.21C64.25,-210.72 81.41,-198.63 97.59,-189.5 103.75,-186.02 110.41,-182.65 117.04,-179.52"/>
<polygon fill="midnightblue" stroke="midnightblue" points="49.33,-217.47 43.46,-226.3 53.55,-223.06 49.33,-217.47"/>
</g>
<!-- Node49 -->
<g id="node9" class="node">
<title>Node49</title>
<g id="a_node9"><a xlink:href="structmeta_1_1is__integral__constant.html" target="_top" xlink:title=" ">
<polygon fill="none" stroke="black" points="97.59,-94.5 97.59,-122.5 230.32,-122.5 230.32,-94.5 97.59,-94.5"/>
<text text-anchor="start" x="105.59" y="-110.5" font-family="Helvetica,sans-Serif" font-size="10.00">meta::is_integral_constant</text>
<text text-anchor="middle" x="163.95" y="-100.5" font-family="Helvetica,sans-Serif" font-size="10.00">&lt; T, typename &gt;</text>
</a>
</g>
</g>
<!-- Node41&#45;&gt;Node49 -->
<g id="edge8" class="edge">
<title>Node41&#45;&gt;Node49</title>
<path fill="none" stroke="midnightblue" d="M39.11,-217.12C49.09,-194.26 69.05,-155.44 97.59,-132.5 102.39,-128.64 107.88,-125.36 113.58,-122.59"/>
<polygon fill="midnightblue" stroke="midnightblue" points="35.86,-215.81 35.23,-226.39 42.32,-218.52 35.86,-215.81"/>
</g>
<!-- Node50 -->
<g id="node10" class="node">
<title>Node50</title>
<g id="a_node10"><a xlink:href="structmeta_1_1is__iterable.html" target="_top" xlink:title=" ">
<polygon fill="none" stroke="black" points="116.35,-47.5 116.35,-75.5 211.56,-75.5 211.56,-47.5 116.35,-47.5"/>
<text text-anchor="start" x="124.35" y="-63.5" font-family="Helvetica,sans-Serif" font-size="10.00">meta::is_iterable&lt;</text>
<text text-anchor="middle" x="163.95" y="-53.5" font-family="Helvetica,sans-Serif" font-size="10.00"> T, typename &gt;</text>
</a>
</g>
</g>
<!-- Node41&#45;&gt;Node50 -->
<g id="edge9" class="edge">
<title>Node41&#45;&gt;Node50</title>
<path fill="none" stroke="midnightblue" d="M35.2,-216.19C41.76,-184.59 59.02,-121.76 97.59,-85.5 102.96,-80.45 109.48,-76.44 116.3,-73.27"/>
<polygon fill="midnightblue" stroke="midnightblue" points="31.71,-215.82 33.25,-226.31 38.58,-217.15 31.71,-215.82"/>
</g>
<!-- Node51 -->
<g id="node11" class="node">
<title>Node51</title>
<g id="a_node11"><a xlink:href="structmeta_1_1is__sized.html" target="_top" xlink:title=" ">
<polygon fill="none" stroke="black" points="115.88,-0.5 115.88,-28.5 212.02,-28.5 212.02,-0.5 115.88,-0.5"/>
<text text-anchor="start" x="123.88" y="-16.5" font-family="Helvetica,sans-Serif" font-size="10.00">meta::is_sized&lt; T,</text>
<text text-anchor="middle" x="163.95" y="-6.5" font-family="Helvetica,sans-Serif" font-size="10.00"> typename &gt;</text>
</a>
</g>
</g>
<!-- Node41&#45;&gt;Node51 -->
<g id="edge10" class="edge">
<title>Node41&#45;&gt;Node51</title>
<path fill="none" stroke="midnightblue" d="M32.88,-215.77C36.09,-176.7 48.65,-88.91 97.59,-38.5 102.64,-33.3 108.91,-29.21 115.56,-26.01"/>
<polygon fill="midnightblue" stroke="midnightblue" points="29.36,-216.02 32.16,-226.24 36.34,-216.51 29.36,-216.02"/>
</g>
</g>
</svg>
