<?xml version="1.0" encoding="UTF-8" standalone="no"?>
<!DOCTYPE svg PUBLIC "-//W3C//DTD SVG 1.1//EN"
 "http://www.w3.org/Graphics/SVG/1.1/DTD/svg11.dtd">
<!-- Generated by graphviz version 2.43.0 (0)
 -->
<!-- Title: Graphical Class Hierarchy Pages: 1 -->
<svg width="270pt" height="94pt"
 viewBox="0.00 0.00 269.69 94.00" xmlns="http://www.w3.org/2000/svg" xmlns:xlink="http://www.w3.org/1999/xlink">
<g id="graph0" class="graph" transform="scale(1 1) rotate(0) translate(4 90)">
<title>Graphical Class Hierarchy</title>
<!-- Node27 -->
<g id="node1" class="node">
<title>Node27</title>
<g id="a_node1"><a xlink:title=" ">
<polygon fill="none" stroke="#bfbfbf" points="0,-36.5 0,-54.5 125.51,-54.5 125.51,-36.5 0,-36.5"/>
<text text-anchor="middle" x="62.75" y="-42.5" font-family="Helvetica,sans-Serif" font-size="10.00">nullspec_formatter_base</text>
</a>
</g>
</g>
<!-- Node0 -->
<g id="node2" class="node">
<title>Node0</title>
<g id="a_node2"><a xlink:href="structfmt_1_1formatter_3_01mpi__utils_1_1env_00_01char_01_4.html" target="_top" xlink:title=" ">
<polygon fill="none" stroke="black" points="161.51,-57.5 161.51,-85.5 261.69,-85.5 261.69,-57.5 161.51,-57.5"/>
<text text-anchor="start" x="169.51" y="-73.5" font-family="Helvetica,sans-Serif" font-size="10.00">fmt::formatter&lt; mpi</text>
<text text-anchor="middle" x="211.6" y="-63.5" font-family="Helvetica,sans-Serif" font-size="10.00">_utils::env, char &gt;</text>
</a>
</g>
</g>
<!-- Node27&#45;&gt;Node0 -->
<g id="edge1" class="edge">
<title>Node27&#45;&gt;Node0</title>
<path fill="none" stroke="midnightblue" d="M124.77,-56.3C136.91,-58.45 149.53,-60.69 161.23,-62.76"/>
<polygon fill="midnightblue" stroke="midnightblue" points="125.16,-52.82 114.7,-54.52 123.94,-59.71 125.16,-52.82"/>
</g>
<!-- Node29 -->
<g id="node3" class="node">
<title>Node29</title>
<g id="a_node3"><a xlink:href="structfmt_1_1formatter_3_01mpi__utils_1_1_span_3_01_ts_8_8_8_01_4_00_01char_01_4.html" target="_top" xlink:title=" ">
<polygon fill="none" stroke="black" points="161.51,-0.5 161.51,-38.5 261.69,-38.5 261.69,-0.5 161.51,-0.5"/>
<text text-anchor="start" x="169.51" y="-26.5" font-family="Helvetica,sans-Serif" font-size="10.00">fmt::formatter&lt; mpi</text>
<text text-anchor="start" x="169.51" y="-16.5" font-family="Helvetica,sans-Serif" font-size="10.00">_utils::Span&lt; Ts...</text>
<text text-anchor="middle" x="211.6" y="-6.5" font-family="Helvetica,sans-Serif" font-size="10.00"> &gt;, char &gt;</text>
</a>
</g>
</g>
<!-- Node27&#45;&gt;Node29 -->
<g id="edge2" class="edge">
<title>Node27&#45;&gt;Node29</title>
<path fill="none" stroke="midnightblue" d="M124.77,-34.7C136.91,-32.55 149.53,-30.31 161.23,-28.24"/>
<polygon fill="midnightblue" stroke="midnightblue" points="123.94,-31.29 114.7,-36.48 125.16,-38.18 123.94,-31.29"/>
</g>
</g>
</svg>
