<?xml version="1.0" encoding="UTF-8" standalone="no"?>
<!DOCTYPE svg PUBLIC "-//W3C//DTD SVG 1.1//EN"
 "http://www.w3.org/Graphics/SVG/1.1/DTD/svg11.dtd">
<!-- Generated by graphviz version 2.43.0 (0)
 -->
<!-- Title: Graphical Class Hierarchy Pages: 1 -->
<svg width="237pt" height="161pt"
 viewBox="0.00 0.00 237.49 161.00" xmlns="http://www.w3.org/2000/svg" xmlns:xlink="http://www.w3.org/1999/xlink">
<g id="graph0" class="graph" transform="scale(1 1) rotate(0) translate(4 157)">
<title>Graphical Class Hierarchy</title>
<!-- Node4 -->
<g id="node1" class="node">
<title>Node4</title>
<g id="a_node1"><a xlink:title=" ">
<polygon fill="none" stroke="#bfbfbf" points="0,-62.5 0,-80.5 57.69,-80.5 57.69,-62.5 0,-62.5"/>
<text text-anchor="middle" x="28.85" y="-68.5" font-family="Helvetica,sans-Serif" font-size="10.00">true_type</text>
</a>
</g>
</g>
<!-- Node0 -->
<g id="node2" class="node">
<title>Node0</title>
<g id="a_node2"><a xlink:href="structeigen__utils_1_1internal_1_1is__vector__block_3_01_eigen_1_1_vector_block_3_01_vector_type_00_01_size_01_4_01_4.html" target="_top" xlink:title=" ">
<polygon fill="none" stroke="black" points="93.69,-104.5 93.69,-152.5 229.49,-152.5 229.49,-104.5 93.69,-104.5"/>
<text text-anchor="start" x="101.69" y="-140.5" font-family="Helvetica,sans-Serif" font-size="10.00">eigen_utils::internal</text>
<text text-anchor="start" x="101.69" y="-130.5" font-family="Helvetica,sans-Serif" font-size="10.00">::is_vector_block&lt; Eigen</text>
<text text-anchor="start" x="101.69" y="-120.5" font-family="Helvetica,sans-Serif" font-size="10.00">::VectorBlock&lt; VectorType,</text>
<text text-anchor="middle" x="161.59" y="-110.5" font-family="Helvetica,sans-Serif" font-size="10.00"> Size &gt; &gt;</text>
</a>
</g>
</g>
<!-- Node4&#45;&gt;Node0 -->
<g id="edge1" class="edge">
<title>Node4&#45;&gt;Node0</title>
<path fill="none" stroke="midnightblue" d="M59.83,-84.57C73.32,-90.45 89.69,-97.59 105.28,-104.38"/>
<polygon fill="midnightblue" stroke="midnightblue" points="61.13,-81.32 50.56,-80.53 58.33,-87.74 61.13,-81.32"/>
</g>
<!-- Node6 -->
<g id="node3" class="node">
<title>Node6</title>
<g id="a_node3"><a xlink:href="structmeta_1_1is__instance_3_01_t_3_01_ts_8_8_8_01_4_00_01_t_01_4.html" target="_top" xlink:title=" ">
<polygon fill="none" stroke="black" points="111.77,-57.5 111.77,-85.5 211.42,-85.5 211.42,-57.5 111.77,-57.5"/>
<text text-anchor="start" x="119.77" y="-73.5" font-family="Helvetica,sans-Serif" font-size="10.00">meta::is_instance&lt;</text>
<text text-anchor="middle" x="161.59" y="-63.5" font-family="Helvetica,sans-Serif" font-size="10.00"> T&lt; Ts... &gt;, T &gt;</text>
</a>
</g>
</g>
<!-- Node4&#45;&gt;Node6 -->
<g id="edge2" class="edge">
<title>Node4&#45;&gt;Node6</title>
<path fill="none" stroke="midnightblue" d="M67.93,-71.5C81.62,-71.5 97.26,-71.5 111.74,-71.5"/>
<polygon fill="midnightblue" stroke="midnightblue" points="67.9,-68 57.9,-71.5 67.9,-75 67.9,-68"/>
</g>
<!-- Node7 -->
<g id="node4" class="node">
<title>Node7</title>
<g id="a_node4"><a xlink:href="structmeta_1_1is__instance_3_01_t_3_01_u_3_01_us_8_8_8_01_4_00_01_ts_8_8_8_01_4_00_01_t_00_01_u_01_4.html" target="_top" xlink:title=" ">
<polygon fill="none" stroke="black" points="110.56,-0.5 110.56,-38.5 212.62,-38.5 212.62,-0.5 110.56,-0.5"/>
<text text-anchor="start" x="118.56" y="-26.5" font-family="Helvetica,sans-Serif" font-size="10.00">meta::is_instance&lt;</text>
<text text-anchor="start" x="118.56" y="-16.5" font-family="Helvetica,sans-Serif" font-size="10.00"> T&lt; U&lt; Us... &gt;, Ts...</text>
<text text-anchor="middle" x="161.59" y="-6.5" font-family="Helvetica,sans-Serif" font-size="10.00"> &gt;, T, U &gt;</text>
</a>
</g>
</g>
<!-- Node4&#45;&gt;Node7 -->
<g id="edge3" class="edge">
<title>Node4&#45;&gt;Node7</title>
<path fill="none" stroke="midnightblue" d="M62.11,-58.67C77.33,-52.61 95.82,-45.26 112.64,-38.57"/>
<polygon fill="midnightblue" stroke="midnightblue" points="60.62,-55.49 52.62,-62.44 63.21,-62 60.62,-55.49"/>
</g>
</g>
</svg>
