<?xml version="1.0" encoding="UTF-8" standalone="no"?>
<!DOCTYPE svg PUBLIC "-//W3C//DTD SVG 1.1//EN"
 "http://www.w3.org/Graphics/SVG/1.1/DTD/svg11.dtd">
<!-- Generated by graphviz version 2.43.0 (0)
 -->
<!-- Title: Graphical Class Hierarchy Pages: 1 -->
<svg width="232pt" height="64pt"
 viewBox="0.00 0.00 231.62 64.00" xmlns="http://www.w3.org/2000/svg" xmlns:xlink="http://www.w3.org/1999/xlink">
<g id="graph0" class="graph" transform="scale(1 1) rotate(0) translate(4 60)">
<title>Graphical Class Hierarchy</title>
<!-- Node18 -->
<g id="node1" class="node">
<title>Node18</title>
<g id="a_node1"><a xlink:title=" ">
<polygon fill="none" stroke="#bfbfbf" points="0,-18.5 0,-36.5 76.02,-36.5 76.02,-18.5 0,-18.5"/>
<text text-anchor="middle" x="38.01" y="-24.5" font-family="Helvetica,sans-Serif" font-size="10.00">runtime_error</text>
</a>
</g>
</g>
<!-- Node0 -->
<g id="node2" class="node">
<title>Node0</title>
<g id="a_node2"><a xlink:href="structdatatable_1_1_dump_error.html" target="_top" xlink:title="Throw when there is an error when dump data table.">
<polygon fill="none" stroke="black" points="112.02,-37.5 112.02,-55.5 223.62,-55.5 223.62,-37.5 112.02,-37.5"/>
<text text-anchor="middle" x="167.82" y="-43.5" font-family="Helvetica,sans-Serif" font-size="10.00">datatable::DumpError</text>
</a>
</g>
</g>
<!-- Node18&#45;&gt;Node0 -->
<g id="edge1" class="edge">
<title>Node18&#45;&gt;Node0</title>
<path fill="none" stroke="midnightblue" d="M86.46,-34.55C94.67,-35.77 103.26,-37.05 111.65,-38.3"/>
<polygon fill="midnightblue" stroke="midnightblue" points="86.73,-31.06 76.32,-33.05 85.7,-37.98 86.73,-31.06"/>
</g>
<!-- Node20 -->
<g id="node3" class="node">
<title>Node20</title>
<g id="a_node3"><a xlink:href="structdatatable_1_1_parse_error.html" target="_top" xlink:title="Throw when there is an error in parsing data table.">
<polygon fill="none" stroke="black" points="112.3,-0.5 112.3,-18.5 223.34,-18.5 223.34,-0.5 112.3,-0.5"/>
<text text-anchor="middle" x="167.82" y="-6.5" font-family="Helvetica,sans-Serif" font-size="10.00">datatable::ParseError</text>
</a>
</g>
</g>
<!-- Node18&#45;&gt;Node20 -->
<g id="edge2" class="edge">
<title>Node18&#45;&gt;Node20</title>
<path fill="none" stroke="midnightblue" d="M86.32,-20.84C94.72,-19.65 103.54,-18.41 112.12,-17.2"/>
<polygon fill="midnightblue" stroke="midnightblue" points="85.74,-17.38 76.32,-22.25 86.71,-24.32 85.74,-17.38"/>
</g>
</g>
</svg>
