<?xml version="1.0" encoding="UTF-8" standalone="no"?>
<!DOCTYPE svg PUBLIC "-//W3C//DTD SVG 1.1//EN"
 "http://www.w3.org/Graphics/SVG/1.1/DTD/svg11.dtd">
<!-- Generated by graphviz version 2.43.0 (0)
 -->
<!-- Title: /Users/ma/Codes/toltec/citlali/citlali_dev/common_utils/src/utils/logging.h Pages: 1 -->
<!--zoomable 122 -->
<svg id="main" version="1.1" xmlns="http://www.w3.org/2000/svg" xmlns:xlink="http://www.w3.org/1999/xlink" xml:space="preserve" onload="init(evt)">
<style type="text/css"><![CDATA[
.edge:hover path { stroke: red; }
.edge:hover polygon { stroke: red; fill: red; }
]]></style>
<script type="text/javascript"><![CDATA[
var edges = document.getElementsByTagName('g');
if (edges && edges.length) {
  for (var i=0;i<edges.length;i++) {
    if (edges[i].id.substr(0,4)=='edge') {
      edges[i].setAttribute('class','edge');
    }
  }
}
]]></script>
        <defs>
                <circle id="rim" cx="0" cy="0" r="7"/>
                <circle id="rim2" cx="0" cy="0" r="3.5"/>
                <g id="zoomPlus">
                        <use xlink:href="#rim" fill="#404040">
                                <set attributeName="fill" to="#808080" begin="zoomplus.mouseover" end="zoomplus.mouseout"/>
                        </use>
                        <path d="M-4,0h8M0,-4v8" fill="none" stroke="white" stroke-width="1.5" pointer-events="none"/>
                </g>
                <g id="zoomMin">
                        <use xlink:href="#rim" fill="#404040">
                                <set attributeName="fill" to="#808080" begin="zoomminus.mouseover" end="zoomminus.mouseout"/>
                        </use>
                        <path d="M-4,0h8" fill="none" stroke="white" stroke-width="1.5" pointer-events="none"/>
                </g>
                <g id="dirArrow">
                        <path fill="none" stroke="white" stroke-width="1.5" d="M0,-3.0v7 M-2.5,-0.5L0,-3.0L2.5,-0.5"/>
                </g>
               <g id="resetDef">
                       <use xlink:href="#rim2" fill="#404040">
                               <set attributeName="fill" to="#808080" begin="reset.mouseover" end="reset.mouseout"/>
                       </use>
               </g>
        </defs>

<script type="text/javascript">
var viewWidth = 872;
var viewHeight = 122;
var sectionId = 'dynsection-1';
</script>
<script xlink:href="svgpan.js"/>
<svg id="graph" class="graph">
<g id="viewport">
<title>/Users/ma/Codes/toltec/citlali/citlali_dev/common_utils/src/utils/logging.h</title>
<!-- Node1 -->
<g id="node1" class="node">
<title>Node1</title>
<g id="a_node1"><a xlink:title=" ">
<polygon fill="#bfbfbf" stroke="black" points="367,-75.5 367,-113.5 495.82,-113.5 495.82,-75.5 367,-75.5"/>
<text text-anchor="start" x="375" y="-101.5" font-family="Helvetica,sans-Serif" font-size="10.00">/Users/ma/Codes/toltec</text>
<text text-anchor="start" x="375" y="-91.5" font-family="Helvetica,sans-Serif" font-size="10.00">/citlali/citlali_dev/common</text>
<text text-anchor="middle" x="431.41" y="-81.5" font-family="Helvetica,sans-Serif" font-size="10.00">_utils/src/utils/logging.h</text>
</a>
</g>
</g>
<!-- Node2 -->
<g id="node2" class="node">
<title>Node2</title>
<g id="a_node2"><a xlink:href="config_8h.html" target="_top" xlink:title=" ">
<polygon fill="none" stroke="black" points="0,-0.5 0,-38.5 128.82,-38.5 128.82,-0.5 0,-0.5"/>
<text text-anchor="start" x="8" y="-26.5" font-family="Helvetica,sans-Serif" font-size="10.00">/Users/ma/Codes/toltec</text>
<text text-anchor="start" x="8" y="-16.5" font-family="Helvetica,sans-Serif" font-size="10.00">/citlali/citlali_dev/common</text>
<text text-anchor="middle" x="64.41" y="-6.5" font-family="Helvetica,sans-Serif" font-size="10.00">_utils/src/utils/config.h</text>
</a>
</g>
</g>
<!-- Node1&#45;&gt;Node2 -->
<g id="edge1" class="edge">
<title>Node1&#45;&gt;Node2</title>
<path fill="none" stroke="midnightblue" d="M356.84,-80.93C297.47,-70.6 212.36,-55.11 138.41,-39 135.3,-38.32 132.13,-37.61 128.93,-36.88"/>
<polygon fill="midnightblue" stroke="midnightblue" points="356.43,-84.41 366.88,-82.66 357.62,-77.51 356.43,-84.41"/>
</g>
<!-- Node3 -->
<g id="node3" class="node">
<title>Node3</title>
<g id="a_node3"><a xlink:href="container_8h.html" target="_top" xlink:title=" ">
<polygon fill="none" stroke="black" points="147,-0.5 147,-38.5 275.82,-38.5 275.82,-0.5 147,-0.5"/>
<text text-anchor="start" x="155" y="-26.5" font-family="Helvetica,sans-Serif" font-size="10.00">/Users/ma/Codes/toltec</text>
<text text-anchor="start" x="155" y="-16.5" font-family="Helvetica,sans-Serif" font-size="10.00">/citlali/citlali_dev/common</text>
<text text-anchor="middle" x="211.41" y="-6.5" font-family="Helvetica,sans-Serif" font-size="10.00">_utils/src/utils/container.h</text>
</a>
</g>
</g>
<!-- Node1&#45;&gt;Node3 -->
<g id="edge2" class="edge">
<title>Node1&#45;&gt;Node3</title>
<path fill="none" stroke="midnightblue" d="M367.27,-72.22C335.13,-61.55 296.62,-48.78 265.93,-38.59"/>
<polygon fill="midnightblue" stroke="midnightblue" points="366.43,-75.63 377.03,-75.46 368.64,-68.98 366.43,-75.63"/>
</g>
<!-- Node4 -->
<g id="node4" class="node">
<title>Node4</title>
<g id="a_node4"><a xlink:href="datatable_8h.html" target="_top" xlink:title=" ">
<polygon fill="none" stroke="black" points="294,-0.5 294,-38.5 422.82,-38.5 422.82,-0.5 294,-0.5"/>
<text text-anchor="start" x="302" y="-26.5" font-family="Helvetica,sans-Serif" font-size="10.00">/Users/ma/Codes/toltec</text>
<text text-anchor="start" x="302" y="-16.5" font-family="Helvetica,sans-Serif" font-size="10.00">/citlali/citlali_dev/common</text>
<text text-anchor="middle" x="358.41" y="-6.5" font-family="Helvetica,sans-Serif" font-size="10.00">_utils/src/utils/datatable.h</text>
</a>
</g>
</g>
<!-- Node1&#45;&gt;Node4 -->
<g id="edge3" class="edge">
<title>Node1&#45;&gt;Node4</title>
<path fill="none" stroke="midnightblue" d="M406.18,-68.27C396.42,-58.51 385.46,-47.55 376.5,-38.59"/>
<polygon fill="midnightblue" stroke="midnightblue" points="403.82,-70.86 413.36,-75.46 408.77,-65.91 403.82,-70.86"/>
</g>
<!-- Node5 -->
<g id="node5" class="node">
<title>Node5</title>
<g id="a_node5"><a xlink:href="grppiex_8h.html" target="_top" xlink:title=" ">
<polygon fill="none" stroke="black" points="441,-0.5 441,-38.5 569.82,-38.5 569.82,-0.5 441,-0.5"/>
<text text-anchor="start" x="449" y="-26.5" font-family="Helvetica,sans-Serif" font-size="10.00">/Users/ma/Codes/toltec</text>
<text text-anchor="start" x="449" y="-16.5" font-family="Helvetica,sans-Serif" font-size="10.00">/citlali/citlali_dev/common</text>
<text text-anchor="middle" x="505.41" y="-6.5" font-family="Helvetica,sans-Serif" font-size="10.00">_utils/src/utils/grppiex.h</text>
</a>
</g>
</g>
<!-- Node1&#45;&gt;Node5 -->
<g id="edge4" class="edge">
<title>Node1&#45;&gt;Node5</title>
<path fill="none" stroke="midnightblue" d="M456.98,-68.27C466.88,-58.51 477.99,-47.55 487.07,-38.59"/>
<polygon fill="midnightblue" stroke="midnightblue" points="454.36,-65.94 449.7,-75.46 459.28,-70.92 454.36,-65.94"/>
</g>
<!-- Node6 -->
<g id="node6" class="node">
<title>Node6</title>
<g id="a_node6"><a xlink:href="mpi_8h.html" target="_top" xlink:title=" ">
<polygon fill="none" stroke="black" points="588,-0.5 588,-38.5 716.82,-38.5 716.82,-0.5 588,-0.5"/>
<text text-anchor="start" x="596" y="-26.5" font-family="Helvetica,sans-Serif" font-size="10.00">/Users/ma/Codes/toltec</text>
<text text-anchor="start" x="596" y="-16.5" font-family="Helvetica,sans-Serif" font-size="10.00">/citlali/citlali_dev/common</text>
<text text-anchor="middle" x="652.41" y="-6.5" font-family="Helvetica,sans-Serif" font-size="10.00">_utils/src/utils/mpi.h</text>
</a>
</g>
</g>
<!-- Node1&#45;&gt;Node6 -->
<g id="edge5" class="edge">
<title>Node1&#45;&gt;Node6</title>
<path fill="none" stroke="midnightblue" d="M495.84,-72.22C528.13,-61.55 566.81,-48.78 597.64,-38.59"/>
<polygon fill="midnightblue" stroke="midnightblue" points="494.44,-69 486.04,-75.46 496.63,-75.64 494.44,-69"/>
</g>
<!-- Node7 -->
<g id="node7" class="node">
<title>Node7</title>
<g id="a_node7"><a xlink:href="nc_8h.html" target="_top" xlink:title=" ">
<polygon fill="none" stroke="black" points="735,-0.5 735,-38.5 863.82,-38.5 863.82,-0.5 735,-0.5"/>
<text text-anchor="start" x="743" y="-26.5" font-family="Helvetica,sans-Serif" font-size="10.00">/Users/ma/Codes/toltec</text>
<text text-anchor="start" x="743" y="-16.5" font-family="Helvetica,sans-Serif" font-size="10.00">/citlali/citlali_dev/common</text>
<text text-anchor="middle" x="799.41" y="-6.5" font-family="Helvetica,sans-Serif" font-size="10.00">_utils/src/utils/nc.h</text>
</a>
</g>
</g>
<!-- Node1&#45;&gt;Node7 -->
<g id="edge6" class="edge">
<title>Node1&#45;&gt;Node7</title>
<path fill="none" stroke="midnightblue" d="M505.94,-80.99C565.53,-70.68 651.08,-55.16 725.41,-39 728.51,-38.32 731.69,-37.61 734.89,-36.88"/>
<polygon fill="midnightblue" stroke="midnightblue" points="505.13,-77.58 495.87,-82.73 506.32,-84.48 505.13,-77.58"/>
</g>
</g>
</svg>
        <g id="navigator" transform="translate(0 0)" fill="#404254">
                <rect fill="#f2f5e9" fill-opacity="0.5" stroke="#606060" stroke-width=".5" x="0" y="0" width="60" height="60"/>
                <use id="zoomplus" xlink:href="#zoomPlus" x="17" y="9" onmousedown="handleZoom(evt,'in')"/>
                <use id="zoomminus" xlink:href="#zoomMin" x="42" y="9" onmousedown="handleZoom(evt,'out')"/>
                <use id="reset" xlink:href="#resetDef" x="30" y="36" onmousedown="handleReset()"/>
                <g id="arrowUp" xlink:href="#dirArrow" transform="translate(30 24)" onmousedown="handlePan(0,-1)">
                  <use xlink:href="#rim" fill="#404040">
                        <set attributeName="fill" to="#808080" begin="arrowUp.mouseover" end="arrowUp.mouseout"/>
                  </use>
                  <path fill="none" stroke="white" stroke-width="1.5" d="M0,-3.0v7 M-2.5,-0.5L0,-3.0L2.5,-0.5"/>
                </g>
                <g id="arrowRight" xlink:href="#dirArrow" transform="rotate(90) translate(36 -43)" onmousedown="handlePan(1,0)">
                  <use xlink:href="#rim" fill="#404040">
                        <set attributeName="fill" to="#808080" begin="arrowRight.mouseover" end="arrowRight.mouseout"/>
                  </use>
                  <path fill="none" stroke="white" stroke-width="1.5" d="M0,-3.0v7 M-2.5,-0.5L0,-3.0L2.5,-0.5"/>
                </g>
                <g id="arrowDown" xlink:href="#dirArrow" transform="rotate(180) translate(-30 -48)" onmousedown="handlePan(0,1)">
                  <use xlink:href="#rim" fill="#404040">
                        <set attributeName="fill" to="#808080" begin="arrowDown.mouseover" end="arrowDown.mouseout"/>
                  </use>
                  <path fill="none" stroke="white" stroke-width="1.5" d="M0,-3.0v7 M-2.5,-0.5L0,-3.0L2.5,-0.5"/>
                </g>
                <g id="arrowLeft" xlink:href="#dirArrow" transform="rotate(270) translate(-36 17)" onmousedown="handlePan(-1,0)">
                  <use xlink:href="#rim" fill="#404040">
                        <set attributeName="fill" to="#808080" begin="arrowLeft.mouseover" end="arrowLeft.mouseout"/>
                  </use>
                  <path fill="none" stroke="white" stroke-width="1.5" d="M0,-3.0v7 M-2.5,-0.5L0,-3.0L2.5,-0.5"/>
                </g>
        </g>
        <svg viewBox="0 0 15 15" width="100%" height="30px" preserveAspectRatio="xMaxYMin meet">
         <g id="arrow_out" transform="scale(0.3 0.3)">
          <a xlink:href="logging_8h__dep__incl_org.svg" target="_base">
           <rect id="button" ry="5" rx="5" y="6" x="6" height="38" width="38"
                fill="#f2f5e9" fill-opacity="0.5" stroke="#606060" stroke-width="1.0"/>
           <path id="arrow"
             d="M 11.500037,31.436501 C 11.940474,20.09759 22.043105,11.32322 32.158766,21.979434 L 37.068811,17.246167 C 37.068811,17.246167 37.088388,32 37.088388,32 L 22.160133,31.978069 C 22.160133,31.978069 26.997745,27.140456 26.997745,27.140456 C 18.528582,18.264221 13.291696,25.230495 11.500037,31.436501 z"
             style="fill:#404040;"/>
          </a>
         </g>
        </svg>
</svg>
