<?xml version="1.0" encoding="UTF-8" standalone="no"?>
<!DOCTYPE svg PUBLIC "-//W3C//DTD SVG 1.1//EN"
 "http://www.w3.org/Graphics/SVG/1.1/DTD/svg11.dtd">
<!-- Generated by graphviz version 2.43.0 (0)
 -->
<!-- Title: /Users/ma/Codes/toltec/citlali/citlali_dev/common_utils/src/utils/matplotlibcpp.h Pages: 1 -->
<svg width="720pt" height="102pt"
 viewBox="0.00 0.00 719.92 102.00" xmlns="http://www.w3.org/2000/svg" xmlns:xlink="http://www.w3.org/1999/xlink">
<g id="graph0" class="graph" transform="scale(1 1) rotate(0) translate(4 98)">
<title>/Users/ma/Codes/toltec/citlali/citlali_dev/common_utils/src/utils/matplotlibcpp.h</title>
<!-- Node1 -->
<g id="node1" class="node">
<title>Node1</title>
<g id="a_node1"><a xlink:title=" ">
<polygon fill="#bfbfbf" stroke="black" points="234.59,-55.5 234.59,-93.5 380.64,-93.5 380.64,-55.5 234.59,-55.5"/>
<text text-anchor="start" x="242.59" y="-81.5" font-family="Helvetica,sans-Serif" font-size="10.00">/Users/ma/Codes/toltec</text>
<text text-anchor="start" x="242.59" y="-71.5" font-family="Helvetica,sans-Serif" font-size="10.00">/citlali/citlali_dev/common</text>
<text text-anchor="middle" x="307.62" y="-61.5" font-family="Helvetica,sans-Serif" font-size="10.00">_utils/src/utils/matplotlibcpp.h</text>
</a>
</g>
</g>
<!-- Node2 -->
<g id="node2" class="node">
<title>Node2</title>
<g id="a_node2"><a xlink:title=" ">
<polygon fill="none" stroke="#bfbfbf" points="0,-0.5 0,-18.5 43.23,-18.5 43.23,-0.5 0,-0.5"/>
<text text-anchor="middle" x="21.62" y="-6.5" font-family="Helvetica,sans-Serif" font-size="10.00">vector</text>
</a>
</g>
</g>
<!-- Node1&#45;&gt;Node2 -->
<g id="edge1" class="edge">
<title>Node1&#45;&gt;Node2</title>
<path fill="none" stroke="midnightblue" d="M234.54,-59.04C185.82,-49.12 120.14,-35.25 53.15,-19.01"/>
<polygon fill="midnightblue" stroke="midnightblue" points="53.8,-15.57 43.26,-16.6 52.14,-22.37 53.8,-15.57"/>
</g>
<!-- Node3 -->
<g id="node3" class="node">
<title>Node3</title>
<g id="a_node3"><a xlink:title=" ">
<polygon fill="none" stroke="#bfbfbf" points="61.22,-0.5 61.22,-18.5 100.01,-18.5 100.01,-0.5 61.22,-0.5"/>
<text text-anchor="middle" x="80.62" y="-6.5" font-family="Helvetica,sans-Serif" font-size="10.00">array</text>
</a>
</g>
</g>
<!-- Node1&#45;&gt;Node3 -->
<g id="edge2" class="edge">
<title>Node1&#45;&gt;Node3</title>
<path fill="none" stroke="midnightblue" d="M239.79,-55.42C203.66,-45.67 158.25,-33.24 109.89,-19.32"/>
<polygon fill="midnightblue" stroke="midnightblue" points="110.76,-15.92 100.18,-16.51 108.81,-22.65 110.76,-15.92"/>
</g>
<!-- Node4 -->
<g id="node4" class="node">
<title>Node4</title>
<g id="a_node4"><a xlink:title=" ">
<polygon fill="none" stroke="#bfbfbf" points="117.89,-0.5 117.89,-18.5 153.34,-18.5 153.34,-0.5 117.89,-0.5"/>
<text text-anchor="middle" x="135.62" y="-6.5" font-family="Helvetica,sans-Serif" font-size="10.00">map</text>
</a>
</g>
</g>
<!-- Node1&#45;&gt;Node4 -->
<g id="edge3" class="edge">
<title>Node1&#45;&gt;Node4</title>
<path fill="none" stroke="midnightblue" d="M258.33,-55.45C227.3,-44.08 188.43,-29.85 162.86,-20.48"/>
<polygon fill="midnightblue" stroke="midnightblue" points="164.02,-17.17 153.42,-17.02 161.61,-23.75 164.02,-17.17"/>
</g>
<!-- Node5 -->
<g id="node5" class="node">
<title>Node5</title>
<g id="a_node5"><a xlink:title=" ">
<polygon fill="none" stroke="#bfbfbf" points="171.83,-0.5 171.83,-18.5 223.4,-18.5 223.4,-0.5 171.83,-0.5"/>
<text text-anchor="middle" x="197.62" y="-6.5" font-family="Helvetica,sans-Serif" font-size="10.00">numeric</text>
</a>
</g>
</g>
<!-- Node1&#45;&gt;Node5 -->
<g id="edge4" class="edge">
<title>Node1&#45;&gt;Node5</title>
<path fill="none" stroke="midnightblue" d="M276.09,-55.45C258.37,-45.29 236.64,-32.85 220.54,-23.63"/>
<polygon fill="midnightblue" stroke="midnightblue" points="222.2,-20.55 211.79,-18.62 218.73,-26.62 222.2,-20.55"/>
</g>
<!-- Node6 -->
<g id="node6" class="node">
<title>Node6</title>
<g id="a_node6"><a xlink:title=" ">
<polygon fill="none" stroke="#bfbfbf" points="241.05,-0.5 241.05,-18.5 298.18,-18.5 298.18,-0.5 241.05,-0.5"/>
<text text-anchor="middle" x="269.62" y="-6.5" font-family="Helvetica,sans-Serif" font-size="10.00">algorithm</text>
</a>
</g>
</g>
<!-- Node1&#45;&gt;Node6 -->
<g id="edge5" class="edge">
<title>Node1&#45;&gt;Node6</title>
<path fill="none" stroke="midnightblue" d="M296.62,-55.28C291.34,-46.51 285.04,-36.07 279.85,-27.47"/>
<polygon fill="midnightblue" stroke="midnightblue" points="282.75,-25.49 274.58,-18.74 276.75,-29.11 282.75,-25.49"/>
</g>
<!-- Node7 -->
<g id="node7" class="node">
<title>Node7</title>
<g id="a_node7"><a xlink:title=" ">
<polygon fill="none" stroke="#bfbfbf" points="316.21,-0.5 316.21,-18.5 375.02,-18.5 375.02,-0.5 316.21,-0.5"/>
<text text-anchor="middle" x="345.62" y="-6.5" font-family="Helvetica,sans-Serif" font-size="10.00">stdexcept</text>
</a>
</g>
</g>
<!-- Node1&#45;&gt;Node7 -->
<g id="edge6" class="edge">
<title>Node1&#45;&gt;Node7</title>
<path fill="none" stroke="midnightblue" d="M318.61,-55.28C323.89,-46.51 330.19,-36.07 335.38,-27.47"/>
<polygon fill="midnightblue" stroke="midnightblue" points="338.48,-29.11 340.65,-18.74 332.48,-25.49 338.48,-29.11"/>
</g>
<!-- Node8 -->
<g id="node8" class="node">
<title>Node8</title>
<g id="a_node8"><a xlink:title=" ">
<polygon fill="none" stroke="#bfbfbf" points="393.44,-0.5 393.44,-18.5 447.79,-18.5 447.79,-0.5 393.44,-0.5"/>
<text text-anchor="middle" x="420.62" y="-6.5" font-family="Helvetica,sans-Serif" font-size="10.00">iostream</text>
</a>
</g>
</g>
<!-- Node1&#45;&gt;Node8 -->
<g id="edge7" class="edge">
<title>Node1&#45;&gt;Node8</title>
<path fill="none" stroke="midnightblue" d="M340,-55.45C358.21,-45.29 380.53,-32.85 397.06,-23.63"/>
<polygon fill="midnightblue" stroke="midnightblue" points="399.03,-26.54 406.06,-18.62 395.62,-20.43 399.03,-26.54"/>
</g>
<!-- Node9 -->
<g id="node9" class="node">
<title>Node9</title>
<g id="a_node9"><a xlink:title=" ">
<polygon fill="none" stroke="#bfbfbf" points="465.5,-0.5 465.5,-18.5 513.74,-18.5 513.74,-0.5 465.5,-0.5"/>
<text text-anchor="middle" x="489.62" y="-6.5" font-family="Helvetica,sans-Serif" font-size="10.00">stdint.h</text>
</a>
</g>
</g>
<!-- Node1&#45;&gt;Node9 -->
<g id="edge8" class="edge">
<title>Node1&#45;&gt;Node9</title>
<path fill="none" stroke="midnightblue" d="M359.77,-55.45C390.88,-44.68 429.44,-31.33 456.43,-21.99"/>
<polygon fill="midnightblue" stroke="midnightblue" points="457.86,-25.2 466.17,-18.62 455.57,-18.58 457.86,-25.2"/>
</g>
<!-- Node10 -->
<g id="node10" class="node">
<title>Node10</title>
<g id="a_node10"><a xlink:title=" ">
<polygon fill="none" stroke="#bfbfbf" points="531.88,-0.5 531.88,-18.5 587.35,-18.5 587.35,-0.5 531.88,-0.5"/>
<text text-anchor="middle" x="559.62" y="-6.5" font-family="Helvetica,sans-Serif" font-size="10.00">Python.h</text>
</a>
</g>
</g>
<!-- Node1&#45;&gt;Node10 -->
<g id="edge9" class="edge">
<title>Node1&#45;&gt;Node10</title>
<path fill="none" stroke="midnightblue" d="M379.83,-55.45C426.09,-43.88 484.27,-29.34 521.69,-19.98"/>
<polygon fill="midnightblue" stroke="midnightblue" points="522.82,-23.31 531.67,-17.49 521.12,-16.52 522.82,-23.31"/>
</g>
<!-- Node11 -->
<g id="node11" class="node">
<title>Node11</title>
<g id="a_node11"><a xlink:title=" ">
<polygon fill="none" stroke="#bfbfbf" points="605.32,-0.5 605.32,-18.5 711.92,-18.5 711.92,-0.5 605.32,-0.5"/>
<text text-anchor="middle" x="658.62" y="-6.5" font-family="Helvetica,sans-Serif" font-size="10.00">numpy/arrayobject.h</text>
</a>
</g>
</g>
<!-- Node1&#45;&gt;Node11 -->
<g id="edge10" class="edge">
<title>Node1&#45;&gt;Node11</title>
<path fill="none" stroke="midnightblue" d="M380.77,-60.37C447.24,-48.44 543.83,-31.1 603.85,-20.33"/>
<polygon fill="midnightblue" stroke="midnightblue" points="604.67,-23.74 613.89,-18.53 603.43,-16.85 604.67,-23.74"/>
</g>
</g>
</svg>
