<?xml version="1.0" encoding="UTF-8" standalone="no"?>
<!DOCTYPE svg PUBLIC "-//W3C//DTD SVG 1.1//EN"
 "http://www.w3.org/Graphics/SVG/1.1/DTD/svg11.dtd">
<!-- Generated by graphviz version 2.43.0 (0)
 -->
<!-- Title: /Users/ma/Codes/toltec/citlali/citlali_dev/common_utils/src/utils/meta.h Pages: 1 -->
<svg width="402pt" height="102pt"
 viewBox="0.00 0.00 402.18 102.00" xmlns="http://www.w3.org/2000/svg" xmlns:xlink="http://www.w3.org/1999/xlink">
<g id="graph0" class="graph" transform="scale(1 1) rotate(0) translate(4 98)">
<title>/Users/ma/Codes/toltec/citlali/citlali_dev/common_utils/src/utils/meta.h</title>
<!-- Node1 -->
<g id="node1" class="node">
<title>Node1</title>
<g id="a_node1"><a xlink:title=" ">
<polygon fill="#bfbfbf" stroke="black" points="150.77,-55.5 150.77,-93.5 279.59,-93.5 279.59,-55.5 150.77,-55.5"/>
<text text-anchor="start" x="158.77" y="-81.5" font-family="Helvetica,sans-Serif" font-size="10.00">/Users/ma/Codes/toltec</text>
<text text-anchor="start" x="158.77" y="-71.5" font-family="Helvetica,sans-Serif" font-size="10.00">/citlali/citlali_dev/common</text>
<text text-anchor="middle" x="215.18" y="-61.5" font-family="Helvetica,sans-Serif" font-size="10.00">_utils/src/utils/meta.h</text>
</a>
</g>
</g>
<!-- Node2 -->
<g id="node2" class="node">
<title>Node2</title>
<g id="a_node2"><a xlink:title=" ">
<polygon fill="none" stroke="#bfbfbf" points="0,-0.5 0,-18.5 74.35,-18.5 74.35,-0.5 0,-0.5"/>
<text text-anchor="middle" x="37.18" y="-6.5" font-family="Helvetica,sans-Serif" font-size="10.00">macro/map.h</text>
</a>
</g>
</g>
<!-- Node1&#45;&gt;Node2 -->
<g id="edge1" class="edge">
<title>Node1&#45;&gt;Node2</title>
<path fill="none" stroke="midnightblue" d="M164.17,-55.45C133.74,-44.68 96.03,-31.33 69.63,-21.99"/>
<polygon fill="midnightblue" stroke="midnightblue" points="70.7,-18.65 60.11,-18.62 68.37,-25.25 70.7,-18.65"/>
</g>
<!-- Node3 -->
<g id="node3" class="node">
<title>Node3</title>
<g id="a_node3"><a xlink:title=" ">
<polygon fill="none" stroke="#bfbfbf" points="92.06,-0.5 92.06,-18.5 140.29,-18.5 140.29,-0.5 92.06,-0.5"/>
<text text-anchor="middle" x="116.18" y="-6.5" font-family="Helvetica,sans-Serif" font-size="10.00">cassert</text>
</a>
</g>
</g>
<!-- Node1&#45;&gt;Node3 -->
<g id="edge2" class="edge">
<title>Node1&#45;&gt;Node3</title>
<path fill="none" stroke="midnightblue" d="M186.81,-55.45C171.15,-45.48 152.03,-33.31 137.63,-24.15"/>
<polygon fill="midnightblue" stroke="midnightblue" points="139.25,-21.03 128.93,-18.62 135.49,-26.94 139.25,-21.03"/>
</g>
<!-- Node4 -->
<g id="node4" class="node">
<title>Node4</title>
<g id="a_node4"><a xlink:title=" ">
<polygon fill="none" stroke="#bfbfbf" points="158.62,-0.5 158.62,-18.5 205.74,-18.5 205.74,-0.5 158.62,-0.5"/>
<text text-anchor="middle" x="182.18" y="-6.5" font-family="Helvetica,sans-Serif" font-size="10.00">iterator</text>
</a>
</g>
</g>
<!-- Node1&#45;&gt;Node4 -->
<g id="edge3" class="edge">
<title>Node1&#45;&gt;Node4</title>
<path fill="none" stroke="midnightblue" d="M205.63,-55.28C201.09,-46.61 195.69,-36.29 191.21,-27.75"/>
<polygon fill="midnightblue" stroke="midnightblue" points="194.23,-25.97 186.49,-18.74 188.03,-29.22 194.23,-25.97"/>
</g>
<!-- Node5 -->
<g id="node5" class="node">
<title>Node5</title>
<g id="a_node5"><a xlink:title=" ">
<polygon fill="none" stroke="#bfbfbf" points="223.66,-0.5 223.66,-18.5 274.69,-18.5 274.69,-0.5 223.66,-0.5"/>
<text text-anchor="middle" x="249.18" y="-6.5" font-family="Helvetica,sans-Serif" font-size="10.00">optional</text>
</a>
</g>
</g>
<!-- Node1&#45;&gt;Node5 -->
<g id="edge4" class="edge">
<title>Node1&#45;&gt;Node5</title>
<path fill="none" stroke="midnightblue" d="M225.01,-55.28C229.69,-46.61 235.26,-36.29 239.87,-27.75"/>
<polygon fill="midnightblue" stroke="midnightblue" points="243.06,-29.2 244.73,-18.74 236.9,-25.88 243.06,-29.2"/>
</g>
<!-- Node6 -->
<g id="node6" class="node">
<title>Node6</title>
<g id="a_node6"><a xlink:title=" ">
<polygon fill="none" stroke="#bfbfbf" points="292.33,-0.5 292.33,-18.5 330.02,-18.5 330.02,-0.5 292.33,-0.5"/>
<text text-anchor="middle" x="311.18" y="-6.5" font-family="Helvetica,sans-Serif" font-size="10.00">tuple</text>
</a>
</g>
</g>
<!-- Node1&#45;&gt;Node6 -->
<g id="edge5" class="edge">
<title>Node1&#45;&gt;Node6</title>
<path fill="none" stroke="midnightblue" d="M242.69,-55.45C257.87,-45.48 276.41,-33.31 290.38,-24.15"/>
<polygon fill="midnightblue" stroke="midnightblue" points="292.37,-27.03 298.81,-18.62 288.53,-21.18 292.37,-27.03"/>
</g>
<!-- Node7 -->
<g id="node7" class="node">
<title>Node7</title>
<g id="a_node7"><a xlink:title=" ">
<polygon fill="none" stroke="#bfbfbf" points="348.17,-0.5 348.17,-18.5 394.18,-18.5 394.18,-0.5 348.17,-0.5"/>
<text text-anchor="middle" x="371.18" y="-6.5" font-family="Helvetica,sans-Serif" font-size="10.00">variant</text>
</a>
</g>
</g>
<!-- Node1&#45;&gt;Node7 -->
<g id="edge6" class="edge">
<title>Node1&#45;&gt;Node7</title>
<path fill="none" stroke="midnightblue" d="M259.88,-55.45C286.08,-44.87 318.44,-31.8 341.5,-22.48"/>
<polygon fill="midnightblue" stroke="midnightblue" points="343.12,-25.61 351.08,-18.62 340.5,-19.12 343.12,-25.61"/>
</g>
</g>
</svg>
