<?xml version="1.0" encoding="UTF-8" standalone="no"?>
<!DOCTYPE svg PUBLIC "-//W3C//DTD SVG 1.1//EN"
 "http://www.w3.org/Graphics/SVG/1.1/DTD/svg11.dtd">
<!-- Generated by graphviz version 2.43.0 (0)
 -->
<!-- Title: /Users/ma/Codes/toltec/citlali/citlali_dev/common_utils/src/utils/meta.h Pages: 1 -->
<svg width="825pt" height="272pt"
 viewBox="0.00 0.00 824.52 272.00" xmlns="http://www.w3.org/2000/svg" xmlns:xlink="http://www.w3.org/1999/xlink">
<g id="graph0" class="graph" transform="scale(1 1) rotate(0) translate(4 268)">
<title>/Users/ma/Codes/toltec/citlali/citlali_dev/common_utils/src/utils/meta.h</title>
<!-- Node1 -->
<g id="node1" class="node">
<title>Node1</title>
<g id="a_node1"><a xlink:title=" ">
<polygon fill="#bfbfbf" stroke="black" points="246.7,-225.5 246.7,-263.5 375.52,-263.5 375.52,-225.5 246.7,-225.5"/>
<text text-anchor="start" x="254.7" y="-251.5" font-family="Helvetica,sans-Serif" font-size="10.00">/Users/ma/Codes/toltec</text>
<text text-anchor="start" x="254.7" y="-241.5" font-family="Helvetica,sans-Serif" font-size="10.00">/citlali/citlali_dev/common</text>
<text text-anchor="middle" x="311.11" y="-231.5" font-family="Helvetica,sans-Serif" font-size="10.00">_utils/src/utils/meta.h</text>
</a>
</g>
</g>
<!-- Node2 -->
<g id="node2" class="node">
<title>Node2</title>
<g id="a_node2"><a xlink:href="bits_8h.html" target="_top" xlink:title=" ">
<polygon fill="none" stroke="black" points="33.7,-150.5 33.7,-188.5 162.52,-188.5 162.52,-150.5 33.7,-150.5"/>
<text text-anchor="start" x="41.7" y="-176.5" font-family="Helvetica,sans-Serif" font-size="10.00">/Users/ma/Codes/toltec</text>
<text text-anchor="start" x="41.7" y="-166.5" font-family="Helvetica,sans-Serif" font-size="10.00">/citlali/citlali_dev/common</text>
<text text-anchor="middle" x="98.11" y="-156.5" font-family="Helvetica,sans-Serif" font-size="10.00">_utils/src/utils/bits.h</text>
</a>
</g>
</g>
<!-- Node1&#45;&gt;Node2 -->
<g id="edge1" class="edge">
<title>Node1&#45;&gt;Node2</title>
<path fill="none" stroke="midnightblue" d="M248.61,-222.08C217.57,-211.44 180.49,-198.73 150.9,-188.59"/>
<polygon fill="midnightblue" stroke="midnightblue" points="247.86,-225.52 258.46,-225.46 250.13,-218.9 247.86,-225.52"/>
</g>
<!-- Node3 -->
<g id="node3" class="node">
<title>Node3</title>
<g id="a_node3"><a xlink:href="enum_8h.html" target="_top" xlink:title=" ">
<polygon fill="none" stroke="black" points="24.7,-75.5 24.7,-113.5 153.52,-113.5 153.52,-75.5 24.7,-75.5"/>
<text text-anchor="start" x="32.7" y="-101.5" font-family="Helvetica,sans-Serif" font-size="10.00">/Users/ma/Codes/toltec</text>
<text text-anchor="start" x="32.7" y="-91.5" font-family="Helvetica,sans-Serif" font-size="10.00">/citlali/citlali_dev/common</text>
<text text-anchor="middle" x="89.11" y="-81.5" font-family="Helvetica,sans-Serif" font-size="10.00">_utils/src/utils/enum.h</text>
</a>
</g>
</g>
<!-- Node1&#45;&gt;Node3 -->
<g id="edge14" class="edge">
<title>Node1&#45;&gt;Node3</title>
<path fill="none" stroke="midnightblue" d="M275.66,-219.79C247.36,-200.88 206.71,-173.72 171.11,-150 152.9,-137.87 132.4,-124.24 116.45,-113.65"/>
<polygon fill="midnightblue" stroke="midnightblue" points="273.76,-222.73 284.02,-225.38 277.65,-216.92 273.76,-222.73"/>
</g>
<!-- Node4 -->
<g id="node4" class="node">
<title>Node4</title>
<g id="a_node4"><a xlink:href="grppiex_8h.html" target="_top" xlink:title=" ">
<polygon fill="none" stroke="black" points="7.7,-0.5 7.7,-38.5 136.52,-38.5 136.52,-0.5 7.7,-0.5"/>
<text text-anchor="start" x="15.7" y="-26.5" font-family="Helvetica,sans-Serif" font-size="10.00">/Users/ma/Codes/toltec</text>
<text text-anchor="start" x="15.7" y="-16.5" font-family="Helvetica,sans-Serif" font-size="10.00">/citlali/citlali_dev/common</text>
<text text-anchor="middle" x="72.11" y="-6.5" font-family="Helvetica,sans-Serif" font-size="10.00">_utils/src/utils/grppiex.h</text>
</a>
</g>
</g>
<!-- Node1&#45;&gt;Node4 -->
<g id="edge15" class="edge">
<title>Node1&#45;&gt;Node4</title>
<path fill="none" stroke="midnightblue" d="M236.21,-239.05C161.27,-232.95 53.19,-219.09 25.11,-189 -9.57,-151.85 -3.66,-121.82 16.11,-75 22.23,-60.5 34.3,-47.95 45.68,-38.56"/>
<polygon fill="midnightblue" stroke="midnightblue" points="236.31,-242.57 246.55,-239.86 236.86,-235.59 236.31,-242.57"/>
</g>
<!-- Node6 -->
<g id="node6" class="node">
<title>Node6</title>
<g id="a_node6"><a xlink:href="logging_8h.html" target="_top" xlink:title=" ">
<polygon fill="none" stroke="black" points="246.7,-150.5 246.7,-188.5 375.52,-188.5 375.52,-150.5 246.7,-150.5"/>
<text text-anchor="start" x="254.7" y="-176.5" font-family="Helvetica,sans-Serif" font-size="10.00">/Users/ma/Codes/toltec</text>
<text text-anchor="start" x="254.7" y="-166.5" font-family="Helvetica,sans-Serif" font-size="10.00">/citlali/citlali_dev/common</text>
<text text-anchor="middle" x="311.11" y="-156.5" font-family="Helvetica,sans-Serif" font-size="10.00">_utils/src/utils/logging.h</text>
</a>
</g>
</g>
<!-- Node1&#45;&gt;Node6 -->
<g id="edge5" class="edge">
<title>Node1&#45;&gt;Node6</title>
<path fill="none" stroke="midnightblue" d="M311.11,-215.37C311.11,-206.38 311.11,-196.67 311.11,-188.59"/>
<polygon fill="midnightblue" stroke="midnightblue" points="307.61,-215.46 311.11,-225.46 314.61,-215.46 307.61,-215.46"/>
</g>
<!-- Node8 -->
<g id="node8" class="node">
<title>Node8</title>
<g id="a_node8"><a xlink:href="container_8h.html" target="_top" xlink:title=" ">
<polygon fill="none" stroke="black" points="540.7,-75.5 540.7,-113.5 669.52,-113.5 669.52,-75.5 540.7,-75.5"/>
<text text-anchor="start" x="548.7" y="-101.5" font-family="Helvetica,sans-Serif" font-size="10.00">/Users/ma/Codes/toltec</text>
<text text-anchor="start" x="548.7" y="-91.5" font-family="Helvetica,sans-Serif" font-size="10.00">/citlali/citlali_dev/common</text>
<text text-anchor="middle" x="605.11" y="-81.5" font-family="Helvetica,sans-Serif" font-size="10.00">_utils/src/utils/container.h</text>
</a>
</g>
</g>
<!-- Node1&#45;&gt;Node8 -->
<g id="edge12" class="edge">
<title>Node1&#45;&gt;Node8</title>
<path fill="none" stroke="midnightblue" d="M344.92,-219.3C357.44,-210.07 371.61,-199.29 384.11,-189 404.03,-172.6 404.68,-162.75 427.11,-150 446.71,-138.86 497.8,-123.68 540.25,-112.17"/>
<polygon fill="midnightblue" stroke="midnightblue" points="342.57,-216.68 336.57,-225.41 346.7,-222.33 342.57,-216.68"/>
</g>
<!-- Node10 -->
<g id="node10" class="node">
<title>Node10</title>
<g id="a_node10"><a xlink:href="nc_8h.html" target="_top" xlink:title=" ">
<polygon fill="none" stroke="black" points="687.7,-75.5 687.7,-113.5 816.52,-113.5 816.52,-75.5 687.7,-75.5"/>
<text text-anchor="start" x="695.7" y="-101.5" font-family="Helvetica,sans-Serif" font-size="10.00">/Users/ma/Codes/toltec</text>
<text text-anchor="start" x="695.7" y="-91.5" font-family="Helvetica,sans-Serif" font-size="10.00">/citlali/citlali_dev/common</text>
<text text-anchor="middle" x="752.11" y="-81.5" font-family="Helvetica,sans-Serif" font-size="10.00">_utils/src/utils/nc.h</text>
</a>
</g>
</g>
<!-- Node1&#45;&gt;Node10 -->
<g id="edge16" class="edge">
<title>Node1&#45;&gt;Node10</title>
<path fill="none" stroke="midnightblue" d="M363.14,-221.07C381.5,-212.17 401.85,-201.16 419.11,-189 439.67,-174.51 437.6,-161.21 460.11,-150 548.02,-106.23 581.95,-133.93 678.11,-114 681.22,-113.36 684.4,-112.67 687.61,-111.95"/>
<polygon fill="midnightblue" stroke="midnightblue" points="361.56,-217.94 354.03,-225.39 364.56,-224.26 361.56,-217.94"/>
</g>
<!-- Node11 -->
<g id="node11" class="node">
<title>Node11</title>
<g id="a_node11"><a xlink:href="eigen__op_8h.html" target="_top" xlink:title=" ">
<polygon fill="none" stroke="black" points="468.7,-150.5 468.7,-188.5 597.52,-188.5 597.52,-150.5 468.7,-150.5"/>
<text text-anchor="start" x="476.7" y="-176.5" font-family="Helvetica,sans-Serif" font-size="10.00">/Users/ma/Codes/toltec</text>
<text text-anchor="start" x="476.7" y="-166.5" font-family="Helvetica,sans-Serif" font-size="10.00">/citlali/citlali_dev/common</text>
<text text-anchor="middle" x="533.11" y="-156.5" font-family="Helvetica,sans-Serif" font-size="10.00">_utils/src/utils/eigen_op.h</text>
</a>
</g>
</g>
<!-- Node1&#45;&gt;Node11 -->
<g id="edge13" class="edge">
<title>Node1&#45;&gt;Node11</title>
<path fill="none" stroke="midnightblue" d="M375.83,-222.22C408.26,-211.55 447.12,-198.78 478.1,-188.59"/>
<polygon fill="midnightblue" stroke="midnightblue" points="374.39,-219.01 365.99,-225.46 376.58,-225.66 374.39,-219.01"/>
</g>
<!-- Node2&#45;&gt;Node3 -->
<g id="edge2" class="edge">
<title>Node2&#45;&gt;Node3</title>
<path fill="none" stroke="midnightblue" d="M94.64,-140.37C93.53,-131.38 92.34,-121.67 91.34,-113.59"/>
<polygon fill="midnightblue" stroke="midnightblue" points="91.19,-140.96 95.89,-150.46 98.14,-140.1 91.19,-140.96"/>
</g>
<!-- Node3&#45;&gt;Node4 -->
<g id="edge3" class="edge">
<title>Node3&#45;&gt;Node4</title>
<path fill="none" stroke="midnightblue" d="M82.63,-65.66C80.51,-56.59 78.23,-46.76 76.32,-38.59"/>
<polygon fill="midnightblue" stroke="midnightblue" points="79.23,-66.51 84.91,-75.46 86.05,-64.92 79.23,-66.51"/>
</g>
<!-- Node5 -->
<g id="node5" class="node">
<title>Node5</title>
<g id="a_node5"><a xlink:href="mpi_8h.html" target="_top" xlink:title=" ">
<polygon fill="none" stroke="black" points="154.7,-0.5 154.7,-38.5 283.52,-38.5 283.52,-0.5 154.7,-0.5"/>
<text text-anchor="start" x="162.7" y="-26.5" font-family="Helvetica,sans-Serif" font-size="10.00">/Users/ma/Codes/toltec</text>
<text text-anchor="start" x="162.7" y="-16.5" font-family="Helvetica,sans-Serif" font-size="10.00">/citlali/citlali_dev/common</text>
<text text-anchor="middle" x="219.11" y="-6.5" font-family="Helvetica,sans-Serif" font-size="10.00">_utils/src/utils/mpi.h</text>
</a>
</g>
</g>
<!-- Node3&#45;&gt;Node5 -->
<g id="edge4" class="edge">
<title>Node3&#45;&gt;Node5</title>
<path fill="none" stroke="midnightblue" d="M129.99,-70.55C148.34,-60.24 169.69,-48.25 186.9,-38.59"/>
<polygon fill="midnightblue" stroke="midnightblue" points="128.25,-67.51 121.25,-75.46 131.68,-73.61 128.25,-67.51"/>
</g>
<!-- Node6&#45;&gt;Node4 -->
<g id="edge9" class="edge">
<title>Node6&#45;&gt;Node4</title>
<path fill="none" stroke="midnightblue" d="M271.49,-145.38C255.43,-135.85 236.77,-124.58 220.11,-114 193.89,-97.35 188.29,-91.72 162.11,-75 142.56,-62.52 120.26,-49.01 102.74,-38.56"/>
<polygon fill="midnightblue" stroke="midnightblue" points="269.73,-148.41 280.12,-150.48 273.29,-142.38 269.73,-148.41"/>
</g>
<!-- Node6&#45;&gt;Node5 -->
<g id="edge10" class="edge">
<title>Node6&#45;&gt;Node5</title>
<path fill="none" stroke="midnightblue" d="M268.5,-144.67C257.05,-136.36 245.74,-126.04 238.11,-114 223.48,-90.92 219.81,-58.75 219.06,-38.79"/>
<polygon fill="midnightblue" stroke="midnightblue" points="266.58,-147.6 276.81,-150.37 270.54,-141.83 266.58,-147.6"/>
</g>
<!-- Node7 -->
<g id="node7" class="node">
<title>Node7</title>
<g id="a_node7"><a xlink:href="config_8h.html" target="_top" xlink:title=" ">
<polygon fill="none" stroke="black" points="246.7,-75.5 246.7,-113.5 375.52,-113.5 375.52,-75.5 246.7,-75.5"/>
<text text-anchor="start" x="254.7" y="-101.5" font-family="Helvetica,sans-Serif" font-size="10.00">/Users/ma/Codes/toltec</text>
<text text-anchor="start" x="254.7" y="-91.5" font-family="Helvetica,sans-Serif" font-size="10.00">/citlali/citlali_dev/common</text>
<text text-anchor="middle" x="311.11" y="-81.5" font-family="Helvetica,sans-Serif" font-size="10.00">_utils/src/utils/config.h</text>
</a>
</g>
</g>
<!-- Node6&#45;&gt;Node7 -->
<g id="edge6" class="edge">
<title>Node6&#45;&gt;Node7</title>
<path fill="none" stroke="midnightblue" d="M311.11,-140.37C311.11,-131.38 311.11,-121.67 311.11,-113.59"/>
<polygon fill="midnightblue" stroke="midnightblue" points="307.61,-140.46 311.11,-150.46 314.61,-140.46 307.61,-140.46"/>
</g>
<!-- Node6&#45;&gt;Node8 -->
<g id="edge7" class="edge">
<title>Node6&#45;&gt;Node8</title>
<path fill="none" stroke="midnightblue" d="M385.36,-150.15C428.01,-139.6 482.58,-126.08 531.11,-114 534.19,-113.23 537.35,-112.45 540.54,-111.65"/>
<polygon fill="midnightblue" stroke="midnightblue" points="384.48,-146.76 375.62,-152.56 386.17,-153.55 384.48,-146.76"/>
</g>
<!-- Node9 -->
<g id="node9" class="node">
<title>Node9</title>
<g id="a_node9"><a xlink:href="datatable_8h.html" target="_top" xlink:title=" ">
<polygon fill="none" stroke="black" points="393.7,-75.5 393.7,-113.5 522.52,-113.5 522.52,-75.5 393.7,-75.5"/>
<text text-anchor="start" x="401.7" y="-101.5" font-family="Helvetica,sans-Serif" font-size="10.00">/Users/ma/Codes/toltec</text>
<text text-anchor="start" x="401.7" y="-91.5" font-family="Helvetica,sans-Serif" font-size="10.00">/citlali/citlali_dev/common</text>
<text text-anchor="middle" x="458.11" y="-81.5" font-family="Helvetica,sans-Serif" font-size="10.00">_utils/src/utils/datatable.h</text>
</a>
</g>
</g>
<!-- Node6&#45;&gt;Node9 -->
<g id="edge8" class="edge">
<title>Node6&#45;&gt;Node9</title>
<path fill="none" stroke="midnightblue" d="M356.48,-145.97C377.43,-135.57 401.97,-123.38 421.68,-113.59"/>
<polygon fill="midnightblue" stroke="midnightblue" points="354.85,-142.87 347.45,-150.46 357.96,-149.14 354.85,-142.87"/>
</g>
<!-- Node6&#45;&gt;Node10 -->
<g id="edge11" class="edge">
<title>Node6&#45;&gt;Node10</title>
<path fill="none" stroke="midnightblue" d="M385.72,-156.42C399.48,-154.25 413.72,-152.03 427.11,-150 538.54,-133.13 567.52,-135.7 678.11,-114 681.23,-113.39 684.41,-112.73 687.62,-112.04"/>
<polygon fill="midnightblue" stroke="midnightblue" points="385.14,-152.97 375.81,-158 386.24,-159.89 385.14,-152.97"/>
</g>
</g>
</svg>
