<?xml version="1.0" encoding="UTF-8" standalone="no"?>
<!DOCTYPE svg PUBLIC "-//W3C//DTD SVG 1.1//EN"
 "http://www.w3.org/Graphics/SVG/1.1/DTD/svg11.dtd">
<!-- Generated by graphviz version 2.43.0 (0)
 -->
<!-- Title: /Users/ma/Codes/toltec/citlali/citlali_dev/common_utils/src/utils/mpi.h Pages: 1 -->
<svg width="1728pt" height="297pt"
 viewBox="0.00 0.00 1727.75 297.00" xmlns="http://www.w3.org/2000/svg" xmlns:xlink="http://www.w3.org/1999/xlink">
<g id="graph0" class="graph" transform="scale(1 1) rotate(0) translate(4 293)">
<title>/Users/ma/Codes/toltec/citlali/citlali_dev/common_utils/src/utils/mpi.h</title>
<!-- Node1 -->
<g id="node1" class="node">
<title>Node1</title>
<g id="a_node1"><a xlink:title=" ">
<polygon fill="#bfbfbf" stroke="black" points="1139.12,-250.5 1139.12,-288.5 1267.93,-288.5 1267.93,-250.5 1139.12,-250.5"/>
<text text-anchor="start" x="1147.12" y="-276.5" font-family="Helvetica,sans-Serif" font-size="10.00">/Users/ma/Codes/toltec</text>
<text text-anchor="start" x="1147.12" y="-266.5" font-family="Helvetica,sans-Serif" font-size="10.00">/citlali/citlali_dev/common</text>
<text text-anchor="middle" x="1203.52" y="-256.5" font-family="Helvetica,sans-Serif" font-size="10.00">_utils/src/utils/mpi.h</text>
</a>
</g>
</g>
<!-- Node2 -->
<g id="node2" class="node">
<title>Node2</title>
<g id="a_node2"><a xlink:href="enum_8h.html" target="_top" xlink:title=" ">
<polygon fill="none" stroke="black" points="791.85,-185.5 791.85,-203.5 841.2,-203.5 841.2,-185.5 791.85,-185.5"/>
<text text-anchor="middle" x="816.52" y="-191.5" font-family="Helvetica,sans-Serif" font-size="10.00">enum.h</text>
</a>
</g>
</g>
<!-- Node1&#45;&gt;Node2 -->
<g id="edge1" class="edge">
<title>Node1&#45;&gt;Node2</title>
<path fill="none" stroke="midnightblue" d="M1138.82,-265.2C1066.8,-260 947.76,-246.84 850.52,-214 846.3,-212.57 841.98,-210.64 837.9,-208.56"/>
<polygon fill="midnightblue" stroke="midnightblue" points="839.41,-205.4 828.96,-203.62 836.02,-211.52 839.41,-205.4"/>
</g>
<!-- Node17 -->
<g id="node17" class="node">
<title>Node17</title>
<g id="a_node17"><a xlink:title=" ">
<polygon fill="none" stroke="#bfbfbf" points="859.4,-185.5 859.4,-203.5 937.65,-203.5 937.65,-185.5 859.4,-185.5"/>
<text text-anchor="middle" x="898.52" y="-191.5" font-family="Helvetica,sans-Serif" font-size="10.00">formatter/ptr.h</text>
</a>
</g>
</g>
<!-- Node1&#45;&gt;Node17 -->
<g id="edge21" class="edge">
<title>Node1&#45;&gt;Node17</title>
<path fill="none" stroke="midnightblue" d="M1138.92,-257.74C1086.51,-248.31 1011.02,-233.14 946.52,-214 940.12,-212.1 933.36,-209.73 927,-207.33"/>
<polygon fill="midnightblue" stroke="midnightblue" points="928.02,-203.97 917.44,-203.59 925.47,-210.49 928.02,-203.97"/>
</g>
<!-- Node18 -->
<g id="node18" class="node">
<title>Node18</title>
<g id="a_node18"><a xlink:title=" ">
<polygon fill="none" stroke="#bfbfbf" points="955.67,-175.5 955.67,-213.5 1103.38,-213.5 1103.38,-175.5 955.67,-175.5"/>
<text text-anchor="start" x="963.67" y="-201.5" font-family="Helvetica,sans-Serif" font-size="10.00">/Users/ma/Codes/toltec</text>
<text text-anchor="start" x="963.67" y="-191.5" font-family="Helvetica,sans-Serif" font-size="10.00">/citlali/citlali_dev/common</text>
<text text-anchor="middle" x="1029.52" y="-181.5" font-family="Helvetica,sans-Serif" font-size="10.00">_utils/src/utils/formatter/utils.h</text>
</a>
</g>
</g>
<!-- Node1&#45;&gt;Node18 -->
<g id="edge22" class="edge">
<title>Node1&#45;&gt;Node18</title>
<path fill="none" stroke="midnightblue" d="M1160.51,-250.46C1136.78,-240.5 1107.11,-228.05 1082.02,-217.52"/>
<polygon fill="midnightblue" stroke="midnightblue" points="1083.22,-214.23 1072.64,-213.59 1080.51,-220.69 1083.22,-214.23"/>
</g>
<!-- Node19 -->
<g id="node19" class="node">
<title>Node19</title>
<g id="a_node19"><a xlink:title=" ">
<polygon fill="none" stroke="#bfbfbf" points="1121.85,-185.5 1121.85,-203.5 1191.2,-203.5 1191.2,-185.5 1121.85,-185.5"/>
<text text-anchor="middle" x="1156.52" y="-191.5" font-family="Helvetica,sans-Serif" font-size="10.00">fmt/format.h</text>
</a>
</g>
</g>
<!-- Node1&#45;&gt;Node19 -->
<g id="edge23" class="edge">
<title>Node1&#45;&gt;Node19</title>
<path fill="none" stroke="midnightblue" d="M1191.91,-250.46C1184.35,-238.71 1174.56,-223.51 1167.2,-212.07"/>
<polygon fill="midnightblue" stroke="midnightblue" points="1170.04,-210.02 1161.68,-203.51 1164.15,-213.81 1170.04,-210.02"/>
</g>
<!-- Node20 -->
<g id="node20" class="node">
<title>Node20</title>
<g id="a_node20"><a xlink:title=" ">
<polygon fill="none" stroke="#bfbfbf" points="1209.07,-185.5 1209.07,-203.5 1293.98,-203.5 1293.98,-185.5 1209.07,-185.5"/>
<text text-anchor="middle" x="1251.52" y="-191.5" font-family="Helvetica,sans-Serif" font-size="10.00">formatter/utils.h</text>
</a>
</g>
</g>
<!-- Node1&#45;&gt;Node20 -->
<g id="edge24" class="edge">
<title>Node1&#45;&gt;Node20</title>
<path fill="none" stroke="midnightblue" d="M1215.39,-250.46C1223.11,-238.71 1233.11,-223.51 1240.63,-212.07"/>
<polygon fill="midnightblue" stroke="midnightblue" points="1243.69,-213.79 1246.26,-203.51 1237.84,-209.94 1243.69,-213.79"/>
</g>
<!-- Node21 -->
<g id="node21" class="node">
<title>Node21</title>
<g id="a_node21"><a xlink:href="logging_8h.html" target="_top" xlink:title=" ">
<polygon fill="none" stroke="black" points="359.23,-185.5 359.23,-203.5 415.82,-203.5 415.82,-185.5 359.23,-185.5"/>
<text text-anchor="middle" x="387.52" y="-191.5" font-family="Helvetica,sans-Serif" font-size="10.00">logging.h</text>
</a>
</g>
</g>
<!-- Node1&#45;&gt;Node21 -->
<g id="edge25" class="edge">
<title>Node1&#45;&gt;Node21</title>
<path fill="none" stroke="midnightblue" d="M1138.81,-262.71C976.57,-248.2 556.2,-210.59 426.33,-198.97"/>
<polygon fill="midnightblue" stroke="midnightblue" points="426.35,-195.46 416.08,-198.05 425.72,-202.43 426.35,-195.46"/>
</g>
<!-- Node26 -->
<g id="node26" class="node">
<title>Node26</title>
<g id="a_node26"><a xlink:title=" ">
<polygon fill="none" stroke="#bfbfbf" points="482.74,-115.5 482.74,-133.5 534.31,-133.5 534.31,-115.5 482.74,-115.5"/>
<text text-anchor="middle" x="508.52" y="-121.5" font-family="Helvetica,sans-Serif" font-size="10.00">sstream</text>
</a>
</g>
</g>
<!-- Node1&#45;&gt;Node26 -->
<g id="edge36" class="edge">
<title>Node1&#45;&gt;Node26</title>
<path fill="none" stroke="midnightblue" d="M1139.06,-263.81C1055.91,-256.93 907.15,-241.8 782.52,-214 691.92,-193.79 588.58,-156.33 538.66,-137.28"/>
<polygon fill="midnightblue" stroke="midnightblue" points="539.72,-133.94 529.13,-133.62 537.21,-140.47 539.72,-133.94"/>
</g>
<!-- Node27 -->
<g id="node27" class="node">
<title>Node27</title>
<g id="a_node27"><a xlink:title=" ">
<polygon fill="none" stroke="#bfbfbf" points="1311.51,-185.5 1311.51,-203.5 1377.54,-203.5 1377.54,-185.5 1311.51,-185.5"/>
<text text-anchor="middle" x="1344.52" y="-191.5" font-family="Helvetica,sans-Serif" font-size="10.00">Eigen/Core</text>
</a>
</g>
</g>
<!-- Node1&#45;&gt;Node27 -->
<g id="edge32" class="edge">
<title>Node1&#45;&gt;Node27</title>
<path fill="none" stroke="midnightblue" d="M1238.38,-250.46C1263.78,-237.3 1297.56,-219.81 1320.13,-208.13"/>
<polygon fill="midnightblue" stroke="midnightblue" points="1321.78,-211.22 1329.05,-203.51 1318.56,-205 1321.78,-211.22"/>
</g>
<!-- Node28 -->
<g id="node28" class="node">
<title>Node28</title>
<g id="a_node28"><a xlink:title=" ">
<polygon fill="none" stroke="#bfbfbf" points="1395.63,-185.5 1395.63,-203.5 1479.42,-203.5 1479.42,-185.5 1395.63,-185.5"/>
<text text-anchor="middle" x="1437.52" y="-191.5" font-family="Helvetica,sans-Serif" font-size="10.00">mxx/comm.hpp</text>
</a>
</g>
</g>
<!-- Node1&#45;&gt;Node28 -->
<g id="edge33" class="edge">
<title>Node1&#45;&gt;Node28</title>
<path fill="none" stroke="midnightblue" d="M1267.33,-250.49C1302.62,-240.28 1347.17,-226.98 1386.52,-214 1393.13,-211.82 1400.18,-209.36 1406.86,-206.95"/>
<polygon fill="midnightblue" stroke="midnightblue" points="1408.08,-210.23 1416.28,-203.52 1405.69,-203.65 1408.08,-210.23"/>
</g>
<!-- Node29 -->
<g id="node29" class="node">
<title>Node29</title>
<g id="a_node29"><a xlink:title=" ">
<polygon fill="none" stroke="#bfbfbf" points="1497.55,-185.5 1497.55,-203.5 1569.5,-203.5 1569.5,-185.5 1497.55,-185.5"/>
<text text-anchor="middle" x="1533.52" y="-191.5" font-family="Helvetica,sans-Serif" font-size="10.00">mxx/env.hpp</text>
</a>
</g>
</g>
<!-- Node1&#45;&gt;Node29 -->
<g id="edge34" class="edge">
<title>Node1&#45;&gt;Node29</title>
<path fill="none" stroke="midnightblue" d="M1268.08,-259.94C1326.43,-251.32 1414.29,-236.11 1488.52,-214 1494.54,-212.21 1500.86,-209.9 1506.79,-207.52"/>
<polygon fill="midnightblue" stroke="midnightblue" points="1508.42,-210.63 1516.3,-203.54 1505.72,-204.17 1508.42,-210.63"/>
</g>
<!-- Node30 -->
<g id="node30" class="node">
<title>Node30</title>
<g id="a_node30"><a xlink:title=" ">
<polygon fill="none" stroke="#bfbfbf" points="1587.35,-185.5 1587.35,-203.5 1661.7,-203.5 1661.7,-185.5 1587.35,-185.5"/>
<text text-anchor="middle" x="1624.52" y="-191.5" font-family="Helvetica,sans-Serif" font-size="10.00">mxx/utils.hpp</text>
</a>
</g>
</g>
<!-- Node1&#45;&gt;Node30 -->
<g id="edge35" class="edge">
<title>Node1&#45;&gt;Node30</title>
<path fill="none" stroke="midnightblue" d="M1268.17,-263.81C1343.66,-257.25 1471.81,-242.77 1578.52,-214 1584.96,-212.26 1591.71,-209.89 1598,-207.41"/>
<polygon fill="midnightblue" stroke="midnightblue" points="1599.48,-210.59 1607.38,-203.53 1596.81,-204.12 1599.48,-210.59"/>
</g>
<!-- Node31 -->
<g id="node31" class="node">
<title>Node31</title>
<g id="a_node31"><a xlink:title=" ">
<polygon fill="none" stroke="#bfbfbf" points="1679.3,-185.5 1679.3,-203.5 1719.75,-203.5 1719.75,-185.5 1679.3,-185.5"/>
<text text-anchor="middle" x="1699.52" y="-191.5" font-family="Helvetica,sans-Serif" font-size="10.00">string</text>
</a>
</g>
</g>
<!-- Node1&#45;&gt;Node31 -->
<g id="edge37" class="edge">
<title>Node1&#45;&gt;Node31</title>
<path fill="none" stroke="midnightblue" d="M1268.25,-264.54C1378.53,-257.2 1597.95,-239.84 1670.52,-214 1674.01,-212.76 1677.5,-211.04 1680.79,-209.14"/>
<polygon fill="midnightblue" stroke="midnightblue" points="1682.89,-211.95 1689.38,-203.58 1679.09,-206.08 1682.89,-211.95"/>
</g>
<!-- Node3 -->
<g id="node3" class="node">
<title>Node3</title>
<g id="a_node3"><a xlink:href="bits_8h.html" target="_top" xlink:title=" ">
<polygon fill="none" stroke="black" points="869.57,-115.5 869.57,-133.5 909.48,-133.5 909.48,-115.5 869.57,-115.5"/>
<text text-anchor="middle" x="889.52" y="-121.5" font-family="Helvetica,sans-Serif" font-size="10.00">bits.h</text>
</a>
</g>
</g>
<!-- Node2&#45;&gt;Node3 -->
<g id="edge2" class="edge">
<title>Node2&#45;&gt;Node3</title>
<path fill="none" stroke="midnightblue" d="M825.19,-185.43C837.04,-174.39 858.54,-154.36 873.4,-140.52"/>
<polygon fill="midnightblue" stroke="midnightblue" points="875.94,-142.93 880.87,-133.56 871.17,-137.81 875.94,-142.93"/>
</g>
<!-- Node4 -->
<g id="node4" class="node">
<title>Node4</title>
<g id="a_node4"><a xlink:href="meta_8h.html" target="_top" xlink:title=" ">
<polygon fill="none" stroke="black" points="805.24,-55.5 805.24,-73.5 851.81,-73.5 851.81,-55.5 805.24,-55.5"/>
<text text-anchor="middle" x="828.52" y="-61.5" font-family="Helvetica,sans-Serif" font-size="10.00">meta.h</text>
</a>
</g>
</g>
<!-- Node2&#45;&gt;Node4 -->
<g id="edge18" class="edge">
<title>Node2&#45;&gt;Node4</title>
<path fill="none" stroke="midnightblue" d="M817.49,-185.38C818.74,-174.74 820.94,-155.49 822.52,-139 824.32,-120.3 826.03,-98.88 827.16,-84.01"/>
<polygon fill="midnightblue" stroke="midnightblue" points="830.68,-83.9 827.93,-73.66 823.7,-83.37 830.68,-83.9"/>
</g>
<!-- Node6 -->
<g id="node6" class="node">
<title>Node6</title>
<g id="a_node6"><a xlink:title=" ">
<polygon fill="none" stroke="#bfbfbf" points="558.41,-0.5 558.41,-18.5 606.64,-18.5 606.64,-0.5 558.41,-0.5"/>
<text text-anchor="middle" x="582.52" y="-6.5" font-family="Helvetica,sans-Serif" font-size="10.00">cassert</text>
</a>
</g>
</g>
<!-- Node2&#45;&gt;Node6 -->
<g id="edge16" class="edge">
<title>Node2&#45;&gt;Node6</title>
<path fill="none" stroke="midnightblue" d="M791.79,-188.19C732.1,-175.31 584.85,-143.18 581.52,-139 556.15,-107.07 567.53,-55.21 576.1,-28.17"/>
<polygon fill="midnightblue" stroke="midnightblue" points="579.48,-29.12 579.39,-18.53 572.85,-26.87 579.48,-29.12"/>
</g>
<!-- Node10 -->
<g id="node10" class="node">
<title>Node10</title>
<g id="a_node10"><a xlink:title=" ">
<polygon fill="none" stroke="#bfbfbf" points="991.52,-0.5 991.52,-18.5 1037.53,-18.5 1037.53,-0.5 991.52,-0.5"/>
<text text-anchor="middle" x="1014.52" y="-6.5" font-family="Helvetica,sans-Serif" font-size="10.00">variant</text>
</a>
</g>
</g>
<!-- Node2&#45;&gt;Node10 -->
<g id="edge20" class="edge">
<title>Node2&#45;&gt;Node10</title>
<path fill="none" stroke="midnightblue" d="M828.98,-185.43C835.22,-181.73 843.03,-177.6 850.52,-175 939.98,-143.95 999.48,-211.4 1060.52,-139 1089.05,-105.16 1051.46,-52.29 1029.05,-26.18"/>
<polygon fill="midnightblue" stroke="midnightblue" points="1031.67,-23.85 1022.41,-18.7 1026.43,-28.5 1031.67,-23.85"/>
</g>
<!-- Node11 -->
<g id="node11" class="node">
<title>Node11</title>
<g id="a_node11"><a xlink:title=" ">
<polygon fill="none" stroke="#bfbfbf" points="911.46,-55.5 911.46,-73.5 973.59,-73.5 973.59,-55.5 911.46,-55.5"/>
<text text-anchor="middle" x="942.52" y="-61.5" font-family="Helvetica,sans-Serif" font-size="10.00">type_traits</text>
</a>
</g>
</g>
<!-- Node2&#45;&gt;Node11 -->
<g id="edge13" class="edge">
<title>Node2&#45;&gt;Node11</title>
<path fill="none" stroke="midnightblue" d="M831.4,-185.36C837.34,-182.12 844.25,-178.37 850.52,-175 880.65,-158.83 896.5,-165.16 918.52,-139 931.74,-123.3 937.73,-100.14 940.41,-84.02"/>
<polygon fill="midnightblue" stroke="midnightblue" points="943.93,-84.13 941.84,-73.75 937,-83.17 943.93,-84.13"/>
</g>
<!-- Node12 -->
<g id="node12" class="node">
<title>Node12</title>
<g id="a_node12"><a xlink:title=" ">
<polygon fill="none" stroke="#bfbfbf" points="965.23,-115.5 965.23,-133.5 1051.82,-133.5 1051.82,-115.5 965.23,-115.5"/>
<text text-anchor="middle" x="1008.52" y="-121.5" font-family="Helvetica,sans-Serif" font-size="10.00">enum/bitmask.h</text>
</a>
</g>
</g>
<!-- Node2&#45;&gt;Node12 -->
<g id="edge12" class="edge">
<title>Node2&#45;&gt;Node12</title>
<path fill="none" stroke="midnightblue" d="M829.79,-185.5C835.96,-181.99 843.47,-177.99 850.52,-175 888.85,-158.75 934.38,-145.05 966.7,-136.2"/>
<polygon fill="midnightblue" stroke="midnightblue" points="967.96,-139.49 976.7,-133.51 966.13,-132.73 967.96,-139.49"/>
</g>
<!-- Node13 -->
<g id="node13" class="node">
<title>Node13</title>
<g id="a_node13"><a xlink:title=" ">
<polygon fill="none" stroke="#bfbfbf" points="1107.12,-115.5 1107.12,-133.5 1165.93,-133.5 1165.93,-115.5 1107.12,-115.5"/>
<text text-anchor="middle" x="1136.52" y="-121.5" font-family="Helvetica,sans-Serif" font-size="10.00">functional</text>
</a>
</g>
</g>
<!-- Node2&#45;&gt;Node13 -->
<g id="edge14" class="edge">
<title>Node2&#45;&gt;Node13</title>
<path fill="none" stroke="midnightblue" d="M828.96,-185.36C835.19,-181.64 843,-177.51 850.52,-175 954.07,-140.38 987.11,-163.43 1093.52,-139 1096.73,-138.26 1100.04,-137.41 1103.33,-136.49"/>
<polygon fill="midnightblue" stroke="midnightblue" points="1104.46,-139.8 1113.05,-133.6 1102.47,-133.09 1104.46,-139.8"/>
</g>
<!-- Node14 -->
<g id="node14" class="node">
<title>Node14</title>
<g id="a_node14"><a xlink:title=" ">
<polygon fill="none" stroke="#bfbfbf" points="590.14,-115.5 590.14,-133.5 628.91,-133.5 628.91,-115.5 590.14,-115.5"/>
<text text-anchor="middle" x="609.52" y="-121.5" font-family="Helvetica,sans-Serif" font-size="10.00">limits</text>
</a>
</g>
</g>
<!-- Node2&#45;&gt;Node14 -->
<g id="edge15" class="edge">
<title>Node2&#45;&gt;Node14</title>
<path fill="none" stroke="midnightblue" d="M791.69,-187.07C756.94,-177.8 692.08,-159.55 638.52,-139 637.49,-138.6 636.44,-138.18 635.38,-137.75"/>
<polygon fill="midnightblue" stroke="midnightblue" points="636.48,-134.41 625.92,-133.61 633.68,-140.83 636.48,-134.41"/>
</g>
<!-- Node15 -->
<g id="node15" class="node">
<title>Node15</title>
<g id="a_node15"><a xlink:title=" ">
<polygon fill="none" stroke="#bfbfbf" points="647.05,-115.5 647.05,-133.5 751.99,-133.5 751.99,-115.5 647.05,-115.5"/>
<text text-anchor="middle" x="699.52" y="-121.5" font-family="Helvetica,sans-Serif" font-size="10.00">enum/meta_enum.h</text>
</a>
</g>
</g>
<!-- Node2&#45;&gt;Node15 -->
<g id="edge17" class="edge">
<title>Node2&#45;&gt;Node15</title>
<path fill="none" stroke="midnightblue" d="M802.64,-185.43C782.76,-173.88 745.96,-152.49 722.12,-138.64"/>
<polygon fill="midnightblue" stroke="midnightblue" points="723.79,-135.56 713.39,-133.56 720.27,-141.61 723.79,-135.56"/>
</g>
<!-- Node16 -->
<g id="node16" class="node">
<title>Node16</title>
<g id="a_node16"><a xlink:title=" ">
<polygon fill="none" stroke="#bfbfbf" points="769.64,-115.5 769.64,-133.5 813.41,-133.5 813.41,-115.5 769.64,-115.5"/>
<text text-anchor="middle" x="791.52" y="-121.5" font-family="Helvetica,sans-Serif" font-size="10.00">climits</text>
</a>
</g>
</g>
<!-- Node2&#45;&gt;Node16 -->
<g id="edge19" class="edge">
<title>Node2&#45;&gt;Node16</title>
<path fill="none" stroke="midnightblue" d="M813.56,-185.43C809.76,-175.11 803.08,-156.92 798.06,-143.28"/>
<polygon fill="midnightblue" stroke="midnightblue" points="801.22,-141.74 794.49,-133.56 794.65,-144.15 801.22,-141.74"/>
</g>
<!-- Node3&#45;&gt;Node4 -->
<g id="edge3" class="edge">
<title>Node3&#45;&gt;Node4</title>
<path fill="none" stroke="midnightblue" d="M881.04,-115.44C871.68,-106.53 856.39,-92 844.72,-80.9"/>
<polygon fill="midnightblue" stroke="midnightblue" points="846.99,-78.23 837.33,-73.87 842.16,-83.3 846.99,-78.23"/>
</g>
<!-- Node9 -->
<g id="node9" class="node">
<title>Node9</title>
<g id="a_node9"><a xlink:title=" ">
<polygon fill="none" stroke="#bfbfbf" points="869.68,-0.5 869.68,-18.5 907.37,-18.5 907.37,-0.5 869.68,-0.5"/>
<text text-anchor="middle" x="888.52" y="-6.5" font-family="Helvetica,sans-Serif" font-size="10.00">tuple</text>
</a>
</g>
</g>
<!-- Node3&#45;&gt;Node9 -->
<g id="edge10" class="edge">
<title>Node3&#45;&gt;Node9</title>
<path fill="none" stroke="midnightblue" d="M889.45,-115.37C889.29,-97.37 888.91,-53.77 888.69,-28.83"/>
<polygon fill="midnightblue" stroke="midnightblue" points="892.18,-28.52 888.6,-18.55 885.18,-28.58 892.18,-28.52"/>
</g>
<!-- Node3&#45;&gt;Node11 -->
<g id="edge11" class="edge">
<title>Node3&#45;&gt;Node11</title>
<path fill="none" stroke="midnightblue" d="M896.89,-115.44C904.87,-106.7 917.8,-92.55 927.87,-81.54"/>
<polygon fill="midnightblue" stroke="midnightblue" points="930.71,-83.61 934.87,-73.87 925.54,-78.89 930.71,-83.61"/>
</g>
<!-- Node5 -->
<g id="node5" class="node">
<title>Node5</title>
<g id="a_node5"><a xlink:title=" ">
<polygon fill="none" stroke="#bfbfbf" points="712.35,-0.5 712.35,-18.5 786.7,-18.5 786.7,-0.5 712.35,-0.5"/>
<text text-anchor="middle" x="749.52" y="-6.5" font-family="Helvetica,sans-Serif" font-size="10.00">macro/map.h</text>
</a>
</g>
</g>
<!-- Node4&#45;&gt;Node5 -->
<g id="edge4" class="edge">
<title>Node4&#45;&gt;Node5</title>
<path fill="none" stroke="midnightblue" d="M816.53,-55.45C804.23,-47.2 784.87,-34.22 770.12,-24.32"/>
<polygon fill="midnightblue" stroke="midnightblue" points="771.89,-21.29 761.64,-18.63 767.99,-27.1 771.89,-21.29"/>
</g>
<!-- Node4&#45;&gt;Node6 -->
<g id="edge5" class="edge">
<title>Node4&#45;&gt;Node6</title>
<path fill="none" stroke="midnightblue" d="M804.94,-58.42C761.17,-48.99 667.25,-28.75 616.59,-17.84"/>
<polygon fill="midnightblue" stroke="midnightblue" points="617.28,-14.41 606.77,-15.72 615.8,-21.25 617.28,-14.41"/>
</g>
<!-- Node7 -->
<g id="node7" class="node">
<title>Node7</title>
<g id="a_node7"><a xlink:title=" ">
<polygon fill="none" stroke="#bfbfbf" points="804.96,-0.5 804.96,-18.5 852.09,-18.5 852.09,-0.5 804.96,-0.5"/>
<text text-anchor="middle" x="828.52" y="-6.5" font-family="Helvetica,sans-Serif" font-size="10.00">iterator</text>
</a>
</g>
</g>
<!-- Node4&#45;&gt;Node7 -->
<g id="edge6" class="edge">
<title>Node4&#45;&gt;Node7</title>
<path fill="none" stroke="midnightblue" d="M828.52,-55.22C828.52,-48.18 828.52,-37.81 828.52,-28.83"/>
<polygon fill="midnightblue" stroke="midnightblue" points="832.02,-28.55 828.52,-18.55 825.02,-28.55 832.02,-28.55"/>
</g>
<!-- Node8 -->
<g id="node8" class="node">
<title>Node8</title>
<g id="a_node8"><a xlink:title=" ">
<polygon fill="none" stroke="#bfbfbf" points="643.01,-0.5 643.01,-18.5 694.04,-18.5 694.04,-0.5 643.01,-0.5"/>
<text text-anchor="middle" x="668.52" y="-6.5" font-family="Helvetica,sans-Serif" font-size="10.00">optional</text>
</a>
</g>
</g>
<!-- Node4&#45;&gt;Node8 -->
<g id="edge7" class="edge">
<title>Node4&#45;&gt;Node8</title>
<path fill="none" stroke="midnightblue" d="M804.92,-55.68C777.89,-46.73 733.41,-31.99 702.62,-21.8"/>
<polygon fill="midnightblue" stroke="midnightblue" points="703.35,-18.35 692.75,-18.53 701.15,-24.99 703.35,-18.35"/>
</g>
<!-- Node4&#45;&gt;Node9 -->
<g id="edge8" class="edge">
<title>Node4&#45;&gt;Node9</title>
<path fill="none" stroke="midnightblue" d="M837.64,-55.45C846.62,-47.51 860.57,-35.19 871.6,-25.45"/>
<polygon fill="midnightblue" stroke="midnightblue" points="874.15,-27.87 879.33,-18.63 869.51,-22.62 874.15,-27.87"/>
</g>
<!-- Node4&#45;&gt;Node10 -->
<g id="edge9" class="edge">
<title>Node4&#45;&gt;Node10</title>
<path fill="none" stroke="midnightblue" d="M852.08,-56.79C884.87,-47.44 944.43,-30.47 981.6,-19.88"/>
<polygon fill="midnightblue" stroke="midnightblue" points="982.79,-23.18 991.45,-17.07 980.87,-16.45 982.79,-23.18"/>
</g>
<!-- Node21&#45;&gt;Node4 -->
<g id="edge27" class="edge">
<title>Node21&#45;&gt;Node4</title>
<path fill="none" stroke="midnightblue" d="M394.61,-185.42C411.56,-166.29 454.48,-119.14 473.52,-110 529.94,-82.91 717.52,-70.89 794.8,-67.01"/>
<polygon fill="midnightblue" stroke="midnightblue" points="795.13,-70.5 804.95,-66.51 794.79,-63.5 795.13,-70.5"/>
</g>
<!-- Node22 -->
<g id="node22" class="node">
<title>Node22</title>
<g id="a_node22"><a xlink:title=" ">
<polygon fill="none" stroke="#bfbfbf" points="223.67,-115.5 223.67,-133.5 331.38,-133.5 331.38,-115.5 223.67,-115.5"/>
<text text-anchor="middle" x="277.52" y="-121.5" font-family="Helvetica,sans-Serif" font-size="10.00">formatter/container.h</text>
</a>
</g>
</g>
<!-- Node21&#45;&gt;Node22 -->
<g id="edge26" class="edge">
<title>Node21&#45;&gt;Node22</title>
<path fill="none" stroke="midnightblue" d="M374.47,-185.43C355.87,-173.93 321.49,-152.68 299.07,-138.82"/>
<polygon fill="midnightblue" stroke="midnightblue" points="300.9,-135.84 290.56,-133.56 297.22,-141.79 300.9,-135.84"/>
</g>
<!-- Node23 -->
<g id="node23" class="node">
<title>Node23</title>
<g id="a_node23"><a xlink:title=" ">
<polygon fill="none" stroke="#bfbfbf" points="348.96,-115.5 348.96,-133.5 426.09,-133.5 426.09,-115.5 348.96,-115.5"/>
<text text-anchor="middle" x="387.52" y="-121.5" font-family="Helvetica,sans-Serif" font-size="10.00">fmt/ostream.h</text>
</a>
</g>
</g>
<!-- Node21&#45;&gt;Node23 -->
<g id="edge28" class="edge">
<title>Node21&#45;&gt;Node23</title>
<path fill="none" stroke="midnightblue" d="M387.52,-185.43C387.52,-175.21 387.52,-157.28 387.52,-143.69"/>
<polygon fill="midnightblue" stroke="midnightblue" points="391.02,-143.56 387.52,-133.56 384.02,-143.56 391.02,-143.56"/>
</g>
<!-- Node24 -->
<g id="node24" class="node">
<title>Node24</title>
<g id="a_node24"><a xlink:title=" ">
<polygon fill="none" stroke="#bfbfbf" points="0,-110.5 0,-138.5 101.05,-138.5 101.05,-110.5 0,-110.5"/>
<text text-anchor="start" x="8" y="-126.5" font-family="Helvetica,sans-Serif" font-size="10.00">spdlog/sinks/stdout</text>
<text text-anchor="middle" x="50.52" y="-116.5" font-family="Helvetica,sans-Serif" font-size="10.00">_color_sinks.h</text>
</a>
</g>
</g>
<!-- Node21&#45;&gt;Node24 -->
<g id="edge29" class="edge">
<title>Node21&#45;&gt;Node24</title>
<path fill="none" stroke="midnightblue" d="M359.16,-188.18C310.62,-179.02 208.26,-159.47 111.22,-139.11"/>
<polygon fill="midnightblue" stroke="midnightblue" points="111.75,-135.65 101.24,-137.01 110.31,-142.5 111.75,-135.65"/>
</g>
<!-- Node25 -->
<g id="node25" class="node">
<title>Node25</title>
<g id="a_node25"><a xlink:title=" ">
<polygon fill="none" stroke="#bfbfbf" points="119.5,-115.5 119.5,-133.5 205.55,-133.5 205.55,-115.5 119.5,-115.5"/>
<text text-anchor="middle" x="162.52" y="-121.5" font-family="Helvetica,sans-Serif" font-size="10.00">spdlog/spdlog.h</text>
</a>
</g>
</g>
<!-- Node21&#45;&gt;Node25 -->
<g id="edge30" class="edge">
<title>Node21&#45;&gt;Node25</title>
<path fill="none" stroke="midnightblue" d="M360.83,-185.43C320.57,-173.27 244.22,-150.19 198.9,-136.49"/>
<polygon fill="midnightblue" stroke="midnightblue" points="199.77,-133.1 189.18,-133.56 197.74,-139.8 199.77,-133.1"/>
</g>
<!-- Node21&#45;&gt;Node26 -->
<g id="edge31" class="edge">
<title>Node21&#45;&gt;Node26</title>
<path fill="none" stroke="midnightblue" d="M401.88,-185.43C422.44,-173.88 460.5,-152.49 485.15,-138.64"/>
<polygon fill="midnightblue" stroke="midnightblue" points="487.18,-141.51 494.19,-133.56 483.76,-135.41 487.18,-141.51"/>
</g>
</g>
</svg>
