<?xml version="1.0" encoding="UTF-8" standalone="no"?>
<!DOCTYPE svg PUBLIC "-//W3C//DTD SVG 1.1//EN"
 "http://www.w3.org/Graphics/SVG/1.1/DTD/svg11.dtd">
<!-- Generated by graphviz version 2.43.0 (0)
 -->
<!-- Title: /Users/ma/Codes/toltec/citlali/citlali_dev/common_utils/src/utils/nc.h Pages: 1 -->
<!--zoomable 197 -->
<svg id="main" version="1.1" xmlns="http://www.w3.org/2000/svg" xmlns:xlink="http://www.w3.org/1999/xlink" xml:space="preserve" onload="init(evt)">
<style type="text/css"><![CDATA[
.edge:hover path { stroke: red; }
.edge:hover polygon { stroke: red; fill: red; }
]]></style>
<script type="text/javascript"><![CDATA[
var edges = document.getElementsByTagName('g');
if (edges && edges.length) {
  for (var i=0;i<edges.length;i++) {
    if (edges[i].id.substr(0,4)=='edge') {
      edges[i].setAttribute('class','edge');
    }
  }
}
]]></script>
        <defs>
                <circle id="rim" cx="0" cy="0" r="7"/>
                <circle id="rim2" cx="0" cy="0" r="3.5"/>
                <g id="zoomPlus">
                        <use xlink:href="#rim" fill="#404040">
                                <set attributeName="fill" to="#808080" begin="zoomplus.mouseover" end="zoomplus.mouseout"/>
                        </use>
                        <path d="M-4,0h8M0,-4v8" fill="none" stroke="white" stroke-width="1.5" pointer-events="none"/>
                </g>
                <g id="zoomMin">
                        <use xlink:href="#rim" fill="#404040">
                                <set attributeName="fill" to="#808080" begin="zoomminus.mouseover" end="zoomminus.mouseout"/>
                        </use>
                        <path d="M-4,0h8" fill="none" stroke="white" stroke-width="1.5" pointer-events="none"/>
                </g>
                <g id="dirArrow">
                        <path fill="none" stroke="white" stroke-width="1.5" d="M0,-3.0v7 M-2.5,-0.5L0,-3.0L2.5,-0.5"/>
                </g>
               <g id="resetDef">
                       <use xlink:href="#rim2" fill="#404040">
                               <set attributeName="fill" to="#808080" begin="reset.mouseover" end="reset.mouseout"/>
                       </use>
               </g>
        </defs>

<script type="text/javascript">
var viewWidth = 1161;
var viewHeight = 197;
var sectionId = 'dynsection-0';
</script>
<script xlink:href="svgpan.js"/>
<svg id="graph" class="graph">
<g id="viewport">
<title>/Users/ma/Codes/toltec/citlali/citlali_dev/common_utils/src/utils/nc.h</title>
<!-- Node1 -->
<g id="node1" class="node">
<title>Node1</title>
<g id="a_node1"><a xlink:title=" ">
<polygon fill="#bfbfbf" stroke="black" points="609.61,-150.5 609.61,-188.5 738.42,-188.5 738.42,-150.5 609.61,-150.5"/>
<text text-anchor="start" x="617.61" y="-176.5" font-family="Helvetica,sans-Serif" font-size="10.00">/Users/ma/Codes/toltec</text>
<text text-anchor="start" x="617.61" y="-166.5" font-family="Helvetica,sans-Serif" font-size="10.00">/citlali/citlali_dev/common</text>
<text text-anchor="middle" x="674.01" y="-156.5" font-family="Helvetica,sans-Serif" font-size="10.00">_utils/src/utils/nc.h</text>
</a>
</g>
</g>
<!-- Node2 -->
<g id="node2" class="node">
<title>Node2</title>
<g id="a_node2"><a xlink:title=" ">
<polygon fill="none" stroke="#bfbfbf" points="0,-85.5 0,-103.5 86.03,-103.5 86.03,-85.5 0,-85.5"/>
<text text-anchor="middle" x="43.01" y="-91.5" font-family="Helvetica,sans-Serif" font-size="10.00">formatter/byte.h</text>
</a>
</g>
</g>
<!-- Node1&#45;&gt;Node2 -->
<g id="edge1" class="edge">
<title>Node1&#45;&gt;Node2</title>
<path fill="none" stroke="midnightblue" d="M609.38,-167.62C501.54,-164.99 278.62,-154.64 95.01,-114 87.21,-112.27 78.97,-109.71 71.4,-107.03"/>
<polygon fill="midnightblue" stroke="midnightblue" points="72.54,-103.72 61.94,-103.51 70.1,-110.28 72.54,-103.72"/>
</g>
<!-- Node3 -->
<g id="node3" class="node">
<title>Node3</title>
<g id="a_node3"><a xlink:title=" ">
<polygon fill="none" stroke="#bfbfbf" points="104.16,-75.5 104.16,-113.5 251.87,-113.5 251.87,-75.5 104.16,-75.5"/>
<text text-anchor="start" x="112.16" y="-101.5" font-family="Helvetica,sans-Serif" font-size="10.00">/Users/ma/Codes/toltec</text>
<text text-anchor="start" x="112.16" y="-91.5" font-family="Helvetica,sans-Serif" font-size="10.00">/citlali/citlali_dev/common</text>
<text text-anchor="middle" x="178.01" y="-81.5" font-family="Helvetica,sans-Serif" font-size="10.00">_utils/src/utils/formatter/utils.h</text>
</a>
</g>
</g>
<!-- Node1&#45;&gt;Node3 -->
<g id="edge2" class="edge">
<title>Node1&#45;&gt;Node3</title>
<path fill="none" stroke="midnightblue" d="M609.36,-161.75C529.9,-153.06 390.79,-136.55 262.19,-114.13"/>
<polygon fill="midnightblue" stroke="midnightblue" points="262.62,-110.65 252.16,-112.37 261.4,-117.55 262.62,-110.65"/>
</g>
<!-- Node4 -->
<g id="node4" class="node">
<title>Node4</title>
<g id="a_node4"><a xlink:title=" ">
<polygon fill="none" stroke="#bfbfbf" points="270.34,-85.5 270.34,-103.5 339.69,-103.5 339.69,-85.5 270.34,-85.5"/>
<text text-anchor="middle" x="305.01" y="-91.5" font-family="Helvetica,sans-Serif" font-size="10.00">fmt/format.h</text>
</a>
</g>
</g>
<!-- Node1&#45;&gt;Node4 -->
<g id="edge3" class="edge">
<title>Node1&#45;&gt;Node4</title>
<path fill="none" stroke="midnightblue" d="M609.51,-162.15C543.22,-154.59 437.48,-139.64 349.01,-114 343.1,-112.29 336.91,-110.01 331.11,-107.64"/>
<polygon fill="midnightblue" stroke="midnightblue" points="332.39,-104.38 321.82,-103.65 329.62,-110.81 332.39,-104.38"/>
</g>
<!-- Node5 -->
<g id="node5" class="node">
<title>Node5</title>
<g id="a_node5"><a xlink:title=" ">
<polygon fill="none" stroke="#bfbfbf" points="357.84,-85.5 357.84,-103.5 452.19,-103.5 452.19,-85.5 357.84,-85.5"/>
<text text-anchor="middle" x="405.01" y="-91.5" font-family="Helvetica,sans-Serif" font-size="10.00">formatter/matrix.h</text>
</a>
</g>
</g>
<!-- Node1&#45;&gt;Node5 -->
<g id="edge4" class="edge">
<title>Node1&#45;&gt;Node5</title>
<path fill="none" stroke="midnightblue" d="M609.25,-152.96C567.13,-142.58 511.1,-128.26 462.01,-114 454.37,-111.78 446.21,-109.24 438.52,-106.76"/>
<polygon fill="midnightblue" stroke="midnightblue" points="439.36,-103.35 428.76,-103.57 437.18,-110 439.36,-103.35"/>
</g>
<!-- Node6 -->
<g id="node6" class="node">
<title>Node6</title>
<g id="a_node6"><a xlink:title=" ">
<polygon fill="none" stroke="#bfbfbf" points="470.61,-75.5 470.61,-113.5 599.42,-113.5 599.42,-75.5 470.61,-75.5"/>
<text text-anchor="start" x="478.61" y="-101.5" font-family="Helvetica,sans-Serif" font-size="10.00">/Users/ma/Codes/toltec</text>
<text text-anchor="start" x="478.61" y="-91.5" font-family="Helvetica,sans-Serif" font-size="10.00">/citlali/citlali_dev/common</text>
<text text-anchor="middle" x="535.01" y="-81.5" font-family="Helvetica,sans-Serif" font-size="10.00">_utils/src/utils/eigen.h</text>
</a>
</g>
</g>
<!-- Node1&#45;&gt;Node6 -->
<g id="edge5" class="edge">
<title>Node1&#45;&gt;Node6</title>
<path fill="none" stroke="midnightblue" d="M639.66,-150.46C621.19,-140.76 598.24,-128.71 578.54,-118.36"/>
<polygon fill="midnightblue" stroke="midnightblue" points="579.94,-115.14 569.46,-113.59 576.69,-121.34 579.94,-115.14"/>
</g>
<!-- Node7 -->
<g id="node7" class="node">
<title>Node7</title>
<g id="a_node7"><a xlink:title=" ">
<polygon fill="none" stroke="#bfbfbf" points="510.61,-0.5 510.61,-38.5 639.42,-38.5 639.42,-0.5 510.61,-0.5"/>
<text text-anchor="start" x="518.61" y="-26.5" font-family="Helvetica,sans-Serif" font-size="10.00">/Users/ma/Codes/toltec</text>
<text text-anchor="start" x="518.61" y="-16.5" font-family="Helvetica,sans-Serif" font-size="10.00">/citlali/citlali_dev/common</text>
<text text-anchor="middle" x="575.01" y="-6.5" font-family="Helvetica,sans-Serif" font-size="10.00">_utils/src/utils/meta.h</text>
</a>
</g>
</g>
<!-- Node1&#45;&gt;Node7 -->
<g id="edge6" class="edge">
<title>Node1&#45;&gt;Node7</title>
<path fill="none" stroke="midnightblue" d="M661.88,-150.35C644.66,-124.61 613.02,-77.31 593.05,-47.46"/>
<polygon fill="midnightblue" stroke="midnightblue" points="595.72,-45.16 587.25,-38.8 589.9,-49.05 595.72,-45.16"/>
</g>
<!-- Node8 -->
<g id="node8" class="node">
<title>Node8</title>
<g id="a_node8"><a xlink:title=" ">
<polygon fill="none" stroke="#bfbfbf" points="654.62,-85.5 654.62,-103.5 693.41,-103.5 693.41,-85.5 654.62,-85.5"/>
<text text-anchor="middle" x="674.01" y="-91.5" font-family="Helvetica,sans-Serif" font-size="10.00">array</text>
</a>
</g>
</g>
<!-- Node1&#45;&gt;Node8 -->
<g id="edge7" class="edge">
<title>Node1&#45;&gt;Node8</title>
<path fill="none" stroke="midnightblue" d="M674.01,-150.46C674.01,-139.3 674.01,-125.02 674.01,-113.82"/>
<polygon fill="midnightblue" stroke="midnightblue" points="677.51,-113.51 674.01,-103.51 670.51,-113.51 677.51,-113.51"/>
</g>
<!-- Node9 -->
<g id="node9" class="node">
<title>Node9</title>
<g id="a_node9"><a xlink:title=" ">
<polygon fill="none" stroke="#bfbfbf" points="711.4,-85.5 711.4,-103.5 754.63,-103.5 754.63,-85.5 711.4,-85.5"/>
<text text-anchor="middle" x="733.01" y="-91.5" font-family="Helvetica,sans-Serif" font-size="10.00">vector</text>
</a>
</g>
</g>
<!-- Node1&#45;&gt;Node9 -->
<g id="edge8" class="edge">
<title>Node1&#45;&gt;Node9</title>
<path fill="none" stroke="midnightblue" d="M688.6,-150.46C698.28,-138.48 710.87,-122.9 720.17,-111.39"/>
<polygon fill="midnightblue" stroke="midnightblue" points="722.98,-113.49 726.54,-103.51 717.53,-109.09 722.98,-113.49"/>
</g>
<!-- Node10 -->
<g id="node10" class="node">
<title>Node10</title>
<g id="a_node10"><a xlink:title=" ">
<polygon fill="none" stroke="#bfbfbf" points="772.73,-85.5 772.73,-103.5 829.3,-103.5 829.3,-85.5 772.73,-85.5"/>
<text text-anchor="middle" x="801.01" y="-91.5" font-family="Helvetica,sans-Serif" font-size="10.00">charconv</text>
</a>
</g>
</g>
<!-- Node1&#45;&gt;Node10 -->
<g id="edge9" class="edge">
<title>Node1&#45;&gt;Node10</title>
<path fill="none" stroke="midnightblue" d="M705.41,-150.46C727.98,-137.48 757.9,-120.28 778.22,-108.6"/>
<polygon fill="midnightblue" stroke="midnightblue" points="780.15,-111.53 787.08,-103.51 776.67,-105.46 780.15,-111.53"/>
</g>
<!-- Node11 -->
<g id="node11" class="node">
<title>Node11</title>
<g id="a_node11"><a xlink:href="logging_8h.html" target="_top" xlink:title=" ">
<polygon fill="none" stroke="black" points="847.72,-85.5 847.72,-103.5 904.31,-103.5 904.31,-85.5 847.72,-85.5"/>
<text text-anchor="middle" x="876.01" y="-91.5" font-family="Helvetica,sans-Serif" font-size="10.00">logging.h</text>
</a>
</g>
</g>
<!-- Node1&#45;&gt;Node11 -->
<g id="edge10" class="edge">
<title>Node1&#45;&gt;Node11</title>
<path fill="none" stroke="midnightblue" d="M734.69,-150.45C765.92,-140.62 804.39,-127.7 838.01,-114 842.41,-112.21 847.02,-110.14 851.44,-108.05"/>
<polygon fill="midnightblue" stroke="midnightblue" points="853.24,-111.06 860.69,-103.53 850.17,-104.77 853.24,-111.06"/>
</g>
<!-- Node16 -->
<g id="node16" class="node">
<title>Node16</title>
<g id="a_node16"><a xlink:title=" ">
<polygon fill="none" stroke="#bfbfbf" points="1101.23,-10.5 1101.23,-28.5 1152.8,-28.5 1152.8,-10.5 1101.23,-10.5"/>
<text text-anchor="middle" x="1127.01" y="-16.5" font-family="Helvetica,sans-Serif" font-size="10.00">sstream</text>
</a>
</g>
</g>
<!-- Node1&#45;&gt;Node16 -->
<g id="edge18" class="edge">
<title>Node1&#45;&gt;Node16</title>
<path fill="none" stroke="midnightblue" d="M738.46,-163.8C788.71,-157.85 858.83,-144.4 913.01,-114 934.12,-102.16 930.06,-87.11 951.01,-75 1007.01,-42.63 1031.67,-62.27 1092.01,-39 1096.13,-37.41 1100.37,-35.46 1104.43,-33.43"/>
<polygon fill="midnightblue" stroke="midnightblue" points="1106.21,-36.44 1113.4,-28.66 1102.93,-30.26 1106.21,-36.44"/>
</g>
<!-- Node17 -->
<g id="node17" class="node">
<title>Node17</title>
<g id="a_node17"><a xlink:title=" ">
<polygon fill="none" stroke="#bfbfbf" points="960.39,-85.5 960.39,-103.5 1003.64,-103.5 1003.64,-85.5 960.39,-85.5"/>
<text text-anchor="middle" x="982.01" y="-91.5" font-family="Helvetica,sans-Serif" font-size="10.00">netcdf</text>
</a>
</g>
</g>
<!-- Node1&#45;&gt;Node17 -->
<g id="edge17" class="edge">
<title>Node1&#45;&gt;Node17</title>
<path fill="none" stroke="midnightblue" d="M738.55,-160.7C794.52,-152.74 877.14,-138.07 946.01,-114 950.46,-112.45 955.05,-110.44 959.4,-108.32"/>
<polygon fill="midnightblue" stroke="midnightblue" points="961.14,-111.36 968.39,-103.63 957.91,-105.15 961.14,-111.36"/>
</g>
<!-- Node18 -->
<g id="node18" class="node">
<title>Node18</title>
<g id="a_node18"><a xlink:title=" ">
<polygon fill="none" stroke="#bfbfbf" points="1022.01,-85.5 1022.01,-103.5 1068.02,-103.5 1068.02,-85.5 1022.01,-85.5"/>
<text text-anchor="middle" x="1045.01" y="-91.5" font-family="Helvetica,sans-Serif" font-size="10.00">variant</text>
</a>
</g>
</g>
<!-- Node1&#45;&gt;Node18 -->
<g id="edge19" class="edge">
<title>Node1&#45;&gt;Node18</title>
<path fill="none" stroke="midnightblue" d="M738.52,-165.11C808.03,-159.88 921.05,-146.72 1013.01,-114 1016.92,-112.61 1020.88,-110.75 1024.64,-108.74"/>
<polygon fill="midnightblue" stroke="midnightblue" points="1026.51,-111.7 1033.36,-103.62 1022.97,-105.66 1026.51,-111.7"/>
</g>
<!-- Node11&#45;&gt;Node7 -->
<g id="edge12" class="edge">
<title>Node11&#45;&gt;Node7</title>
<path fill="none" stroke="midnightblue" d="M861.6,-85.36C854.65,-81.73 846.09,-77.68 838.01,-75 759.46,-48.95 733.83,-56.9 649.47,-39.22"/>
<polygon fill="midnightblue" stroke="midnightblue" points="649.96,-35.74 639.45,-37.06 648.49,-42.59 649.96,-35.74"/>
</g>
<!-- Node12 -->
<g id="node12" class="node">
<title>Node12</title>
<g id="a_node12"><a xlink:title=" ">
<polygon fill="none" stroke="#bfbfbf" points="657.16,-10.5 657.16,-28.5 764.87,-28.5 764.87,-10.5 657.16,-10.5"/>
<text text-anchor="middle" x="711.01" y="-16.5" font-family="Helvetica,sans-Serif" font-size="10.00">formatter/container.h</text>
</a>
</g>
</g>
<!-- Node11&#45;&gt;Node12 -->
<g id="edge11" class="edge">
<title>Node11&#45;&gt;Node12</title>
<path fill="none" stroke="midnightblue" d="M859.82,-85.41C853.11,-82.11 845.22,-78.3 838.01,-75 804.69,-59.75 765.93,-43.3 740.08,-32.51"/>
<polygon fill="midnightblue" stroke="midnightblue" points="741.08,-29.14 730.51,-28.52 738.39,-35.6 741.08,-29.14"/>
</g>
<!-- Node13 -->
<g id="node13" class="node">
<title>Node13</title>
<g id="a_node13"><a xlink:title=" ">
<polygon fill="none" stroke="#bfbfbf" points="782.45,-10.5 782.45,-28.5 859.58,-28.5 859.58,-10.5 782.45,-10.5"/>
<text text-anchor="middle" x="821.01" y="-16.5" font-family="Helvetica,sans-Serif" font-size="10.00">fmt/ostream.h</text>
</a>
</g>
</g>
<!-- Node11&#45;&gt;Node13 -->
<g id="edge13" class="edge">
<title>Node11&#45;&gt;Node13</title>
<path fill="none" stroke="midnightblue" d="M869.92,-85.41C861.13,-73.74 844.7,-51.94 833.32,-36.84"/>
<polygon fill="midnightblue" stroke="midnightblue" points="836.12,-34.73 827.31,-28.85 830.53,-38.94 836.12,-34.73"/>
</g>
<!-- Node14 -->
<g id="node14" class="node">
<title>Node14</title>
<g id="a_node14"><a xlink:title=" ">
<polygon fill="none" stroke="#bfbfbf" points="877.49,-5.5 877.49,-33.5 978.54,-33.5 978.54,-5.5 877.49,-5.5"/>
<text text-anchor="start" x="885.49" y="-21.5" font-family="Helvetica,sans-Serif" font-size="10.00">spdlog/sinks/stdout</text>
<text text-anchor="middle" x="928.01" y="-11.5" font-family="Helvetica,sans-Serif" font-size="10.00">_color_sinks.h</text>
</a>
</g>
</g>
<!-- Node11&#45;&gt;Node14 -->
<g id="edge14" class="edge">
<title>Node11&#45;&gt;Node14</title>
<path fill="none" stroke="midnightblue" d="M881.78,-85.41C889.18,-75.02 902.31,-56.59 912.69,-42.02"/>
<polygon fill="midnightblue" stroke="midnightblue" points="915.77,-43.72 918.72,-33.55 910.07,-39.66 915.77,-43.72"/>
</g>
<!-- Node15 -->
<g id="node15" class="node">
<title>Node15</title>
<g id="a_node15"><a xlink:title=" ">
<polygon fill="none" stroke="#bfbfbf" points="996.99,-10.5 996.99,-28.5 1083.04,-28.5 1083.04,-10.5 996.99,-10.5"/>
<text text-anchor="middle" x="1040.01" y="-16.5" font-family="Helvetica,sans-Serif" font-size="10.00">spdlog/spdlog.h</text>
</a>
</g>
</g>
<!-- Node11&#45;&gt;Node15 -->
<g id="edge15" class="edge">
<title>Node11&#45;&gt;Node15</title>
<path fill="none" stroke="midnightblue" d="M894.19,-85.41C922.88,-72.64 978.86,-47.72 1012.5,-32.75"/>
<polygon fill="midnightblue" stroke="midnightblue" points="1014.04,-35.89 1021.76,-28.63 1011.2,-29.5 1014.04,-35.89"/>
</g>
<!-- Node11&#45;&gt;Node16 -->
<g id="edge16" class="edge">
<title>Node11&#45;&gt;Node16</title>
<path fill="none" stroke="midnightblue" d="M892.06,-85.48C899.76,-81.88 909.21,-77.81 918.01,-75 993.23,-50.95 1017.7,-65.72 1092.01,-39 1096.23,-37.48 1100.58,-35.54 1104.71,-33.48"/>
<polygon fill="midnightblue" stroke="midnightblue" points="1106.62,-36.43 1113.79,-28.63 1103.32,-30.25 1106.62,-36.43"/>
</g>
</g>
</svg>
        <g id="navigator" transform="translate(0 0)" fill="#404254">
                <rect fill="#f2f5e9" fill-opacity="0.5" stroke="#606060" stroke-width=".5" x="0" y="0" width="60" height="60"/>
                <use id="zoomplus" xlink:href="#zoomPlus" x="17" y="9" onmousedown="handleZoom(evt,'in')"/>
                <use id="zoomminus" xlink:href="#zoomMin" x="42" y="9" onmousedown="handleZoom(evt,'out')"/>
                <use id="reset" xlink:href="#resetDef" x="30" y="36" onmousedown="handleReset()"/>
                <g id="arrowUp" xlink:href="#dirArrow" transform="translate(30 24)" onmousedown="handlePan(0,-1)">
                  <use xlink:href="#rim" fill="#404040">
                        <set attributeName="fill" to="#808080" begin="arrowUp.mouseover" end="arrowUp.mouseout"/>
                  </use>
                  <path fill="none" stroke="white" stroke-width="1.5" d="M0,-3.0v7 M-2.5,-0.5L0,-3.0L2.5,-0.5"/>
                </g>
                <g id="arrowRight" xlink:href="#dirArrow" transform="rotate(90) translate(36 -43)" onmousedown="handlePan(1,0)">
                  <use xlink:href="#rim" fill="#404040">
                        <set attributeName="fill" to="#808080" begin="arrowRight.mouseover" end="arrowRight.mouseout"/>
                  </use>
                  <path fill="none" stroke="white" stroke-width="1.5" d="M0,-3.0v7 M-2.5,-0.5L0,-3.0L2.5,-0.5"/>
                </g>
                <g id="arrowDown" xlink:href="#dirArrow" transform="rotate(180) translate(-30 -48)" onmousedown="handlePan(0,1)">
                  <use xlink:href="#rim" fill="#404040">
                        <set attributeName="fill" to="#808080" begin="arrowDown.mouseover" end="arrowDown.mouseout"/>
                  </use>
                  <path fill="none" stroke="white" stroke-width="1.5" d="M0,-3.0v7 M-2.5,-0.5L0,-3.0L2.5,-0.5"/>
                </g>
                <g id="arrowLeft" xlink:href="#dirArrow" transform="rotate(270) translate(-36 17)" onmousedown="handlePan(-1,0)">
                  <use xlink:href="#rim" fill="#404040">
                        <set attributeName="fill" to="#808080" begin="arrowLeft.mouseover" end="arrowLeft.mouseout"/>
                  </use>
                  <path fill="none" stroke="white" stroke-width="1.5" d="M0,-3.0v7 M-2.5,-0.5L0,-3.0L2.5,-0.5"/>
                </g>
        </g>
        <svg viewBox="0 0 15 15" width="100%" height="30px" preserveAspectRatio="xMaxYMin meet">
         <g id="arrow_out" transform="scale(0.3 0.3)">
          <a xlink:href="nc_8h__incl_org.svg" target="_base">
           <rect id="button" ry="5" rx="5" y="6" x="6" height="38" width="38"
                fill="#f2f5e9" fill-opacity="0.5" stroke="#606060" stroke-width="1.0"/>
           <path id="arrow"
             d="M 11.500037,31.436501 C 11.940474,20.09759 22.043105,11.32322 32.158766,21.979434 L 37.068811,17.246167 C 37.068811,17.246167 37.088388,32 37.088388,32 L 22.160133,31.978069 C 22.160133,31.978069 26.997745,27.140456 26.997745,27.140456 C 18.528582,18.264221 13.291696,25.230495 11.500037,31.436501 z"
             style="fill:#404040;"/>
          </a>
         </g>
        </svg>
</svg>
