<?xml version="1.0" encoding="UTF-8" standalone="no"?>
<!DOCTYPE svg PUBLIC "-//W3C//DTD SVG 1.1//EN"
 "http://www.w3.org/Graphics/SVG/1.1/DTD/svg11.dtd">
<!-- Generated by graphviz version 2.43.0 (0)
 -->
<!-- Title: meta::is_iterator&lt; T &gt; Pages: 1 -->
<svg width="119pt" height="174pt"
 viewBox="0.00 0.00 118.69 174.00" xmlns="http://www.w3.org/2000/svg" xmlns:xlink="http://www.w3.org/1999/xlink">
<g id="graph0" class="graph" transform="scale(1 1) rotate(0) translate(4 170)">
<title>meta::is_iterator&lt; T &gt;</title>
<!-- Node1 -->
<g id="node1" class="node">
<title>Node1</title>
<g id="a_node1"><a xlink:title=" ">
<polygon fill="#bfbfbf" stroke="black" points="0,-0.5 0,-64.5 110.69,-64.5 110.69,-0.5 0,-0.5"/>
<text text-anchor="middle" x="55.34" y="-52.5" font-family="Helvetica,sans-Serif" font-size="10.00">meta::is_iterator&lt; T &gt;</text>
<polyline fill="none" stroke="black" points="0,-46.5 110.69,-46.5 "/>
<text text-anchor="middle" x="55.34" y="-34.5" font-family="Helvetica,sans-Serif" font-size="10.00"> </text>
<polyline fill="none" stroke="black" points="0,-28.5 110.69,-28.5 "/>
<text text-anchor="start" x="8" y="-16.5" font-family="Helvetica,sans-Serif" font-size="10.00">+ test()</text>
<text text-anchor="start" x="8" y="-6.5" font-family="Helvetica,sans-Serif" font-size="10.00">+ test()</text>
</a>
</g>
</g>
<!-- Node2 -->
<g id="node2" class="node">
<title>Node2</title>
<g id="a_node2"><a xlink:title=" ">
<polygon fill="none" stroke="#bfbfbf" points="1.77,-111.5 1.77,-165.5 108.92,-165.5 108.92,-111.5 1.77,-111.5"/>
<text text-anchor="middle" x="55.34" y="-153.5" font-family="Helvetica,sans-Serif" font-size="10.00">constexpr static bool</text>
<polyline fill="none" stroke="#bfbfbf" points="1.77,-147.5 108.92,-147.5 "/>
<text text-anchor="middle" x="55.34" y="-135.5" font-family="Helvetica,sans-Serif" font-size="10.00"> </text>
<polyline fill="none" stroke="#bfbfbf" points="1.77,-129.5 108.92,-129.5 "/>
<text text-anchor="middle" x="55.34" y="-117.5" font-family="Helvetica,sans-Serif" font-size="10.00"> </text>
</a>
</g>
</g>
<!-- Node2&#45;&gt;Node1 -->
<g id="edge1" class="edge">
<title>Node2&#45;&gt;Node1</title>
<path fill="none" stroke="#404040" d="M55.34,-111.26C55.34,-100.83 55.34,-88.55 55.34,-76.87"/>
<polygon fill="none" stroke="#404040" points="55.34,-76.54 51.34,-70.54 55.34,-64.54 59.34,-70.54 55.34,-76.54"/>
<text text-anchor="middle" x="71.61" y="-85" font-family="Helvetica,sans-Serif" font-size="10.00"> +value</text>
</g>
</g>
</svg>
