<?xml version="1.0" encoding="UTF-8" standalone="no"?>
<!DOCTYPE svg PUBLIC "-//W3C//DTD SVG 1.1//EN"
 "http://www.w3.org/Graphics/SVG/1.1/DTD/svg11.dtd">
<!-- Generated by graphviz version 2.43.0 (0)
 -->
<!-- Title: mpi_utils::Span&lt; T, Index &gt; Pages: 1 -->
<svg width="183pt" height="214pt"
 viewBox="0.00 0.00 183.47 214.00" xmlns="http://www.w3.org/2000/svg" xmlns:xlink="http://www.w3.org/1999/xlink">
<g id="graph0" class="graph" transform="scale(1 1) rotate(0) translate(4 210)">
<title>mpi_utils::Span&lt; T, Index &gt;</title>
<!-- Node1 -->
<g id="node1" class="node">
<title>Node1</title>
<g id="a_node1"><a xlink:title="The Span struct This provides contexts to a continuous block of memory.">
<polygon fill="#bfbfbf" stroke="black" points="32.29,-0.5 32.29,-104.5 134.18,-104.5 134.18,-0.5 32.29,-0.5"/>
<text text-anchor="start" x="40.29" y="-92.5" font-family="Helvetica,sans-Serif" font-size="10.00">mpi_utils::Span&lt; T,</text>
<text text-anchor="middle" x="83.24" y="-82.5" font-family="Helvetica,sans-Serif" font-size="10.00"> Index &gt;</text>
<polyline fill="none" stroke="black" points="32.29,-76.5 134.18,-76.5 "/>
<text text-anchor="middle" x="83.24" y="-64.5" font-family="Helvetica,sans-Serif" font-size="10.00"> </text>
<polyline fill="none" stroke="black" points="32.29,-58.5 134.18,-58.5 "/>
<text text-anchor="start" x="40.29" y="-46.5" font-family="Helvetica,sans-Serif" font-size="10.00">+ Span()</text>
<text text-anchor="start" x="40.29" y="-36.5" font-family="Helvetica,sans-Serif" font-size="10.00">+ asvec()</text>
<text text-anchor="start" x="40.29" y="-26.5" font-family="Helvetica,sans-Serif" font-size="10.00">+ asmat()</text>
<text text-anchor="start" x="40.29" y="-16.5" font-family="Helvetica,sans-Serif" font-size="10.00">+ asmat()</text>
<text text-anchor="start" x="40.29" y="-6.5" font-family="Helvetica,sans-Serif" font-size="10.00">+ allocate_shared()</text>
</a>
</g>
</g>
<!-- Node2 -->
<g id="node2" class="node">
<title>Node2</title>
<g id="a_node2"><a xlink:title=" ">
<polygon fill="none" stroke="#bfbfbf" points="0,-151.5 0,-205.5 50.47,-205.5 50.47,-151.5 0,-151.5"/>
<text text-anchor="middle" x="25.24" y="-193.5" font-family="Helvetica,sans-Serif" font-size="10.00">data_t *</text>
<polyline fill="none" stroke="#bfbfbf" points="0,-187.5 50.47,-187.5 "/>
<text text-anchor="middle" x="25.24" y="-175.5" font-family="Helvetica,sans-Serif" font-size="10.00"> </text>
<polyline fill="none" stroke="#bfbfbf" points="0,-169.5 50.47,-169.5 "/>
<text text-anchor="middle" x="25.24" y="-157.5" font-family="Helvetica,sans-Serif" font-size="10.00"> </text>
</a>
</g>
</g>
<!-- Node2&#45;&gt;Node1 -->
<g id="edge1" class="edge">
<title>Node2&#45;&gt;Node1</title>
<path fill="none" stroke="#404040" d="M37.54,-151.2C42.45,-140.7 48.33,-128.13 54.21,-115.55"/>
<polygon fill="none" stroke="#404040" points="54.28,-115.41 53.2,-108.29 59.36,-104.55 60.44,-111.67 54.28,-115.41"/>
<text text-anchor="middle" x="62.28" y="-125" font-family="Helvetica,sans-Serif" font-size="10.00"> +data</text>
</g>
<!-- Node3 -->
<g id="node3" class="node">
<title>Node3</title>
<g id="a_node3"><a xlink:title=" ">
<polygon fill="none" stroke="#bfbfbf" points="68.74,-151.5 68.74,-205.5 97.74,-205.5 97.74,-151.5 68.74,-151.5"/>
<text text-anchor="middle" x="83.02" y="-193.5" font-family="Helvetica,sans-Serif" font-size="10.00">int</text>
<polyline fill="none" stroke="#bfbfbf" points="68.74,-187.5 97.3,-187.5 "/>
<text text-anchor="middle" x="83.02" y="-175.5" font-family="Helvetica,sans-Serif" font-size="10.00"> </text>
<polyline fill="none" stroke="#bfbfbf" points="68.74,-169.5 97.3,-169.5 "/>
<text text-anchor="middle" x="83.02" y="-157.5" font-family="Helvetica,sans-Serif" font-size="10.00"> </text>
</a>
</g>
</g>
<!-- Node3&#45;&gt;Node1 -->
<g id="edge2" class="edge">
<title>Node3&#45;&gt;Node1</title>
<path fill="none" stroke="#404040" d="M83.24,-151.2C83.24,-141.02 83.24,-128.89 83.24,-116.69"/>
<polygon fill="none" stroke="#404040" points="83.24,-116.55 79.24,-110.55 83.24,-104.55 87.24,-110.55 83.24,-116.55"/>
<text text-anchor="middle" x="107.56" y="-125" font-family="Helvetica,sans-Serif" font-size="10.00"> +disp_unit</text>
</g>
<!-- Node4 -->
<g id="node4" class="node">
<title>Node4</title>
<g id="a_node4"><a xlink:title=" ">
<polygon fill="none" stroke="#bfbfbf" points="135,-151.5 135,-205.5 175.47,-205.5 175.47,-151.5 135,-151.5"/>
<text text-anchor="middle" x="155.24" y="-193.5" font-family="Helvetica,sans-Serif" font-size="10.00">Index</text>
<polyline fill="none" stroke="#bfbfbf" points="135,-187.5 175.47,-187.5 "/>
<text text-anchor="middle" x="155.24" y="-175.5" font-family="Helvetica,sans-Serif" font-size="10.00"> </text>
<polyline fill="none" stroke="#bfbfbf" points="135,-169.5 175.47,-169.5 "/>
<text text-anchor="middle" x="155.24" y="-157.5" font-family="Helvetica,sans-Serif" font-size="10.00"> </text>
</a>
</g>
</g>
<!-- Node4&#45;&gt;Node1 -->
<g id="edge3" class="edge">
<title>Node4&#45;&gt;Node1</title>
<path fill="none" stroke="#404040" d="M146.17,-151.41C142.6,-142.21 138.16,-131.94 133.24,-123 131.76,-120.32 130.2,-117.63 128.58,-114.93"/>
<polygon fill="none" stroke="#404040" points="128.46,-114.75 121.88,-111.81 122.06,-104.6 128.64,-107.54 128.46,-114.75"/>
<text text-anchor="middle" x="150.44" y="-125" font-family="Helvetica,sans-Serif" font-size="10.00"> +size</text>
</g>
</g>
</svg>
