<?xml version="1.0" encoding="UTF-8" standalone="no"?>
<!DOCTYPE svg PUBLIC "-//W3C//DTD SVG 1.1//EN"
 "http://www.w3.org/Graphics/SVG/1.1/DTD/svg11.dtd">
<!-- Generated by graphviz version 2.43.0 (0)
 -->
<!-- Title: logging::scoped_loglevel&lt; level_ &gt; Pages: 1 -->
<svg width="134pt" height="184pt"
 viewBox="0.00 0.00 133.53 184.00" xmlns="http://www.w3.org/2000/svg" xmlns:xlink="http://www.w3.org/1999/xlink">
<g id="graph0" class="graph" transform="scale(1 1) rotate(0) translate(4 180)">
<title>logging::scoped_loglevel&lt; level_ &gt;</title>
<!-- Node1 -->
<g id="node1" class="node">
<title>Node1</title>
<g id="a_node1"><a xlink:title=" ">
<polygon fill="#bfbfbf" stroke="black" points="0,-0.5 0,-74.5 125.53,-74.5 125.53,-0.5 0,-0.5"/>
<text text-anchor="start" x="8" y="-62.5" font-family="Helvetica,sans-Serif" font-size="10.00">logging::scoped_loglevel</text>
<text text-anchor="middle" x="62.76" y="-52.5" font-family="Helvetica,sans-Serif" font-size="10.00">&lt; level_ &gt;</text>
<polyline fill="none" stroke="black" points="0,-46.5 125.53,-46.5 "/>
<text text-anchor="middle" x="62.76" y="-34.5" font-family="Helvetica,sans-Serif" font-size="10.00"> </text>
<polyline fill="none" stroke="black" points="0,-28.5 125.53,-28.5 "/>
<text text-anchor="start" x="8" y="-16.5" font-family="Helvetica,sans-Serif" font-size="10.00">+ scoped_loglevel()</text>
<text text-anchor="start" x="8" y="-6.5" font-family="Helvetica,sans-Serif" font-size="10.00">+ ~scoped_loglevel()</text>
</a>
</g>
</g>
<!-- Node2 -->
<g id="node2" class="node">
<title>Node2</title>
<g id="a_node2"><a xlink:title=" ">
<polygon fill="none" stroke="#bfbfbf" points="29.19,-121.5 29.19,-175.5 96.33,-175.5 96.33,-121.5 29.19,-121.5"/>
<text text-anchor="middle" x="62.76" y="-163.5" font-family="Helvetica,sans-Serif" font-size="10.00">level_enum</text>
<polyline fill="none" stroke="#bfbfbf" points="29.19,-157.5 96.33,-157.5 "/>
<text text-anchor="middle" x="62.76" y="-145.5" font-family="Helvetica,sans-Serif" font-size="10.00"> </text>
<polyline fill="none" stroke="#bfbfbf" points="29.19,-139.5 96.33,-139.5 "/>
<text text-anchor="middle" x="62.76" y="-127.5" font-family="Helvetica,sans-Serif" font-size="10.00"> </text>
</a>
</g>
</g>
<!-- Node2&#45;&gt;Node1 -->
<g id="edge1" class="edge">
<title>Node2&#45;&gt;Node1</title>
<path fill="none" stroke="#404040" d="M62.76,-121.39C62.76,-111.01 62.76,-98.73 62.76,-86.85"/>
<polygon fill="none" stroke="#404040" points="62.76,-86.7 58.76,-80.7 62.76,-74.7 66.76,-80.7 62.76,-86.7"/>
<text text-anchor="middle" x="77.36" y="-95" font-family="Helvetica,sans-Serif" font-size="10.00"> +level</text>
</g>
</g>
</svg>
