<?xml version="1.0" encoding="UTF-8" standalone="no"?>
<!DOCTYPE svg PUBLIC "-//W3C//DTD SVG 1.1//EN"
 "http://www.w3.org/Graphics/SVG/1.1/DTD/svg11.dtd">
<!-- Generated by graphviz version 2.43.0 (0)
 -->
<!-- Title: logging::Timer Pages: 1 -->
<svg width="242pt" height="224pt"
 viewBox="0.00 0.00 242.42 224.00" xmlns="http://www.w3.org/2000/svg" xmlns:xlink="http://www.w3.org/1999/xlink">
<g id="graph0" class="graph" transform="scale(1 1) rotate(0) translate(4 220)">
<title>logging::Timer</title>
<!-- Node1 -->
<g id="node1" class="node">
<title>Node1</title>
<g id="a_node1"><a xlink:title=" ">
<polygon fill="#bfbfbf" stroke="black" points="68.75,-0.5 68.75,-104.5 147.75,-104.5 147.75,-0.5 68.75,-0.5"/>
<text text-anchor="middle" x="108.25" y="-92.5" font-family="Helvetica,sans-Serif" font-size="10.00">logging::Timer</text>
<polyline fill="none" stroke="black" points="68.75,-86.5 147.75,-86.5 "/>
<text text-anchor="middle" x="108.25" y="-74.5" font-family="Helvetica,sans-Serif" font-size="10.00"> </text>
<polyline fill="none" stroke="black" points="68.75,-68.5 147.75,-68.5 "/>
<text text-anchor="start" x="76.75" y="-56.5" font-family="Helvetica,sans-Serif" font-size="10.00">+ Timer()</text>
<text text-anchor="start" x="76.75" y="-46.5" font-family="Helvetica,sans-Serif" font-size="10.00">+ reset()</text>
<text text-anchor="start" x="76.75" y="-36.5" font-family="Helvetica,sans-Serif" font-size="10.00">+ start()</text>
<text text-anchor="start" x="76.75" y="-26.5" font-family="Helvetica,sans-Serif" font-size="10.00">+ stop()</text>
<text text-anchor="start" x="76.75" y="-16.5" font-family="Helvetica,sans-Serif" font-size="10.00">+ switch_()</text>
<text text-anchor="start" x="76.75" y="-6.5" font-family="Helvetica,sans-Serif" font-size="10.00">+ operator[]()</text>
</a>
</g>
</g>
<!-- Node2 -->
<g id="node2" class="node">
<title>Node2</title>
<g id="a_node2"><a xlink:title=" ">
<polygon fill="none" stroke="#bfbfbf" points="0,-156.5 0,-210.5 90.5,-210.5 90.5,-156.5 0,-156.5"/>
<text text-anchor="middle" x="45.25" y="-198.5" font-family="Helvetica,sans-Serif" font-size="10.00">vector&lt; double &gt;</text>
<polyline fill="none" stroke="#bfbfbf" points="0,-192.5 90.5,-192.5 "/>
<text text-anchor="middle" x="45.25" y="-180.5" font-family="Helvetica,sans-Serif" font-size="10.00"> </text>
<polyline fill="none" stroke="#bfbfbf" points="0,-174.5 90.5,-174.5 "/>
<text text-anchor="middle" x="45.25" y="-162.5" font-family="Helvetica,sans-Serif" font-size="10.00"> </text>
</a>
</g>
</g>
<!-- Node2&#45;&gt;Node1 -->
<g id="edge1" class="edge">
<title>Node2&#45;&gt;Node1</title>
<path fill="none" stroke="#404040" d="M58,-156.39C63.79,-144.54 70.9,-129.97 77.94,-115.57"/>
<polygon fill="none" stroke="#404040" points="78.01,-115.41 77.05,-108.27 83.28,-104.63 84.24,-111.78 78.01,-115.41"/>
<text text-anchor="middle" x="94.36" y="-125" font-family="Helvetica,sans-Serif" font-size="10.00"> &#45;m_timer</text>
</g>
<!-- Node3 -->
<g id="node3" class="node">
<title>Node3</title>
<g id="a_node3"><a xlink:title=" ">
<polygon fill="none" stroke="#bfbfbf" points="108.08,-151.5 108.08,-215.5 234.42,-215.5 234.42,-151.5 108.08,-151.5"/>
<text text-anchor="start" x="116.08" y="-203.5" font-family="Helvetica,sans-Serif" font-size="10.00">time_point&lt; std::chrono</text>
<text text-anchor="middle" x="171.25" y="-193.5" font-family="Helvetica,sans-Serif" font-size="10.00">::high_resolution_clock &gt;</text>
<polyline fill="none" stroke="#bfbfbf" points="108.08,-187.5 234.42,-187.5 "/>
<text text-anchor="middle" x="171.25" y="-175.5" font-family="Helvetica,sans-Serif" font-size="10.00"> </text>
<polyline fill="none" stroke="#bfbfbf" points="108.08,-169.5 234.42,-169.5 "/>
<text text-anchor="middle" x="171.25" y="-157.5" font-family="Helvetica,sans-Serif" font-size="10.00"> </text>
</a>
</g>
</g>
<!-- Node3&#45;&gt;Node1 -->
<g id="edge2" class="edge">
<title>Node3&#45;&gt;Node1</title>
<path fill="none" stroke="#404040" d="M156,-151.27C150.7,-140.43 144.56,-127.86 138.49,-115.42"/>
<polygon fill="none" stroke="#404040" points="138.45,-115.35 132.23,-111.71 133.19,-104.57 139.41,-108.2 138.45,-115.35"/>
<text text-anchor="middle" x="164.98" y="-125" font-family="Helvetica,sans-Serif" font-size="10.00"> &#45;m_zero</text>
</g>
</g>
</svg>
