<?xml version="1.0" encoding="UTF-8" standalone="no"?>
<!DOCTYPE svg PUBLIC "-//W3C//DTD SVG 1.1//EN"
 "http://www.w3.org/Graphics/SVG/1.1/DTD/svg11.dtd">
<!-- Generated by graphviz version 2.43.0 (0)
 -->
<!-- Title: meta::is_instance&lt; T&lt; U&lt; Us... &gt;, Ts... &gt;, T, U &gt; Pages: 1 -->
<svg width="110pt" height="174pt"
 viewBox="0.00 0.00 110.06 174.00" xmlns="http://www.w3.org/2000/svg" xmlns:xlink="http://www.w3.org/1999/xlink">
<g id="graph0" class="graph" transform="scale(1 1) rotate(0) translate(4 170)">
<title>meta::is_instance&lt; T&lt; U&lt; Us... &gt;, Ts... &gt;, T, U &gt;</title>
<!-- Node1 -->
<g id="node1" class="node">
<title>Node1</title>
<g id="a_node1"><a xlink:title=" ">
<polygon fill="#bfbfbf" stroke="black" points="0,-0.5 0,-74.5 102.06,-74.5 102.06,-0.5 0,-0.5"/>
<text text-anchor="start" x="8" y="-62.5" font-family="Helvetica,sans-Serif" font-size="10.00">meta::is_instance&lt;</text>
<text text-anchor="start" x="8" y="-52.5" font-family="Helvetica,sans-Serif" font-size="10.00"> T&lt; U&lt; Us... &gt;, Ts...</text>
<text text-anchor="middle" x="51.03" y="-42.5" font-family="Helvetica,sans-Serif" font-size="10.00"> &gt;, T, U &gt;</text>
<polyline fill="none" stroke="black" points="0,-36.5 102.06,-36.5 "/>
<text text-anchor="middle" x="51.03" y="-24.5" font-family="Helvetica,sans-Serif" font-size="10.00"> </text>
<polyline fill="none" stroke="black" points="0,-18.5 102.06,-18.5 "/>
<text text-anchor="middle" x="51.03" y="-6.5" font-family="Helvetica,sans-Serif" font-size="10.00"> </text>
</a>
</g>
</g>
<!-- Node2 -->
<g id="node2" class="node">
<title>Node2</title>
<g id="a_node2"><a xlink:title=" ">
<polygon fill="none" stroke="#bfbfbf" points="22.18,-111.5 22.18,-165.5 79.88,-165.5 79.88,-111.5 22.18,-111.5"/>
<text text-anchor="middle" x="51.03" y="-153.5" font-family="Helvetica,sans-Serif" font-size="10.00">true_type</text>
<polyline fill="none" stroke="#bfbfbf" points="22.18,-147.5 79.88,-147.5 "/>
<text text-anchor="middle" x="51.03" y="-135.5" font-family="Helvetica,sans-Serif" font-size="10.00"> </text>
<polyline fill="none" stroke="#bfbfbf" points="22.18,-129.5 79.88,-129.5 "/>
<text text-anchor="middle" x="51.03" y="-117.5" font-family="Helvetica,sans-Serif" font-size="10.00"> </text>
</a>
</g>
</g>
<!-- Node2&#45;&gt;Node1 -->
<g id="edge1" class="edge">
<title>Node2&#45;&gt;Node1</title>
<path fill="none" stroke="midnightblue" d="M51.03,-101.3C51.03,-92.65 51.03,-83.41 51.03,-74.76"/>
<polygon fill="none" stroke="midnightblue" points="47.53,-101.49 51.03,-111.49 54.53,-101.49 47.53,-101.49"/>
</g>
</g>
</svg>
