<?xml version="1.0" encoding="UTF-8" standalone="no"?>
<!DOCTYPE svg PUBLIC "-//W3C//DTD SVG 1.1//EN"
 "http://www.w3.org/Graphics/SVG/1.1/DTD/svg11.dtd">
<!-- Generated by graphviz version 2.43.0 (0)
 -->
<!-- Title: mpi_utils::comm Pages: 1 -->
<svg width="99pt" height="214pt"
 viewBox="0.00 0.00 99.33 214.00" xmlns="http://www.w3.org/2000/svg" xmlns:xlink="http://www.w3.org/1999/xlink">
<g id="graph0" class="graph" transform="scale(1 1) rotate(0) translate(4 210)">
<title>mpi_utils::comm</title>
<!-- Node1 -->
<g id="node1" class="node">
<title>Node1</title>
<g id="a_node1"><a xlink:title=" ">
<polygon fill="#bfbfbf" stroke="black" points="0,-0.5 0,-114.5 91.33,-114.5 91.33,-0.5 0,-0.5"/>
<text text-anchor="middle" x="45.67" y="-102.5" font-family="Helvetica,sans-Serif" font-size="10.00">mpi_utils::comm</text>
<polyline fill="none" stroke="black" points="0,-96.5 91.33,-96.5 "/>
<text text-anchor="start" x="8" y="-84.5" font-family="Helvetica,sans-Serif" font-size="10.00">+ m_n_nodes</text>
<text text-anchor="start" x="8" y="-74.5" font-family="Helvetica,sans-Serif" font-size="10.00">+ m_node_index</text>
<text text-anchor="start" x="8" y="-64.5" font-family="Helvetica,sans-Serif" font-size="10.00">+ m_node_name</text>
<polyline fill="none" stroke="black" points="0,-58.5 91.33,-58.5 "/>
<text text-anchor="start" x="8" y="-46.5" font-family="Helvetica,sans-Serif" font-size="10.00">+ comm()</text>
<text text-anchor="start" x="8" y="-36.5" font-family="Helvetica,sans-Serif" font-size="10.00">+ n_nodes()</text>
<text text-anchor="start" x="8" y="-26.5" font-family="Helvetica,sans-Serif" font-size="10.00">+ node_index()</text>
<text text-anchor="start" x="8" y="-16.5" font-family="Helvetica,sans-Serif" font-size="10.00">+ node_name()</text>
<text text-anchor="start" x="8" y="-6.5" font-family="Helvetica,sans-Serif" font-size="10.00">+ bcast_str()</text>
</a>
</g>
</g>
<!-- Node2 -->
<g id="node2" class="node">
<title>Node2</title>
<g id="a_node2"><a xlink:title=" ">
<polygon fill="none" stroke="#bfbfbf" points="12.11,-151.5 12.11,-205.5 79.22,-205.5 79.22,-151.5 12.11,-151.5"/>
<text text-anchor="middle" x="45.67" y="-193.5" font-family="Helvetica,sans-Serif" font-size="10.00">mxx::comm</text>
<polyline fill="none" stroke="#bfbfbf" points="12.11,-187.5 79.22,-187.5 "/>
<text text-anchor="middle" x="45.67" y="-175.5" font-family="Helvetica,sans-Serif" font-size="10.00"> </text>
<polyline fill="none" stroke="#bfbfbf" points="12.11,-169.5 79.22,-169.5 "/>
<text text-anchor="middle" x="45.67" y="-157.5" font-family="Helvetica,sans-Serif" font-size="10.00"> </text>
</a>
</g>
</g>
<!-- Node2&#45;&gt;Node1 -->
<g id="edge1" class="edge">
<title>Node2&#45;&gt;Node1</title>
<path fill="none" stroke="midnightblue" d="M45.67,-141.24C45.67,-132.88 45.67,-123.8 45.67,-114.81"/>
<polygon fill="none" stroke="midnightblue" points="42.17,-141.38 45.67,-151.38 49.17,-141.38 42.17,-141.38"/>
</g>
</g>
</svg>
