<?xml version="1.0" encoding="UTF-8" standalone="no"?>
<!DOCTYPE svg PUBLIC "-//W3C//DTD SVG 1.1//EN"
 "http://www.w3.org/Graphics/SVG/1.1/DTD/svg11.dtd">
<!-- Generated by graphviz version 2.43.0 (0)
 -->
<!-- Title: eigen_utils::PreAllocator&lt; T &gt; Pages: 1 -->
<svg width="174pt" height="264pt"
 viewBox="0.00 0.00 173.98 264.00" xmlns="http://www.w3.org/2000/svg" xmlns:xlink="http://www.w3.org/1999/xlink">
<g id="graph0" class="graph" transform="scale(1 1) rotate(0) translate(4 260)">
<title>eigen_utils::PreAllocator&lt; T &gt;</title>
<!-- Node1 -->
<g id="node1" class="node">
<title>Node1</title>
<g id="a_node1"><a xlink:title=" ">
<polygon fill="#bfbfbf" stroke="black" points="0,-0.5 0,-154.5 146.83,-154.5 146.83,-0.5 0,-0.5"/>
<text text-anchor="middle" x="73.42" y="-142.5" font-family="Helvetica,sans-Serif" font-size="10.00">eigen_utils::PreAllocator&lt; T &gt;</text>
<polyline fill="none" stroke="black" points="0,-136.5 146.83,-136.5 "/>
<text text-anchor="middle" x="73.42" y="-124.5" font-family="Helvetica,sans-Serif" font-size="10.00"> </text>
<polyline fill="none" stroke="black" points="0,-118.5 146.83,-118.5 "/>
<text text-anchor="start" x="8" y="-106.5" font-family="Helvetica,sans-Serif" font-size="10.00">+ PreAllocator()</text>
<text text-anchor="start" x="8" y="-96.5" font-family="Helvetica,sans-Serif" font-size="10.00">+ PreAllocator()</text>
<text text-anchor="start" x="8" y="-86.5" font-family="Helvetica,sans-Serif" font-size="10.00">+ PreAllocator()</text>
<text text-anchor="start" x="8" y="-76.5" font-family="Helvetica,sans-Serif" font-size="10.00">+ PreAllocator()</text>
<text text-anchor="start" x="8" y="-66.5" font-family="Helvetica,sans-Serif" font-size="10.00">+ operator=()</text>
<text text-anchor="start" x="8" y="-56.5" font-family="Helvetica,sans-Serif" font-size="10.00">+ operator=()</text>
<text text-anchor="start" x="8" y="-46.5" font-family="Helvetica,sans-Serif" font-size="10.00">+ ~PreAllocator()</text>
<text text-anchor="start" x="8" y="-36.5" font-family="Helvetica,sans-Serif" font-size="10.00">+ allocate()</text>
<text text-anchor="start" x="8" y="-26.5" font-family="Helvetica,sans-Serif" font-size="10.00">+ deallocate()</text>
<text text-anchor="start" x="8" y="-16.5" font-family="Helvetica,sans-Serif" font-size="10.00">+ max_size()</text>
<text text-anchor="start" x="8" y="-6.5" font-family="Helvetica,sans-Serif" font-size="10.00">+ construct()</text>
</a>
</g>
</g>
<!-- Node2 -->
<g id="node2" class="node">
<title>Node2</title>
<g id="a_node2"><a xlink:title=" ">
<polygon fill="none" stroke="#bfbfbf" points="17.92,-201.5 17.92,-255.5 46.92,-255.5 46.92,-201.5 17.92,-201.5"/>
<text text-anchor="middle" x="32.22" y="-243.5" font-family="Helvetica,sans-Serif" font-size="10.00">T *</text>
<polyline fill="none" stroke="#bfbfbf" points="17.92,-237.5 46.52,-237.5 "/>
<text text-anchor="middle" x="32.22" y="-225.5" font-family="Helvetica,sans-Serif" font-size="10.00"> </text>
<polyline fill="none" stroke="#bfbfbf" points="17.92,-219.5 46.52,-219.5 "/>
<text text-anchor="middle" x="32.22" y="-207.5" font-family="Helvetica,sans-Serif" font-size="10.00"> </text>
</a>
</g>
</g>
<!-- Node2&#45;&gt;Node1 -->
<g id="edge1" class="edge">
<title>Node2&#45;&gt;Node1</title>
<path fill="none" stroke="#404040" d="M30.6,-201.49C30.52,-192.39 31.03,-182.17 32.96,-173 33.44,-170.71 33.98,-168.4 34.57,-166.09"/>
<polygon fill="none" stroke="#404040" points="34.58,-166.05 32.4,-159.18 37.9,-154.52 40.08,-161.39 34.58,-166.05"/>
<text text-anchor="middle" x="63.14" y="-175" font-family="Helvetica,sans-Serif" font-size="10.00"> &#45;memory_ptr</text>
</g>
<!-- Node3 -->
<g id="node3" class="node">
<title>Node3</title>
<g id="a_node3"><a xlink:title=" ">
<polygon fill="none" stroke="#bfbfbf" points="93.35,-201.5 93.35,-255.5 135.48,-255.5 135.48,-201.5 93.35,-201.5"/>
<text text-anchor="middle" x="114.42" y="-243.5" font-family="Helvetica,sans-Serif" font-size="10.00">size_t</text>
<polyline fill="none" stroke="#bfbfbf" points="93.35,-237.5 135.48,-237.5 "/>
<text text-anchor="middle" x="114.42" y="-225.5" font-family="Helvetica,sans-Serif" font-size="10.00"> </text>
<polyline fill="none" stroke="#bfbfbf" points="93.35,-219.5 135.48,-219.5 "/>
<text text-anchor="middle" x="114.42" y="-207.5" font-family="Helvetica,sans-Serif" font-size="10.00"> </text>
</a>
</g>
</g>
<!-- Node3&#45;&gt;Node1 -->
<g id="edge2" class="edge">
<title>Node3&#45;&gt;Node1</title>
<path fill="none" stroke="#404040" d="M107.18,-201.2C104.42,-191.16 101.09,-179.07 97.62,-166.45"/>
<polygon fill="none" stroke="#404040" points="97.58,-166.32 92.13,-161.6 94.4,-154.75 99.85,-159.47 97.58,-166.32"/>
<text text-anchor="middle" x="133.2" y="-175" font-family="Helvetica,sans-Serif" font-size="10.00"> &#45;memory_size</text>
</g>
</g>
</svg>
