<?xml version="1.0" encoding="UTF-8" standalone="no"?>
<!DOCTYPE svg PUBLIC "-//W3C//DTD SVG 1.1//EN"
 "http://www.w3.org/Graphics/SVG/1.1/DTD/svg11.dtd">
<!-- Generated by graphviz version 2.43.0 (0)
 -->
<!-- Title: nc_utils::pprint&lt; var_t_ &gt; Pages: 1 -->
<svg width="134pt" height="204pt"
 viewBox="0.00 0.00 133.51 204.00" xmlns="http://www.w3.org/2000/svg" xmlns:xlink="http://www.w3.org/1999/xlink">
<g id="graph0" class="graph" transform="scale(1 1) rotate(0) translate(4 200)">
<title>nc_utils::pprint&lt; var_t_ &gt;</title>
<!-- Node1 -->
<g id="node1" class="node">
<title>Node1</title>
<g id="a_node1"><a xlink:title=" ">
<polygon fill="#bfbfbf" stroke="black" points="0,-0.5 0,-94.5 125.51,-94.5 125.51,-0.5 0,-0.5"/>
<text text-anchor="middle" x="62.75" y="-82.5" font-family="Helvetica,sans-Serif" font-size="10.00">nc_utils::pprint&lt; var_t_ &gt;</text>
<polyline fill="none" stroke="black" points="0,-76.5 125.51,-76.5 "/>
<text text-anchor="middle" x="62.75" y="-64.5" font-family="Helvetica,sans-Serif" font-size="10.00"> </text>
<polyline fill="none" stroke="black" points="0,-58.5 125.51,-58.5 "/>
<text text-anchor="start" x="8" y="-46.5" font-family="Helvetica,sans-Serif" font-size="10.00">+ pprint()</text>
<text text-anchor="start" x="8" y="-36.5" font-family="Helvetica,sans-Serif" font-size="10.00">+ format_ncvaratt()</text>
<text text-anchor="start" x="8" y="-26.5" font-family="Helvetica,sans-Serif" font-size="10.00">+ format_ncdim()</text>
<text text-anchor="start" x="8" y="-16.5" font-family="Helvetica,sans-Serif" font-size="10.00">+ format_ncvar()</text>
<text text-anchor="start" x="8" y="-6.5" font-family="Helvetica,sans-Serif" font-size="10.00">+ format_ncfile()</text>
</a>
</g>
</g>
<!-- Node2 -->
<g id="node2" class="node">
<title>Node2</title>
<g id="a_node2"><a xlink:title=" ">
<polygon fill="none" stroke="#bfbfbf" points="25.57,-141.5 25.57,-195.5 99.93,-195.5 99.93,-141.5 25.57,-141.5"/>
<text text-anchor="middle" x="62.75" y="-183.5" font-family="Helvetica,sans-Serif" font-size="10.00">const var_t &amp;</text>
<polyline fill="none" stroke="#bfbfbf" points="25.57,-177.5 99.93,-177.5 "/>
<text text-anchor="middle" x="62.75" y="-165.5" font-family="Helvetica,sans-Serif" font-size="10.00"> </text>
<polyline fill="none" stroke="#bfbfbf" points="25.57,-159.5 99.93,-159.5 "/>
<text text-anchor="middle" x="62.75" y="-147.5" font-family="Helvetica,sans-Serif" font-size="10.00"> </text>
</a>
</g>
</g>
<!-- Node2&#45;&gt;Node1 -->
<g id="edge1" class="edge">
<title>Node2&#45;&gt;Node1</title>
<path fill="none" stroke="#404040" d="M62.75,-141.38C62.75,-131.12 62.75,-118.9 62.75,-106.75"/>
<polygon fill="none" stroke="#404040" points="62.75,-106.69 58.75,-100.69 62.75,-94.69 66.75,-100.69 62.75,-106.69"/>
<text text-anchor="middle" x="72.34" y="-115" font-family="Helvetica,sans-Serif" font-size="10.00"> +nc</text>
</g>
</g>
</svg>
