<?xml version="1.0" encoding="UTF-8" standalone="no"?>
<!DOCTYPE svg PUBLIC "-//W3C//DTD SVG 1.1//EN"
 "http://www.w3.org/Graphics/SVG/1.1/DTD/svg11.dtd">
<!-- Generated by graphviz version 2.43.0 (0)
 -->
<!-- Title: datatable::DumpError Pages: 1 -->
<svg width="120pt" height="154pt"
 viewBox="0.00 0.00 119.60 154.00" xmlns="http://www.w3.org/2000/svg" xmlns:xlink="http://www.w3.org/1999/xlink">
<g id="graph0" class="graph" transform="scale(1 1) rotate(0) translate(4 150)">
<title>datatable::DumpError</title>
<!-- Node1 -->
<g id="node1" class="node">
<title>Node1</title>
<g id="a_node1"><a xlink:title="Throw when there is an error when dump data table.">
<polygon fill="#bfbfbf" stroke="black" points="0,-0.5 0,-54.5 111.6,-54.5 111.6,-0.5 0,-0.5"/>
<text text-anchor="middle" x="55.8" y="-42.5" font-family="Helvetica,sans-Serif" font-size="10.00">datatable::DumpError</text>
<polyline fill="none" stroke="black" points="0,-36.5 111.6,-36.5 "/>
<text text-anchor="middle" x="55.8" y="-24.5" font-family="Helvetica,sans-Serif" font-size="10.00"> </text>
<polyline fill="none" stroke="black" points="0,-18.5 111.6,-18.5 "/>
<text text-anchor="middle" x="55.8" y="-6.5" font-family="Helvetica,sans-Serif" font-size="10.00"> </text>
</a>
</g>
</g>
<!-- Node2 -->
<g id="node2" class="node">
<title>Node2</title>
<g id="a_node2"><a xlink:title=" ">
<polygon fill="none" stroke="#bfbfbf" points="17.79,-91.5 17.79,-145.5 93.81,-145.5 93.81,-91.5 17.79,-91.5"/>
<text text-anchor="middle" x="55.8" y="-133.5" font-family="Helvetica,sans-Serif" font-size="10.00">runtime_error</text>
<polyline fill="none" stroke="#bfbfbf" points="17.79,-127.5 93.81,-127.5 "/>
<text text-anchor="middle" x="55.8" y="-115.5" font-family="Helvetica,sans-Serif" font-size="10.00"> </text>
<polyline fill="none" stroke="#bfbfbf" points="17.79,-109.5 93.81,-109.5 "/>
<text text-anchor="middle" x="55.8" y="-97.5" font-family="Helvetica,sans-Serif" font-size="10.00"> </text>
</a>
</g>
</g>
<!-- Node2&#45;&gt;Node1 -->
<g id="edge1" class="edge">
<title>Node2&#45;&gt;Node1</title>
<path fill="none" stroke="midnightblue" d="M55.8,-81.12C55.8,-72.21 55.8,-62.85 55.8,-54.53"/>
<polygon fill="none" stroke="midnightblue" points="52.3,-81.28 55.8,-91.28 59.3,-81.28 52.3,-81.28"/>
</g>
</g>
</svg>
