<?xml version="1.0" encoding="UTF-8" standalone="no"?>
<!DOCTYPE svg PUBLIC "-//W3C//DTD SVG 1.1//EN"
 "http://www.w3.org/Graphics/SVG/1.1/DTD/svg11.dtd">
<!-- Generated by graphviz version 2.43.0 (0)
 -->
<!-- Title: meta::has_resize&lt; T, size_t, typename &gt; Pages: 1 -->
<svg width="116pt" height="164pt"
 viewBox="0.00 0.00 116.37 164.00" xmlns="http://www.w3.org/2000/svg" xmlns:xlink="http://www.w3.org/1999/xlink">
<g id="graph0" class="graph" transform="scale(1 1) rotate(0) translate(4 160)">
<title>meta::has_resize&lt; T, size_t, typename &gt;</title>
<!-- Node1 -->
<g id="node1" class="node">
<title>Node1</title>
<g id="a_node1"><a xlink:title=" ">
<polygon fill="#bfbfbf" stroke="black" points="0,-0.5 0,-64.5 108.37,-64.5 108.37,-0.5 0,-0.5"/>
<text text-anchor="start" x="8" y="-52.5" font-family="Helvetica,sans-Serif" font-size="10.00">meta::has_resize&lt; T,</text>
<text text-anchor="middle" x="54.18" y="-42.5" font-family="Helvetica,sans-Serif" font-size="10.00"> size_t, typename &gt;</text>
<polyline fill="none" stroke="black" points="0,-36.5 108.37,-36.5 "/>
<text text-anchor="middle" x="54.18" y="-24.5" font-family="Helvetica,sans-Serif" font-size="10.00"> </text>
<polyline fill="none" stroke="black" points="0,-18.5 108.37,-18.5 "/>
<text text-anchor="middle" x="54.18" y="-6.5" font-family="Helvetica,sans-Serif" font-size="10.00"> </text>
</a>
</g>
</g>
<!-- Node2 -->
<g id="node2" class="node">
<title>Node2</title>
<g id="a_node2"><a xlink:title=" ">
<polygon fill="none" stroke="#bfbfbf" points="23.39,-101.5 23.39,-155.5 84.98,-155.5 84.98,-101.5 23.39,-101.5"/>
<text text-anchor="middle" x="54.18" y="-143.5" font-family="Helvetica,sans-Serif" font-size="10.00">false_type</text>
<polyline fill="none" stroke="#bfbfbf" points="23.39,-137.5 84.98,-137.5 "/>
<text text-anchor="middle" x="54.18" y="-125.5" font-family="Helvetica,sans-Serif" font-size="10.00"> </text>
<polyline fill="none" stroke="#bfbfbf" points="23.39,-119.5 84.98,-119.5 "/>
<text text-anchor="middle" x="54.18" y="-107.5" font-family="Helvetica,sans-Serif" font-size="10.00"> </text>
</a>
</g>
</g>
<!-- Node2&#45;&gt;Node1 -->
<g id="edge1" class="edge">
<title>Node2&#45;&gt;Node1</title>
<path fill="none" stroke="midnightblue" d="M54.18,-91.28C54.18,-82.46 54.18,-73.1 54.18,-64.54"/>
<polygon fill="none" stroke="midnightblue" points="50.68,-91.32 54.18,-101.32 57.68,-91.32 50.68,-91.32"/>
</g>
</g>
</svg>
