<?xml version="1.0" encoding="UTF-8" standalone="no"?>
<!DOCTYPE svg PUBLIC "-//W3C//DTD SVG 1.1//EN"
 "http://www.w3.org/Graphics/SVG/1.1/DTD/svg11.dtd">
<!-- Generated by graphviz version 2.43.0 (0)
 -->
<!-- Title: meta::case_t&lt; v, T &gt; Pages: 1 -->
<svg width="116pt" height="164pt"
 viewBox="0.00 0.00 115.71 164.00" xmlns="http://www.w3.org/2000/svg" xmlns:xlink="http://www.w3.org/1999/xlink">
<g id="graph0" class="graph" transform="scale(1 1) rotate(0) translate(4 160)">
<title>meta::case_t&lt; v, T &gt;</title>
<!-- Node1 -->
<g id="node1" class="node">
<title>Node1</title>
<g id="a_node1"><a xlink:title=" ">
<polygon fill="#bfbfbf" stroke="black" points="0.83,-0.5 0.83,-54.5 106.89,-54.5 106.89,-0.5 0.83,-0.5"/>
<text text-anchor="middle" x="53.86" y="-42.5" font-family="Helvetica,sans-Serif" font-size="10.00">meta::case_t&lt; v, T &gt;</text>
<polyline fill="none" stroke="black" points="0.83,-36.5 106.89,-36.5 "/>
<text text-anchor="middle" x="53.86" y="-24.5" font-family="Helvetica,sans-Serif" font-size="10.00"> </text>
<polyline fill="none" stroke="black" points="0.83,-18.5 106.89,-18.5 "/>
<text text-anchor="middle" x="53.86" y="-6.5" font-family="Helvetica,sans-Serif" font-size="10.00"> </text>
</a>
</g>
</g>
<!-- Node2 -->
<g id="node2" class="node">
<title>Node2</title>
<g id="a_node2"><a xlink:title=" ">
<polygon fill="none" stroke="#bfbfbf" points="0,-101.5 0,-155.5 107.71,-155.5 107.71,-101.5 0,-101.5"/>
<text text-anchor="middle" x="53.86" y="-143.5" font-family="Helvetica,sans-Serif" font-size="10.00">static constexpr auto</text>
<polyline fill="none" stroke="#bfbfbf" points="0,-137.5 107.71,-137.5 "/>
<text text-anchor="middle" x="53.86" y="-125.5" font-family="Helvetica,sans-Serif" font-size="10.00"> </text>
<polyline fill="none" stroke="#bfbfbf" points="0,-119.5 107.71,-119.5 "/>
<text text-anchor="middle" x="53.86" y="-107.5" font-family="Helvetica,sans-Serif" font-size="10.00"> </text>
</a>
</g>
</g>
<!-- Node2&#45;&gt;Node1 -->
<g id="edge1" class="edge">
<title>Node2&#45;&gt;Node1</title>
<path fill="none" stroke="#404040" d="M53.86,-101.49C53.86,-90.89 53.86,-78.41 53.86,-66.81"/>
<polygon fill="none" stroke="#404040" points="53.86,-66.68 49.86,-60.68 53.86,-54.68 57.86,-60.68 53.86,-66.68"/>
<text text-anchor="middle" x="70.12" y="-75" font-family="Helvetica,sans-Serif" font-size="10.00"> +value</text>
</g>
</g>
</svg>
