<?xml version="1.0" encoding="UTF-8" standalone="no"?>
<!DOCTYPE svg PUBLIC "-//W3C//DTD SVG 1.1//EN"
 "http://www.w3.org/Graphics/SVG/1.1/DTD/svg11.dtd">
<!-- Generated by graphviz version 2.43.0 (0)
 -->
<!-- Title: mpi_utils::comm Pages: 1 -->
<svg width="265pt" height="214pt"
 viewBox="0.00 0.00 264.89 214.00" xmlns="http://www.w3.org/2000/svg" xmlns:xlink="http://www.w3.org/1999/xlink">
<g id="graph0" class="graph" transform="scale(1 1) rotate(0) translate(4 210)">
<title>mpi_utils::comm</title>
<!-- Node1 -->
<g id="node1" class="node">
<title>Node1</title>
<g id="a_node1"><a xlink:title=" ">
<polygon fill="#bfbfbf" stroke="black" points="55.44,-0.5 55.44,-94.5 143.67,-94.5 143.67,-0.5 55.44,-0.5"/>
<text text-anchor="middle" x="99.55" y="-82.5" font-family="Helvetica,sans-Serif" font-size="10.00">mpi_utils::comm</text>
<polyline fill="none" stroke="black" points="55.44,-76.5 143.67,-76.5 "/>
<text text-anchor="middle" x="99.55" y="-64.5" font-family="Helvetica,sans-Serif" font-size="10.00"> </text>
<polyline fill="none" stroke="black" points="55.44,-58.5 143.67,-58.5 "/>
<text text-anchor="start" x="63.44" y="-46.5" font-family="Helvetica,sans-Serif" font-size="10.00">+ comm()</text>
<text text-anchor="start" x="63.44" y="-36.5" font-family="Helvetica,sans-Serif" font-size="10.00">+ n_nodes()</text>
<text text-anchor="start" x="63.44" y="-26.5" font-family="Helvetica,sans-Serif" font-size="10.00">+ node_index()</text>
<text text-anchor="start" x="63.44" y="-16.5" font-family="Helvetica,sans-Serif" font-size="10.00">+ node_name()</text>
<text text-anchor="start" x="63.44" y="-6.5" font-family="Helvetica,sans-Serif" font-size="10.00">+ bcast_str()</text>
</a>
</g>
</g>
<!-- Node2 -->
<g id="node2" class="node">
<title>Node2</title>
<g id="a_node2"><a xlink:title=" ">
<polygon fill="none" stroke="#bfbfbf" points="0,-151.5 0,-205.5 67.11,-205.5 67.11,-151.5 0,-151.5"/>
<text text-anchor="middle" x="33.55" y="-193.5" font-family="Helvetica,sans-Serif" font-size="10.00">mxx::comm</text>
<polyline fill="none" stroke="#bfbfbf" points="0,-187.5 67.11,-187.5 "/>
<text text-anchor="middle" x="33.55" y="-175.5" font-family="Helvetica,sans-Serif" font-size="10.00"> </text>
<polyline fill="none" stroke="#bfbfbf" points="0,-169.5 67.11,-169.5 "/>
<text text-anchor="middle" x="33.55" y="-157.5" font-family="Helvetica,sans-Serif" font-size="10.00"> </text>
</a>
</g>
</g>
<!-- Node2&#45;&gt;Node1 -->
<g id="edge1" class="edge">
<title>Node2&#45;&gt;Node1</title>
<path fill="none" stroke="midnightblue" d="M51.63,-142.17C59.13,-127.51 67.93,-110.3 75.93,-94.66"/>
<polygon fill="none" stroke="midnightblue" points="48.35,-140.9 46.91,-151.39 54.58,-144.09 48.35,-140.9"/>
</g>
<!-- Node3 -->
<g id="node3" class="node">
<title>Node3</title>
<g id="a_node3"><a xlink:title=" ">
<polygon fill="none" stroke="#bfbfbf" points="85.05,-151.5 85.05,-205.5 114.05,-205.5 114.05,-151.5 85.05,-151.5"/>
<text text-anchor="middle" x="99.33" y="-193.5" font-family="Helvetica,sans-Serif" font-size="10.00">int</text>
<polyline fill="none" stroke="#bfbfbf" points="85.05,-187.5 113.62,-187.5 "/>
<text text-anchor="middle" x="99.33" y="-175.5" font-family="Helvetica,sans-Serif" font-size="10.00"> </text>
<polyline fill="none" stroke="#bfbfbf" points="85.05,-169.5 113.62,-169.5 "/>
<text text-anchor="middle" x="99.33" y="-157.5" font-family="Helvetica,sans-Serif" font-size="10.00"> </text>
</a>
</g>
</g>
<!-- Node3&#45;&gt;Node1 -->
<g id="edge2" class="edge">
<title>Node3&#45;&gt;Node1</title>
<path fill="none" stroke="#404040" d="M99.55,-151.39C99.55,-138.56 99.55,-122.53 99.55,-106.97"/>
<polygon fill="none" stroke="#404040" points="99.55,-106.66 95.55,-100.66 99.55,-94.66 103.55,-100.66 99.55,-106.66"/>
<text text-anchor="middle" x="135.28" y="-125" font-family="Helvetica,sans-Serif" font-size="10.00"> +m_n_nodes</text>
<text text-anchor="middle" x="135.28" y="-115" font-family="Helvetica,sans-Serif" font-size="10.00">+m_node_index</text>
</g>
<!-- Node4 -->
<g id="node4" class="node">
<title>Node4</title>
<g id="a_node4"><a xlink:title=" ">
<polygon fill="none" stroke="#bfbfbf" points="173.33,-151.5 173.33,-205.5 213.78,-205.5 213.78,-151.5 173.33,-151.5"/>
<text text-anchor="middle" x="193.55" y="-193.5" font-family="Helvetica,sans-Serif" font-size="10.00">string</text>
<polyline fill="none" stroke="#bfbfbf" points="173.33,-187.5 213.78,-187.5 "/>
<text text-anchor="middle" x="193.55" y="-175.5" font-family="Helvetica,sans-Serif" font-size="10.00"> </text>
<polyline fill="none" stroke="#bfbfbf" points="173.33,-169.5 213.78,-169.5 "/>
<text text-anchor="middle" x="193.55" y="-157.5" font-family="Helvetica,sans-Serif" font-size="10.00"> </text>
</a>
</g>
</g>
<!-- Node4&#45;&gt;Node1 -->
<g id="edge3" class="edge">
<title>Node4&#45;&gt;Node1</title>
<path fill="none" stroke="#404040" d="M187.9,-151.31C184.44,-139.01 179.19,-124.54 171.55,-113 166.28,-105.03 159.79,-97.41 152.88,-90.39"/>
<polygon fill="none" stroke="#404040" points="152.63,-90.14 145.53,-88.86 143.98,-81.82 151.07,-83.1 152.63,-90.14"/>
<text text-anchor="middle" x="219.22" y="-120" font-family="Helvetica,sans-Serif" font-size="10.00"> +m_node_name</text>
</g>
</g>
</svg>
