<?xml version="1.0" encoding="UTF-8" standalone="no"?>
<!DOCTYPE svg PUBLIC "-//W3C//DTD SVG 1.1//EN"
 "http://www.w3.org/Graphics/SVG/1.1/DTD/svg11.dtd">
<!-- Generated by graphviz version 2.43.0 (0)
 -->
<!-- Title: meta::always_false&lt; T &gt; Pages: 1 -->
<svg width="132pt" height="154pt"
 viewBox="0.00 0.00 132.03 154.00" xmlns="http://www.w3.org/2000/svg" xmlns:xlink="http://www.w3.org/1999/xlink">
<g id="graph0" class="graph" transform="scale(1 1) rotate(0) translate(4 150)">
<title>meta::always_false&lt; T &gt;</title>
<!-- Node1 -->
<g id="node1" class="node">
<title>Node1</title>
<g id="a_node1"><a xlink:title=" ">
<polygon fill="#bfbfbf" stroke="black" points="0,-0.5 0,-54.5 124.03,-54.5 124.03,-0.5 0,-0.5"/>
<text text-anchor="middle" x="62.02" y="-42.5" font-family="Helvetica,sans-Serif" font-size="10.00">meta::always_false&lt; T &gt;</text>
<polyline fill="none" stroke="black" points="0,-36.5 124.03,-36.5 "/>
<text text-anchor="middle" x="62.02" y="-24.5" font-family="Helvetica,sans-Serif" font-size="10.00"> </text>
<polyline fill="none" stroke="black" points="0,-18.5 124.03,-18.5 "/>
<text text-anchor="middle" x="62.02" y="-6.5" font-family="Helvetica,sans-Serif" font-size="10.00"> </text>
</a>
</g>
</g>
<!-- Node2 -->
<g id="node2" class="node">
<title>Node2</title>
<g id="a_node2"><a xlink:title=" ">
<polygon fill="none" stroke="#bfbfbf" points="31.22,-91.5 31.22,-145.5 92.81,-145.5 92.81,-91.5 31.22,-91.5"/>
<text text-anchor="middle" x="62.02" y="-133.5" font-family="Helvetica,sans-Serif" font-size="10.00">false_type</text>
<polyline fill="none" stroke="#bfbfbf" points="31.22,-127.5 92.81,-127.5 "/>
<text text-anchor="middle" x="62.02" y="-115.5" font-family="Helvetica,sans-Serif" font-size="10.00"> </text>
<polyline fill="none" stroke="#bfbfbf" points="31.22,-109.5 92.81,-109.5 "/>
<text text-anchor="middle" x="62.02" y="-97.5" font-family="Helvetica,sans-Serif" font-size="10.00"> </text>
</a>
</g>
</g>
<!-- Node2&#45;&gt;Node1 -->
<g id="edge1" class="edge">
<title>Node2&#45;&gt;Node1</title>
<path fill="none" stroke="midnightblue" d="M62.02,-81.12C62.02,-72.21 62.02,-62.85 62.02,-54.53"/>
<polygon fill="none" stroke="midnightblue" points="58.52,-81.28 62.02,-91.28 65.52,-81.28 58.52,-81.28"/>
</g>
</g>
</svg>
