<?xml version="1.0" encoding="UTF-8" standalone="no"?>
<!DOCTYPE svg PUBLIC "-//W3C//DTD SVG 1.1//EN"
 "http://www.w3.org/Graphics/SVG/1.1/DTD/svg11.dtd">
<!-- Generated by graphviz version 2.43.0 (0)
 -->
<!-- Title: meta::is_integral_constant&lt; T, typename &gt; Pages: 1 -->
<svg width="141pt" height="164pt"
 viewBox="0.00 0.00 140.73 164.00" xmlns="http://www.w3.org/2000/svg" xmlns:xlink="http://www.w3.org/1999/xlink">
<g id="graph0" class="graph" transform="scale(1 1) rotate(0) translate(4 160)">
<title>meta::is_integral_constant&lt; T, typename &gt;</title>
<!-- Node1 -->
<g id="node1" class="node">
<title>Node1</title>
<g id="a_node1"><a xlink:title=" ">
<polygon fill="#bfbfbf" stroke="black" points="0,-0.5 0,-64.5 132.73,-64.5 132.73,-0.5 0,-0.5"/>
<text text-anchor="start" x="8" y="-52.5" font-family="Helvetica,sans-Serif" font-size="10.00">meta::is_integral_constant</text>
<text text-anchor="middle" x="66.37" y="-42.5" font-family="Helvetica,sans-Serif" font-size="10.00">&lt; T, typename &gt;</text>
<polyline fill="none" stroke="black" points="0,-36.5 132.73,-36.5 "/>
<text text-anchor="middle" x="66.37" y="-24.5" font-family="Helvetica,sans-Serif" font-size="10.00"> </text>
<polyline fill="none" stroke="black" points="0,-18.5 132.73,-18.5 "/>
<text text-anchor="middle" x="66.37" y="-6.5" font-family="Helvetica,sans-Serif" font-size="10.00"> </text>
</a>
</g>
</g>
<!-- Node2 -->
<g id="node2" class="node">
<title>Node2</title>
<g id="a_node2"><a xlink:title=" ">
<polygon fill="none" stroke="#bfbfbf" points="35.57,-101.5 35.57,-155.5 97.16,-155.5 97.16,-101.5 35.57,-101.5"/>
<text text-anchor="middle" x="66.37" y="-143.5" font-family="Helvetica,sans-Serif" font-size="10.00">false_type</text>
<polyline fill="none" stroke="#bfbfbf" points="35.57,-137.5 97.16,-137.5 "/>
<text text-anchor="middle" x="66.37" y="-125.5" font-family="Helvetica,sans-Serif" font-size="10.00"> </text>
<polyline fill="none" stroke="#bfbfbf" points="35.57,-119.5 97.16,-119.5 "/>
<text text-anchor="middle" x="66.37" y="-107.5" font-family="Helvetica,sans-Serif" font-size="10.00"> </text>
</a>
</g>
</g>
<!-- Node2&#45;&gt;Node1 -->
<g id="edge1" class="edge">
<title>Node2&#45;&gt;Node1</title>
<path fill="none" stroke="midnightblue" d="M66.37,-91.28C66.37,-82.46 66.37,-73.1 66.37,-64.54"/>
<polygon fill="none" stroke="midnightblue" points="62.87,-91.32 66.37,-101.32 69.87,-91.32 62.87,-91.32"/>
</g>
</g>
</svg>
