<?xml version="1.0" encoding="UTF-8" standalone="no"?>
<!DOCTYPE svg PUBLIC "-//W3C//DTD SVG 1.1//EN"
 "http://www.w3.org/Graphics/SVG/1.1/DTD/svg11.dtd">
<!-- Generated by graphviz version 2.43.0 (0)
 -->
<!-- Title: eigeniter::EigenIter&lt; _Derived &gt; Pages: 1 -->
<svg width="162pt" height="324pt"
 viewBox="0.00 0.00 161.61 324.00" xmlns="http://www.w3.org/2000/svg" xmlns:xlink="http://www.w3.org/1999/xlink">
<g id="graph0" class="graph" transform="scale(1 1) rotate(0) translate(4 320)">
<title>eigeniter::EigenIter&lt; _Derived &gt;</title>
<!-- Node1 -->
<g id="node1" class="node">
<title>Node1</title>
<g id="a_node1"><a xlink:title="Class to simulate iterator behavior for Eigen types.">
<polygon fill="#bfbfbf" stroke="black" points="35.13,-0.5 35.13,-154.5 135.07,-154.5 135.07,-0.5 35.13,-0.5"/>
<text text-anchor="start" x="43.13" y="-142.5" font-family="Helvetica,sans-Serif" font-size="10.00">eigeniter::EigenIter</text>
<text text-anchor="middle" x="85.1" y="-132.5" font-family="Helvetica,sans-Serif" font-size="10.00">&lt; _Derived &gt;</text>
<polyline fill="none" stroke="black" points="35.13,-126.5 135.07,-126.5 "/>
<text text-anchor="middle" x="85.1" y="-114.5" font-family="Helvetica,sans-Serif" font-size="10.00"> </text>
<polyline fill="none" stroke="black" points="35.13,-108.5 135.07,-108.5 "/>
<text text-anchor="start" x="43.13" y="-96.5" font-family="Helvetica,sans-Serif" font-size="10.00">+ EigenIter()</text>
<text text-anchor="start" x="43.13" y="-86.5" font-family="Helvetica,sans-Serif" font-size="10.00">+ operator++()</text>
<text text-anchor="start" x="43.13" y="-76.5" font-family="Helvetica,sans-Serif" font-size="10.00">+ operator++()</text>
<text text-anchor="start" x="43.13" y="-66.5" font-family="Helvetica,sans-Serif" font-size="10.00">+ operator+=()</text>
<text text-anchor="start" x="43.13" y="-56.5" font-family="Helvetica,sans-Serif" font-size="10.00">+ operator&#45;&#45;()</text>
<text text-anchor="start" x="43.13" y="-46.5" font-family="Helvetica,sans-Serif" font-size="10.00">+ operator&#45;&#45;()</text>
<text text-anchor="start" x="43.13" y="-36.5" font-family="Helvetica,sans-Serif" font-size="10.00">+ operator&#45;=()</text>
<text text-anchor="start" x="43.13" y="-26.5" font-family="Helvetica,sans-Serif" font-size="10.00">+ operator[]()</text>
<text text-anchor="start" x="43.13" y="-16.5" font-family="Helvetica,sans-Serif" font-size="10.00">+ operator*()</text>
<text text-anchor="start" x="43.13" y="-6.5" font-family="Helvetica,sans-Serif" font-size="10.00">+ internals()</text>
</a>
</g>
</g>
<!-- Node2 -->
<g id="node2" class="node">
<title>Node2</title>
<g id="a_node2"><a xlink:title=" ">
<polygon fill="none" stroke="#bfbfbf" points="0,-261.5 0,-315.5 84.2,-315.5 84.2,-261.5 0,-261.5"/>
<text text-anchor="middle" x="42.1" y="-303.5" font-family="Helvetica,sans-Serif" font-size="10.00">difference_type</text>
<polyline fill="none" stroke="#bfbfbf" points="0,-297.5 84.2,-297.5 "/>
<text text-anchor="middle" x="42.1" y="-285.5" font-family="Helvetica,sans-Serif" font-size="10.00"> </text>
<polyline fill="none" stroke="#bfbfbf" points="0,-279.5 84.2,-279.5 "/>
<text text-anchor="middle" x="42.1" y="-267.5" font-family="Helvetica,sans-Serif" font-size="10.00"> </text>
</a>
</g>
</g>
<!-- Node2&#45;&gt;Node1 -->
<g id="edge1" class="edge">
<title>Node2&#45;&gt;Node1</title>
<path fill="none" stroke="#404040" d="M40.19,-261.25C39.11,-237.83 39.07,-202.74 45.51,-173 46,-170.72 46.55,-168.42 47.15,-166.12"/>
<polygon fill="none" stroke="#404040" points="47.15,-166.11 44.97,-159.24 50.47,-154.58 52.66,-161.45 47.15,-166.11"/>
<text text-anchor="middle" x="75.4" y="-235" font-family="Helvetica,sans-Serif" font-size="10.00"> #inner_stride</text>
<text text-anchor="middle" x="75.4" y="-225" font-family="Helvetica,sans-Serif" font-size="10.00">#nrows</text>
<text text-anchor="middle" x="75.4" y="-215" font-family="Helvetica,sans-Serif" font-size="10.00">#outer_stride</text>
<text text-anchor="middle" x="75.4" y="-205" font-family="Helvetica,sans-Serif" font-size="10.00">#outer</text>
<text text-anchor="middle" x="75.4" y="-195" font-family="Helvetica,sans-Serif" font-size="10.00">#ncols</text>
<text text-anchor="middle" x="75.4" y="-185" font-family="Helvetica,sans-Serif" font-size="10.00">#inner</text>
<text text-anchor="middle" x="75.4" y="-175" font-family="Helvetica,sans-Serif" font-size="10.00">+n</text>
</g>
<!-- Node3 -->
<g id="node3" class="node">
<title>Node3</title>
<g id="a_node3"><a xlink:title=" ">
<polygon fill="none" stroke="#bfbfbf" points="102.59,-261.5 102.59,-315.5 153.61,-315.5 153.61,-261.5 102.59,-261.5"/>
<text text-anchor="middle" x="128.1" y="-303.5" font-family="Helvetica,sans-Serif" font-size="10.00">Scalar *</text>
<polyline fill="none" stroke="#bfbfbf" points="102.59,-297.5 153.61,-297.5 "/>
<text text-anchor="middle" x="128.1" y="-285.5" font-family="Helvetica,sans-Serif" font-size="10.00"> </text>
<polyline fill="none" stroke="#bfbfbf" points="102.59,-279.5 153.61,-279.5 "/>
<text text-anchor="middle" x="128.1" y="-267.5" font-family="Helvetica,sans-Serif" font-size="10.00"> </text>
</a>
</g>
</g>
<!-- Node3&#45;&gt;Node1 -->
<g id="edge2" class="edge">
<title>Node3&#45;&gt;Node1</title>
<path fill="none" stroke="#404040" d="M123.25,-261.08C118.93,-237.85 112.34,-203.13 106.1,-173 105.65,-170.84 105.2,-168.66 104.73,-166.45"/>
<polygon fill="none" stroke="#404040" points="104.7,-166.27 99.54,-161.24 102.2,-154.54 107.36,-159.57 104.7,-166.27"/>
<text text-anchor="middle" x="133.14" y="-205" font-family="Helvetica,sans-Serif" font-size="10.00"> +data</text>
</g>
</g>
</svg>
