<?xml version="1.0" encoding="UTF-8" standalone="no"?>
<!DOCTYPE svg PUBLIC "-//W3C//DTD SVG 1.1//EN"
 "http://www.w3.org/Graphics/SVG/1.1/DTD/svg11.dtd">
<!-- Generated by graphviz version 2.43.0 (0)
 -->
<!-- Title: logging::scoped_timeit Pages: 1 -->
<svg width="289pt" height="184pt"
 viewBox="0.00 0.00 288.52 184.00" xmlns="http://www.w3.org/2000/svg" xmlns:xlink="http://www.w3.org/1999/xlink">
<g id="graph0" class="graph" transform="scale(1 1) rotate(0) translate(4 180)">
<title>logging::scoped_timeit</title>
<!-- Node1 -->
<g id="node1" class="node">
<title>Node1</title>
<g id="a_node1"><a xlink:title=" ">
<polygon fill="#bfbfbf" stroke="black" points="45.6,-0.5 45.6,-64.5 161.1,-64.5 161.1,-0.5 45.6,-0.5"/>
<text text-anchor="middle" x="103.35" y="-52.5" font-family="Helvetica,sans-Serif" font-size="10.00">logging::scoped_timeit</text>
<polyline fill="none" stroke="black" points="45.6,-46.5 161.1,-46.5 "/>
<text text-anchor="middle" x="103.35" y="-34.5" font-family="Helvetica,sans-Serif" font-size="10.00"> </text>
<polyline fill="none" stroke="black" points="45.6,-28.5 161.1,-28.5 "/>
<text text-anchor="start" x="53.6" y="-16.5" font-family="Helvetica,sans-Serif" font-size="10.00">+ scoped_timeit()</text>
<text text-anchor="start" x="53.6" y="-6.5" font-family="Helvetica,sans-Serif" font-size="10.00">+ ~scoped_timeit()</text>
</a>
</g>
</g>
<!-- Node2 -->
<g id="node2" class="node">
<title>Node2</title>
<g id="a_node2"><a xlink:title=" ">
<polygon fill="none" stroke="#bfbfbf" points="0,-116.5 0,-170.5 52.7,-170.5 52.7,-116.5 0,-116.5"/>
<text text-anchor="middle" x="26.35" y="-158.5" font-family="Helvetica,sans-Serif" font-size="10.00">double *</text>
<polyline fill="none" stroke="#bfbfbf" points="0,-152.5 52.7,-152.5 "/>
<text text-anchor="middle" x="26.35" y="-140.5" font-family="Helvetica,sans-Serif" font-size="10.00"> </text>
<polyline fill="none" stroke="#bfbfbf" points="0,-134.5 52.7,-134.5 "/>
<text text-anchor="middle" x="26.35" y="-122.5" font-family="Helvetica,sans-Serif" font-size="10.00"> </text>
</a>
</g>
</g>
<!-- Node2&#45;&gt;Node1 -->
<g id="edge1" class="edge">
<title>Node2&#45;&gt;Node1</title>
<path fill="none" stroke="#404040" d="M37.13,-116.34C42.09,-105.59 48.49,-93.27 55.7,-83 57.83,-79.97 60.14,-76.96 62.55,-73.99"/>
<polygon fill="none" stroke="#404040" points="62.71,-73.81 63.6,-66.65 70.55,-64.72 69.66,-71.88 62.71,-73.81"/>
<text text-anchor="middle" x="78.17" y="-85" font-family="Helvetica,sans-Serif" font-size="10.00"> +elapsed</text>
</g>
<!-- Node3 -->
<g id="node3" class="node">
<title>Node3</title>
<g id="a_node3"><a xlink:title=" ">
<polygon fill="none" stroke="#bfbfbf" points="70.34,-116.5 70.34,-170.5 136.36,-170.5 136.36,-116.5 70.34,-116.5"/>
<text text-anchor="middle" x="103.35" y="-158.5" font-family="Helvetica,sans-Serif" font-size="10.00">string_view</text>
<polyline fill="none" stroke="#bfbfbf" points="70.34,-152.5 136.36,-152.5 "/>
<text text-anchor="middle" x="103.35" y="-140.5" font-family="Helvetica,sans-Serif" font-size="10.00"> </text>
<polyline fill="none" stroke="#bfbfbf" points="70.34,-134.5 136.36,-134.5 "/>
<text text-anchor="middle" x="103.35" y="-122.5" font-family="Helvetica,sans-Serif" font-size="10.00"> </text>
</a>
</g>
</g>
<!-- Node3&#45;&gt;Node1 -->
<g id="edge2" class="edge">
<title>Node3&#45;&gt;Node1</title>
<path fill="none" stroke="#404040" d="M103.35,-116.39C103.35,-104.65 103.35,-90.47 103.35,-77.18"/>
<polygon fill="none" stroke="#404040" points="103.35,-76.83 99.35,-70.83 103.35,-64.83 107.35,-70.83 103.35,-76.83"/>
<text text-anchor="middle" x="117.1" y="-85" font-family="Helvetica,sans-Serif" font-size="10.00"> +msg</text>
</g>
<!-- Node4 -->
<g id="node4" class="node">
<title>Node4</title>
<g id="a_node4"><a xlink:title=" ">
<polygon fill="none" stroke="#bfbfbf" points="154.18,-111.5 154.18,-175.5 280.52,-175.5 280.52,-111.5 154.18,-111.5"/>
<text text-anchor="start" x="162.18" y="-163.5" font-family="Helvetica,sans-Serif" font-size="10.00">time_point&lt; std::chrono</text>
<text text-anchor="middle" x="217.35" y="-153.5" font-family="Helvetica,sans-Serif" font-size="10.00">::high_resolution_clock &gt;</text>
<polyline fill="none" stroke="#bfbfbf" points="154.18,-147.5 280.52,-147.5 "/>
<text text-anchor="middle" x="217.35" y="-135.5" font-family="Helvetica,sans-Serif" font-size="10.00"> </text>
<polyline fill="none" stroke="#bfbfbf" points="154.18,-129.5 280.52,-129.5 "/>
<text text-anchor="middle" x="217.35" y="-117.5" font-family="Helvetica,sans-Serif" font-size="10.00"> </text>
</a>
</g>
</g>
<!-- Node4&#45;&gt;Node1 -->
<g id="edge3" class="edge">
<title>Node4&#45;&gt;Node1</title>
<path fill="none" stroke="#404040" d="M184.68,-111.26C172.28,-99.41 157.99,-85.74 144.87,-73.2"/>
<polygon fill="none" stroke="#404040" points="144.7,-73.03 137.59,-71.78 136.02,-64.74 143.12,-65.99 144.7,-73.03"/>
<text text-anchor="middle" x="171.83" y="-85" font-family="Helvetica,sans-Serif" font-size="10.00"> +t0</text>
</g>
</g>
</svg>
