<?xml version="1.0" encoding="UTF-8" standalone="no"?>
<!DOCTYPE svg PUBLIC "-//W3C//DTD SVG 1.1//EN"
 "http://www.w3.org/Graphics/SVG/1.1/DTD/svg11.dtd">
<!-- Generated by graphviz version 2.43.0 (0)
 -->
<!-- Title: meta::internal::select_impl&lt; Cond, Rest &gt; Pages: 1 -->
<svg width="155pt" height="204pt"
 viewBox="0.00 0.00 155.47 204.00" xmlns="http://www.w3.org/2000/svg" xmlns:xlink="http://www.w3.org/1999/xlink">
<g id="graph0" class="graph" transform="scale(1 1) rotate(0) translate(4 200)">
<title>meta::internal::select_impl&lt; Cond, Rest &gt;</title>
<!-- Node1 -->
<g id="node1" class="node">
<title>Node1</title>
<g id="a_node1"><a xlink:title=" ">
<polygon fill="#bfbfbf" stroke="black" points="19.6,-0.5 19.6,-64.5 127.87,-64.5 127.87,-0.5 19.6,-0.5"/>
<text text-anchor="start" x="27.6" y="-52.5" font-family="Helvetica,sans-Serif" font-size="10.00">meta::internal::select</text>
<text text-anchor="middle" x="73.73" y="-42.5" font-family="Helvetica,sans-Serif" font-size="10.00">_impl&lt; Cond, Rest &gt;</text>
<polyline fill="none" stroke="black" points="19.6,-36.5 127.87,-36.5 "/>
<text text-anchor="middle" x="73.73" y="-24.5" font-family="Helvetica,sans-Serif" font-size="10.00"> </text>
<polyline fill="none" stroke="black" points="19.6,-18.5 127.87,-18.5 "/>
<text text-anchor="middle" x="73.73" y="-6.5" font-family="Helvetica,sans-Serif" font-size="10.00"> </text>
</a>
</g>
</g>
<!-- Node2 -->
<g id="node2" class="node">
<title>Node2</title>
<g id="a_node2"><a xlink:title=" ">
<polygon fill="none" stroke="#bfbfbf" points="0,-101.5 0,-195.5 147.47,-195.5 147.47,-101.5 0,-101.5"/>
<text text-anchor="start" x="8" y="-183.5" font-family="Helvetica,sans-Serif" font-size="10.00">std::enable_if_t&lt; std</text>
<text text-anchor="start" x="8" y="-173.5" font-family="Helvetica,sans-Serif" font-size="10.00">::is_same_v&lt; Cond::value</text>
<text text-anchor="start" x="8" y="-163.5" font-family="Helvetica,sans-Serif" font-size="10.00">_type, bool &gt;, std::conditional</text>
<text text-anchor="start" x="8" y="-153.5" font-family="Helvetica,sans-Serif" font-size="10.00">_t&lt; Cond::value, Cond, select</text>
<text text-anchor="middle" x="73.73" y="-143.5" font-family="Helvetica,sans-Serif" font-size="10.00">_impl&lt; Rest... &gt; &gt; &gt;</text>
<polyline fill="none" stroke="#bfbfbf" points="0,-137.5 147.47,-137.5 "/>
<text text-anchor="middle" x="73.73" y="-125.5" font-family="Helvetica,sans-Serif" font-size="10.00"> </text>
<polyline fill="none" stroke="#bfbfbf" points="0,-119.5 147.47,-119.5 "/>
<text text-anchor="middle" x="73.73" y="-107.5" font-family="Helvetica,sans-Serif" font-size="10.00"> </text>
</a>
</g>
</g>
<!-- Node2&#45;&gt;Node1 -->
<g id="edge1" class="edge">
<title>Node2&#45;&gt;Node1</title>
<path fill="none" stroke="midnightblue" d="M73.73,-91.21C73.73,-82.08 73.73,-72.93 73.73,-64.68"/>
<polygon fill="none" stroke="midnightblue" points="70.23,-91.46 73.73,-101.46 77.23,-91.46 70.23,-91.46"/>
</g>
</g>
</svg>
