<?xml version="1.0" encoding="UTF-8" standalone="no"?>
<!DOCTYPE svg PUBLIC "-//W3C//DTD SVG 1.1//EN"
 "http://www.w3.org/Graphics/SVG/1.1/DTD/svg11.dtd">
<!-- Generated by graphviz version 2.43.0 (0)
 -->
<!-- Title: meta::rt_is_instance&lt; T, U, F, Args &gt; Pages: 1 -->
<svg width="115pt" height="174pt"
 viewBox="0.00 0.00 115.16 174.00" xmlns="http://www.w3.org/2000/svg" xmlns:xlink="http://www.w3.org/1999/xlink">
<g id="graph0" class="graph" transform="scale(1 1) rotate(0) translate(4 170)">
<title>meta::rt_is_instance&lt; T, U, F, Args &gt;</title>
<!-- Node1 -->
<g id="node1" class="node">
<title>Node1</title>
<g id="a_node1"><a xlink:title=" ">
<polygon fill="#bfbfbf" stroke="black" points="0.83,-0.5 0.83,-64.5 106.32,-64.5 106.32,-0.5 0.83,-0.5"/>
<text text-anchor="start" x="8.83" y="-52.5" font-family="Helvetica,sans-Serif" font-size="10.00">meta::rt_is_instance</text>
<text text-anchor="middle" x="53.58" y="-42.5" font-family="Helvetica,sans-Serif" font-size="10.00">&lt; T, U, F, Args &gt;</text>
<polyline fill="none" stroke="black" points="0.83,-36.5 106.32,-36.5 "/>
<text text-anchor="middle" x="53.58" y="-24.5" font-family="Helvetica,sans-Serif" font-size="10.00"> </text>
<polyline fill="none" stroke="black" points="0.83,-18.5 106.32,-18.5 "/>
<text text-anchor="middle" x="53.58" y="-6.5" font-family="Helvetica,sans-Serif" font-size="10.00"> </text>
</a>
</g>
</g>
<!-- Node2 -->
<g id="node2" class="node">
<title>Node2</title>
<g id="a_node2"><a xlink:title=" ">
<polygon fill="none" stroke="#bfbfbf" points="0,-111.5 0,-165.5 107.16,-165.5 107.16,-111.5 0,-111.5"/>
<text text-anchor="middle" x="53.58" y="-153.5" font-family="Helvetica,sans-Serif" font-size="10.00">static constexpr bool</text>
<polyline fill="none" stroke="#bfbfbf" points="0,-147.5 107.16,-147.5 "/>
<text text-anchor="middle" x="53.58" y="-135.5" font-family="Helvetica,sans-Serif" font-size="10.00"> </text>
<polyline fill="none" stroke="#bfbfbf" points="0,-129.5 107.16,-129.5 "/>
<text text-anchor="middle" x="53.58" y="-117.5" font-family="Helvetica,sans-Serif" font-size="10.00"> </text>
</a>
</g>
</g>
<!-- Node2&#45;&gt;Node1 -->
<g id="edge1" class="edge">
<title>Node2&#45;&gt;Node1</title>
<path fill="none" stroke="#404040" d="M53.58,-111.26C53.58,-100.83 53.58,-88.55 53.58,-76.87"/>
<polygon fill="none" stroke="#404040" points="53.58,-76.54 49.58,-70.54 53.58,-64.54 57.58,-70.54 53.58,-76.54"/>
<text text-anchor="middle" x="69.84" y="-85" font-family="Helvetica,sans-Serif" font-size="10.00"> +value</text>
</g>
</g>
</svg>
