<?xml version="1.0" encoding="UTF-8" standalone="no"?>
<!DOCTYPE svg PUBLIC "-//W3C//DTD SVG 1.1//EN"
 "http://www.w3.org/Graphics/SVG/1.1/DTD/svg11.dtd">
<!-- Generated by graphviz version 2.43.0 (0)
 -->
<!-- Title: nc_utils::NcNodeMapper Pages: 1 -->
<svg width="319pt" height="254pt"
 viewBox="0.00 0.00 319.28 254.00" xmlns="http://www.w3.org/2000/svg" xmlns:xlink="http://www.w3.org/1999/xlink">
<g id="graph0" class="graph" transform="scale(1 1) rotate(0) translate(4 250)">
<title>nc_utils::NcNodeMapper</title>
<!-- Node1 -->
<g id="node1" class="node">
<title>Node1</title>
<g id="a_node1"><a xlink:title=" ">
<polygon fill="#bfbfbf" stroke="black" points="64.14,-0.5 64.14,-134.5 189.64,-134.5 189.64,-0.5 64.14,-0.5"/>
<text text-anchor="middle" x="126.89" y="-122.5" font-family="Helvetica,sans-Serif" font-size="10.00">nc_utils::NcNodeMapper</text>
<polyline fill="none" stroke="black" points="64.14,-116.5 189.64,-116.5 "/>
<text text-anchor="middle" x="126.89" y="-104.5" font-family="Helvetica,sans-Serif" font-size="10.00"> </text>
<polyline fill="none" stroke="black" points="64.14,-98.5 189.64,-98.5 "/>
<text text-anchor="start" x="72.14" y="-86.5" font-family="Helvetica,sans-Serif" font-size="10.00">+ NcNodeMapper()</text>
<text text-anchor="start" x="72.14" y="-76.5" font-family="Helvetica,sans-Serif" font-size="10.00">+ has_node()</text>
<text text-anchor="start" x="72.14" y="-66.5" font-family="Helvetica,sans-Serif" font-size="10.00">+ has_var()</text>
<text text-anchor="start" x="72.14" y="-56.5" font-family="Helvetica,sans-Serif" font-size="10.00">+ has_dim()</text>
<text text-anchor="start" x="72.14" y="-46.5" font-family="Helvetica,sans-Serif" font-size="10.00">+ has_att()</text>
<text text-anchor="start" x="72.14" y="-36.5" font-family="Helvetica,sans-Serif" font-size="10.00">+ node()</text>
<text text-anchor="start" x="72.14" y="-26.5" font-family="Helvetica,sans-Serif" font-size="10.00">+ var()</text>
<text text-anchor="start" x="72.14" y="-16.5" font-family="Helvetica,sans-Serif" font-size="10.00">+ dim()</text>
<text text-anchor="start" x="72.14" y="-6.5" font-family="Helvetica,sans-Serif" font-size="10.00">+ att()</text>
</a>
</g>
</g>
<!-- Node2 -->
<g id="node2" class="node">
<title>Node2</title>
<g id="a_node2"><a xlink:title=" ">
<polygon fill="none" stroke="#bfbfbf" points="0,-186.5 0,-240.5 53.78,-240.5 53.78,-186.5 0,-186.5"/>
<text text-anchor="middle" x="26.89" y="-228.5" font-family="Helvetica,sans-Serif" font-size="10.00">NcFile &amp;</text>
<polyline fill="none" stroke="#bfbfbf" points="0,-222.5 53.78,-222.5 "/>
<text text-anchor="middle" x="26.89" y="-210.5" font-family="Helvetica,sans-Serif" font-size="10.00"> </text>
<polyline fill="none" stroke="#bfbfbf" points="0,-204.5 53.78,-204.5 "/>
<text text-anchor="middle" x="26.89" y="-192.5" font-family="Helvetica,sans-Serif" font-size="10.00"> </text>
</a>
</g>
</g>
<!-- Node2&#45;&gt;Node1 -->
<g id="edge1" class="edge">
<title>Node2&#45;&gt;Node1</title>
<path fill="none" stroke="#404040" d="M45,-186.42C53.31,-174.46 63.64,-159.58 74.13,-144.48"/>
<polygon fill="none" stroke="#404040" points="74.18,-144.4 74.32,-137.19 81.03,-134.54 80.89,-141.75 74.18,-144.4"/>
<text text-anchor="middle" x="83.62" y="-155" font-family="Helvetica,sans-Serif" font-size="10.00"> &#45;ncfile</text>
</g>
<!-- Node3 -->
<g id="node3" class="node">
<title>Node3</title>
<g id="a_node3"><a xlink:title=" ">
<polygon fill="none" stroke="#bfbfbf" points="71.5,-181.5 71.5,-245.5 182.28,-245.5 182.28,-181.5 71.5,-181.5"/>
<text text-anchor="start" x="79.5" y="-233.5" font-family="Helvetica,sans-Serif" font-size="10.00">unordered_map&lt; key</text>
<text text-anchor="middle" x="126.89" y="-223.5" font-family="Helvetica,sans-Serif" font-size="10.00">_t, node_t &gt;</text>
<polyline fill="none" stroke="#bfbfbf" points="71.5,-217.5 182.28,-217.5 "/>
<text text-anchor="middle" x="126.89" y="-205.5" font-family="Helvetica,sans-Serif" font-size="10.00"> </text>
<polyline fill="none" stroke="#bfbfbf" points="71.5,-199.5 182.28,-199.5 "/>
<text text-anchor="middle" x="126.89" y="-187.5" font-family="Helvetica,sans-Serif" font-size="10.00"> </text>
</a>
</g>
</g>
<!-- Node3&#45;&gt;Node1 -->
<g id="edge2" class="edge">
<title>Node3&#45;&gt;Node1</title>
<path fill="none" stroke="#404040" d="M126.89,-181.25C126.89,-170.96 126.89,-159 126.89,-146.8"/>
<polygon fill="none" stroke="#404040" points="126.89,-146.57 122.89,-140.57 126.89,-134.57 130.89,-140.57 126.89,-146.57"/>
<text text-anchor="middle" x="143.57" y="-155" font-family="Helvetica,sans-Serif" font-size="10.00"> &#45;nodes</text>
</g>
<!-- Node4 -->
<g id="node4" class="node">
<title>Node4</title>
<g id="a_node4"><a xlink:title=" ">
<polygon fill="none" stroke="#bfbfbf" points="200.5,-181.5 200.5,-245.5 311.28,-245.5 311.28,-181.5 200.5,-181.5"/>
<text text-anchor="start" x="208.5" y="-233.5" font-family="Helvetica,sans-Serif" font-size="10.00">unordered_map&lt; key</text>
<text text-anchor="middle" x="255.89" y="-223.5" font-family="Helvetica,sans-Serif" font-size="10.00">_t, std::string &gt;</text>
<polyline fill="none" stroke="#bfbfbf" points="200.5,-217.5 311.28,-217.5 "/>
<text text-anchor="middle" x="255.89" y="-205.5" font-family="Helvetica,sans-Serif" font-size="10.00"> </text>
<polyline fill="none" stroke="#bfbfbf" points="200.5,-199.5 311.28,-199.5 "/>
<text text-anchor="middle" x="255.89" y="-187.5" font-family="Helvetica,sans-Serif" font-size="10.00"> </text>
</a>
</g>
</g>
<!-- Node4&#45;&gt;Node1 -->
<g id="edge3" class="edge">
<title>Node4&#45;&gt;Node1</title>
<path fill="none" stroke="#404040" d="M227.9,-181.25C217.91,-170.1 206.17,-156.99 194.3,-143.74"/>
<polygon fill="none" stroke="#404040" points="194.09,-143.51 187.1,-141.71 186.08,-134.57 193.06,-136.37 194.09,-143.51"/>
<text text-anchor="middle" x="216.98" y="-155" font-family="Helvetica,sans-Serif" font-size="10.00"> +_</text>
</g>
</g>
</svg>
