<?xml version="1.0" encoding="UTF-8" standalone="no"?>
<!DOCTYPE svg PUBLIC "-//W3C//DTD SVG 1.1//EN"
 "http://www.w3.org/Graphics/SVG/1.1/DTD/svg11.dtd">
<!-- Generated by graphviz version 2.43.0 (0)
 -->
<!-- Title: meta::is_c_str&lt; T &gt; Pages: 1 -->
<svg width="158pt" height="194pt"
 viewBox="0.00 0.00 158.45 194.00" xmlns="http://www.w3.org/2000/svg" xmlns:xlink="http://www.w3.org/1999/xlink">
<g id="graph0" class="graph" transform="scale(1 1) rotate(0) translate(4 190)">
<title>meta::is_c_str&lt; T &gt;</title>
<!-- Node1 -->
<g id="node1" class="node">
<title>Node1</title>
<g id="a_node1"><a xlink:title=" ">
<polygon fill="#bfbfbf" stroke="black" points="24.61,-0.5 24.61,-54.5 125.84,-54.5 125.84,-0.5 24.61,-0.5"/>
<text text-anchor="middle" x="75.22" y="-42.5" font-family="Helvetica,sans-Serif" font-size="10.00">meta::is_c_str&lt; T &gt;</text>
<polyline fill="none" stroke="black" points="24.61,-36.5 125.84,-36.5 "/>
<text text-anchor="middle" x="75.22" y="-24.5" font-family="Helvetica,sans-Serif" font-size="10.00"> </text>
<polyline fill="none" stroke="black" points="24.61,-18.5 125.84,-18.5 "/>
<text text-anchor="middle" x="75.22" y="-6.5" font-family="Helvetica,sans-Serif" font-size="10.00"> </text>
</a>
</g>
</g>
<!-- Node2 -->
<g id="node2" class="node">
<title>Node2</title>
<g id="a_node2"><a xlink:title=" ">
<polygon fill="none" stroke="#bfbfbf" points="0,-91.5 0,-185.5 150.45,-185.5 150.45,-91.5 0,-91.5"/>
<text text-anchor="start" x="8" y="-173.5" font-family="Helvetica,sans-Serif" font-size="10.00">std::integral_constant</text>
<text text-anchor="start" x="8" y="-163.5" font-family="Helvetica,sans-Serif" font-size="10.00">&lt; bool, std::is_same_v</text>
<text text-anchor="start" x="8" y="-153.5" font-family="Helvetica,sans-Serif" font-size="10.00">&lt; char const *, std::decay</text>
<text text-anchor="start" x="8" y="-143.5" font-family="Helvetica,sans-Serif" font-size="10.00">_t&lt; T &gt; &gt;||std::is_same_v</text>
<text text-anchor="middle" x="75.22" y="-133.5" font-family="Helvetica,sans-Serif" font-size="10.00">&lt; char *, std::decay_t&lt; T &gt; &gt; &gt;</text>
<polyline fill="none" stroke="#bfbfbf" points="0,-127.5 150.45,-127.5 "/>
<text text-anchor="middle" x="75.22" y="-115.5" font-family="Helvetica,sans-Serif" font-size="10.00"> </text>
<polyline fill="none" stroke="#bfbfbf" points="0,-109.5 150.45,-109.5 "/>
<text text-anchor="middle" x="75.22" y="-97.5" font-family="Helvetica,sans-Serif" font-size="10.00"> </text>
</a>
</g>
</g>
<!-- Node2&#45;&gt;Node1 -->
<g id="edge1" class="edge">
<title>Node2&#45;&gt;Node1</title>
<path fill="none" stroke="midnightblue" d="M75.22,-81.21C75.22,-71.92 75.22,-62.69 75.22,-54.62"/>
<polygon fill="none" stroke="midnightblue" points="71.72,-81.27 75.22,-91.27 78.72,-81.27 71.72,-81.27"/>
</g>
</g>
</svg>
