<?xml version="1.0" encoding="UTF-8" standalone="no"?>
<!DOCTYPE svg PUBLIC "-//W3C//DTD SVG 1.1//EN"
 "http://www.w3.org/Graphics/SVG/1.1/DTD/svg11.dtd">
<!-- Generated by graphviz version 2.43.0 (0)
 -->
<!-- Title: logging::internal::decorated_invoke&lt; Prefunc, Postfunc, Pargs &gt; Pages: 1 -->
<svg width="164pt" height="194pt"
 viewBox="0.00 0.00 163.81 194.00" xmlns="http://www.w3.org/2000/svg" xmlns:xlink="http://www.w3.org/1999/xlink">
<g id="graph0" class="graph" transform="scale(1 1) rotate(0) translate(4 190)">
<title>logging::internal::decorated_invoke&lt; Prefunc, Postfunc, Pargs &gt;</title>
<!-- Node1 -->
<g id="node1" class="node">
<title>Node1</title>
<g id="a_node1"><a xlink:title=" ">
<polygon fill="#bfbfbf" stroke="black" points="8.11,-0.5 8.11,-84.5 148.92,-84.5 148.92,-0.5 8.11,-0.5"/>
<text text-anchor="start" x="16.11" y="-72.5" font-family="Helvetica,sans-Serif" font-size="10.00">logging::internal::</text>
<text text-anchor="start" x="16.11" y="-62.5" font-family="Helvetica,sans-Serif" font-size="10.00">decorated_invoke&lt; Prefunc,</text>
<text text-anchor="middle" x="78.51" y="-52.5" font-family="Helvetica,sans-Serif" font-size="10.00"> Postfunc, Pargs &gt;</text>
<polyline fill="none" stroke="black" points="8.11,-46.5 148.92,-46.5 "/>
<text text-anchor="middle" x="78.51" y="-34.5" font-family="Helvetica,sans-Serif" font-size="10.00"> </text>
<polyline fill="none" stroke="black" points="8.11,-28.5 148.92,-28.5 "/>
<text text-anchor="start" x="16.11" y="-16.5" font-family="Helvetica,sans-Serif" font-size="10.00">+ decorated_invoke()</text>
<text text-anchor="start" x="16.11" y="-6.5" font-family="Helvetica,sans-Serif" font-size="10.00">+ operator()()</text>
</a>
</g>
</g>
<!-- Node2 -->
<g id="node2" class="node">
<title>Node2</title>
<g id="a_node2"><a xlink:title=" ">
<polygon fill="none" stroke="#bfbfbf" points="0,-131.5 0,-185.5 71.03,-185.5 71.03,-131.5 0,-131.5"/>
<text text-anchor="middle" x="35.51" y="-173.5" font-family="Helvetica,sans-Serif" font-size="10.00">Postfunc &amp;&amp;</text>
<polyline fill="none" stroke="#bfbfbf" points="0,-167.5 71.03,-167.5 "/>
<text text-anchor="middle" x="35.51" y="-155.5" font-family="Helvetica,sans-Serif" font-size="10.00"> </text>
<polyline fill="none" stroke="#bfbfbf" points="0,-149.5 71.03,-149.5 "/>
<text text-anchor="middle" x="35.51" y="-137.5" font-family="Helvetica,sans-Serif" font-size="10.00"> </text>
</a>
</g>
</g>
<!-- Node2&#45;&gt;Node1 -->
<g id="edge1" class="edge">
<title>Node2&#45;&gt;Node1</title>
<path fill="none" stroke="#404040" d="M45.38,-131.35C49.33,-120.88 54.02,-108.44 58.62,-96.26"/>
<polygon fill="none" stroke="#404040" points="58.73,-95.95 57.1,-88.93 62.96,-84.73 64.59,-91.75 58.73,-95.95"/>
<text text-anchor="middle" x="70.27" y="-105" font-family="Helvetica,sans-Serif" font-size="10.00"> +post</text>
</g>
<!-- Node3 -->
<g id="node3" class="node">
<title>Node3</title>
<g id="a_node3"><a xlink:title=" ">
<polygon fill="none" stroke="#bfbfbf" points="89.22,-131.5 89.22,-185.5 155.81,-185.5 155.81,-131.5 89.22,-131.5"/>
<text text-anchor="middle" x="122.51" y="-173.5" font-family="Helvetica,sans-Serif" font-size="10.00">Prefunc &amp;&amp;</text>
<polyline fill="none" stroke="#bfbfbf" points="89.22,-167.5 155.81,-167.5 "/>
<text text-anchor="middle" x="122.51" y="-155.5" font-family="Helvetica,sans-Serif" font-size="10.00"> </text>
<polyline fill="none" stroke="#bfbfbf" points="89.22,-149.5 155.81,-149.5 "/>
<text text-anchor="middle" x="122.51" y="-137.5" font-family="Helvetica,sans-Serif" font-size="10.00"> </text>
</a>
</g>
</g>
<!-- Node3&#45;&gt;Node1 -->
<g id="edge2" class="edge">
<title>Node3&#45;&gt;Node1</title>
<path fill="none" stroke="#404040" d="M112.42,-131.35C108.38,-120.88 103.58,-108.44 98.88,-96.26"/>
<polygon fill="none" stroke="#404040" points="98.75,-95.92 92.86,-91.76 94.43,-84.73 100.32,-88.88 98.75,-95.92"/>
<text text-anchor="middle" x="115.05" y="-105" font-family="Helvetica,sans-Serif" font-size="10.00"> +pre</text>
</g>
</g>
</svg>
