<?xml version="1.0" encoding="UTF-8" standalone="no"?>
<!DOCTYPE svg PUBLIC "-//W3C//DTD SVG 1.1//EN"
 "http://www.w3.org/Graphics/SVG/1.1/DTD/svg11.dtd">
<!-- Generated by graphviz version 2.43.0 (0)
 -->
<!-- Title: fmt::formatter&lt; mpi_utils::Span&lt; Ts... &gt;, char &gt; Pages: 1 -->
<svg width="134pt" height="174pt"
 viewBox="0.00 0.00 133.51 174.00" xmlns="http://www.w3.org/2000/svg" xmlns:xlink="http://www.w3.org/1999/xlink">
<g id="graph0" class="graph" transform="scale(1 1) rotate(0) translate(4 170)">
<title>fmt::formatter&lt; mpi_utils::Span&lt; Ts... &gt;, char &gt;</title>
<!-- Node1 -->
<g id="node1" class="node">
<title>Node1</title>
<g id="a_node1"><a xlink:title=" ">
<polygon fill="#bfbfbf" stroke="black" points="12.66,-0.5 12.66,-74.5 112.85,-74.5 112.85,-0.5 12.66,-0.5"/>
<text text-anchor="start" x="20.66" y="-62.5" font-family="Helvetica,sans-Serif" font-size="10.00">fmt::formatter&lt; mpi</text>
<text text-anchor="start" x="20.66" y="-52.5" font-family="Helvetica,sans-Serif" font-size="10.00">_utils::Span&lt; Ts...</text>
<text text-anchor="middle" x="62.75" y="-42.5" font-family="Helvetica,sans-Serif" font-size="10.00"> &gt;, char &gt;</text>
<polyline fill="none" stroke="black" points="12.66,-36.5 112.85,-36.5 "/>
<text text-anchor="middle" x="62.75" y="-24.5" font-family="Helvetica,sans-Serif" font-size="10.00"> </text>
<polyline fill="none" stroke="black" points="12.66,-18.5 112.85,-18.5 "/>
<text text-anchor="start" x="20.66" y="-6.5" font-family="Helvetica,sans-Serif" font-size="10.00">+ format()</text>
</a>
</g>
</g>
<!-- Node2 -->
<g id="node2" class="node">
<title>Node2</title>
<g id="a_node2"><a xlink:title=" ">
<polygon fill="none" stroke="#bfbfbf" points="0,-111.5 0,-165.5 125.51,-165.5 125.51,-111.5 0,-111.5"/>
<text text-anchor="middle" x="62.75" y="-153.5" font-family="Helvetica,sans-Serif" font-size="10.00">nullspec_formatter_base</text>
<polyline fill="none" stroke="#bfbfbf" points="0,-147.5 125.51,-147.5 "/>
<text text-anchor="middle" x="62.75" y="-135.5" font-family="Helvetica,sans-Serif" font-size="10.00"> </text>
<polyline fill="none" stroke="#bfbfbf" points="0,-129.5 125.51,-129.5 "/>
<text text-anchor="middle" x="62.75" y="-117.5" font-family="Helvetica,sans-Serif" font-size="10.00"> </text>
</a>
</g>
</g>
<!-- Node2&#45;&gt;Node1 -->
<g id="edge1" class="edge">
<title>Node2&#45;&gt;Node1</title>
<path fill="none" stroke="midnightblue" d="M62.75,-101.3C62.75,-92.65 62.75,-83.41 62.75,-74.76"/>
<polygon fill="none" stroke="midnightblue" points="59.25,-101.49 62.75,-111.49 66.25,-101.49 59.25,-101.49"/>
</g>
</g>
</svg>
