<?xml version="1.0" encoding="UTF-8" standalone="no"?>
<!DOCTYPE svg PUBLIC "-//W3C//DTD SVG 1.1//EN"
 "http://www.w3.org/Graphics/SVG/1.1/DTD/svg11.dtd">
<!-- Generated by graphviz version 2.43.0 (0)
 -->
<!-- Title: eigen_utils::internal::is_vector_block&lt; Eigen::VectorBlock&lt; VectorType, Size &gt; &gt; Pages: 1 -->
<svg width="144pt" height="184pt"
 viewBox="0.00 0.00 143.80 184.00" xmlns="http://www.w3.org/2000/svg" xmlns:xlink="http://www.w3.org/1999/xlink">
<g id="graph0" class="graph" transform="scale(1 1) rotate(0) translate(4 180)">
<title>eigen_utils::internal::is_vector_block&lt; Eigen::VectorBlock&lt; VectorType, Size &gt; &gt;</title>
<!-- Node1 -->
<g id="node1" class="node">
<title>Node1</title>
<g id="a_node1"><a xlink:title=" ">
<polygon fill="#bfbfbf" stroke="black" points="0,-0.5 0,-84.5 135.8,-84.5 135.8,-0.5 0,-0.5"/>
<text text-anchor="start" x="8" y="-72.5" font-family="Helvetica,sans-Serif" font-size="10.00">eigen_utils::internal</text>
<text text-anchor="start" x="8" y="-62.5" font-family="Helvetica,sans-Serif" font-size="10.00">::is_vector_block&lt; Eigen</text>
<text text-anchor="start" x="8" y="-52.5" font-family="Helvetica,sans-Serif" font-size="10.00">::VectorBlock&lt; VectorType,</text>
<text text-anchor="middle" x="67.9" y="-42.5" font-family="Helvetica,sans-Serif" font-size="10.00"> Size &gt; &gt;</text>
<polyline fill="none" stroke="black" points="0,-36.5 135.8,-36.5 "/>
<text text-anchor="middle" x="67.9" y="-24.5" font-family="Helvetica,sans-Serif" font-size="10.00"> </text>
<polyline fill="none" stroke="black" points="0,-18.5 135.8,-18.5 "/>
<text text-anchor="middle" x="67.9" y="-6.5" font-family="Helvetica,sans-Serif" font-size="10.00"> </text>
</a>
</g>
</g>
<!-- Node2 -->
<g id="node2" class="node">
<title>Node2</title>
<g id="a_node2"><a xlink:title=" ">
<polygon fill="none" stroke="#bfbfbf" points="29.6,-121.5 29.6,-175.5 106.2,-175.5 106.2,-121.5 29.6,-121.5"/>
<text text-anchor="middle" x="67.9" y="-163.5" font-family="Helvetica,sans-Serif" font-size="10.00">std::true_type</text>
<polyline fill="none" stroke="#bfbfbf" points="29.6,-157.5 106.2,-157.5 "/>
<text text-anchor="middle" x="67.9" y="-145.5" font-family="Helvetica,sans-Serif" font-size="10.00"> </text>
<polyline fill="none" stroke="#bfbfbf" points="29.6,-139.5 106.2,-139.5 "/>
<text text-anchor="middle" x="67.9" y="-127.5" font-family="Helvetica,sans-Serif" font-size="10.00"> </text>
</a>
</g>
</g>
<!-- Node2&#45;&gt;Node1 -->
<g id="edge1" class="edge">
<title>Node2&#45;&gt;Node1</title>
<path fill="none" stroke="midnightblue" d="M67.9,-111.2C67.9,-102.65 67.9,-93.47 67.9,-84.72"/>
<polygon fill="none" stroke="midnightblue" points="64.4,-111.26 67.9,-121.26 71.4,-111.26 64.4,-111.26"/>
</g>
</g>
</svg>
