<?xml version="1.0" encoding="UTF-8" standalone="no"?>
<!DOCTYPE svg PUBLIC "-//W3C//DTD SVG 1.1//EN"
 "http://www.w3.org/Graphics/SVG/1.1/DTD/svg11.dtd">
<!-- Generated by graphviz version 2.43.0 (0)
 -->
<!-- Title: grppiex::Modes&lt; modes &gt;::Modes_impl&lt; ms &gt; Pages: 1 -->
<svg width="134pt" height="194pt"
 viewBox="0.00 0.00 133.98 194.00" xmlns="http://www.w3.org/2000/svg" xmlns:xlink="http://www.w3.org/1999/xlink">
<g id="graph0" class="graph" transform="scale(1 1) rotate(0) translate(4 190)">
<title>grppiex::Modes&lt; modes &gt;::Modes_impl&lt; ms &gt;</title>
<!-- Node1 -->
<g id="node1" class="node">
<title>Node1</title>
<g id="a_node1"><a xlink:title=" ">
<polygon fill="#bfbfbf" stroke="black" points="0,-0.5 0,-74.5 123,-74.5 123,-0.5 0,-0.5"/>
<text text-anchor="start" x="8" y="-62.5" font-family="Helvetica,sans-Serif" font-size="10.00">grppiex::Modes&lt; modes</text>
<text text-anchor="middle" x="61.5" y="-52.5" font-family="Helvetica,sans-Serif" font-size="10.00"> &gt;::Modes_impl&lt; ms &gt;</text>
<polyline fill="none" stroke="black" points="0,-46.5 123,-46.5 "/>
<text text-anchor="middle" x="61.5" y="-34.5" font-family="Helvetica,sans-Serif" font-size="10.00"> </text>
<polyline fill="none" stroke="black" points="0,-28.5 123,-28.5 "/>
<text text-anchor="start" x="8" y="-16.5" font-family="Helvetica,sans-Serif" font-size="10.00">&#45; get_supported_filter()</text>
<text text-anchor="start" x="8" y="-6.5" font-family="Helvetica,sans-Serif" font-size="10.00">&#45; get_supported()</text>
</a>
</g>
</g>
<!-- Node2 -->
<g id="node2" class="node">
<title>Node2</title>
<g id="a_node2"><a xlink:title=" ">
<polygon fill="none" stroke="#bfbfbf" points="7.64,-131.5 7.64,-185.5 115.36,-185.5 115.36,-131.5 7.64,-131.5"/>
<text text-anchor="middle" x="61.5" y="-173.5" font-family="Helvetica,sans-Serif" font-size="10.00">constexpr static auto</text>
<polyline fill="none" stroke="#bfbfbf" points="7.64,-167.5 115.36,-167.5 "/>
<text text-anchor="middle" x="61.5" y="-155.5" font-family="Helvetica,sans-Serif" font-size="10.00"> </text>
<polyline fill="none" stroke="#bfbfbf" points="7.64,-149.5 115.36,-149.5 "/>
<text text-anchor="middle" x="61.5" y="-137.5" font-family="Helvetica,sans-Serif" font-size="10.00"> </text>
</a>
</g>
</g>
<!-- Node2&#45;&gt;Node1 -->
<g id="edge1" class="edge">
<title>Node2&#45;&gt;Node1</title>
<path fill="none" stroke="#404040" d="M61.5,-131.38C61.5,-118.45 61.5,-102.4 61.5,-87.3"/>
<polygon fill="none" stroke="#404040" points="61.5,-86.94 57.5,-80.94 61.5,-74.94 65.5,-80.94 61.5,-86.94"/>
<text text-anchor="middle" x="93.74" y="-105" font-family="Helvetica,sans-Serif" font-size="10.00"> &#45;m_supported</text>
<text text-anchor="middle" x="93.74" y="-95" font-family="Helvetica,sans-Serif" font-size="10.00">+supported</text>
</g>
</g>
</svg>
