<?xml version="1.0" encoding="UTF-8" standalone="no"?>
<!DOCTYPE svg PUBLIC "-//W3C//DTD SVG 1.1//EN"
 "http://www.w3.org/Graphics/SVG/1.1/DTD/svg11.dtd">
<!-- Generated by graphviz version 2.43.0 (0)
 -->
<!-- Title: eigen_op::UnaryMatrixOp&lt; Derived, CArgs &gt; Pages: 1 -->
<svg width="138pt" height="204pt"
 viewBox="0.00 0.00 137.95 204.00" xmlns="http://www.w3.org/2000/svg" xmlns:xlink="http://www.w3.org/1999/xlink">
<g id="graph0" class="graph" transform="scale(1 1) rotate(0) translate(4 200)">
<title>eigen_op::UnaryMatrixOp&lt; Derived, CArgs &gt;</title>
<!-- Node1 -->
<g id="node1" class="node">
<title>Node1</title>
<g id="a_node1"><a xlink:title=" ">
<polygon fill="#bfbfbf" stroke="black" points="0,-0.5 0,-94.5 129.95,-94.5 129.95,-0.5 0,-0.5"/>
<text text-anchor="start" x="8" y="-82.5" font-family="Helvetica,sans-Serif" font-size="10.00">eigen_op::UnaryMatrixOp</text>
<text text-anchor="middle" x="64.97" y="-72.5" font-family="Helvetica,sans-Serif" font-size="10.00">&lt; Derived, CArgs &gt;</text>
<polyline fill="none" stroke="black" points="0,-66.5 129.95,-66.5 "/>
<text text-anchor="middle" x="64.97" y="-54.5" font-family="Helvetica,sans-Serif" font-size="10.00"> </text>
<polyline fill="none" stroke="black" points="0,-48.5 129.95,-48.5 "/>
<text text-anchor="start" x="8" y="-36.5" font-family="Helvetica,sans-Serif" font-size="10.00">+ UnaryMatrixOp()</text>
<text text-anchor="start" x="8" y="-26.5" font-family="Helvetica,sans-Serif" font-size="10.00">+ UnaryMatrixOp()</text>
<text text-anchor="start" x="8" y="-16.5" font-family="Helvetica,sans-Serif" font-size="10.00">+ run()</text>
<text text-anchor="start" x="8" y="-6.5" font-family="Helvetica,sans-Serif" font-size="10.00">+ run()</text>
</a>
</g>
</g>
<!-- Node2 -->
<g id="node2" class="node">
<title>Node2</title>
<g id="a_node2"><a xlink:title=" ">
<polygon fill="none" stroke="#bfbfbf" points="26.4,-141.5 26.4,-195.5 103.54,-195.5 103.54,-141.5 26.4,-141.5"/>
<text text-anchor="middle" x="64.97" y="-183.5" font-family="Helvetica,sans-Serif" font-size="10.00">const Context</text>
<polyline fill="none" stroke="#bfbfbf" points="26.4,-177.5 103.54,-177.5 "/>
<text text-anchor="middle" x="64.97" y="-165.5" font-family="Helvetica,sans-Serif" font-size="10.00"> </text>
<polyline fill="none" stroke="#bfbfbf" points="26.4,-159.5 103.54,-159.5 "/>
<text text-anchor="middle" x="64.97" y="-147.5" font-family="Helvetica,sans-Serif" font-size="10.00"> </text>
</a>
</g>
</g>
<!-- Node2&#45;&gt;Node1 -->
<g id="edge1" class="edge">
<title>Node2&#45;&gt;Node1</title>
<path fill="none" stroke="#404040" d="M64.97,-141.38C64.97,-131.12 64.97,-118.9 64.97,-106.75"/>
<polygon fill="none" stroke="#404040" points="64.97,-106.69 60.97,-100.69 64.97,-94.69 68.97,-100.69 64.97,-106.69"/>
<text text-anchor="middle" x="85.4" y="-115" font-family="Helvetica,sans-Serif" font-size="10.00"> +context</text>
</g>
</g>
</svg>
