<?xml version="1.0" encoding="UTF-8" standalone="no"?>
<!DOCTYPE svg PUBLIC "-//W3C//DTD SVG 1.1//EN"
 "http://www.w3.org/Graphics/SVG/1.1/DTD/svg11.dtd">
<!-- Generated by graphviz version 2.43.0 (0)
 -->
<!-- Title: meta::is_instance&lt; T&lt; Ts... &gt;, T &gt; Pages: 1 -->
<svg width="108pt" height="164pt"
 viewBox="0.00 0.00 107.66 164.00" xmlns="http://www.w3.org/2000/svg" xmlns:xlink="http://www.w3.org/1999/xlink">
<g id="graph0" class="graph" transform="scale(1 1) rotate(0) translate(4 160)">
<title>meta::is_instance&lt; T&lt; Ts... &gt;, T &gt;</title>
<!-- Node1 -->
<g id="node1" class="node">
<title>Node1</title>
<g id="a_node1"><a xlink:title=" ">
<polygon fill="#bfbfbf" stroke="black" points="0,-0.5 0,-64.5 99.66,-64.5 99.66,-0.5 0,-0.5"/>
<text text-anchor="start" x="8" y="-52.5" font-family="Helvetica,sans-Serif" font-size="10.00">meta::is_instance&lt;</text>
<text text-anchor="middle" x="49.83" y="-42.5" font-family="Helvetica,sans-Serif" font-size="10.00"> T&lt; Ts... &gt;, T &gt;</text>
<polyline fill="none" stroke="black" points="0,-36.5 99.66,-36.5 "/>
<text text-anchor="middle" x="49.83" y="-24.5" font-family="Helvetica,sans-Serif" font-size="10.00"> </text>
<polyline fill="none" stroke="black" points="0,-18.5 99.66,-18.5 "/>
<text text-anchor="middle" x="49.83" y="-6.5" font-family="Helvetica,sans-Serif" font-size="10.00"> </text>
</a>
</g>
</g>
<!-- Node2 -->
<g id="node2" class="node">
<title>Node2</title>
<g id="a_node2"><a xlink:title=" ">
<polygon fill="none" stroke="#bfbfbf" points="20.98,-101.5 20.98,-155.5 78.68,-155.5 78.68,-101.5 20.98,-101.5"/>
<text text-anchor="middle" x="49.83" y="-143.5" font-family="Helvetica,sans-Serif" font-size="10.00">true_type</text>
<polyline fill="none" stroke="#bfbfbf" points="20.98,-137.5 78.68,-137.5 "/>
<text text-anchor="middle" x="49.83" y="-125.5" font-family="Helvetica,sans-Serif" font-size="10.00"> </text>
<polyline fill="none" stroke="#bfbfbf" points="20.98,-119.5 78.68,-119.5 "/>
<text text-anchor="middle" x="49.83" y="-107.5" font-family="Helvetica,sans-Serif" font-size="10.00"> </text>
</a>
</g>
</g>
<!-- Node2&#45;&gt;Node1 -->
<g id="edge1" class="edge">
<title>Node2&#45;&gt;Node1</title>
<path fill="none" stroke="midnightblue" d="M49.83,-91.28C49.83,-82.46 49.83,-73.1 49.83,-64.54"/>
<polygon fill="none" stroke="midnightblue" points="46.33,-91.32 49.83,-101.32 53.33,-91.32 46.33,-91.32"/>
</g>
</g>
</svg>
