<?xml version="1.0" encoding="UTF-8" standalone="no"?>
<!DOCTYPE svg PUBLIC "-//W3C//DTD SVG 1.1//EN"
 "http://www.w3.org/Graphics/SVG/1.1/DTD/svg11.dtd">
<!-- Generated by graphviz version 2.43.0 (0)
 -->
<!-- Title: meta::has_insert&lt; T, typename &gt; Pages: 1 -->
<svg width="114pt" height="164pt"
 viewBox="0.00 0.00 114.15 164.00" xmlns="http://www.w3.org/2000/svg" xmlns:xlink="http://www.w3.org/1999/xlink">
<g id="graph0" class="graph" transform="scale(1 1) rotate(0) translate(4 160)">
<title>meta::has_insert&lt; T, typename &gt;</title>
<!-- Node1 -->
<g id="node1" class="node">
<title>Node1</title>
<g id="a_node1"><a xlink:title=" ">
<polygon fill="#bfbfbf" stroke="black" points="0,-0.5 0,-64.5 106.15,-64.5 106.15,-0.5 0,-0.5"/>
<text text-anchor="start" x="8" y="-52.5" font-family="Helvetica,sans-Serif" font-size="10.00">meta::has_insert&lt; T,</text>
<text text-anchor="middle" x="53.07" y="-42.5" font-family="Helvetica,sans-Serif" font-size="10.00"> typename &gt;</text>
<polyline fill="none" stroke="black" points="0,-36.5 106.15,-36.5 "/>
<text text-anchor="middle" x="53.07" y="-24.5" font-family="Helvetica,sans-Serif" font-size="10.00"> </text>
<polyline fill="none" stroke="black" points="0,-18.5 106.15,-18.5 "/>
<text text-anchor="middle" x="53.07" y="-6.5" font-family="Helvetica,sans-Serif" font-size="10.00"> </text>
</a>
</g>
</g>
<!-- Node2 -->
<g id="node2" class="node">
<title>Node2</title>
<g id="a_node2"><a xlink:title=" ">
<polygon fill="none" stroke="#bfbfbf" points="22.28,-101.5 22.28,-155.5 83.87,-155.5 83.87,-101.5 22.28,-101.5"/>
<text text-anchor="middle" x="53.07" y="-143.5" font-family="Helvetica,sans-Serif" font-size="10.00">false_type</text>
<polyline fill="none" stroke="#bfbfbf" points="22.28,-137.5 83.87,-137.5 "/>
<text text-anchor="middle" x="53.07" y="-125.5" font-family="Helvetica,sans-Serif" font-size="10.00"> </text>
<polyline fill="none" stroke="#bfbfbf" points="22.28,-119.5 83.87,-119.5 "/>
<text text-anchor="middle" x="53.07" y="-107.5" font-family="Helvetica,sans-Serif" font-size="10.00"> </text>
</a>
</g>
</g>
<!-- Node2&#45;&gt;Node1 -->
<g id="edge1" class="edge">
<title>Node2&#45;&gt;Node1</title>
<path fill="none" stroke="midnightblue" d="M53.07,-91.28C53.07,-82.46 53.07,-73.1 53.07,-64.54"/>
<polygon fill="none" stroke="midnightblue" points="49.57,-91.32 53.07,-101.32 56.57,-91.32 49.57,-91.32"/>
</g>
</g>
</svg>
