<?xml version="1.0" encoding="UTF-8" standalone="no"?>
<!DOCTYPE svg PUBLIC "-//W3C//DTD SVG 1.1//EN"
 "http://www.w3.org/Graphics/SVG/1.1/DTD/svg11.dtd">
<!-- Generated by graphviz version 2.43.0 (0)
 -->
<!-- Title: mpi_utils::env::WinMemoryModel_meta Pages: 1 -->
<svg width="250pt" height="224pt"
 viewBox="0.00 0.00 250.44 224.00" xmlns="http://www.w3.org/2000/svg" xmlns:xlink="http://www.w3.org/1999/xlink">
<g id="graph0" class="graph" transform="scale(1 1) rotate(0) translate(4 220)">
<title>mpi_utils::env::WinMemoryModel_meta</title>
<!-- Node1 -->
<g id="node1" class="node">
<title>Node1</title>
<g id="a_node1"><a xlink:title=" ">
<polygon fill="#bfbfbf" stroke="black" points="50.84,-0.5 50.84,-64.5 186.87,-64.5 186.87,-0.5 50.84,-0.5"/>
<text text-anchor="start" x="58.84" y="-52.5" font-family="Helvetica,sans-Serif" font-size="10.00">mpi_utils::env::WinMemory</text>
<text text-anchor="middle" x="118.86" y="-42.5" font-family="Helvetica,sans-Serif" font-size="10.00">Model_meta</text>
<polyline fill="none" stroke="black" points="50.84,-36.5 186.87,-36.5 "/>
<text text-anchor="middle" x="118.86" y="-24.5" font-family="Helvetica,sans-Serif" font-size="10.00"> </text>
<polyline fill="none" stroke="black" points="50.84,-18.5 186.87,-18.5 "/>
<text text-anchor="middle" x="118.86" y="-6.5" font-family="Helvetica,sans-Serif" font-size="10.00"> </text>
</a>
</g>
</g>
<!-- Node2 -->
<g id="node2" class="node">
<title>Node2</title>
<g id="a_node2"><a xlink:title=" ">
<polygon fill="none" stroke="#bfbfbf" points="0,-161.5 0,-215.5 107.71,-215.5 107.71,-161.5 0,-161.5"/>
<text text-anchor="middle" x="53.86" y="-203.5" font-family="Helvetica,sans-Serif" font-size="10.00">constexpr static auto</text>
<polyline fill="none" stroke="#bfbfbf" points="0,-197.5 107.71,-197.5 "/>
<text text-anchor="middle" x="53.86" y="-185.5" font-family="Helvetica,sans-Serif" font-size="10.00"> </text>
<polyline fill="none" stroke="#bfbfbf" points="0,-179.5 107.71,-179.5 "/>
<text text-anchor="middle" x="53.86" y="-167.5" font-family="Helvetica,sans-Serif" font-size="10.00"> </text>
</a>
</g>
</g>
<!-- Node2&#45;&gt;Node1 -->
<g id="edge1" class="edge">
<title>Node2&#45;&gt;Node1</title>
<path fill="none" stroke="#404040" d="M64.88,-161.38C74.77,-137.95 89.46,-103.15 101.02,-75.76"/>
<polygon fill="none" stroke="#404040" points="101.09,-75.59 99.74,-68.51 105.76,-64.54 107.11,-71.62 101.09,-75.59"/>
<text text-anchor="middle" x="128.85" y="-135" font-family="Helvetica,sans-Serif" font-size="10.00"> +to_name</text>
<text text-anchor="middle" x="128.85" y="-125" font-family="Helvetica,sans-Serif" font-size="10.00">+from_value</text>
<text text-anchor="middle" x="128.85" y="-115" font-family="Helvetica,sans-Serif" font-size="10.00">+from_index</text>
<text text-anchor="middle" x="128.85" y="-105" font-family="Helvetica,sans-Serif" font-size="10.00">+internal_size</text>
<text text-anchor="middle" x="128.85" y="-95" font-family="Helvetica,sans-Serif" font-size="10.00">+from_name</text>
<text text-anchor="middle" x="128.85" y="-85" font-family="Helvetica,sans-Serif" font-size="10.00">+meta</text>
</g>
<!-- Node3 -->
<g id="node3" class="node">
<title>Node3</title>
<g id="a_node3"><a xlink:title=" ">
<polygon fill="none" stroke="#bfbfbf" points="125.28,-161.5 125.28,-215.5 242.44,-215.5 242.44,-161.5 125.28,-161.5"/>
<text text-anchor="middle" x="183.86" y="-203.5" font-family="Helvetica,sans-Serif" font-size="10.00">constexpr static auto &amp;</text>
<polyline fill="none" stroke="#bfbfbf" points="125.28,-197.5 242.44,-197.5 "/>
<text text-anchor="middle" x="183.86" y="-185.5" font-family="Helvetica,sans-Serif" font-size="10.00"> </text>
<polyline fill="none" stroke="#bfbfbf" points="125.28,-179.5 242.44,-179.5 "/>
<text text-anchor="middle" x="183.86" y="-167.5" font-family="Helvetica,sans-Serif" font-size="10.00"> </text>
</a>
</g>
</g>
<!-- Node3&#45;&gt;Node1 -->
<g id="edge2" class="edge">
<title>Node3&#45;&gt;Node1</title>
<path fill="none" stroke="#404040" d="M182.03,-161.4C179.66,-139.5 174.24,-107.9 161.86,-83 160.41,-80.09 158.75,-77.21 156.95,-74.4"/>
<polygon fill="none" stroke="#404040" points="156.87,-74.29 150.12,-71.74 149.88,-64.53 156.63,-67.08 156.87,-74.29"/>
<text text-anchor="middle" x="202.61" y="-120" font-family="Helvetica,sans-Serif" font-size="10.00"> +name</text>
<text text-anchor="middle" x="202.61" y="-110" font-family="Helvetica,sans-Serif" font-size="10.00">+members</text>
<text text-anchor="middle" x="202.61" y="-100" font-family="Helvetica,sans-Serif" font-size="10.00">+string</text>
</g>
</g>
</svg>
