<?xml version="1.0" encoding="UTF-8" standalone="no"?>
<!DOCTYPE svg PUBLIC "-//W3C//DTD SVG 1.1//EN"
 "http://www.w3.org/Graphics/SVG/1.1/DTD/svg11.dtd">
<!-- Generated by graphviz version 2.43.0 (0)
 -->
<!-- Title: eigen_utils::internal::is_vector_block&lt; T &gt; Pages: 1 -->
<svg width="121pt" height="164pt"
 viewBox="0.00 0.00 121.47 164.00" xmlns="http://www.w3.org/2000/svg" xmlns:xlink="http://www.w3.org/1999/xlink">
<g id="graph0" class="graph" transform="scale(1 1) rotate(0) translate(4 160)">
<title>eigen_utils::internal::is_vector_block&lt; T &gt;</title>
<!-- Node1 -->
<g id="node1" class="node">
<title>Node1</title>
<g id="a_node1"><a xlink:title=" ">
<polygon fill="#bfbfbf" stroke="black" points="0,-0.5 0,-64.5 113.47,-64.5 113.47,-0.5 0,-0.5"/>
<text text-anchor="start" x="8" y="-52.5" font-family="Helvetica,sans-Serif" font-size="10.00">eigen_utils::internal</text>
<text text-anchor="middle" x="56.74" y="-42.5" font-family="Helvetica,sans-Serif" font-size="10.00">::is_vector_block&lt; T &gt;</text>
<polyline fill="none" stroke="black" points="0,-36.5 113.47,-36.5 "/>
<text text-anchor="middle" x="56.74" y="-24.5" font-family="Helvetica,sans-Serif" font-size="10.00"> </text>
<polyline fill="none" stroke="black" points="0,-18.5 113.47,-18.5 "/>
<text text-anchor="middle" x="56.74" y="-6.5" font-family="Helvetica,sans-Serif" font-size="10.00"> </text>
</a>
</g>
</g>
<!-- Node2 -->
<g id="node2" class="node">
<title>Node2</title>
<g id="a_node2"><a xlink:title=" ">
<polygon fill="none" stroke="#bfbfbf" points="25.94,-101.5 25.94,-155.5 87.53,-155.5 87.53,-101.5 25.94,-101.5"/>
<text text-anchor="middle" x="56.74" y="-143.5" font-family="Helvetica,sans-Serif" font-size="10.00">false_type</text>
<polyline fill="none" stroke="#bfbfbf" points="25.94,-137.5 87.53,-137.5 "/>
<text text-anchor="middle" x="56.74" y="-125.5" font-family="Helvetica,sans-Serif" font-size="10.00"> </text>
<polyline fill="none" stroke="#bfbfbf" points="25.94,-119.5 87.53,-119.5 "/>
<text text-anchor="middle" x="56.74" y="-107.5" font-family="Helvetica,sans-Serif" font-size="10.00"> </text>
</a>
</g>
</g>
<!-- Node2&#45;&gt;Node1 -->
<g id="edge1" class="edge">
<title>Node2&#45;&gt;Node1</title>
<path fill="none" stroke="midnightblue" d="M56.74,-91.28C56.74,-82.46 56.74,-73.1 56.74,-64.54"/>
<polygon fill="none" stroke="midnightblue" points="53.24,-91.32 56.74,-101.32 60.24,-91.32 53.24,-91.32"/>
</g>
</g>
</svg>
