<?xml version="1.0" encoding="UTF-8" standalone="no"?>
<!DOCTYPE svg PUBLIC "-//W3C//DTD SVG 1.1//EN"
 "http://www.w3.org/Graphics/SVG/1.1/DTD/svg11.dtd">
<!-- Generated by graphviz version 2.43.0 (0)
 -->
<!-- Title: meta::overload&lt; Ts &gt; Pages: 1 -->
<svg width="117pt" height="154pt"
 viewBox="0.00 0.00 117.21 154.00" xmlns="http://www.w3.org/2000/svg" xmlns:xlink="http://www.w3.org/1999/xlink">
<g id="graph0" class="graph" transform="scale(1 1) rotate(0) translate(4 150)">
<title>meta::overload&lt; Ts &gt;</title>
<!-- Node1 -->
<g id="node1" class="node">
<title>Node1</title>
<g id="a_node1"><a xlink:title=" ">
<polygon fill="#bfbfbf" stroke="black" points="0,-0.5 0,-54.5 109.21,-54.5 109.21,-0.5 0,-0.5"/>
<text text-anchor="middle" x="54.6" y="-42.5" font-family="Helvetica,sans-Serif" font-size="10.00">meta::overload&lt; Ts &gt;</text>
<polyline fill="none" stroke="black" points="0,-36.5 109.21,-36.5 "/>
<text text-anchor="middle" x="54.6" y="-24.5" font-family="Helvetica,sans-Serif" font-size="10.00"> </text>
<polyline fill="none" stroke="black" points="0,-18.5 109.21,-18.5 "/>
<text text-anchor="middle" x="54.6" y="-6.5" font-family="Helvetica,sans-Serif" font-size="10.00"> </text>
</a>
</g>
</g>
<!-- Node2 -->
<g id="node2" class="node">
<title>Node2</title>
<g id="a_node2"><a xlink:href="classmeta_1_1_ts.html" target="_top" xlink:title=" ">
<polygon fill="none" stroke="black" points="40.1,-91.5 40.1,-145.5 69.1,-145.5 69.1,-91.5 40.1,-91.5"/>
<text text-anchor="middle" x="54.6" y="-133.5" font-family="Helvetica,sans-Serif" font-size="10.00">Ts</text>
<polyline fill="none" stroke="black" points="40.1,-127.5 69.1,-127.5 "/>
<text text-anchor="middle" x="54.6" y="-115.5" font-family="Helvetica,sans-Serif" font-size="10.00"> </text>
<polyline fill="none" stroke="black" points="40.1,-109.5 69.1,-109.5 "/>
<text text-anchor="middle" x="54.6" y="-97.5" font-family="Helvetica,sans-Serif" font-size="10.00"> </text>
</a>
</g>
</g>
<!-- Node2&#45;&gt;Node1 -->
<g id="edge1" class="edge">
<title>Node2&#45;&gt;Node1</title>
<path fill="none" stroke="midnightblue" d="M54.6,-81.12C54.6,-72.21 54.6,-62.85 54.6,-54.53"/>
<polygon fill="none" stroke="midnightblue" points="51.1,-81.28 54.6,-91.28 58.1,-81.28 51.1,-81.28"/>
</g>
</g>
</svg>
