<?xml version="1.0" encoding="UTF-8" standalone="no"?>
<!DOCTYPE svg PUBLIC "-//W3C//DTD SVG 1.1//EN"
 "http://www.w3.org/Graphics/SVG/1.1/DTD/svg11.dtd">
<!-- Generated by graphviz version 2.43.0 (0)
 -->
<!-- Title: mpi_utils::env Pages: 1 -->
<svg width="102pt" height="184pt"
 viewBox="0.00 0.00 101.53 184.00" xmlns="http://www.w3.org/2000/svg" xmlns:xlink="http://www.w3.org/1999/xlink">
<g id="graph0" class="graph" transform="scale(1 1) rotate(0) translate(4 180)">
<title>mpi_utils::env</title>
<!-- Node1 -->
<g id="node1" class="node">
<title>Node1</title>
<g id="a_node1"><a xlink:title=" ">
<polygon fill="#bfbfbf" stroke="black" points="0,-0.5 0,-84.5 93.53,-84.5 93.53,-0.5 0,-0.5"/>
<text text-anchor="middle" x="46.76" y="-72.5" font-family="Helvetica,sans-Serif" font-size="10.00">mpi_utils::env</text>
<polyline fill="none" stroke="black" points="0,-66.5 93.53,-66.5 "/>
<text text-anchor="start" x="8" y="-54.5" font-family="Helvetica,sans-Serif" font-size="10.00">+ api_version</text>
<text text-anchor="start" x="8" y="-44.5" font-family="Helvetica,sans-Serif" font-size="10.00">+ lib_info</text>
<text text-anchor="start" x="8" y="-34.5" font-family="Helvetica,sans-Serif" font-size="10.00">+ memory_model</text>
<polyline fill="none" stroke="black" points="0,-28.5 93.53,-28.5 "/>
<text text-anchor="start" x="8" y="-16.5" font-family="Helvetica,sans-Serif" font-size="10.00">+ env()</text>
<text text-anchor="start" x="8" y="-6.5" font-family="Helvetica,sans-Serif" font-size="10.00">+ ~env()</text>
</a>
</g>
</g>
<!-- Node2 -->
<g id="node2" class="node">
<title>Node2</title>
<g id="a_node2"><a xlink:title=" ">
<polygon fill="none" stroke="#bfbfbf" points="18.76,-121.5 18.76,-175.5 74.77,-175.5 74.77,-121.5 18.76,-121.5"/>
<text text-anchor="middle" x="46.76" y="-163.5" font-family="Helvetica,sans-Serif" font-size="10.00">mxx::env</text>
<polyline fill="none" stroke="#bfbfbf" points="18.76,-157.5 74.77,-157.5 "/>
<text text-anchor="middle" x="46.76" y="-145.5" font-family="Helvetica,sans-Serif" font-size="10.00"> </text>
<polyline fill="none" stroke="#bfbfbf" points="18.76,-139.5 74.77,-139.5 "/>
<text text-anchor="middle" x="46.76" y="-127.5" font-family="Helvetica,sans-Serif" font-size="10.00"> </text>
</a>
</g>
</g>
<!-- Node2&#45;&gt;Node1 -->
<g id="edge1" class="edge">
<title>Node2&#45;&gt;Node1</title>
<path fill="none" stroke="midnightblue" d="M46.76,-111.2C46.76,-102.65 46.76,-93.47 46.76,-84.72"/>
<polygon fill="none" stroke="midnightblue" points="43.26,-111.26 46.76,-121.26 50.26,-111.26 43.26,-111.26"/>
</g>
</g>
</svg>
