<?xml version="1.0" encoding="UTF-8" standalone="no"?>
<!DOCTYPE svg PUBLIC "-//W3C//DTD SVG 1.1//EN"
 "http://www.w3.org/Graphics/SVG/1.1/DTD/svg11.dtd">
<!-- Generated by graphviz version 2.43.0 (0)
 -->
<!-- Title: mpi_utils::env Pages: 1 -->
<svg width="339pt" height="174pt"
 viewBox="0.00 0.00 339.23 174.00" xmlns="http://www.w3.org/2000/svg" xmlns:xlink="http://www.w3.org/1999/xlink">
<g id="graph0" class="graph" transform="scale(1 1) rotate(0) translate(4 170)">
<title>mpi_utils::env</title>
<!-- Node1 -->
<g id="node1" class="node">
<title>Node1</title>
<g id="a_node1"><a xlink:title=" ">
<polygon fill="#bfbfbf" stroke="black" points="122.44,-0.5 122.44,-64.5 199.57,-64.5 199.57,-0.5 122.44,-0.5"/>
<text text-anchor="middle" x="161" y="-52.5" font-family="Helvetica,sans-Serif" font-size="10.00">mpi_utils::env</text>
<polyline fill="none" stroke="black" points="122.44,-46.5 199.57,-46.5 "/>
<text text-anchor="middle" x="161" y="-34.5" font-family="Helvetica,sans-Serif" font-size="10.00"> </text>
<polyline fill="none" stroke="black" points="122.44,-28.5 199.57,-28.5 "/>
<text text-anchor="start" x="130.44" y="-16.5" font-family="Helvetica,sans-Serif" font-size="10.00">+ env()</text>
<text text-anchor="start" x="130.44" y="-6.5" font-family="Helvetica,sans-Serif" font-size="10.00">+ ~env()</text>
</a>
</g>
</g>
<!-- Node2 -->
<g id="node2" class="node">
<title>Node2</title>
<g id="a_node2"><a xlink:title=" ">
<polygon fill="none" stroke="#bfbfbf" points="0,-111.5 0,-165.5 56.01,-165.5 56.01,-111.5 0,-111.5"/>
<text text-anchor="middle" x="28" y="-153.5" font-family="Helvetica,sans-Serif" font-size="10.00">mxx::env</text>
<polyline fill="none" stroke="#bfbfbf" points="0,-147.5 56.01,-147.5 "/>
<text text-anchor="middle" x="28" y="-135.5" font-family="Helvetica,sans-Serif" font-size="10.00"> </text>
<polyline fill="none" stroke="#bfbfbf" points="0,-129.5 56.01,-129.5 "/>
<text text-anchor="middle" x="28" y="-117.5" font-family="Helvetica,sans-Serif" font-size="10.00"> </text>
</a>
</g>
</g>
<!-- Node2&#45;&gt;Node1 -->
<g id="edge1" class="edge">
<title>Node2&#45;&gt;Node1</title>
<path fill="none" stroke="midnightblue" d="M64.18,-109.21C82.17,-95.15 103.92,-78.14 122.25,-63.81"/>
<polygon fill="none" stroke="midnightblue" points="61.93,-106.53 56.21,-115.44 66.24,-112.04 61.93,-106.53"/>
</g>
<!-- Node3 -->
<g id="node3" class="node">
<title>Node3</title>
<g id="a_node3"><a xlink:title=" ">
<polygon fill="none" stroke="#bfbfbf" points="73.71,-111.5 73.71,-165.5 150.3,-165.5 150.3,-111.5 73.71,-111.5"/>
<text text-anchor="middle" x="112" y="-153.5" font-family="Helvetica,sans-Serif" font-size="10.00">pair&lt; int, int &gt;</text>
<polyline fill="none" stroke="#bfbfbf" points="73.71,-147.5 150.3,-147.5 "/>
<text text-anchor="middle" x="112" y="-135.5" font-family="Helvetica,sans-Serif" font-size="10.00"> </text>
<polyline fill="none" stroke="#bfbfbf" points="73.71,-129.5 150.3,-129.5 "/>
<text text-anchor="middle" x="112" y="-117.5" font-family="Helvetica,sans-Serif" font-size="10.00"> </text>
</a>
</g>
</g>
<!-- Node3&#45;&gt;Node1 -->
<g id="edge2" class="edge">
<title>Node3&#45;&gt;Node1</title>
<path fill="none" stroke="#404040" d="M118.09,-111.42C120.67,-102.22 124.06,-91.94 128.24,-83 129.46,-80.4 130.8,-77.78 132.22,-75.18"/>
<polygon fill="none" stroke="#404040" points="132.33,-74.99 131.92,-67.79 138.41,-64.64 138.82,-71.84 132.33,-74.99"/>
<text text-anchor="middle" x="157.89" y="-85" font-family="Helvetica,sans-Serif" font-size="10.00"> +api_version</text>
</g>
<!-- Node4 -->
<g id="node4" class="node">
<title>Node4</title>
<g id="a_node4"><a xlink:title=" ">
<polygon fill="none" stroke="#bfbfbf" points="168.72,-111.5 168.72,-165.5 265.29,-165.5 265.29,-111.5 168.72,-111.5"/>
<text text-anchor="middle" x="217" y="-153.5" font-family="Helvetica,sans-Serif" font-size="10.00">WinMemoryModel</text>
<polyline fill="none" stroke="#bfbfbf" points="168.72,-147.5 265.29,-147.5 "/>
<text text-anchor="middle" x="217" y="-135.5" font-family="Helvetica,sans-Serif" font-size="10.00"> </text>
<polyline fill="none" stroke="#bfbfbf" points="168.72,-129.5 265.29,-129.5 "/>
<text text-anchor="middle" x="217" y="-117.5" font-family="Helvetica,sans-Serif" font-size="10.00"> </text>
</a>
</g>
</g>
<!-- Node4&#45;&gt;Node1 -->
<g id="edge3" class="edge">
<title>Node4&#45;&gt;Node1</title>
<path fill="none" stroke="#404040" d="M203.19,-111.41C198.4,-102.4 192.99,-92.25 188,-83 186.65,-80.49 185.26,-77.91 183.85,-75.31"/>
<polygon fill="none" stroke="#404040" points="183.78,-75.18 177.4,-71.81 178.05,-64.63 184.43,-67.99 183.78,-75.18"/>
<text text-anchor="middle" x="230.77" y="-85" font-family="Helvetica,sans-Serif" font-size="10.00"> +memory_model</text>
</g>
<!-- Node5 -->
<g id="node5" class="node">
<title>Node5</title>
<g id="a_node5"><a xlink:title=" ">
<polygon fill="none" stroke="#bfbfbf" points="290.78,-111.5 290.78,-165.5 331.23,-165.5 331.23,-111.5 290.78,-111.5"/>
<text text-anchor="middle" x="311" y="-153.5" font-family="Helvetica,sans-Serif" font-size="10.00">string</text>
<polyline fill="none" stroke="#bfbfbf" points="290.78,-147.5 331.23,-147.5 "/>
<text text-anchor="middle" x="311" y="-135.5" font-family="Helvetica,sans-Serif" font-size="10.00"> </text>
<polyline fill="none" stroke="#bfbfbf" points="290.78,-129.5 331.23,-129.5 "/>
<text text-anchor="middle" x="311" y="-117.5" font-family="Helvetica,sans-Serif" font-size="10.00"> </text>
</a>
</g>
</g>
<!-- Node5&#45;&gt;Node1 -->
<g id="edge4" class="edge">
<title>Node5&#45;&gt;Node1</title>
<path fill="none" stroke="#404040" d="M297.38,-111.28C291.27,-101.43 283.33,-90.75 274,-83 255.73,-67.81 232.07,-56.49 211.13,-48.53"/>
<polygon fill="none" stroke="#404040" points="211.11,-48.53 204.11,-50.26 199.82,-44.46 206.82,-42.73 211.11,-48.53"/>
<text text-anchor="middle" x="302.16" y="-85" font-family="Helvetica,sans-Serif" font-size="10.00"> +lib_info</text>
</g>
</g>
</svg>
