<?xml version="1.0" encoding="UTF-8" standalone="no"?>
<!DOCTYPE svg PUBLIC "-//W3C//DTD SVG 1.1//EN"
 "http://www.w3.org/Graphics/SVG/1.1/DTD/svg11.dtd">
<!-- Generated by graphviz version 2.43.0 (0)
 -->
<!-- Title: datatable::ParseError Pages: 1 -->
<svg width="119pt" height="154pt"
 viewBox="0.00 0.00 119.05 154.00" xmlns="http://www.w3.org/2000/svg" xmlns:xlink="http://www.w3.org/1999/xlink">
<g id="graph0" class="graph" transform="scale(1 1) rotate(0) translate(4 150)">
<title>datatable::ParseError</title>
<!-- Node1 -->
<g id="node1" class="node">
<title>Node1</title>
<g id="a_node1"><a xlink:title="Throw when there is an error in parsing data table.">
<polygon fill="#bfbfbf" stroke="black" points="0,-0.5 0,-54.5 111.05,-54.5 111.05,-0.5 0,-0.5"/>
<text text-anchor="middle" x="55.52" y="-42.5" font-family="Helvetica,sans-Serif" font-size="10.00">datatable::ParseError</text>
<polyline fill="none" stroke="black" points="0,-36.5 111.05,-36.5 "/>
<text text-anchor="middle" x="55.52" y="-24.5" font-family="Helvetica,sans-Serif" font-size="10.00"> </text>
<polyline fill="none" stroke="black" points="0,-18.5 111.05,-18.5 "/>
<text text-anchor="middle" x="55.52" y="-6.5" font-family="Helvetica,sans-Serif" font-size="10.00"> </text>
</a>
</g>
</g>
<!-- Node2 -->
<g id="node2" class="node">
<title>Node2</title>
<g id="a_node2"><a xlink:title=" ">
<polygon fill="none" stroke="#bfbfbf" points="8.07,-91.5 8.07,-145.5 102.98,-145.5 102.98,-91.5 8.07,-91.5"/>
<text text-anchor="middle" x="55.52" y="-133.5" font-family="Helvetica,sans-Serif" font-size="10.00">std::runtime_error</text>
<polyline fill="none" stroke="#bfbfbf" points="8.07,-127.5 102.98,-127.5 "/>
<text text-anchor="middle" x="55.52" y="-115.5" font-family="Helvetica,sans-Serif" font-size="10.00"> </text>
<polyline fill="none" stroke="#bfbfbf" points="8.07,-109.5 102.98,-109.5 "/>
<text text-anchor="middle" x="55.52" y="-97.5" font-family="Helvetica,sans-Serif" font-size="10.00"> </text>
</a>
</g>
</g>
<!-- Node2&#45;&gt;Node1 -->
<g id="edge1" class="edge">
<title>Node2&#45;&gt;Node1</title>
<path fill="none" stroke="midnightblue" d="M55.52,-81.12C55.52,-72.21 55.52,-62.85 55.52,-54.53"/>
<polygon fill="none" stroke="midnightblue" points="52.02,-81.28 55.52,-91.28 59.02,-81.28 52.02,-81.28"/>
</g>
</g>
</svg>
