<?xml version="1.0" encoding="UTF-8" standalone="no"?>
<!DOCTYPE svg PUBLIC "-//W3C//DTD SVG 1.1//EN"
 "http://www.w3.org/Graphics/SVG/1.1/DTD/svg11.dtd">
<!-- Generated by graphviz version 2.43.0 (0)
 -->
<!-- Title: fmt::formatter&lt; mpi_utils::env, char &gt; Pages: 1 -->
<svg width="108pt" height="174pt"
 viewBox="0.00 0.00 108.18 174.00" xmlns="http://www.w3.org/2000/svg" xmlns:xlink="http://www.w3.org/1999/xlink">
<g id="graph0" class="graph" transform="scale(1 1) rotate(0) translate(4 170)">
<title>fmt::formatter&lt; mpi_utils::env, char &gt;</title>
<!-- Node1 -->
<g id="node1" class="node">
<title>Node1</title>
<g id="a_node1"><a xlink:title=" ">
<polygon fill="#bfbfbf" stroke="black" points="0,-0.5 0,-64.5 100.18,-64.5 100.18,-0.5 0,-0.5"/>
<text text-anchor="start" x="8" y="-52.5" font-family="Helvetica,sans-Serif" font-size="10.00">fmt::formatter&lt; mpi</text>
<text text-anchor="middle" x="50.09" y="-42.5" font-family="Helvetica,sans-Serif" font-size="10.00">_utils::env, char &gt;</text>
<polyline fill="none" stroke="black" points="0,-36.5 100.18,-36.5 "/>
<text text-anchor="middle" x="50.09" y="-24.5" font-family="Helvetica,sans-Serif" font-size="10.00"> </text>
<polyline fill="none" stroke="black" points="0,-18.5 100.18,-18.5 "/>
<text text-anchor="start" x="8" y="-6.5" font-family="Helvetica,sans-Serif" font-size="10.00">+ format()</text>
</a>
</g>
</g>
<!-- Node2 -->
<g id="node2" class="node">
<title>Node2</title>
<g id="a_node2"><a xlink:title=" ">
<polygon fill="none" stroke="#bfbfbf" points="2.35,-101.5 2.35,-165.5 97.83,-165.5 97.83,-101.5 2.35,-101.5"/>
<text text-anchor="start" x="10.35" y="-153.5" font-family="Helvetica,sans-Serif" font-size="10.00">fmt_utils::nullspec</text>
<text text-anchor="middle" x="50.09" y="-143.5" font-family="Helvetica,sans-Serif" font-size="10.00">_formatter_base</text>
<polyline fill="none" stroke="#bfbfbf" points="2.35,-137.5 97.83,-137.5 "/>
<text text-anchor="middle" x="50.09" y="-125.5" font-family="Helvetica,sans-Serif" font-size="10.00"> </text>
<polyline fill="none" stroke="#bfbfbf" points="2.35,-119.5 97.83,-119.5 "/>
<text text-anchor="middle" x="50.09" y="-107.5" font-family="Helvetica,sans-Serif" font-size="10.00"> </text>
</a>
</g>
</g>
<!-- Node2&#45;&gt;Node1 -->
<g id="edge1" class="edge">
<title>Node2&#45;&gt;Node1</title>
<path fill="none" stroke="midnightblue" d="M50.09,-91.28C50.09,-82.42 50.09,-73.19 50.09,-64.78"/>
<polygon fill="none" stroke="midnightblue" points="46.59,-91.45 50.09,-101.45 53.59,-91.45 46.59,-91.45"/>
</g>
</g>
</svg>
